<?xml version="1.0" encoding="UTF-8" standalone="no"?>
<!-- Created with Inkscape (http://www.inkscape.org/) -->

<svg
   xmlns:dc="http://purl.org/dc/elements/1.1/"
   xmlns:cc="http://creativecommons.org/ns#"
   xmlns:rdf="http://www.w3.org/1999/02/22-rdf-syntax-ns#"
   xmlns:svg="http://www.w3.org/2000/svg"
   xmlns="http://www.w3.org/2000/svg"
   xmlns:inkscape="http://www.inkscape.org/namespaces/inkscape"
   version="1.1"
   width="113.4375"
   height="135.64999"
   id="svg2"
   xml:space="preserve"><metadata
     id="metadata8"><rdf:RDF><cc:Work
         rdf:about=""><dc:format>image/svg+xml</dc:format><dc:type
           rdf:resource="http://purl.org/dc/dcmitype/StillImage" /></cc:Work></rdf:RDF></metadata><defs
     id="defs6" /><g
     transform="matrix(1.25,0,0,-1.25,0,135.65)"
     id="g10"><g
       transform="scale(0.1,0.1)"
       id="g12"><path
         d="m 147.484,534.699 c -1.847,0.789 -3.832,1.356 -5.621,2.188 -37.5,17.07 -67.6599,39.422 -90.5114,67.011 -22.1289,26.688 -39.1797,55.911 -51.34769375,87.571 l 0,-428.918 C 10.2812,281.621 24.2344,304.875 41.9336,332.422 82.7656,396.504 117.754,464.043 147.484,534.699"
         inkscape:connector-curvature="0"
         id="path14"
         style="fill:#2f3192;fill-opacity:1;fill-rule:nonzero;stroke:none" /><path
         d="m 192.285,1013.76 c -5.64,-8.02 -23.558,-19.17 -53.769,-33.428 C 102.867,963.531 72.7773,935.48 48.1602,896.184 23.5586,856.898 12.4258,813.133 14.793,764.922 16.3672,733.07 23.1484,706.613 35.1836,685.551 47.168,664.473 64.5352,648.664 87.2344,638.172 109.926,627.66 135.238,620.703 163.047,617.285 c 5.152,-0.644 10.707,-1.094 16.23,-1.551 l 13.95,36.536 c 10.488,27.222 25.296,68.152 44.429,122.808 21.364,62.613 45.43,127.063 72.223,193.375 17.891,44.337 45.82,79.607 83.777,105.787 6.25,4.32 12.539,7.84 18.86,10.99 l -191.016,0 c -1.914,-6.49 -4.234,-13.8 -7.07,-22.15 -9.121,-26.68 -16.45,-43.1 -22.145,-49.32"
         inkscape:connector-curvature="0"
         id="path16"
         style="fill:#2f3192;fill-opacity:1;fill-rule:nonzero;stroke:none" /><path
         d="M 81.7148,1085.23 0,1085.23 0,959.758 c 9.48047,25.734 21.832,50.102 37.1836,73.062 13.7305,20.5 28.5703,37.97 44.5312,52.41"
         inkscape:connector-curvature="0"
         id="path18"
         style="fill:#2f3192;fill-opacity:1;fill-rule:nonzero;stroke:none" /><path
         d="m 295.543,620.715 c 75.027,13.719 136.777,51.762 185.223,114.109 40.859,52.559 62.91,110.508 66.621,173.711 0.215,6.25 0.402,12.238 0.508,17.961 0,5.43 0.128,10.84 -0.118,16.356 -0.039,0.882 -0.058,1.785 -0.117,2.652 -0.176,2.93 -0.488,5.82 -0.828,8.68 -2.668,20.949 -11.152,36.539 -35.168,46.246 -39.023,15.75 -82.676,1.95 -130.883,-41.446 C 349.902,931.645 308.77,854.434 257.41,727.316 249.742,708.293 239,680.453 225.172,643.812 l -10.555,-29.699 c 15.113,-0.207 31.09,0.039 48.379,0.887 l 32.547,5.715"
         inkscape:connector-curvature="0"
         id="path20"
         style="fill:#2f3192;fill-opacity:1;fill-rule:nonzero;stroke:none" /><path
         d="m 850.941,452.93 c -16.375,0 -26.804,8.703 -31.289,15.879 l -0.39,0 0,-13.614 -16.133,0 0,141.965 16.875,0 0,-58.672 0.344,0 c 5.222,8.887 14.402,15.516 30.398,15.516 26.621,0 39.543,-22.91 39.543,-48.828 0,-26.504 -11.711,-52.246 -39.348,-52.246 z M 825.777,201.965 c -12.402,0 -24.531,3.73 -36.183,7.723 l 2.519,24.785 c 8.606,-3.739 23.77,-9.071 36.719,-9.071 14.414,0 34.629,8.516 34.629,30.371 0,41.571 -75.918,30.098 -75.918,87.918 0,33.028 24.836,50.598 56.699,50.598 11.641,0 25.528,-2.121 37.727,-6.652 l -3.586,-24.5 c -12.891,5.332 -19.981,7.734 -33.164,7.734 -14.16,0 -30.86,-5.332 -30.86,-24.777 0,-35.711 75.93,-27.449 75.93,-88.719 0,-39.707 -29.074,-55.41 -64.512,-55.41 z m -66.269,253.23 0,12.5 -0.363,0 c -3.926,-5.867 -12.911,-14.765 -28.407,-14.765 -19.758,0 -33.625,9.074 -33.625,30.09 0,24.238 25.188,31.804 42.637,31.804 6.621,0 11.32,0 17.988,-0.371 0,16.641 -5.781,25.156 -22.656,25.156 -9.551,0 -19.812,-3.789 -26.621,-9.843 l -0.938,15.148 c 8.497,5.313 18.567,9.09 30.266,9.09 26.25,0 36.863,-13.621 36.863,-39.942 l 0,-39.941 c 0,-10.976 0.352,-16.082 0.684,-18.926 l -15.828,0 z m -55.442,-172.246 0,-77.793 -25.293,0 0,77.793 -69.101,108.176 29.64,0 52.579,-83.41 51.394,83.41 29.61,0 -68.829,-108.176 z m -93.398,304.375 18.008,0 0,-115.488 52.531,0 0,-16.648 -70.539,0 0,132.136 z m -27.539,-382.168 -25.301,0 0,84.707 -84.512,0 0,-84.707 -25.304,0 0,185.957 25.304,0 0,-77.793 84.512,0 0,77.793 25.301,0 0,-185.957 z m -228.477,74.328 -24.832,0 0,-74.328 -25.3,0 0,185.957 46.32,0 c 36.211,0 66.312,-13.328 66.312,-55.683 0,-41.289 -30.644,-55.946 -62.5,-55.946 z m 165.625,805.746 c 34.024,-14.63 46.993,-26.87 61.7,-63.8 16.972,-42.703 24.726,-83.563 24.589,-145.145 l -0.183,0.102 C 606.508,834.68 601.117,792.375 589.516,749.406 576,699.496 553.695,656.895 522.613,621.613 c -26.367,-29.57 -59.32,-55.129 -98.84,-76.691 -39.531,-21.551 -78.851,-33.289 -118.011,-35.203 l -35.489,-1.086 c -31.949,1.172 -61.351,6.035 -88.652,13.976 -30.918,-79.757 -47.258,-146.691 -48.648,-200.441 -1.899,-73.895 -6.192,-119.031 -12.86,-135.535 -1.183,-2.91 -2.679,-5.449 -4.09,-8.078 l 790.661,0 0,906.675 -386.407,0 z m -168.906,-717.562 -21.551,0 0,-64.746 25.063,0 c 15.707,0 35.449,8.269 35.449,32.762 0,23.468 -23.312,31.984 -38.961,31.984 z m 495.781,171.934 c -18.367,0 -27.148,-18.352 -27.148,-36.329 0,-16.093 7.891,-35.968 26.953,-35.968 18.145,0 25.703,21.398 25.371,36.523 0.332,17.422 -6.816,35.774 -25.176,35.774 z M 715.121,483.02 c 0,-10.227 9.336,-15.715 17.07,-15.715 16.7,0 25.547,10.988 25.547,25.363 l 0,8.535 c -3.621,0 -7.226,0.359 -10.82,0.359 -9.129,0 -31.797,-1.503 -31.797,-18.542"
         inkscape:connector-curvature="0"
         id="path22"
         style="fill:#2f3192;fill-opacity:1;fill-rule:nonzero;stroke:none" /><path
         d="m 0.00390625,115.109 60.17579375,0 0,-14.269 -44.8086,0 0,-33.0783 40.8008,0 0,-14.25 -40.8008,0 0,-37.2812 44.8086,0 0,-14.28909 -60.17579375,0 0,113.16759"
         inkscape:connector-curvature="0"
         id="path24"
         style="fill:#2f3192;fill-opacity:1;fill-rule:nonzero;stroke:none" /><path
         d="m 84.6758,115.109 20.9612,0 47.39,-91.1207 0.328,0 0,91.1207 15.391,0 0,-113.16759 -19.707,0 -48.652,93.07029 -0.321,0 0,-93.07029 -15.3902,0 0,113.16759"
         inkscape:connector-curvature="0"
         id="path26"
         style="fill:#2f3192;fill-opacity:1;fill-rule:nonzero;stroke:none" /><path
         d="m 244.836,98.0977 c -7.902,3.2303 -12.219,4.6873 -20.231,4.6873 -8.582,0 -18.761,-3.242 -18.761,-15.0584 0,-21.7383 46.211,-16.6954 46.211,-54.0078 C 252.055,9.55859 234.355,0 212.781,0 205.227,0 197.848,2.26953 190.766,4.71875 l 1.539,15.07035 c 5.199,-2.2774 14.457,-5.5079 22.32,-5.5079 8.777,0 21.09,5.168 21.09,18.4688 0,25.3008 -46.168,18.3203 -46.168,53.4922 0,20.1168 15.086,30.8088 34.484,30.8088 7.082,0 15.524,-1.289 22.934,-4.051 l -2.129,-14.9023"
         inkscape:connector-curvature="0"
         id="path28"
         style="fill:#2f3192;fill-opacity:1;fill-rule:nonzero;stroke:none" /><path
         d="m 369.965,13.6094 -0.277,0 C 365.805,7.46094 356.887,0 342.895,0 c -23.739,0 -33.739,22.2188 -33.739,44.75 0,22.2109 11.086,41.8242 33.903,41.8242 13.664,0 21.535,-5.6758 26.027,-13.293 l 0.289,0 0,50.2538 14.465,0 0,-121.59359 -13.875,0 0,11.66799 z m -23.699,-1.2891 c 16.339,0 23.109,17.0313 23.109,30.8086 0,15.4023 -7.559,31.1211 -23.266,31.1211 -15.722,0 -21.863,-15.5703 -21.543,-30.6406 -0.32,-12.9688 6.133,-31.2891 21.7,-31.2891"
         inkscape:connector-curvature="0"
         id="path30"
         style="fill:#2f3192;fill-opacity:1;fill-rule:nonzero;stroke:none" /><path
         d="M 468.676,5.35938 C 463.129,3.23828 456.793,0 443.891,0 c -27.86,0 -40.649,17.832 -40.649,44.75 0,24.4805 14.602,41.8242 36.817,41.8242 26.14,0 34.632,-20.1054 34.632,-46.6953 l -56.062,0 c 0,-16.3594 12.164,-27.5586 25.891,-27.5586 9.55,0 20.601,5.1992 24.156,8.2813 l 0,-15.24222 z m -9.375,45.87892 c 0,12.6406 -7.11,23.0117 -19.578,23.0117 -14.161,0 -20,-12.3281 -21.094,-23.0117 l 40.672,0"
         inkscape:connector-curvature="0"
         id="path32"
         style="fill:#2f3192;fill-opacity:1;fill-rule:nonzero;stroke:none" /><path
         d="m 538.082,115.109 15.43,0 0,-98.8785 44.949,0 0,-14.28909 -60.379,0 0,113.16759"
         inkscape:connector-curvature="0"
         id="path34"
         style="fill:#2f3192;fill-opacity:1;fill-rule:nonzero;stroke:none" /><path
         d="m 631.098,49.3008 -42.051,65.8082 18.047,0 32.011,-50.7379 31.27,50.7379 18.008,0 -41.856,-65.8082 0,-47.35939 -15.429,0 0,47.35939"
         inkscape:connector-curvature="0"
         id="path36"
         style="fill:#2f3192;fill-opacity:1;fill-rule:nonzero;stroke:none" /><path
         d="m 749.984,117.051 c 32.637,0 51.711,-24.9612 51.711,-58.5315 C 801.695,24.1602 782.777,0 749.984,0 c -32.82,0 -51.738,24.1602 -51.738,58.5195 0,33.5703 19.055,58.5315 51.738,58.5315 m 0,-102.7815 c 24.778,0 35.411,21.7188 35.411,44.25 0,23.0313 -11.7,44.4215 -35.411,44.2655 -23.73,0.156 -35.41,-21.2342 -35.41,-44.2655 0,-22.5312 10.625,-44.25 35.41,-44.25"
         inkscape:connector-curvature="0"
         id="path38"
         style="fill:#2f3192;fill-opacity:1;fill-rule:nonzero;stroke:none" /><path
         d="m 823.422,115.109 20.937,0 47.442,-91.1207 0.293,0 0,91.1207 15.383,0 0,-113.16759 -19.7,0 -48.66,93.07029 -0.324,0 0,-93.07029 -15.371,0 0,113.16759"
         inkscape:connector-curvature="0"
         id="path40"
         style="fill:#2f3192;fill-opacity:1;fill-rule:nonzero;stroke:none" /></g></g></svg>