<?xml version="1.0" encoding="UTF-8" standalone="no"?>
<!-- Created with Inkscape (http://www.inkscape.org/) -->

<svg
   width="170mm"
   height="70mm"
   viewBox="0 0 170 70"
   version="1.1"
   id="svg1"
   xml:space="preserve"
   inkscape:version="1.2.2 (b0a8486541, 2022-12-01)"
   sodipodi:docname="microscopic_complexity.svg"
   inkscape:export-filename="microscopic_complexity.pdf"
   inkscape:export-xdpi="96"
   inkscape:export-ydpi="96"
   xmlns:inkscape="http://www.inkscape.org/namespaces/inkscape"
   xmlns:sodipodi="http://sodipodi.sourceforge.net/DTD/sodipodi-0.dtd"
   xmlns:xlink="http://www.w3.org/1999/xlink"
   xmlns="http://www.w3.org/2000/svg"
   xmlns:svg="http://www.w3.org/2000/svg"><sodipodi:namedview
     id="namedview1"
     pagecolor="#ffffff"
     bordercolor="#000000"
     borderopacity="0.25"
     inkscape:showpageshadow="2"
     inkscape:pageopacity="0.0"
     inkscape:pagecheckerboard="0"
     inkscape:deskcolor="#d1d1d1"
     inkscape:document-units="mm"
     inkscape:zoom="2.5567565"
     inkscape:cx="362.56874"
     inkscape:cy="105.99367"
     inkscape:window-width="2560"
     inkscape:window-height="1403"
     inkscape:window-x="0"
     inkscape:window-y="0"
     inkscape:window-maximized="1"
     inkscape:current-layer="layer1"
     showgrid="false" /><defs
     id="defs1"><marker
       style="overflow:visible"
       id="Dot"
       refX="0"
       refY="0"
       orient="auto"
       inkscape:stockid="Dot"
       markerWidth="1"
       markerHeight="1"
       viewBox="0 0 1 1"
       inkscape:isstock="true"
       inkscape:collect="always"
       preserveAspectRatio="xMidYMid"><path
         transform="scale(0.5)"
         style="fill:context-stroke;fill-rule:evenodd;stroke:none"
         d="M 5,0 C 5,2.76 2.76,5 0,5 -2.76,5 -5,2.76 -5,0 c 0,-2.76 2.3,-5 5,-5 2.76,0 5,2.24 5,5 z"
         sodipodi:nodetypes="sssss"
         id="path24" /></marker><marker
       style="overflow:visible"
       id="Triangle"
       refX="0"
       refY="0"
       orient="auto-start-reverse"
       inkscape:stockid="Triangle arrow"
       markerWidth="1"
       markerHeight="1"
       viewBox="0 0 1 1"
       inkscape:isstock="true"
       inkscape:collect="always"
       preserveAspectRatio="xMidYMid"><path
         transform="scale(0.5)"
         style="fill:context-stroke;fill-rule:evenodd;stroke:context-stroke;stroke-width:1pt"
         d="M 5.77,0 -2.88,5 V -5 Z"
         id="path135" /></marker><marker
       style="overflow:visible"
       id="marker16"
       refX="0"
       refY="0"
       orient="auto-start-reverse"
       inkscape:stockid="Wide, heavy arrow"
       markerWidth="0.5"
       markerHeight="0.5"
       viewBox="0 0 1 1"
       inkscape:isstock="true"
       inkscape:collect="always"
       preserveAspectRatio="xMidYMid"><path
         style="fill:context-stroke;fill-rule:evenodd;stroke:none"
         d="m 1,0 -3,3 h -2 l 3,-3 -3,-3 h 2 z"
         id="path16" /></marker><marker
       style="overflow:visible"
       id="ArrowWideHeavy"
       refX="0"
       refY="0"
       orient="auto-start-reverse"
       inkscape:stockid="Wide, heavy arrow"
       markerWidth="0.5"
       markerHeight="0.5"
       viewBox="0 0 1 1"
       inkscape:isstock="true"
       inkscape:collect="always"
       preserveAspectRatio="xMidYMid"><path
         style="fill:context-stroke;fill-rule:evenodd;stroke:none"
         d="m 1,0 -3,3 h -2 l 3,-3 -3,-3 h 2 z"
         id="path14" /></marker><pattern
       inkscape:collect="always"
       xlink:href="#pattern11"
       preserveAspectRatio="xMidYMid"
       id="pattern13"
       patternTransform="matrix(0.02079117,0.09781475,-0.09781475,0.02079117,570,215)"
       x="0"
       y="0" /><pattern
       inkscape:collect="always"
       xlink:href="#pattern11"
       preserveAspectRatio="xMidYMid"
       id="pattern12"
       patternTransform="matrix(0.1,0,0,0.1,570,215)"
       x="0"
       y="0" /><pattern
       patternUnits="userSpaceOnUse"
       width="15"
       height="25"
       patternTransform="translate(570,215)"
       preserveAspectRatio="xMidYMid"
       style="fill:#ffbe3c"
       id="pattern11"
       inkscape:label="Abstrait 4"
       inkscape:collect="always"
       inkscape:isstock="true"><g
         id="g7"
         transform="translate(-570,-215)"><path
           style="stroke-width:4.8561;stroke-linecap:square;paint-order:stroke markers fill;stop-color:#000000"
           d="m 585,225 -10,10 v 5 h 10 z"
           id="path10"
           sodipodi:nodetypes="ccccc" /><path
           id="path11"
           style="stroke-width:4.8561;stroke-linecap:square;paint-order:stroke markers fill;stop-color:#000000"
           d="m 580,215 h -5 v 5 z m -10,10 v 5 h 5 l 10,-10 v -5 h -5 z" /></g></pattern><marker
       style="overflow:visible"
       id="Triangle-6"
       refX="0"
       refY="0"
       orient="auto-start-reverse"
       inkscape:stockid="Triangle arrow"
       markerWidth="1"
       markerHeight="1"
       viewBox="0 0 1 1"
       inkscape:isstock="true"
       inkscape:collect="always"
       preserveAspectRatio="xMidYMid"><path
         transform="scale(0.5)"
         style="fill:context-stroke;fill-rule:evenodd;stroke:context-stroke;stroke-width:1pt"
         d="M 5.77,0 -2.88,5 V -5 Z"
         id="path135-6" /></marker><marker
       style="overflow:visible"
       id="Triangle-9"
       refX="0"
       refY="0"
       orient="auto-start-reverse"
       inkscape:stockid="Triangle arrow"
       markerWidth="1"
       markerHeight="1"
       viewBox="0 0 1 1"
       inkscape:isstock="true"
       inkscape:collect="always"
       preserveAspectRatio="xMidYMid"><path
         transform="scale(0.5)"
         style="fill:context-stroke;fill-rule:evenodd;stroke:context-stroke;stroke-width:1pt"
         d="M 5.77,0 -2.88,5 V -5 Z"
         id="path135-2" /></marker><marker
       style="overflow:visible"
       id="Triangle-7"
       refX="0"
       refY="0"
       orient="auto-start-reverse"
       inkscape:stockid="Triangle arrow"
       markerWidth="1"
       markerHeight="1"
       viewBox="0 0 1 1"
       inkscape:isstock="true"
       inkscape:collect="always"
       preserveAspectRatio="xMidYMid"><path
         transform="scale(0.5)"
         style="fill:context-stroke;fill-rule:evenodd;stroke:context-stroke;stroke-width:1pt"
         d="M 5.77,0 -2.88,5 V -5 Z"
         id="path135-29" /></marker><marker
       style="overflow:visible"
       id="Triangle-93"
       refX="0"
       refY="0"
       orient="auto-start-reverse"
       inkscape:stockid="Triangle arrow"
       markerWidth="1"
       markerHeight="1"
       viewBox="0 0 1 1"
       inkscape:isstock="true"
       inkscape:collect="always"
       preserveAspectRatio="xMidYMid"><path
         transform="scale(0.5)"
         style="fill:context-stroke;fill-rule:evenodd;stroke:context-stroke;stroke-width:1pt"
         d="M 5.77,0 -2.88,5 V -5 Z"
         id="path135-4" /></marker><marker
       style="overflow:visible"
       id="Triangle-72"
       refX="0"
       refY="0"
       orient="auto-start-reverse"
       inkscape:stockid="Triangle arrow"
       markerWidth="1"
       markerHeight="1"
       viewBox="0 0 1 1"
       inkscape:isstock="true"
       inkscape:collect="always"
       preserveAspectRatio="xMidYMid"><path
         transform="scale(0.5)"
         style="fill:context-stroke;fill-rule:evenodd;stroke:context-stroke;stroke-width:1pt"
         d="M 5.77,0 -2.88,5 V -5 Z"
         id="path135-5" /></marker><marker
       style="overflow:visible"
       id="ArrowWideHeavy-3"
       refX="0"
       refY="0"
       orient="auto-start-reverse"
       inkscape:stockid="Wide, heavy arrow"
       markerWidth="0.5"
       markerHeight="0.5"
       viewBox="0 0 1 1"
       inkscape:isstock="true"
       inkscape:collect="always"
       preserveAspectRatio="xMidYMid"><path
         style="fill:context-stroke;fill-rule:evenodd;stroke:none"
         d="m 1,0 -3,3 h -2 l 3,-3 -3,-3 h 2 z"
         id="path14-8" /></marker><marker
       style="overflow:visible"
       id="marker16-4"
       refX="0"
       refY="0"
       orient="auto-start-reverse"
       inkscape:stockid="Wide, heavy arrow"
       markerWidth="0.5"
       markerHeight="0.5"
       viewBox="0 0 1 1"
       inkscape:isstock="true"
       inkscape:collect="always"
       preserveAspectRatio="xMidYMid"><path
         style="fill:context-stroke;fill-rule:evenodd;stroke:none"
         d="m 1,0 -3,3 h -2 l 3,-3 -3,-3 h 2 z"
         id="path16-9" /></marker><marker
       style="overflow:visible"
       id="Triangle-4"
       refX="0"
       refY="0"
       orient="auto-start-reverse"
       inkscape:stockid="Triangle arrow"
       markerWidth="1"
       markerHeight="1"
       viewBox="0 0 1 1"
       inkscape:isstock="true"
       inkscape:collect="always"
       preserveAspectRatio="xMidYMid"><path
         transform="scale(0.5)"
         style="fill:context-stroke;fill-rule:evenodd;stroke:context-stroke;stroke-width:1pt"
         d="M 5.77,0 -2.88,5 V -5 Z"
         id="path135-48" /></marker><marker
       style="overflow:visible"
       id="Triangle-8"
       refX="0"
       refY="0"
       orient="auto-start-reverse"
       inkscape:stockid="Triangle arrow"
       markerWidth="1"
       markerHeight="1"
       viewBox="0 0 1 1"
       inkscape:isstock="true"
       inkscape:collect="always"
       preserveAspectRatio="xMidYMid"><path
         transform="scale(0.5)"
         style="fill:context-stroke;fill-rule:evenodd;stroke:context-stroke;stroke-width:1pt"
         d="M 5.77,0 -2.88,5 V -5 Z"
         id="path135-0" /></marker><marker
       style="overflow:visible"
       id="Triangle-0"
       refX="0"
       refY="0"
       orient="auto-start-reverse"
       inkscape:stockid="Triangle arrow"
       markerWidth="1"
       markerHeight="1"
       viewBox="0 0 1 1"
       inkscape:isstock="true"
       inkscape:collect="always"
       preserveAspectRatio="xMidYMid"><path
         transform="scale(0.5)"
         style="fill:context-stroke;fill-rule:evenodd;stroke:context-stroke;stroke-width:1pt"
         d="M 5.77,0 -2.88,5 V -5 Z"
         id="path135-59" /></marker><marker
       style="overflow:visible"
       id="Triangle-0-6"
       refX="0"
       refY="0"
       orient="auto-start-reverse"
       inkscape:stockid="Triangle arrow"
       markerWidth="1"
       markerHeight="1"
       viewBox="0 0 1 1"
       inkscape:isstock="true"
       inkscape:collect="always"
       preserveAspectRatio="xMidYMid"><path
         transform="scale(0.5)"
         style="fill:context-stroke;fill-rule:evenodd;stroke:context-stroke;stroke-width:1pt"
         d="M 5.77,0 -2.88,5 V -5 Z"
         id="path135-59-8" /></marker><marker
       style="overflow:visible"
       id="Triangle-0-6-3"
       refX="0"
       refY="0"
       orient="auto-start-reverse"
       inkscape:stockid="Triangle arrow"
       markerWidth="1"
       markerHeight="1"
       viewBox="0 0 1 1"
       inkscape:isstock="true"
       inkscape:collect="always"
       preserveAspectRatio="xMidYMid"><path
         transform="scale(0.5)"
         style="fill:context-stroke;fill-rule:evenodd;stroke:context-stroke;stroke-width:1pt"
         d="M 5.77,0 -2.88,5 V -5 Z"
         id="path135-59-8-3" /></marker><marker
       style="overflow:visible"
       id="Triangle-0-6-2"
       refX="0"
       refY="0"
       orient="auto-start-reverse"
       inkscape:stockid="Triangle arrow"
       markerWidth="1"
       markerHeight="1"
       viewBox="0 0 1 1"
       inkscape:isstock="true"
       inkscape:collect="always"
       preserveAspectRatio="xMidYMid"><path
         transform="scale(0.5)"
         style="fill:context-stroke;fill-rule:evenodd;stroke:context-stroke;stroke-width:1pt"
         d="M 5.77,0 -2.88,5 V -5 Z"
         id="path135-59-8-9" /></marker><marker
       style="overflow:visible"
       id="Triangle-0-6-2-7"
       refX="0"
       refY="0"
       orient="auto-start-reverse"
       inkscape:stockid="Triangle arrow"
       markerWidth="1"
       markerHeight="1"
       viewBox="0 0 1 1"
       inkscape:isstock="true"
       inkscape:collect="always"
       preserveAspectRatio="xMidYMid"><path
         transform="scale(0.5)"
         style="fill:context-stroke;fill-rule:evenodd;stroke:context-stroke;stroke-width:1pt"
         d="M 5.77,0 -2.88,5 V -5 Z"
         id="path135-59-8-9-8" /></marker></defs><g
     inkscape:label="Calque 1"
     inkscape:groupmode="layer"
     id="layer1"><path
       style="opacity:1;fill:#00beff;fill-opacity:1;stroke:#000000;stroke-width:0.264999;stroke-linejoin:round;stroke-dasharray:none;stroke-dashoffset:0;stroke-opacity:1"
       d="m 92.552397,37.155501 0.813509,-1.407999 1.611376,-1.595731 1.861685,-0.312889 16.066823,-0.187732 1.81475,-0.735288 1.07947,-1.376712 1.18897,-2.628259 3.00373,3.785947 0.2816,0.672713 0.71964,0.297244 2.16796,-0.02056 19.08967,0.26916 4.1802,-0.04522 1.6583,0.132974 0.5945,2.71431 -7.2903,3.864174 -23.33767,5.348941 -27.08045,-3.274433 z"
       id="path6" /><path
       style="opacity:1;fill:#a00000;fill-opacity:1;stroke:#000000;stroke-width:0.264999;stroke-linejoin:round;stroke-dasharray:none;stroke-dashoffset:0;stroke-opacity:1"
       d="m 164.27481,30.952248 -1.6151,1.084107 c 0,0 -1.37172,-0.469823 -1.54872,-0.469823 -0.17699,0 -1.1726,0.359201 -1.1726,0.359201 l -0.55311,-0.752237 -1.10623,-0.619488 -0.75223,-0.0885 -1.28323,-0.973478 -1.06198,0.132746 -1.70361,-0.846375 -2.54431,-1.089524 0.708,-2.953627 h 10.75253 z"
       id="path8"
       sodipodi:nodetypes="ccccccccscc" /><path
       style="fill:#ffffbc;stroke:none;stroke-width:0.264999;stroke-linejoin:round;stroke-opacity:1;fill-opacity:1"
       d="m 164.5403,31.549611 -1.0841,0.132746 -0.55312,-1.084101 -0.75223,-0.685863 -0.2655,-0.575239 -0.46461,-0.730109 -0.55312,0.752236 -0.92923,0.553112 -1.10623,-0.685861 -0.86285,-1.349597 -0.59737,-0.19912 -0.75223,-0.818611 -0.70799,0.265497 -1.03985,-0.442492 -0.59736,0.951357 -0.68586,0.39824 -0.68587,-0.796483 -0.57523,-0.796484 -1.37173,3.252309 -0.70798,-0.862856 -0.64161,0.353991 -0.39824,-0.907105 -1.12836,-0.376119 -0.95135,1.74784 -0.86286,-0.132746 -1.79209,2.898314 -0.88883,0.816282 -0.8448,-0.281599 -1.90862,3.78595 -0.59449,-0.500621 -1.18897,0.312888 -1.34542,0.250309 -0.87609,-0.907375 -1.15769,1.470575 -0.93866,-0.438044 -1.03254,-1.504169 -0.93866,1.379013 -0.50062,-0.156442 -1.408,-0.657067 -1.06382,1.720887 -1.22026,0.625777 -0.93867,-0.53191 -0.81351,0.782222 -0.46933,-0.657067 -0.71965,0.281599 -0.46933,-1.501865 -0.93866,-0.969954 -1.37671,-2.722129 -0.96996,-1.31413 -0.65706,0.688353 -0.59449,-0.406754 -0.62578,0.719643 -0.90738,-1.220264 -0.71964,1.720884 -0.50062,0.375468 -0.75093,-1.126397 -0.78222,-0.438044 -0.53191,-0.469334 -0.46934,-1.564442 -0.62577,-0.469334 -2.00249,1.877333 -1.03253,-1.1264 -0.93867,0.59449 -0.5632,-0.125156 -0.81351,0.876085 -2.09635,-3.410481 -1.18897,-2.19022 -1.06382,-1.501865 -1.37671,0.750933 -0.78222,-0.125156 -0.90738,2.002487 h -0.75093 l -0.21903,1.251553 -0.59448,0.688353 -0.782225,-0.187732 -0.750932,0.03129 -0.774398,-0.649242 -0.344178,0.351999 -0.836975,0.05476 -0.109511,0.305065 -1.282843,0.148622 -1.118577,-0.125153 -0.649242,-0.672712 -1.603555,4.341326 -0.500621,0.962134 -2.917684,1.314129 -1.001242,-2.104173 -1.149866,-0.782222 -1.971196,-1.603552 -0.821333,-0.0704 -0.782222,-1.267198 -1.275019,2.362308 -0.547555,0.398931 -0.688356,-0.344175 -0.132977,1.666128 -0.85262,0.586666 -0.821333,1.861688 -0.750932,0.07822 -0.92302,1.55662 -1.118576,-2.04942 -1.079466,-0.477155 -0.649243,-1.838219 -0.969954,-0.930844 -0.844799,-0.06258 -0.265956,-0.398933 -0.860441,0.02347 -0.391113,-0.649245 h -0.852619 l -1.713066,-0.938665 -0.993421,1.361065 -1.165508,-0.453689 -0.774398,-0.265954 -1.51751,1.212442 -0.344178,-0.758753 -1.071642,-0.367644 -0.664887,-0.680532 -1.181156,1.204619 -0.743108,0.328533 -0.508445,1.048176 -0.445865,0.1408 -0.469334,-0.962133 -1.259374,-0.430221 -0.398934,0.297244 -0.790043,0.0704 -0.727466,0.531911 -1.001242,-1.181153 -0.680532,0.617953 -0.469334,-0.95431 -0.53191,-0.53191 -0.836978,0.414578 -0.602308,-0.649243 -1.306309,0.05476 -0.938667,0.915196 -1.986841,-2.190218 -0.962131,0.99342 -0.5632,-0.367643 -0.586666,1.157687 -0.672711,1.595731 -0.438041,0.01564 -0.273778,-1.165508 -0.414578,-0.59449 -0.946486,-0.02347 -0.391113,0.297244 -1.079465,0.03129 -0.836975,-0.09387 -0.281602,0.445866 -0.774398,0.05476 -0.336354,0.406755 -0.4224,1.157687 -1.204621,0.907378 -1.298485,0.688353 -1.384533,-2.448351 -0.672708,-1.306309 -0.743112,1.41582 -0.391109,1.45493 -0.367644,-0.125155 -0.805688,-1.095111 -0.477155,0.461513 -0.359823,0.766574 -0.735287,0.477155 -0.610132,-0.328533 -0.46151,-0.578842 -0.398934,0.328533 -0.657066,0.164267 -0.4928,0.406754 -1.040352,1.118577 -0.735288,0.680532 -0.524088,-0.0704 -0.469333,-1.087286 -0.703999,-0.52409 -0.766577,0.66489 -0.39111,1.095108 -0.547555,0.836978 -0.766577,-1.056 -0.797865,1.407999 -0.836977,0.99342 -0.571021,-0.281598 -0.664888,0.688353 -0.469333,-0.258133 -0.703998,-2.174573 -0.547555,-0.344178 -0.445866,0.860443 -0.398933,0.336354 -0.578844,-0.445865 -0.336355,1.181153 -0.790043,1.001244 -0.445866,0.179912 -1.110754,-3.217236 -1.314131,-2.305246 -1.4862198,-1.494043 -0.719644,-0.907376 -0.891732,0.602311 -0.195555,0.876086 -0.625777,0.578844 -0.969954,1.611376 -0.74311,-1.142042 -0.657065,-0.625779 -1.353243,0.790046 -0.649243,-0.938668 -1.658309,0.172091 -0.688355,-0.359823 -1.02470954,0.01564 0.18773306,-21.698813 165.50233128,0 0,20.83837 z"
       id="path2-0"
       sodipodi:nodetypes="ccccccccccccccccccccccccccccccccccccccccccccccccccccccccccccccccccccccccccccccccccccccccccccccccccccccccccccccccccccccccccccccccccccccccccccccccccccccccccccccccccccccccccccccccccccccccccccccccccccccccc" /><path
       style="opacity:1;fill:none;stroke:#000000;stroke-width:0.264999;stroke-linejoin:round;stroke-opacity:1"
       d="m 0.19555527,32.274441 0.68835453,0.359823 1.6583087,-0.172091 0.6492436,0.938668 1.3532424,-0.790046 0.6570657,0.625779 0.7431098,1.142042 0.9699543,-1.611376 0.6257768,-0.578844 0.1955552,-0.876086 0.891732,-0.602311 0.7196434,0.907376 1.4862203,1.494043 1.314131,2.305246 1.110754,3.217236 0.445866,-0.179912 0.790043,-1.001244 0.336355,-1.181153 0.578844,0.445865 0.398933,-0.336354 0.445866,-0.860443 0.547555,0.344178 0.703998,2.174573 0.469333,0.258133 0.664888,-0.688353 0.571021,0.281598 0.836977,-0.99342 0.797865,-1.407999 0.766577,1.056 0.547555,-0.836978 0.39111,-1.095108 0.766577,-0.66489 0.703999,0.52409 0.469333,1.087286 0.524088,0.0704 0.735288,-0.680532 1.040352,-1.118577 0.4928,-0.406754 0.657066,-0.164267 0.398934,-0.328533 0.46151,0.578842 0.610132,0.328533 0.735287,-0.477155 0.359823,-0.766574 0.477155,-0.461513 0.805688,1.095111 0.367644,0.125155 0.391109,-1.45493 0.743112,-1.41582 0.672708,1.306309 1.384533,2.448351 1.298485,-0.688353 1.204621,-0.907378 0.4224,-1.157687 0.336354,-0.406755 0.774398,-0.05476 0.281602,-0.445866 0.836975,0.09387 1.079465,-0.03129 0.391113,-0.297244 0.946486,0.02347 0.414578,0.59449 0.273778,1.165508 0.438041,-0.01564 0.672711,-1.595731 0.586666,-1.157687 0.5632,0.367643 0.962131,-0.99342 1.986841,2.190218 0.938667,-0.915196 1.306309,-0.05476 0.602308,0.649243 0.836978,-0.414578 0.53191,0.53191 0.469334,0.95431 0.680532,-0.617953 1.001242,1.181153 0.727466,-0.531911 0.790043,-0.0704 0.398934,-0.297244 1.259374,0.430221 0.469334,0.962133 0.445865,-0.1408 0.508445,-1.048176 0.743108,-0.328533 1.181156,-1.204619 0.664887,0.680532 1.071642,0.367644 0.344178,0.758753 1.51751,-1.212442 0.774398,0.265954 1.165508,0.453689 0.993421,-1.361065 1.713066,0.938665 h 0.852619 l 0.391113,0.649245 0.860441,-0.02347 0.265956,0.398933 0.844799,0.06258 0.969954,0.930844 0.649243,1.838219 1.079466,0.477155 1.118576,2.04942 0.92302,-1.55662 0.750932,-0.07822 0.821333,-1.861688 0.85262,-0.586666 0.132977,-1.666128 0.688356,0.344175 0.547555,-0.398931 1.275019,-2.362308 0.782222,1.267198 0.821333,0.0704 1.971196,1.603552 1.149866,0.782222 1.001242,2.104173 2.917684,-1.314129 0.500621,-0.962134 1.603555,-4.341326 0.649242,0.672712 1.118577,0.125153 1.282843,-0.148622 0.109511,-0.305065 0.836975,-0.05476 0.344178,-0.351999 0.774398,0.649242 0.750932,-0.03129 0.782225,0.187732 0.59448,-0.688353 0.21903,-1.251553 h 0.75093 l 0.90738,-2.002487 0.78222,0.125156 1.37671,-0.750933 1.06382,1.501865 1.18897,2.19022 2.09635,3.410481 0.81351,-0.876085 0.5632,0.125156 0.93867,-0.59449 1.03253,1.1264 2.00249,-1.877333 0.62577,0.469334 0.46934,1.564442 0.53191,0.469334 0.78222,0.438044 0.75093,1.126397 0.50062,-0.375468 0.71964,-1.720884 0.90738,1.220264 0.62578,-0.719643 0.59449,0.406754 0.65706,-0.688353 0.96996,1.31413 1.37671,2.722129 0.93866,0.969954 0.46933,1.501865 0.71965,-0.281599 0.46933,0.657067 0.81351,-0.782222 0.93867,0.53191 1.22026,-0.625777 1.06382,-1.720887 1.408,0.657067 0.50062,0.156442 0.93866,-1.379013 1.03254,1.504169 0.93866,0.438044 1.15769,-1.470575 0.87609,0.907375 1.34542,-0.250309 1.18897,-0.312888 0.59449,0.500621 1.90862,-3.78595 0.8448,0.281599 0.88883,-0.816282 1.79209,-2.898314 0.86286,0.132746 0.95135,-1.74784 1.12836,0.376119 0.39824,0.907105 0.64161,-0.353991 0.70798,0.862856 1.37173,-3.252309 0.57523,0.796484 0.68587,0.796483 0.68586,-0.39824 0.59736,-0.951357 1.03985,0.442492 0.70799,-0.265497 0.75223,0.818611 0.59737,0.19912 0.86285,1.349597 1.10623,0.685861 0.92923,-0.553112 0.55312,-0.752236 0.46461,0.730109 0.2655,0.575239 0.75223,0.685863 0.55312,1.084101 1.0841,-0.132746"
       id="path2"
       sodipodi:nodetypes="ccccccccccccccccccccccccccccccccccccccccccccccccccccccccccccccccccccccccccccccccccccccccccccccccccccccccccccccccccccccccccccccccccccccccccccccccccccccccccccccccccccccccccccccccccccccccccccccccccccccccc" /><path
       style="opacity:1;fill:#eaeaea;fill-opacity:1;stroke:#000000;stroke-width:0.264999;stroke-linejoin:round;stroke-dasharray:0.529998, 0.264999;stroke-dashoffset:0;stroke-opacity:1"
       d="m 75.495578,39.602048 c 0,0 -0.706385,0.260188 -1.075066,0.259934 -0.198573,-1.37e-4 -0.398366,-0.05798 -0.578842,-0.140798 -0.22159,-0.101693 -0.355419,-0.378274 -0.59449,-0.426114 -0.278143,-0.05566 -0.571202,0.07346 -0.829154,0.191447 -0.305424,0.139704 -0.519019,0.433004 -0.813509,0.594487 -0.201241,0.11035 -0.423566,0.322522 -0.641421,0.250312 -0.280188,-0.09287 -0.227366,-0.581871 -0.469334,-0.750932 -0.166002,-0.115956 -0.392529,-0.140046 -0.594487,-0.125156 -0.29948,0.02208 -0.553371,0.385318 -0.844799,0.312888 -0.205155,-0.05099 -0.263209,-0.333954 -0.422399,-0.473046 -0.236989,-0.207069 -0.473018,-0.470077 -0.782222,-0.528677 -0.141746,-0.02686 -0.299376,0.01899 -0.422399,0.09435 -0.334783,0.205077 -0.544747,0.573273 -0.750933,0.907375 -0.149604,0.242418 -0.07074,0.702362 -0.344178,0.782222 -0.162435,0.04744 -0.278243,-0.192969 -0.422399,-0.281599 -0.234734,-0.144313 -0.44662,-0.443967 -0.719643,-0.406757 -0.226526,0.03088 -0.310193,0.337608 -0.484976,0.484979 -0.200215,0.168813 -0.379577,0.448989 -0.641421,0.453689 -0.180769,0.0032 -0.305504,-0.193666 -0.453689,-0.297246 -0.250468,-0.175074 -0.429732,-0.543053 -0.735288,-0.547553 -0.445536,-0.0065 -0.70162,0.557505 -1.09511,0.766575 -0.295914,0.157226 -0.603974,0.376163 -0.938665,0.359823 -0.337757,-0.01649 -0.618422,-0.278026 -0.907376,-0.453689 C 59.517474,40.37548 58.75175,39.768885 58.75175,39.768885 l -1.471282,6.360808 4.424911,2.72132 6.725864,-0.508865 8.916195,-3.252309 c 0,0 -0.553114,-4.358537 -0.663737,-4.358537 -0.110623,0 -1.188123,-1.129254 -1.188123,-1.129254 z"
       id="path5"
       sodipodi:nodetypes="caaaaaaaaaaaaaaaaaaaaaaac" /><path
       style="opacity:1;fill:url(#pattern12);fill-opacity:1;stroke:#000000;stroke-width:0.264999;stroke-linejoin:round;stroke-dasharray:none;stroke-dashoffset:0;stroke-opacity:1"
       d="m 28.598003,28.598003 -2.628264,4.161416 c 0,0 -6.914834,0.78222 -7.039989,0.688354 -0.125156,-0.09387 -2.565685,-3.097102 -2.565685,-3.097102 l 0.438044,-2.753913 3.379195,-3.230092 6.476789,0.914719 z"
       id="path9" /><path
       style="opacity:1;fill:#e2e2e2;stroke:#000000;stroke-width:0.264999;stroke-linejoin:round;stroke-opacity:1;fill-opacity:1"
       d="m 0.1183605,39.580386 4.0743444,-0.234667 c 0,0 0.5631992,1.282843 0.8447987,1.376709 0.2815998,0.09387 0.8604433,0.500623 0.8604433,0.500623 l 0.5162658,1.142042 1.3767091,-1.251553 0.9543097,0.297244 0.6414212,1.188976 1.0951093,0.969952 0.578844,0.610135 1.001243,-0.187735 0.770392,0.345492 0.619487,-0.840734 0.619488,-0.265494 0.97348,0.796483 0.309744,0.575239 1.150476,-2.345203 0.398242,-0.663737 0.707986,0.663737 c 0,0 0.530989,-0.176996 0.707986,-0.176996 0.176996,0 0.796484,0.929233 0.796484,0.929233 l 0.707985,0.04425 0.929232,-1.371725 0.707985,-0.176995 2.610698,-3.584178 0.884982,0.353993 0.884982,-1.106228 1.006666,-2.909379 0.409305,0.298683 0.409305,0.309742 0.818607,-0.464614 1.659343,-0.06637 0.818607,0.884981 1.193798,-1.868384 0.391109,-1.454928 0.743112,-1.415823 0.672708,1.306312 1.384533,2.448351 0.946759,0.564105 0.530989,0.464616 0.774359,-1.283224 1.460219,-1.438095 c 0,0 0.884984,0.752234 0.96242,0.774359 0.07744,0.02212 0.929229,-0.752235 0.929229,-0.752235 0,0 0.43143,0.53099 0.475679,0.553115 0.04425,0.02212 0.785421,-0.176999 0.785421,-0.176999 l 0.254434,1.106228 1.725715,2.212457 1.294287,2.809817 0.475675,0.409305 0.730113,-0.698723 0.597363,0.30048 0.508862,-0.652674 0.730113,1.01773 0.597363,-0.53099 0.619487,-1.438095 0.663737,1.12835 0.92923,0.287621 0.575238,0.840732 0.387181,1.095166 0.707985,0.707985 0.984541,-1.02879 1.227913,-0.774361 0.741174,0.962419 0.774359,-0.0885 c 0,0 0.353991,-0.38718 0.420367,-0.398243 0.06637,-0.01106 0.707986,-0.01106 0.707986,-0.01106 0,0 0.542052,-0.763297 0.641612,-0.674799 0.09956,0.0885 0.243369,0.243369 0.243369,0.243369 l 1.814213,2.931504 0.442492,0.508865 0.331867,0.973482 0.929232,2.090769 0.564177,0.309743 1.095163,-0.796484 0.951357,0.154872 0.564176,-0.530987 0.719048,-1.659343 0.619487,0.02212 0.298683,-1.41597 0.442489,-0.453554 0.663737,0.276556 h 0.696925 l 0.907106,0.608425 0.387181,-0.365054 0.630549,-0.02212 0.453552,-0.608425 1.194726,0.03319 0.663736,0.331866 0.387181,-0.02212 0.453554,0.619488 0.674798,-1.095166 1.139415,-2.732381 0.608426,-0.276556 0.918167,-0.774361 0.929233,-0.199121 0.763296,-1.272161 0.984541,-1.316411 0.420368,0.752234 0.741172,3.031064 2.477949,1.89165 0.09956,0.132746 -0.03319,0.132747 c 0,0 -1.836336,7.035609 -1.880587,7.068796 -0.04425,0.03319 0.132749,-0.04425 0.132749,-0.04425 l 0.03319,-0.154871 4.491283,-8.750263 0.110623,-0.0885 0.409305,0.486741 0.132747,0.01106 0.475678,-0.519928 1.039852,-0.19912 0.398243,-0.840732 -0.325331,-3.057104 2.917682,-1.314127 0.01834,1.372309 0.143812,0.686906 1.084101,0.48674 2.843006,1.216851 0.519927,0.387178 0.210183,0.188058 -1.294286,2.300954 0.121684,0.353994 0.752234,-0.06637 0.353994,0.464613 0.353994,0.254434 0.519925,-0.132747 1.725716,0.918168 1.63721,-2.300954 0.86286,0.232309 0.82967,0.431427 0.57524,-0.342929 0.88498,-0.542052 0.48674,-0.01106 0.39824,0.68586 0.73012,0.243369 0.43142,0.542052 0.54205,-0.04425 0.95136,-1.106225 0.64161,-0.199123 0.37612,-0.652674 0.54205,-0.542052 0.46462,0.763297 0.84073,0.38718 0.71905,0.121685 0.35399,-0.276556 0.28762,0.09956 0.9956,-0.63055 0.24338,0.06637 c 0,0 0.17605,0.276214 0.24645,0.33097 0.0704,0.05476 0.46933,0.625776 0.46933,0.625776 l 0.17991,0.04693 0.65707,-0.586666 0.34417,0.704001 c 0,0 0.52409,0.641421 0.5632,0.649242 0.0391,0.0078 0.41458,0.02347 0.41458,0.02347 l 0.57884,-0.367644 c 0,0 0.30507,0.524089 0.48498,0.586666 0.17991,0.06258 1.21245,0.109511 1.21245,0.109511 l 0.44586,-0.320709 0.64142,-0.641422 0.50062,0.39111 0.53191,1.063821 0.92302,0.703998 0.81352,-0.876086 0.89173,0.265954 1.42364,-2.90984 0.61013,1.59571 0.95431,0.156443 1.34542,-0.234667 0.95431,0.187735 0.40676,-0.09387 0.20337,-0.438041 0.39111,0.01564 0.45369,-0.07822 0.37547,-1.31413 0.8448,-0.766577 1.51751,-0.797867 0.61013,-0.219025 0.93866,-1.379013 1.03254,1.504169 0.93866,0.438044 0.29725,0.438047 0.40675,0.782222 0.29724,0.375465 0.29725,0.04693 0.64142,-1.016889 0.64142,-0.657067 0.59449,-0.03129 0.48498,0.719643 0.62577,-0.125156 0.87609,-0.391109 0.57884,-0.672711 0.57885,-0.594487 0.62577,-0.641422 0.48498,-0.174395 0.5632,0.424704 0.21902,0.813512 0.48498,0.438044 0.65706,-0.375467 0.57885,-0.95431 c 0,0 0.4224,-1.142042 0.48498,-1.142042 0.0626,0 0.40675,0.378894 0.40675,0.378894 l 0.43804,0.416665 0.5632,-0.592182 1.18898,-1.642663 0.59449,0.234664 0.71964,-0.547552 0.37547,0.344175 0.21902,0.829154 0.35982,1.09511 0.48498,0.469334 0.43804,-0.606705 0.21902,-0.660493 0.73529,0.281599 0.48498,-0.39111 0.37546,-1.188977 0.89174,-0.766577 0.46933,1.439288 0.45369,1.90862 1.42364,2.503106 0.59449,0.39111 0.46933,0.782222 0.43805,0.265954 0.43804,0.782222 0.79786,-0.03129 0.5632,-0.750933 0.34418,-0.969954 0.26596,-0.21902 0.89173,-1.736532 0.40675,0.09387 0.81351,1.642666 0.50062,0.187733 1.31414,-0.782223 0.53191,0.719643 1.12639,0.04693 1.43929,-0.156446 1.79911,0.391134 3.37239,-0.01614 0.80468,40.081489 -178.9721803,-5.757147 0.6257769,-34.801119 z"
       id="path3" /><path
       style="opacity:1;fill:#aaaaaa;stroke:#000000;stroke-width:0.264999;stroke-linejoin:round;stroke-opacity:1;fill-opacity:1"
       d="M 12.363249,36.04043 C 12.182587,35.580083 11.740812,35.234922 11.305646,34.999998 10.95376,34.810033 10.522257,34.654823 10.133045,34.74661 9.6913675,34.85077 9.365263,35.252897 9.0710667,35.598406 8.7027941,36.030912 8.4017776,36.539185 8.2303336,37.08075 c -0.1375364,0.434456 -0.1599407,0.905765 -0.1327473,1.36066 0.035824,0.599268 0.2595053,1.172298 0.3871796,1.758902 0.087775,0.403284 -0.019077,0.906829 0.2604654,1.210472 0.3404763,0.36983 0.9431055,0.489561 1.4431257,0.437808 0.397228,-0.04111 0.769058,-0.292331 1.050916,-0.575238 0.278328,-0.279363 0.560551,-0.645524 0.564176,-1.039855 0.003,-0.328187 -0.431877,-0.546434 -0.453553,-0.873919 -0.02796,-0.422488 0.285994,-0.797075 0.431428,-1.194726 0.182337,-0.498552 0.447564,-0.973159 0.553114,-1.493409 0.04187,-0.206353 0.105732,-0.435011 0.02881,-0.631015 z"
       id="path4"
       sodipodi:nodetypes="aaaaaaaaaaaaaaa" /><path
       style="opacity:1;fill:#aaaaaa;fill-opacity:1;stroke:#000000;stroke-width:0.264999;stroke-linejoin:round;stroke-dasharray:none;stroke-dashoffset:0;stroke-opacity:1"
       d="m 150.37417,33.213103 0.19447,-1.27631 -0.0332,-1.769965 1.85846,-1.305348 1.0841,-0.08308 c 0,0 0.79649,0.868498 0.79649,0.912747 0,0.04425 -0.12169,2.323078 -0.12169,2.323078 l -0.19912,0.464617 -1.18366,0.453551 -0.79649,0.862859 -1.59938,-0.582152"
       id="path7" /><path
       style="opacity:1;fill:url(#pattern13);fill-opacity:1;stroke:#000000;stroke-width:0.264999;stroke-linejoin:round;stroke-dasharray:none;stroke-dashoffset:0;stroke-opacity:1"
       d="m 26.658093,25.281385 0.657067,-2.628263 3.817239,-2.909862 6.101323,1.846041 1.689597,3.504351 -2.847284,3.817482 -7.478032,-0.313131 z"
       id="path12" /><g
       id="g24"><path
         style="opacity:1;fill:none;fill-opacity:1;stroke:#0000ff;stroke-width:0.264999;stroke-linejoin:round;stroke-dasharray:none;stroke-dashoffset:0;stroke-opacity:1;marker-mid:url(#ArrowWideHeavy)"
         d="m 24.823748,39.160457 c 0,0 3.886918,-0.637189 5.118101,-1.875546 5.253098,-5.283706 1.355703,-6.607231 0.578844,-7.259009 -2.56132,-2.148925 -7.836282,-4.40034 -7.836282,-4.40034"
         id="path13"
         sodipodi:nodetypes="cssc" /><path
         style="opacity:1;fill:none;fill-opacity:1;stroke:#0000ff;stroke-width:0.264999;stroke-linejoin:round;stroke-dasharray:none;stroke-dashoffset:0;stroke-opacity:1;marker-mid:url(#marker16)"
         d="m 27.628048,41.645451 c 0,0 2.484806,-2.112936 3.254039,-3.418411 0.754977,-1.281281 3.774218,-5.213396 1.45493,-9.472473 -1.308024,-2.40202 -4.967777,-6.530454 -4.967777,-6.530454"
         id="path15"
         sodipodi:nodetypes="cssc" /><path
         style="opacity:1;fill:none;fill-opacity:1;stroke:#0000ff;stroke-width:0.264999;stroke-linejoin:round;stroke-dasharray:none;stroke-dashoffset:0;stroke-opacity:1;marker-mid:url(#ArrowWideHeavy)"
         d="m 31.615479,44.097042 c 0,0 0.412696,-3.431668 0.719642,-5.131371 0.613541,-3.397464 2.155797,-6.479056 2.239939,-10.112142 0.06695,-2.890658 1.358278,-8.567297 1.358278,-8.567297"
         id="path17"
         sodipodi:nodetypes="casc" /><path
         style="opacity:1;fill:none;fill-opacity:1;stroke:#0000ff;stroke-width:0.264999;stroke-linejoin:round;stroke-dasharray:none;stroke-dashoffset:0;stroke-opacity:1;marker-mid:url(#ArrowWideHeavy)"
         d="m 34.472483,44.563376 c 0,0 -0.388584,-3.71383 -0.375467,-5.576988 0.04697,-6.671731 0.825384,-6.852946 1.979019,-10.075254 0.903283,-2.523029 3.809418,-7.079739 3.809418,-7.079739"
         id="path18"
         sodipodi:nodetypes="csac" /><path
         style="opacity:1;fill:none;fill-opacity:1;stroke:#0000ff;stroke-width:0.264999;stroke-linejoin:round;stroke-dasharray:none;stroke-dashoffset:0;stroke-opacity:1;marker-mid:url(#ArrowWideHeavy)"
         d="m 41.812631,41.860675 c 0,0 -3.815446,-2.361976 -4.853724,-3.755142 -3.501573,-4.698427 -1.142321,-6.430642 0.973907,-8.666529 2.76977,-2.926384 6.070037,-4.255282 6.070037,-4.255282"
         id="path19"
         sodipodi:nodetypes="cssc" /></g><g
       id="g25"
       transform="translate(0.32923289,0.19972131)"><path
         style="fill:none;fill-opacity:1;stroke:#ff0000;stroke-width:0.264999;stroke-linejoin:round;stroke-dasharray:none;stroke-dashoffset:0;stroke-opacity:1;marker-mid:url(#ArrowWideHeavy-3)"
         d="m 124.46462,28.749117 c 0,0 4.48141,2.545808 5.7126,3.784165 5.25309,5.283706 1.3557,6.607231 0.57884,7.259009 -2.56132,2.148925 -7.83628,4.40034 -7.83628,4.40034"
         id="path13-8"
         sodipodi:nodetypes="cssc" /><path
         style="fill:none;fill-opacity:1;stroke:#ff0000;stroke-width:0.264999;stroke-linejoin:round;stroke-dasharray:none;stroke-dashoffset:0;stroke-opacity:1;marker-mid:url(#marker16-4)"
         d="m 127.04107,26.006114 c 0,0 3.23704,4.41389 4.00627,5.719365 0.75498,1.281281 3.59722,4.638158 1.27793,8.897235 -1.30802,2.40202 -4.79078,7.105692 -4.79078,7.105692"
         id="path15-4"
         sodipodi:nodetypes="cssc" /><path
         style="fill:none;fill-opacity:1;stroke:#ff0000;stroke-width:0.264999;stroke-linejoin:round;stroke-dasharray:none;stroke-dashoffset:0;stroke-opacity:1;marker-mid:url(#ArrowWideHeavy-3)"
         d="m 130.97477,23.976099 c 0,0 0.93459,5.031941 1.42763,7.542947 0.6004,3.057768 1.77967,5.527701 1.86382,9.160787 0.0669,2.890658 1.0264,7.107076 1.0264,7.107076"
         id="path17-8"
         sodipodi:nodetypes="casc" /><path
         style="fill:none;fill-opacity:1;stroke:#ff0000;stroke-width:0.264999;stroke-linejoin:round;stroke-dasharray:none;stroke-dashoffset:0;stroke-opacity:1;marker-mid:url(#ArrowWideHeavy-3)"
         d="m 137.30483,23.960279 c 0,0 -3.27029,5.656832 -3.25718,7.51999 0.047,6.671731 0.13407,5.701919 1.37417,8.921634 0.96316,2.500783 3.72905,6.371753 3.72905,6.371753"
         id="path18-4"
         sodipodi:nodetypes="cssc" /><path
         style="fill:none;fill-opacity:1;stroke:#ff0000;stroke-width:0.264999;stroke-linejoin:round;stroke-dasharray:none;stroke-dashoffset:0;stroke-opacity:1;marker-mid:url(#ArrowWideHeavy-3)"
         d="m 141.60996,27.17564 c 0,0 -4.25349,3.647694 -5.29177,5.04086 -3.50157,4.698427 -0.89637,5.921777 0.39867,7.427554 2.62736,3.054887 6.64528,4.896894 6.64528,4.896894"
         id="path19-3"
         sodipodi:nodetypes="cssc" /></g><path
       style="opacity:1;fill:none;fill-opacity:1;stroke:#fd0000;stroke-width:0.264999;stroke-linejoin:round;stroke-dasharray:none;stroke-dashoffset:0;stroke-opacity:1;marker-end:url(#Triangle)"
       d="m 40.908298,29.25972 c 0,0 0.05293,-0.787955 0.353994,-0.918168 0.569993,-0.246528 1.16191,0.962449 1.725715,0.70208 0.597492,-0.275927 0.02751,-1.587115 0.619488,-1.874681 0.370368,-0.179914 0.790137,0.598144 1.161536,0.420367 0.235609,-0.112779 0.04304,-0.587734 0.254434,-0.741174 0.19101,-0.138646 0.707986,-0.01106 0.707986,-0.01106 l 0.707985,-0.398241"
       id="path20"
       sodipodi:nodetypes="caaaaacc" /><path
       style="fill:none;fill-opacity:1;stroke:#fd0000;stroke-width:0.264999;stroke-linejoin:round;stroke-dasharray:none;stroke-dashoffset:0;stroke-opacity:1;marker-end:url(#Triangle-6)"
       d="m 37.640798,35.690691 c 0,0 0.674849,-0.410186 0.954601,-0.238915 0.529645,0.324261 -0.118403,1.504102 0.418999,1.815337 0.569513,0.32983 1.313772,-0.890896 1.889629,-0.572274 0.360282,0.199345 -0.03443,0.990408 0.324696,1.191826 0.227824,0.127775 0.505417,-0.303047 0.752558,-0.218475 0.223312,0.07642 0.416495,0.572625 0.416495,0.572625 l 0.73313,0.349799"
       id="path20-2"
       sodipodi:nodetypes="caaaaacc" /><path
       style="fill:none;fill-opacity:1;stroke:#fd0000;stroke-width:0.264999;stroke-linejoin:round;stroke-dasharray:none;stroke-dashoffset:0;stroke-opacity:1;marker-end:url(#Triangle-9)"
       d="m 35.456445,40.576277 c 0,0 0.752673,0.239078 0.807433,0.562491 0.103675,0.612307 -1.21149,0.899242 -1.092898,1.508835 0.125679,0.646017 1.534889,0.40473 1.673185,1.048163 0.08652,0.402561 -0.769122,0.624936 -0.684919,1.027989 0.05342,0.25569 0.56057,0.181785 0.659245,0.423641 0.08916,0.218535 -0.157883,0.690246 -0.157883,0.690246 l 0.218157,0.782462"
       id="path20-3"
       sodipodi:nodetypes="caaaaacc" /><path
       style="fill:none;fill-opacity:1;stroke:#fd0000;stroke-width:0.264999;stroke-linejoin:round;stroke-dasharray:none;stroke-dashoffset:0;stroke-opacity:1;marker-end:url(#Triangle-7)"
       d="m 28.314877,38.926423 c 0,0 0.05703,0.787669 -0.223028,0.958438 -0.530224,0.323311 -1.284332,-0.791729 -1.806506,-0.45557 -0.553373,0.356245 0.193209,1.575551 -0.353087,1.942556 -0.341787,0.229614 -0.86556,-0.482595 -1.208666,-0.254953 -0.21766,0.144412 0.03902,0.588015 -0.149017,0.76933 -0.1699,0.163834 -0.699587,0.109293 -0.699587,0.109293 l -0.645805,0.492721"
       id="path20-9"
       sodipodi:nodetypes="caaaaacc" /><path
       style="fill:none;fill-opacity:1;stroke:#fd0000;stroke-width:0.264999;stroke-linejoin:round;stroke-dasharray:none;stroke-dashoffset:0;stroke-opacity:1;marker-end:url(#Triangle-93)"
       d="m 29.760272,31.915076 c 0,0 -0.482357,0.625305 -0.80497,0.566011 -0.610791,-0.11226 -0.430037,-1.446172 -1.043387,-1.543488 -0.649997,-0.10313 -0.905843,1.303511 -1.557734,1.21312 -0.407852,-0.05655 -0.323791,-0.936617 -0.731311,-0.995519 -0.258523,-0.03737 -0.362747,0.464433 -0.62377,0.474326 -0.235855,0.0089 -0.594455,-0.384694 -0.594455,-0.384694 l -0.809861,-0.06296"
       id="path20-7"
       sodipodi:nodetypes="caaaaacc" /><path
       style="fill:none;fill-opacity:1;stroke:#fd0000;stroke-width:0.264999;stroke-linejoin:round;stroke-dasharray:none;stroke-dashoffset:0;stroke-opacity:1;marker-end:url(#Triangle-72)"
       d="m 32.96824,26.321979 c 0,0 -0.710381,-0.345013 -0.717979,-0.672942 -0.01439,-0.620855 1.328396,-0.715336 1.298858,-1.335655 -0.0313,-0.657383 -1.460574,-0.621622 -1.504736,-1.278266 -0.02763,-0.410826 0.851127,-0.507619 0.825865,-0.918598 -0.01603,-0.260718 -0.528534,-0.260643 -0.591339,-0.514192 -0.05675,-0.2291 0.255672,-0.660301 0.255672,-0.660301 L 32.43142,20.136297"
       id="path20-1"
       sodipodi:nodetypes="caaaaacc" /><path
       style="opacity:1;fill:none;fill-opacity:1;stroke:#0000ff;stroke-width:0.264999;stroke-linejoin:round;stroke-dasharray:none;stroke-dashoffset:0;stroke-opacity:1;marker-end:url(#Triangle);marker-start:url(#Dot)"
       d="M 78.065663,32.978439 V 40.58163"
       id="path23" /><path
       style="fill:none;fill-opacity:1;stroke:#fd0000;stroke-width:0.264999;stroke-linejoin:round;stroke-dasharray:none;stroke-dashoffset:0;stroke-opacity:1;marker-end:url(#Triangle-4)"
       d="m 157.6896,38.228943 c 0,0 -0.67503,-0.409875 -0.65193,-0.737101 0.0437,-0.61948 1.38944,-0.588041 1.41801,-1.208409 0.0303,-0.65743 -1.39608,-0.755411 -1.37867,-1.41331 0.0109,-0.411612 0.89485,-0.425845 0.90811,-0.837387 0.008,-0.261075 -0.50188,-0.308868 -0.54069,-0.567209 -0.0351,-0.233402 0.31627,-0.633517 0.31627,-0.633517 l -0.0274,-0.811847"
       id="path20-8"
       sodipodi:nodetypes="caaaaacc" /><path
       style="fill:none;fill-opacity:1;stroke:#fd0000;stroke-width:0.264999;stroke-linejoin:round;stroke-dasharray:none;stroke-dashoffset:0;stroke-opacity:1;marker-end:url(#Triangle-8)"
       d="m 160.17779,38.646935 c 0,0 -0.71201,-0.341622 -0.72115,-0.669535 -0.0173,-0.620776 1.32499,-0.721612 1.29253,-1.341791 -0.0344,-0.657225 -1.46351,-0.614695 -1.51077,-1.271125 -0.0296,-0.410693 0.84871,-0.511641 0.8215,-0.922497 -0.0172,-0.260645 -0.52977,-0.258105 -0.59376,-0.511393 -0.0578,-0.228831 0.25255,-0.661501 0.25255,-0.661501 l -0.10697,-0.805235"
       id="path20-17"
       sodipodi:nodetypes="caaaaacc" /><g
       id="g26"><path
         style="fill:none;fill-opacity:1;stroke:#fd0000;stroke-width:0.264999;stroke-linejoin:round;stroke-dasharray:none;stroke-dashoffset:0;stroke-opacity:1;marker-end:url(#Triangle-0)"
         d="m 75.761133,0.92610801 c 0,0 1.028621,0.61882399 0.9694,1.07727659 -0.112127,0.8679711 -2.218161,0.7387047 -2.306632,1.6088731 -0.09376,0.9221612 2.133894,1.1500611 2.060267,2.0736913 -0.04606,0.5778645 -1.431887,0.5419882 -1.481662,1.1196054 -0.03158,0.3664306 0.764454,0.4659171 0.807088,0.8314466 0.03853,0.3302841 -0.540111,0.8704637 -0.540111,0.8704637 l -0.01427,1.1428454"
         id="path20-33"
         sodipodi:nodetypes="caaaaacc" /><path
         style="fill:none;fill-opacity:1;stroke:#fd0000;stroke-width:0.264999;stroke-linejoin:round;stroke-dasharray:none;stroke-dashoffset:0;stroke-opacity:1;marker-end:url(#Triangle-0-6)"
         d="m 78.215236,4.048426 c 0,0 0.616361,0.3973513 0.580875,0.6917271 -0.06719,0.5573305 -1.329149,0.4743276 -1.382162,1.0330691 -0.05619,0.5921263 1.278656,0.7384625 1.234538,1.3315321 -0.0276,0.3710509 -0.858005,0.3480145 -0.88783,0.7189068 -0.01892,0.2352882 0.45807,0.299169 0.483617,0.5338781 0.02309,0.2120782 -0.323641,0.5589303 -0.323641,0.5589303 l -0.0085,0.7338304"
         id="path20-33-6"
         sodipodi:nodetypes="caaaaacc" /><path
         style="fill:none;fill-opacity:1;stroke:#fd0000;stroke-width:0.264999;stroke-linejoin:round;stroke-dasharray:none;stroke-dashoffset:0;stroke-opacity:1;marker-end:url(#Triangle-0-6-3)"
         d="m 73.337274,4.048426 c 0,0 0.616361,0.3973513 0.580875,0.6917271 -0.06719,0.5573305 -1.329149,0.4743276 -1.382162,1.0330691 -0.05619,0.5921263 1.278656,0.7384625 1.234538,1.3315321 -0.0276,0.3710509 -0.858005,0.3480145 -0.88783,0.7189068 -0.01892,0.2352882 0.45807,0.299169 0.483617,0.5338781 0.02309,0.2120782 -0.323641,0.5589303 -0.323641,0.5589303 l -0.0085,0.7338304"
         id="path20-33-6-3"
         sodipodi:nodetypes="caaaaacc" /><path
         style="fill:none;fill-opacity:1;stroke:#fd0000;stroke-width:0.264999;stroke-linejoin:round;stroke-dasharray:none;stroke-dashoffset:0;stroke-opacity:1;marker-end:url(#Triangle-0-6-2)"
         d="m 70.849717,5.9181208 c 0,0 0.31453,0.2647285 0.296422,0.4608514 -0.03429,0.3713118 -0.678266,0.3160126 -0.705319,0.6882646 -0.02868,0.3944939 0.652499,0.4919879 0.629985,0.8871104 -0.01408,0.2472062 -0.43784,0.2318587 -0.45306,0.4789593 -0.0097,0.1567567 0.233754,0.1993162 0.24679,0.3556871 0.01179,0.1412935 -0.165154,0.3723778 -0.165154,0.3723778 l -0.0043,0.4889017"
         id="path20-33-6-4"
         sodipodi:nodetypes="caaaaacc" /><path
         style="fill:none;fill-opacity:1;stroke:#fd0000;stroke-width:0.264999;stroke-linejoin:round;stroke-dasharray:none;stroke-dashoffset:0;stroke-opacity:1;marker-end:url(#Triangle-0-6-2-7)"
         d="m 80.60564,5.9181208 c 0,0 0.31453,0.2647285 0.296422,0.4608514 -0.03429,0.3713118 -0.678266,0.3160126 -0.705319,0.6882646 -0.02868,0.3944939 0.652499,0.4919879 0.629985,0.8871104 -0.01408,0.2472062 -0.43784,0.2318587 -0.45306,0.4789593 -0.0097,0.1567567 0.233754,0.1993162 0.24679,0.3556871 0.01179,0.1412935 -0.165154,0.3723778 -0.165154,0.3723778 l -0.0043,0.4889017"
         id="path20-33-6-4-6"
         sodipodi:nodetypes="caaaaacc" /></g><path
       style="opacity:1;fill:#0062ff;fill-opacity:1;stroke:#0000ff;stroke-width:0.264999;stroke-linejoin:round;stroke-dasharray:none;stroke-dashoffset:0;stroke-opacity:1"
       d="m 112.10511,5.2213946 c 0,0 -1.61481,0.6076702 -1.88059,1.327473 -0.16604,0.4496891 -0.0879,1.2080515 0.35399,1.393847 0.4874,0.2049299 1.08975,-0.3492181 1.37173,-0.796484 0.34328,-0.5445062 0.15487,-1.924836 0.15487,-1.924836 z"
       id="path26"
       sodipodi:nodetypes="caaac" /><path
       style="fill:#0062ff;fill-opacity:1;stroke:#0000ff;stroke-width:0.264999;stroke-linejoin:round;stroke-dasharray:none;stroke-dashoffset:0;stroke-opacity:1"
       d="m 114.5422,2.7783278 c 0,0 -1.61481,0.6076702 -1.88059,1.327473 -0.16604,0.4496891 -0.0879,1.2080515 0.35399,1.393847 0.4874,0.2049299 1.08975,-0.3492181 1.37173,-0.796484 0.34328,-0.5445062 0.15487,-1.924836 0.15487,-1.924836 z"
       id="path26-6"
       sodipodi:nodetypes="caaac" /><path
       style="fill:#0062ff;fill-opacity:1;stroke:#0000ff;stroke-width:0.264999;stroke-linejoin:round;stroke-dasharray:none;stroke-dashoffset:0;stroke-opacity:1"
       d="m 115.53416,5.2213946 c 0,0 -1.61481,0.6076702 -1.88059,1.327473 -0.16604,0.4496891 -0.0879,1.2080515 0.35399,1.393847 0.4874,0.2049299 1.08975,-0.3492181 1.37173,-0.796484 0.34328,-0.5445062 0.15487,-1.924836 0.15487,-1.924836 z"
       id="path26-8"
       sodipodi:nodetypes="caaac" /><path
       style="opacity:1;fill:none;fill-opacity:1;stroke:#000000;stroke-width:0.264999;stroke-linejoin:round;stroke-dasharray:none;stroke-dashoffset:0;stroke-opacity:1"
       d="m 40.399432,2.1682062 h 1.327476 V 7.964839 L 42.45847,7.7560666 41.06317,10.591268 39.660118,7.7560666 40.399432,7.964839 Z"
       id="path27"
       sodipodi:nodetypes="cccccccc" /><path
       style="fill:none;fill-opacity:1;stroke:#000000;stroke-width:0.264999;stroke-linejoin:round;stroke-dasharray:none;stroke-dashoffset:0;stroke-opacity:1"
       d="M 42.369326,11.25113 V 9.923654 h 5.796632 l -0.208772,-0.731562 2.835201,1.3953 -2.835201,1.403052 0.208772,-0.739314 z"
       id="path27-0"
       sodipodi:nodetypes="cccccccc" /><text
       xml:space="preserve"
       style="font-size:3.52777px;font-family:Arial;-inkscape-font-specification:'Arial, Normal';text-align:center;text-anchor:middle;opacity:1;fill:none;fill-opacity:1;stroke:#000000;stroke-width:0.264999;stroke-linejoin:round;stroke-dasharray:none;stroke-dashoffset:0;stroke-opacity:1"
       x="23.2651"
       y="17.655298"
       id="text27"><tspan
         sodipodi:role="line"
         id="tspan27"
         style="font-style:normal;font-variant:normal;font-weight:normal;font-stretch:normal;font-size:2.82222px;font-family:Arial;-inkscape-font-specification:'Arial, Normal';font-variant-ligatures:normal;font-variant-caps:normal;font-variant-numeric:normal;font-variant-east-asian:normal;fill:#000000;fill-opacity:1;stroke:none;stroke-width:0.265"
         x="23.2651"
         y="17.655298">changements de phase</tspan></text><text
       xml:space="preserve"
       style="font-size:3.52777px;font-family:Arial;-inkscape-font-specification:'Arial, Normal';text-align:center;text-anchor:middle;fill:none;fill-opacity:1;stroke:#000000;stroke-width:0.264999;stroke-linejoin:round;stroke-dasharray:none;stroke-dashoffset:0;stroke-opacity:1"
       x="21.439507"
       y="5.1952024"
       id="text27-6"><tspan
         sodipodi:role="line"
         id="tspan27-5"
         style="font-style:normal;font-variant:normal;font-weight:normal;font-stretch:normal;font-size:2.82222px;font-family:Arial;-inkscape-font-specification:'Arial, Normal';font-variant-ligatures:normal;font-variant-caps:normal;font-variant-numeric:normal;font-variant-east-asian:normal;fill:#000000;fill-opacity:1;stroke:none;stroke-width:0.265"
         x="21.439507"
         y="5.1952024">chargement mécanique</tspan></text><g
       id="g1"
       transform="translate(39.749671,-12.566405)"><text
         xml:space="preserve"
         style="font-size:3.52777px;font-family:Arial;-inkscape-font-specification:'Arial, Normal';text-align:center;text-anchor:middle;opacity:1;fill:none;fill-opacity:1;stroke:#000000;stroke-width:0.264999;stroke-linejoin:round;stroke-dasharray:none;stroke-dashoffset:0;stroke-opacity:1"
         x="23.2651"
         y="17.655298"
         id="text27-8"><tspan
           sodipodi:role="line"
           id="tspan27-8"
           style="font-style:normal;font-variant:normal;font-weight:normal;font-stretch:normal;font-size:2.82222px;font-family:Arial;-inkscape-font-specification:'Arial, Normal';font-variant-ligatures:normal;font-variant-caps:normal;font-variant-numeric:normal;font-variant-east-asian:normal;fill:#000000;fill-opacity:1;stroke:none;stroke-width:0.265"
           x="23.2651"
           y="17.655298">thermique</tspan></text></g><text
       xml:space="preserve"
       style="font-style:normal;font-variant:normal;font-weight:normal;font-stretch:normal;font-size:2.82223px;font-family:Arial;-inkscape-font-specification:'Arial, Normal';font-variant-ligatures:normal;font-variant-caps:normal;font-variant-numeric:normal;font-variant-east-asian:normal;text-align:center;text-anchor:middle;opacity:1;fill:#000000;fill-opacity:1;stroke:none;stroke-width:0.264999;stroke-linejoin:round;stroke-dasharray:none;stroke-dashoffset:0;stroke-opacity:1"
       x="98.227547"
       y="5.0889001"
       id="text28"><tspan
         sodipodi:role="line"
         id="tspan28"
         style="stroke-width:0.265"
         x="98.227547"
         y="5.0889001">environnement</tspan></text><text
       xml:space="preserve"
       style="font-style:normal;font-variant:normal;font-weight:normal;font-stretch:normal;font-size:2.82223px;font-family:Arial;-inkscape-font-specification:'Arial, Normal';font-variant-ligatures:normal;font-variant-caps:normal;font-variant-numeric:normal;font-variant-east-asian:normal;text-align:center;text-anchor:middle;fill:#000000;fill-opacity:1;stroke:none;stroke-width:0.264999;stroke-linejoin:round;stroke-dasharray:none;stroke-dashoffset:0;stroke-opacity:1"
       x="151.53871"
       y="20.509352"
       id="text29-2"><tspan
         sodipodi:role="line"
         id="tspan29-6"
         style="stroke-width:0.265"
         x="151.53871"
         y="20.509352">contamination</tspan></text><text
       xml:space="preserve"
       style="font-style:normal;font-variant:normal;font-weight:normal;font-stretch:normal;font-size:2.82223px;font-family:Arial;-inkscape-font-specification:'Arial, Normal';font-variant-ligatures:normal;font-variant-caps:normal;font-variant-numeric:normal;font-variant-east-asian:normal;text-align:center;text-anchor:middle;fill:#000000;fill-opacity:1;stroke:none;stroke-width:0.264999;stroke-linejoin:round;stroke-dasharray:none;stroke-dashoffset:0;stroke-opacity:1"
       x="123.99383"
       y="16.836874"
       id="text29-2-6"><tspan
         sodipodi:role="line"
         id="tspan29-6-1"
         style="stroke-width:0.265"
         x="123.99383"
         y="16.836874">lubrification</tspan></text><text
       xml:space="preserve"
       style="font-style:normal;font-variant:normal;font-weight:normal;font-stretch:normal;font-size:2.82223px;font-family:Arial;-inkscape-font-specification:'Arial, Normal';font-variant-ligatures:normal;font-variant-caps:normal;font-variant-numeric:normal;font-variant-east-asian:normal;text-align:center;text-anchor:middle;fill:#000000;fill-opacity:1;stroke:none;stroke-width:0.264999;stroke-linejoin:round;stroke-dasharray:none;stroke-dashoffset:0;stroke-opacity:1"
       x="115.96538"
       y="26.925493"
       id="text29-2-6-3"><tspan
         sodipodi:role="line"
         id="tspan29-6-1-4"
         style="stroke-width:0.265"
         x="115.96538"
         y="26.925493">mouillage</tspan></text><path
       style="opacity:1;fill:none;fill-opacity:1;stroke:#000000;stroke-width:0.264999;stroke-linejoin:round;stroke-dasharray:none;stroke-dashoffset:0;stroke-opacity:1"
       d="M 139.58791,10.591268 V 4.2943936 h 5.8589"
       id="path29"
       sodipodi:nodetypes="ccc" /><path
       style="opacity:1;fill:none;fill-opacity:1;stroke:#000000;stroke-width:0.264999;stroke-linejoin:round;stroke-dasharray:none;stroke-dashoffset:0;stroke-opacity:1"
       d="M 145.44681,2.675196 V 5.9135911"
       id="path30"
       sodipodi:nodetypes="cc" /><path
       style="opacity:1;fill:none;fill-opacity:1;stroke:#000000;stroke-width:0.264999;stroke-linejoin:round;stroke-dasharray:none;stroke-dashoffset:0;stroke-opacity:1"
       d="M 146.99553,1.2163469 V 7.3724402"
       id="path31"
       sodipodi:nodetypes="cc" /><path
       style="opacity:1;fill:none;fill-opacity:1;stroke:#000000;stroke-width:0.264999;stroke-linejoin:round;stroke-dasharray:none;stroke-dashoffset:0;stroke-opacity:1"
       d="m 146.99553,4.2943936 h 21.01832 V 38.423847"
       id="path32"
       sodipodi:nodetypes="ccc" /><text
       xml:space="preserve"
       style="font-style:normal;font-variant:normal;font-weight:normal;font-stretch:normal;font-size:2.82223px;font-family:Arial;-inkscape-font-specification:'Arial, Normal';font-variant-ligatures:normal;font-variant-caps:normal;font-variant-numeric:normal;font-variant-east-asian:normal;text-align:center;text-anchor:middle;opacity:1;fill:none;fill-opacity:1;stroke:#000000;stroke-width:0.264999;stroke-linejoin:round;stroke-dasharray:none;stroke-dashoffset:0;stroke-opacity:1"
       x="112.28931"
       y="26.127476"
       id="text32"><tspan
         sodipodi:role="line"
         id="tspan32"
         style="stroke-width:0.265" /></text><text
       xml:space="preserve"
       style="font-style:normal;font-variant:normal;font-weight:normal;font-stretch:normal;font-size:2.82223px;font-family:Arial;-inkscape-font-specification:'Arial, Normal';font-variant-ligatures:normal;font-variant-caps:normal;font-variant-numeric:normal;font-variant-east-asian:normal;text-align:center;text-anchor:middle;opacity:1;fill:none;fill-opacity:1;stroke:#000000;stroke-width:0.264999;stroke-linejoin:round;stroke-dasharray:none;stroke-dashoffset:0;stroke-opacity:1"
       x="102.51559"
       y="19.48271"
       id="text33"><tspan
         sodipodi:role="line"
         id="tspan33"
         style="fill:#000000;fill-opacity:1;stroke:none;stroke-width:0.265"
         x="102.51559"
         y="19.48271">frottements</tspan></text><text
       xml:space="preserve"
       style="font-style:normal;font-variant:normal;font-weight:normal;font-stretch:normal;font-size:2.82223px;font-family:Arial;-inkscape-font-specification:'Arial, Normal';font-variant-ligatures:normal;font-variant-caps:normal;font-variant-numeric:normal;font-variant-east-asian:normal;text-align:center;text-anchor:middle;opacity:1;fill:#000000;fill-opacity:1;stroke:none;stroke-width:0.264999;stroke-linejoin:round;stroke-dasharray:none;stroke-dashoffset:0;stroke-opacity:1"
       x="89.677185"
       y="26.179283"
       id="text34"><tspan
         sodipodi:role="line"
         id="tspan34"
         style="stroke-width:0.265"
         x="89.677185"
         y="26.179283">adhesion</tspan></text><text
       xml:space="preserve"
       style="font-style:normal;font-variant:normal;font-weight:normal;font-stretch:normal;font-size:2.82223px;font-family:Arial;-inkscape-font-specification:'Arial, Normal';font-variant-ligatures:normal;font-variant-caps:normal;font-variant-numeric:normal;font-variant-east-asian:normal;text-align:center;text-anchor:middle;opacity:1;fill:#000000;fill-opacity:1;stroke:none;stroke-width:0.264999;stroke-linejoin:round;stroke-dasharray:none;stroke-dashoffset:0;stroke-opacity:1"
       x="78.460945"
       y="17.127556"
       id="text35"><tspan
         sodipodi:role="line"
         id="tspan35"
         style="stroke-width:0.265"
         x="78.460945"
         y="17.127556">effets</tspan><tspan
         sodipodi:role="line"
         style="stroke-width:0.265"
         x="78.460945"
         y="20.655344"
         id="tspan36">quantiques</tspan></text><text
       xml:space="preserve"
       style="font-style:normal;font-variant:normal;font-weight:normal;font-stretch:normal;font-size:2.82223px;font-family:Arial;-inkscape-font-specification:'Arial, Normal';font-variant-ligatures:normal;font-variant-caps:normal;font-variant-numeric:normal;font-variant-east-asian:normal;text-align:center;text-anchor:middle;opacity:1;fill:#000000;fill-opacity:1;stroke:none;stroke-width:0.264999;stroke-linejoin:round;stroke-dasharray:none;stroke-dashoffset:0;stroke-opacity:1"
       x="58.977467"
       y="23.815594"
       id="text37"><tspan
         sodipodi:role="line"
         id="tspan37"
         style="stroke-width:0.265"
         x="58.977467"
         y="23.815594">corrosion</tspan></text><text
       xml:space="preserve"
       style="font-style:normal;font-variant:normal;font-weight:normal;font-stretch:normal;font-size:2.82223px;font-family:Arial;-inkscape-font-specification:'Arial, Normal';font-variant-ligatures:normal;font-variant-caps:normal;font-variant-numeric:normal;font-variant-east-asian:normal;text-align:center;text-anchor:middle;opacity:1;fill:#000000;fill-opacity:1;stroke:none;stroke-width:0.264999;stroke-linejoin:round;stroke-dasharray:none;stroke-dashoffset:0;stroke-opacity:1"
       x="10.247118"
       y="51.295341"
       id="text38"><tspan
         sodipodi:role="line"
         id="tspan38"
         style="stroke-width:0.265"
         x="10.247118"
         y="51.295341">corps</tspan><tspan
         sodipodi:role="line"
         style="stroke-width:0.265"
         x="10.247118"
         y="54.823128"
         id="tspan39">étrangers</tspan></text><text
       xml:space="preserve"
       style="font-style:normal;font-variant:normal;font-weight:normal;font-stretch:normal;font-size:2.82223px;font-family:Arial;-inkscape-font-specification:'Arial, Normal';font-variant-ligatures:normal;font-variant-caps:normal;font-variant-numeric:normal;font-variant-east-asian:normal;text-align:center;text-anchor:middle;opacity:1;fill:#000000;fill-opacity:1;stroke:none;stroke-width:0.264999;stroke-linejoin:round;stroke-dasharray:none;stroke-dashoffset:0;stroke-opacity:1"
       x="35.030674"
       y="55.158031"
       id="text40"><tspan
         sodipodi:role="line"
         id="tspan40"
         style="stroke-width:0.265"
         x="35.030674"
         y="55.158031">courants électriques</tspan><tspan
         sodipodi:role="line"
         style="stroke-width:0.265"
         x="35.030674"
         y="58.685818"
         id="tspan41">effet Joule</tspan></text><text
       xml:space="preserve"
       style="font-style:normal;font-variant:normal;font-weight:normal;font-stretch:normal;font-size:2.82223px;font-family:Arial;-inkscape-font-specification:'Arial, Normal';font-variant-ligatures:normal;font-variant-caps:normal;font-variant-numeric:normal;font-variant-east-asian:normal;text-align:center;text-anchor:middle;opacity:1;fill:#000000;fill-opacity:1;stroke:none;stroke-width:0.264999;stroke-linejoin:round;stroke-dasharray:none;stroke-dashoffset:0;stroke-opacity:1"
       x="62.345165"
       y="50.688683"
       id="text42"><tspan
         sodipodi:role="line"
         id="tspan42"
         style="stroke-width:0.265"
         x="62.345165"
         y="50.688683">usure</tspan></text><text
       xml:space="preserve"
       style="font-style:normal;font-variant:normal;font-weight:normal;font-stretch:normal;font-size:2.82223px;font-family:Arial;-inkscape-font-specification:'Arial, Normal';font-variant-ligatures:normal;font-variant-caps:normal;font-variant-numeric:normal;font-variant-east-asian:normal;text-align:center;text-anchor:middle;opacity:1;fill:#000000;fill-opacity:1;stroke:none;stroke-width:0.264999;stroke-linejoin:round;stroke-dasharray:none;stroke-dashoffset:0;stroke-opacity:1"
       x="72.715271"
       y="52.752991"
       id="text43"><tspan
         sodipodi:role="line"
         id="tspan43"
         style="stroke-width:0.265"
         x="72.715271"
         y="52.752991" /></text><text
       xml:space="preserve"
       style="font-style:normal;font-variant:normal;font-weight:normal;font-stretch:normal;font-size:2.82223px;font-family:Arial;-inkscape-font-specification:'Arial, Normal';font-variant-ligatures:normal;font-variant-caps:normal;font-variant-numeric:normal;font-variant-east-asian:normal;text-align:center;text-anchor:middle;opacity:1;fill:#000000;fill-opacity:1;stroke:none;stroke-width:0.264999;stroke-linejoin:round;stroke-dasharray:none;stroke-dashoffset:0;stroke-opacity:1"
       x="77.521278"
       y="53.618721"
       id="text44"><tspan
         sodipodi:role="line"
         id="tspan44"
         style="stroke-width:0.265"
         x="77.521278"
         y="53.618721">fissures</tspan></text><text
       xml:space="preserve"
       style="font-style:normal;font-variant:normal;font-weight:normal;font-stretch:normal;font-size:2.82223px;font-family:Arial;-inkscape-font-specification:'Arial, Normal';font-variant-ligatures:normal;font-variant-caps:normal;font-variant-numeric:normal;font-variant-east-asian:normal;text-align:center;text-anchor:middle;opacity:1;fill:#000000;fill-opacity:1;stroke:none;stroke-width:0.264999;stroke-linejoin:round;stroke-dasharray:none;stroke-dashoffset:0;stroke-opacity:1"
       x="132.63411"
       y="53.119034"
       id="text45"><tspan
         sodipodi:role="line"
         id="tspan45"
         style="stroke-width:0.265"
         x="132.63411"
         y="53.119034">échauffement et</tspan><tspan
         sodipodi:role="line"
         style="stroke-width:0.265"
         x="132.63411"
         y="56.64682"
         id="tspan46">transferts de chaleur</tspan></text><text
       xml:space="preserve"
       style="font-style:normal;font-variant:normal;font-weight:normal;font-stretch:normal;font-size:2.28095px;font-family:Arial;-inkscape-font-specification:'Arial, Normal';font-variant-ligatures:normal;font-variant-caps:normal;font-variant-numeric:normal;font-variant-east-asian:normal;text-align:center;text-anchor:middle;opacity:1;fill:#000000;fill-opacity:1;stroke:none;stroke-width:0.264999;stroke-linejoin:round;stroke-dasharray:none;stroke-dashoffset:0;stroke-opacity:1"
       x="55.270546"
       y="35.879726"
       id="text47"><tspan
         sodipodi:role="line"
         id="tspan47"
         style="stroke-width:0.265"
         x="55.270546"
         y="35.879726">4Cu+O<tspan
   style="font-size:1.48261px;baseline-shift:sub;stroke-width:0.265"
   id="tspan49">2</tspan>  = 2Cu<tspan
   style="font-size:1.48261px;baseline-shift:sub;stroke-width:0.265"
   id="tspan48">2</tspan>O</tspan></text><text
       xml:space="preserve"
       style="font-size:2.82223px;font-family:Arial;-inkscape-font-specification:'Arial, Normal';text-align:center;text-anchor:middle;fill:#000000;stroke-width:0.264999;stroke-linejoin:round"
       x="76.217163"
       y="32.282867"
       id="text1"><tspan
         sodipodi:role="line"
         id="tspan1"
         style="stroke-width:0.265"
         x="76.217163"
         y="32.282867">e<tspan
   style="font-size:65%;baseline-shift:super"
   id="tspan2">-</tspan></tspan></text></g></svg>
