<?xml version="1.0" encoding="UTF-8" standalone="no"?>
<!-- Created with Inkscape (http://www.inkscape.org/) -->

<svg
   width="120mm"
   height="35mm"
   viewBox="0 0 120 35"
   version="1.1"
   id="svg5"
   xml:space="preserve"
   inkscape:version="1.2.2 (b0a8486541, 2022-12-01)"
   sodipodi:docname="profil.svg"
   xmlns:inkscape="http://www.inkscape.org/namespaces/inkscape"
   xmlns:sodipodi="http://sodipodi.sourceforge.net/DTD/sodipodi-0.dtd"
   xmlns="http://www.w3.org/2000/svg"
   xmlns:svg="http://www.w3.org/2000/svg"><sodipodi:namedview
     id="namedview7"
     pagecolor="#ffffff"
     bordercolor="#000000"
     borderopacity="0.25"
     inkscape:showpageshadow="2"
     inkscape:pageopacity="0.0"
     inkscape:pagecheckerboard="0"
     inkscape:deskcolor="#d1d1d1"
     inkscape:document-units="mm"
     showgrid="false"
     inkscape:zoom="1.4802279"
     inkscape:cx="273.60652"
     inkscape:cy="49.316731"
     inkscape:window-width="1920"
     inkscape:window-height="1011"
     inkscape:window-x="0"
     inkscape:window-y="0"
     inkscape:window-maximized="1"
     inkscape:current-layer="layer1" /><defs
     id="defs2"><marker
       style="overflow:visible"
       id="marker3024"
       refX="0"
       refY="0"
       orient="auto-start-reverse"
       inkscape:stockid="Arrow2"
       markerWidth="7.6999998"
       markerHeight="5.5999999"
       viewBox="0 0 7.7 5.6"
       inkscape:isstock="true"
       inkscape:collect="always"
       preserveAspectRatio="xMidYMid"><path
         transform="scale(0.7)"
         d="M -2,-4 9,0 -2,4 c 2,-2.33 2,-5.66 0,-8 z"
         style="fill:context-stroke;fill-rule:evenodd;stroke:none"
         id="path3022" /></marker><marker
       style="overflow:visible"
       id="marker2928"
       refX="0"
       refY="0"
       orient="auto-start-reverse"
       inkscape:stockid="Arrow2"
       markerWidth="7.6999998"
       markerHeight="5.5999999"
       viewBox="0 0 7.7 5.6"
       inkscape:isstock="true"
       inkscape:collect="always"
       preserveAspectRatio="xMidYMid"><path
         transform="scale(0.7)"
         d="M -2,-4 9,0 -2,4 c 2,-2.33 2,-5.66 0,-8 z"
         style="fill:context-stroke;fill-rule:evenodd;stroke:none"
         id="path2926" /></marker><marker
       style="overflow:visible"
       id="marker2864"
       refX="0"
       refY="0"
       orient="auto-start-reverse"
       inkscape:stockid="Arrow2"
       markerWidth="7.6999998"
       markerHeight="5.5999999"
       viewBox="0 0 7.7 5.6"
       inkscape:isstock="true"
       inkscape:collect="always"
       preserveAspectRatio="xMidYMid"><path
         transform="scale(0.7)"
         d="M -2,-4 9,0 -2,4 c 2,-2.33 2,-5.66 0,-8 z"
         style="fill:context-stroke;fill-rule:evenodd;stroke:none"
         id="path2862" /></marker><marker
       style="overflow:visible"
       id="marker2667"
       refX="0"
       refY="0"
       orient="auto-start-reverse"
       inkscape:stockid="Arrow2"
       markerWidth="7.6999998"
       markerHeight="5.5999999"
       viewBox="0 0 7.7 5.6"
       inkscape:isstock="true"
       inkscape:collect="always"
       preserveAspectRatio="xMidYMid"><path
         transform="scale(0.7)"
         d="M -2,-4 9,0 -2,4 c 2,-2.33 2,-5.66 0,-8 z"
         style="fill:context-stroke;fill-rule:evenodd;stroke:none"
         id="path2665" /></marker><marker
       style="overflow:visible"
       id="Arrow2"
       refX="0"
       refY="0"
       orient="auto-start-reverse"
       inkscape:stockid="Arrow2"
       markerWidth="7.6999998"
       markerHeight="5.5999999"
       viewBox="0 0 7.7 5.6"
       inkscape:isstock="true"
       inkscape:collect="always"
       preserveAspectRatio="xMidYMid"><path
         transform="scale(0.7)"
         d="M -2,-4 9,0 -2,4 c 2,-2.33 2,-5.66 0,-8 z"
         style="fill:context-stroke;fill-rule:evenodd;stroke:none"
         id="arrow2L" /></marker></defs><g
     inkscape:label="Layer 1"
     inkscape:groupmode="layer"
     id="layer1"><g
       id="g4087"
       transform="translate(-0.16311337,2.1756777)"><path
         style="opacity:1;fill:none;stroke:#000000;stroke-width:0.4;stroke-dasharray:none;stroke-opacity:1"
         d="m 1.3397086,15.867617 c 0,0 1.4631811,0.365031 2.0348721,0 0.430993,-0.275193 0.256608,-1.059602 0.645479,-1.391664 0.774861,-0.661663 2.049384,-0.341423 2.940243,-0.835972 1.625746,-0.902513 2.281377,-3.570435 4.1324153,-3.7471815 0.864549,-0.08255 1.401791,1.0808145 2.226426,1.3532775 1.10675,0.365675 2.390681,-0.088 3.481978,0.3215 1.772922,0.665267 2.721412,3.531758 4.604043,3.327956 0.952024,-0.10306 1.131753,-1.590022 1.914133,-2.142157 0.356209,-0.251381 0.836831,-0.270412 1.210937,-0.49429 0.398077,-0.238223 0.650985,-0.693192 1.072494,-0.886959 0.540728,-0.248572 1.226384,-0.03874 1.759403,-0.303442 1.297774,-0.64448 1.742889,-2.7626365 3.177473,-2.9664455 0.525771,-0.07469 1.127143,0.277669 1.421257,0.719836 0.270991,0.407404 -0.07075,1.007654 0.105516,1.4641015 0.648361,1.67897 2.063995,2.971465 3.332205,4.248552 1.229412,1.238017 2.352764,3.184966 4.095943,3.258912 1.157596,0.04911 1.858465,-1.405325 2.893507,-1.926024 0.589183,-0.2964 1.26703,-0.384562 1.862082,-0.668996 0.563123,-0.269172 1.029668,-0.71873 1.599359,-0.973707 0.365222,-0.163463 0.865298,-0.06621 1.148619,-0.348765 1.573109,-1.568843 0.681902,-4.5506925 1.95379,-6.3722965 0.183733,-0.263143 0.447798,-0.616127 0.766929,-0.5821 1.041016,0.110997 1.513044,1.482021 2.045139,2.383636 0.323402,0.547993 0.279871,1.2837765 0.667433,1.7884355 0.399776,0.520564 1.199445,0.62485 1.604668,1.141185 0.662856,0.84461 0.617153,2.084868 1.189339,2.993354 0.276103,0.438381 0.760394,0.715229 1.054791,1.14154 0.324167,0.46942 0.364684,1.124056 0.764096,1.531376 0.553243,0.564196 1.328964,1.272578 2.100021,1.099759 0.755036,-0.169228 0.707261,-1.506909 1.400014,-1.851599 0.254448,-0.126604 0.594307,0.118531 0.852614,0 0.512241,-0.235056 0.640058,-0.959792 1.102593,-1.281822 0.772254,-0.537666 2.00412,-0.295697 2.646005,-0.983769 0.675984,-0.724624 0.171794,-2.120125 0.840222,-2.851724 0.439964,-0.481544 1.317473,-0.303506 1.819592,-0.719835 0.909566,-0.754162 0.988438,-2.2360535 1.891827,-2.9976035 0.531581,-0.448118 1.277731,-1.048083 1.926764,-0.798795 1.709366,0.656552 1.585274,3.3014115 2.361444,4.9598905 0.527502,1.12714 0.695076,2.497121 1.560054,3.391836 0.662426,0.6852 1.628298,1.062281 2.555719,1.281822 1.058582,0.25059 2.307231,0.51857 3.263514,0 1.390288,-0.753921 1.334469,-3.01252 2.588292,-3.976484 1.027513,-0.789972 2.499936,-0.709321 3.694422,-1.212354 1.01482,-0.42737 2.233245,-0.673025 2.929974,-1.525712 0.363602,-0.4449905 0.0638,-1.2561915 0.475523,-1.6570735 0.255289,-0.248565 0.778684,-0.01978 1.034964,-0.267326 0.3201,-0.309187 0.12791,-0.912562 0.37851,-1.280337 0.24392,-0.357973 0.73957,-0.472993 1.02504,-0.798795 0.94542,-1.078986 0.7453,-3.614522 2.17651,-3.712835 1.42072,-0.09759 2.41079,1.950765 2.64423,3.355573 0.12012,0.722832 -0.77519,1.34253 -0.72904,2.07382 0.0517,0.818927 0.80073,1.437992 1.10188,2.2012875 0.49131,1.245282 0.58208,2.63379 1.13871,3.851279 0.274484,0.600364 0.489734,1.350465 1.068954,1.667135 0.46923,0.256534 1.07531,-0.07827 1.60432,0 0.7292,0.107891 1.39387,0.785117 2.11666,0.640375 1.94154,-0.388803 2.9773,-2.620948 4.58493,-3.776923 0.69288,-0.498222 1.63681,-0.690501 2.17225,-1.355047 0.73529,-0.912588 1.18367,-3.3106055 1.18367,-3.3106055 v 0"
         id="path910"
         sodipodi:nodetypes="caaaaaaaaaaaaaaaaaaaaaaaaaaaaaaaaaaaaaaaaaaaaaaaaaaaaaaaaaaac" /><path
         style="opacity:1;fill:none;stroke:#000000;stroke-width:0.265;stroke-dasharray:none;stroke-opacity:1"
         d="M 2.1069357,13.211867 H 113.01549"
         id="path959" /><path
         style="opacity:1;fill:none;stroke:#000000;stroke-width:0.264999;stroke-dasharray:none;stroke-opacity:1"
         d="M 24.032848,2.5151325 V 29.590311"
         id="path2413"
         sodipodi:nodetypes="cc" /><path
         style="fill:none;stroke:#000000;stroke-width:0.264999;stroke-dasharray:none;stroke-opacity:1"
         d="M 106.40577,2.844 V 29.590311"
         id="path2413-3"
         sodipodi:nodetypes="cc" /><path
         style="opacity:1;fill:none;stroke:#000000;stroke-width:0.264999;stroke-dasharray:1.06, 1.06;stroke-dashoffset:0;stroke-opacity:1"
         d="M 59.144299,19.001038 H 118.18445"
         id="path2442" /><path
         style="opacity:1;fill:none;stroke:#000000;stroke-width:0.264999;stroke-dasharray:1.06, 1.06;stroke-dashoffset:0;stroke-opacity:1"
         d="m 95.667896,2.7185225 22.516554,-0.01079"
         id="path2444" /><path
         style="opacity:1;fill:none;stroke:#000000;stroke-width:0.264999;stroke-dasharray:none;stroke-dashoffset:0;stroke-opacity:1;marker-start:url(#Arrow2);marker-end:url(#marker2667)"
         d="M 25.752846,26.265551 H 104.81827"
         id="path2446"
         sodipodi:nodetypes="cc" /><text
         xml:space="preserve"
         style="font-weight:bold;font-size:4.23333px;font-family:Arial;-inkscape-font-specification:'Arial, Bold';opacity:1;fill:none;stroke:#000000;stroke-width:0.264999;stroke-dasharray:none;stroke-dashoffset:0;stroke-opacity:1"
         x="64.447708"
         y="29.590307"
         id="text2773"><tspan
           sodipodi:role="line"
           id="tspan2771"
           style="font-style:normal;font-variant:normal;font-weight:normal;font-stretch:normal;font-size:2.82222px;font-family:Arial;-inkscape-font-specification:'Arial, Normal';font-variant-ligatures:normal;font-variant-caps:normal;font-variant-numeric:normal;font-variant-east-asian:normal;fill:#000000;fill-opacity:1;stroke:none;stroke-width:0.265"
           x="64.447708"
           y="29.590307">L</tspan></text><text
         xml:space="preserve"
         style="font-weight:bold;font-size:4.23333px;font-family:Arial;-inkscape-font-specification:'Arial, Bold';fill:none;stroke:#000000;stroke-width:0.264999;stroke-dasharray:none;stroke-dashoffset:0;stroke-opacity:1"
         x="115.91299"
         y="11.584992"
         id="text2773-2"><tspan
           sodipodi:role="line"
           id="tspan2771-2"
           style="font-style:normal;font-variant:normal;font-weight:normal;font-stretch:normal;font-size:2.82222px;font-family:Arial;-inkscape-font-specification:'Arial, Normal';font-variant-ligatures:normal;font-variant-caps:normal;font-variant-numeric:normal;font-variant-east-asian:normal;fill:#000000;fill-opacity:1;stroke:none;stroke-width:0.265"
           x="115.91299"
           y="11.584992">R<tspan
   style="font-size:65%;baseline-shift:sub"
   id="tspan2858">T</tspan></tspan></text><path
         style="opacity:1;fill:none;fill-opacity:1;stroke:#000000;stroke-width:0.264999;stroke-dasharray:none;stroke-dashoffset:0;stroke-opacity:1;marker-start:url(#marker2864);marker-end:url(#marker2928)"
         d="M 115.37721,4.3006885 V 17.413538"
         id="path2860"
         sodipodi:nodetypes="cc" /><path
         style="opacity:1;fill:none;fill-opacity:1;stroke:#000000;stroke-width:0.264999;stroke-dasharray:none;stroke-dashoffset:0;stroke-opacity:1;marker-start:url(#marker3024)"
         d="m 40.661568,11.624367 5.059911,-9.1092345 h 2.891322"
         id="path3020"
         sodipodi:nodetypes="ccc" /><text
         xml:space="preserve"
         style="font-style:normal;font-variant:normal;font-weight:normal;font-stretch:normal;font-size:2.82223px;font-family:Arial;-inkscape-font-specification:'Arial, Normal';font-variant-ligatures:normal;font-variant-caps:normal;font-variant-numeric:normal;font-variant-east-asian:normal;opacity:1;fill:none;fill-opacity:1;stroke:#000000;stroke-width:0.264999;stroke-dasharray:none;stroke-dashoffset:0;stroke-opacity:1"
         x="49.583954"
         y="3.1129942"
         id="text3914"><tspan
           sodipodi:role="line"
           id="tspan3912"
           style="fill:#000000;fill-opacity:1;stroke:none;stroke-width:0.265"
           x="49.583954"
           y="3.1129942">profil moyen</tspan></text></g></g></svg>
