<?xml version="1.0" encoding="UTF-8" standalone="no"?>
<!-- Created with Inkscape (http://www.inkscape.org/) -->

<svg
   width="150mm"
   height="55mm"
   viewBox="0 0 149.99999 55"
   version="1.1"
   id="svg4752"
   xml:space="preserve"
   inkscape:version="1.2.2 (b0a8486541, 2022-12-01)"
   sodipodi:docname="stability.svg"
   inkscape:export-filename="stability.pdf"
   inkscape:export-xdpi="96"
   inkscape:export-ydpi="96"
   xmlns:inkscape="http://www.inkscape.org/namespaces/inkscape"
   xmlns:sodipodi="http://sodipodi.sourceforge.net/DTD/sodipodi-0.dtd"
   xmlns:xlink="http://www.w3.org/1999/xlink"
   xmlns="http://www.w3.org/2000/svg"
   xmlns:svg="http://www.w3.org/2000/svg"><sodipodi:namedview
     id="namedview4754"
     pagecolor="#ffffff"
     bordercolor="#000000"
     borderopacity="0.25"
     inkscape:showpageshadow="2"
     inkscape:pageopacity="0.0"
     inkscape:pagecheckerboard="0"
     inkscape:deskcolor="#d1d1d1"
     inkscape:document-units="mm"
     showgrid="false"
     inkscape:zoom="1.3624371"
     inkscape:cx="415.43202"
     inkscape:cy="295.05949"
     inkscape:window-width="2560"
     inkscape:window-height="1403"
     inkscape:window-x="0"
     inkscape:window-y="0"
     inkscape:window-maximized="1"
     inkscape:current-layer="layer1" /><defs
     id="defs4749"><linearGradient
       inkscape:collect="always"
       id="linearGradient5998"><stop
         style="stop-color:#000000;stop-opacity:0;"
         offset="0"
         id="stop5996" /><stop
         style="stop-color:#000000;stop-opacity:0.01568627;"
         offset="0.05405876"
         id="stop20502" /><stop
         style="stop-color:#000000;stop-opacity:0.02352941;"
         offset="0.08479434"
         id="stop23192" /><stop
         style="stop-color:#000000;stop-opacity:0.16078431;"
         offset="0.28760856"
         id="stop1090" /><stop
         style="stop-color:#000000;stop-opacity:0.3372549;"
         offset="0.49876693"
         id="stop3612" /><stop
         style="stop-color:#000000;stop-opacity:0.61176471;"
         offset="0.78261608"
         id="stop4874" /><stop
         style="stop-color:#000000;stop-opacity:0.81176471;"
         offset="0.9475919"
         id="stop6640" /><stop
         style="stop-color:#000000;stop-opacity:1;"
         offset="1"
         id="stop5994" /></linearGradient><marker
       style="overflow:visible"
       id="marker5544"
       refX="0"
       refY="0"
       orient="auto-start-reverse"
       inkscape:stockid="Arrow2"
       markerWidth="7.6999998"
       markerHeight="5.5999999"
       viewBox="0 0 7.7 5.6"
       inkscape:isstock="true"
       inkscape:collect="always"
       preserveAspectRatio="xMidYMid"><path
         transform="scale(0.7)"
         d="M -2,-4 9,0 -2,4 c 2,-2.33 2,-5.66 0,-8 z"
         style="fill:context-stroke;fill-rule:evenodd;stroke:none"
         id="path5542" /></marker><marker
       style="overflow:visible"
       id="Arrow2"
       refX="0"
       refY="0"
       orient="auto-start-reverse"
       inkscape:stockid="Arrow2"
       markerWidth="7.6999998"
       markerHeight="5.5999999"
       viewBox="0 0 7.7 5.6"
       inkscape:isstock="true"
       inkscape:collect="always"
       preserveAspectRatio="xMidYMid"><path
         transform="scale(0.7)"
         d="M -2,-4 9,0 -2,4 c 2,-2.33 2,-5.66 0,-8 z"
         style="fill:context-stroke;fill-rule:evenodd;stroke:none"
         id="arrow2L" /></marker><linearGradient
       inkscape:collect="always"
       xlink:href="#linearGradient5998"
       id="linearGradient6000"
       x1="103.84956"
       y1="53.019928"
       x2="112.45144"
       y2="53.019928"
       gradientUnits="userSpaceOnUse"
       gradientTransform="translate(14.577361,-15.287537)" /><marker
       style="overflow:visible"
       id="marker2992"
       refX="0"
       refY="0"
       orient="auto"
       inkscape:stockid="Stop"
       markerWidth="1"
       markerHeight="5"
       viewBox="0 0 1 8"
       inkscape:isstock="true"
       inkscape:collect="always"
       preserveAspectRatio="none"><path
         style="fill:none;stroke:context-stroke;stroke-width:1"
         d="M 0,4 V -4"
         id="path2990" /></marker><marker
       style="overflow:visible"
       id="Stop"
       refX="0"
       refY="0"
       orient="auto"
       inkscape:stockid="Stop"
       markerWidth="1"
       markerHeight="5"
       viewBox="0 0 1 8"
       inkscape:isstock="true"
       inkscape:collect="always"
       preserveAspectRatio="none"><path
         style="fill:none;stroke:context-stroke;stroke-width:1"
         d="M 0,4 V -4"
         id="path171" /></marker><marker
       style="overflow:visible"
       id="marker2992-3"
       refX="0"
       refY="0"
       orient="auto"
       inkscape:stockid="Stop"
       markerWidth="1"
       markerHeight="5"
       viewBox="0 0 1 8"
       inkscape:isstock="true"
       inkscape:collect="always"
       preserveAspectRatio="none"><path
         style="fill:none;stroke:context-stroke;stroke-width:1"
         d="M 0,4 V -4"
         id="path2990-7" /></marker><marker
       style="overflow:visible"
       id="Stop-5"
       refX="0"
       refY="0"
       orient="auto"
       inkscape:stockid="Stop"
       markerWidth="1"
       markerHeight="5"
       viewBox="0 0 1 8"
       inkscape:isstock="true"
       inkscape:collect="always"
       preserveAspectRatio="none"><path
         style="fill:none;stroke:context-stroke;stroke-width:1"
         d="M 0,4 V -4"
         id="path171-9" /></marker><marker
       style="overflow:visible"
       id="Arrow2-3"
       refX="0"
       refY="0"
       orient="auto-start-reverse"
       inkscape:stockid="Arrow2"
       markerWidth="7.6999998"
       markerHeight="5.5999999"
       viewBox="0 0 7.7 5.6"
       inkscape:isstock="true"
       inkscape:collect="always"
       preserveAspectRatio="xMidYMid"><path
         transform="scale(0.7)"
         d="M -2,-4 9,0 -2,4 c 2,-2.33 2,-5.66 0,-8 z"
         style="fill:context-stroke;fill-rule:evenodd;stroke:none"
         id="arrow2L-6" /></marker></defs><g
     inkscape:label="Layer 1"
     inkscape:groupmode="layer"
     id="layer1"><g
       id="g31536"><path
         style="fill:url(#linearGradient6000);fill-opacity:1;stroke:none;stroke-width:0.264999;stroke-opacity:1"
         d="m 118.42692,45.291814 0.005,-15.118844 c 0,0 3.40739,2.777793 4.29898,3.934687 5.04138,6.541488 4.28191,11.174897 4.28191,11.174897 z"
         id="path5620"
         sodipodi:nodetypes="ccscc" /><path
         style="fill:none;stroke:#000000;stroke-width:0.264999;stroke-opacity:1;marker-start:url(#Arrow2);marker-end:url(#marker5544)"
         d="M 86.136119,5.6833287 V 45.282554 h 61.383061"
         id="path4945" /><path
         style="fill:none;stroke:#000000;stroke-width:0.264999;stroke-opacity:1"
         d="m 127.01327,45.282554 c 0,0 0.44107,-6.294614 -5.25087,-12.261602 -6.44779,-6.759368 -24.443609,-13.70685 -24.443609,-13.70685"
         id="path5618"
         sodipodi:nodetypes="csc" /><text
         xml:space="preserve"
         style="font-size:2.82223px;font-family:Arial;-inkscape-font-specification:'Arial, Normal';fill:#ff0000;fill-opacity:0.489851;stroke:none;stroke-width:0.264999;stroke-opacity:1"
         x="79.531937"
         y="6.0340452"
         id="text7108"><tspan
           sodipodi:role="line"
           id="tspan7106"
           style="font-style:normal;font-variant:normal;font-weight:normal;font-stretch:normal;font-size:3.52778px;font-family:Arial;-inkscape-font-specification:'Arial, Normal';font-variant-ligatures:normal;font-variant-caps:normal;font-variant-numeric:normal;font-variant-east-asian:normal;fill:#000000;fill-opacity:0.990742;stroke-width:0.265"
           x="79.531937"
           y="6.0340452">ΔV</tspan></text><text
         xml:space="preserve"
         style="font-size:2.82223px;font-family:Arial;-inkscape-font-specification:'Arial, Normal';fill:#000000;fill-opacity:0.990742;stroke:none;stroke-width:0.264999;stroke-opacity:1"
         x="125.80164"
         y="48.517994"
         id="text7214"><tspan
           sodipodi:role="line"
           id="tspan7212"
           style="stroke-width:0.265"
           x="125.80164"
           y="48.517994">σ<tspan
   style="font-size:65%;baseline-shift:sub"
   id="tspan8685">c</tspan></tspan></text><text
         xml:space="preserve"
         style="font-size:2.82223px;font-family:Arial;-inkscape-font-specification:'Arial, Normal';fill:#000000;fill-opacity:0.990742;stroke:none;stroke-width:0.264999;stroke-opacity:1"
         x="147.08513"
         y="49.080231"
         id="text7218"><tspan
           sodipodi:role="line"
           id="tspan7216"
           style="font-style:normal;font-variant:normal;font-weight:normal;font-stretch:normal;font-size:3.52778px;font-family:Arial;-inkscape-font-specification:'Arial, Normal';font-variant-ligatures:normal;font-variant-caps:normal;font-variant-numeric:normal;font-variant-east-asian:normal;stroke-width:0.265"
           x="147.08513"
           y="49.080231">σ</tspan></text><text
         xml:space="preserve"
         style="font-size:2.82223px;font-family:Arial;-inkscape-font-specification:'Arial, Normal';fill:#000000;fill-opacity:0.990742;stroke:none;stroke-width:0.264999;stroke-opacity:1"
         x="100.37765"
         y="36.344566"
         id="text7272"><tspan
           sodipodi:role="line"
           id="tspan7270"
           style="font-style:normal;font-variant:normal;font-weight:normal;font-stretch:normal;font-size:3.52778px;font-family:Arial;-inkscape-font-specification:'Arial, Normal';font-variant-ligatures:normal;font-variant-caps:normal;font-variant-numeric:normal;font-variant-east-asian:normal;stroke-width:0.265"
           x="100.37765"
           y="36.344566">stable</tspan></text><text
         xml:space="preserve"
         style="font-size:2.82223px;font-family:Arial;-inkscape-font-specification:'Arial, Normal';fill:#000000;fill-opacity:0.990742;stroke:none;stroke-width:0.264999;stroke-opacity:1"
         x="126.11355"
         y="19.719662"
         id="text7276"><tspan
           sodipodi:role="line"
           id="tspan7274"
           style="font-style:normal;font-variant:normal;font-weight:normal;font-stretch:normal;font-size:3.52778px;font-family:Arial;-inkscape-font-specification:'Arial, Normal';font-variant-ligatures:normal;font-variant-caps:normal;font-variant-numeric:normal;font-variant-east-asian:normal;stroke-width:0.265"
           x="126.11355"
           y="19.719662">instable</tspan></text><text
         xml:space="preserve"
         style="font-size:2.82223px;font-family:Arial;-inkscape-font-specification:'Arial, Normal';fill:#000000;fill-opacity:0.990742;stroke:none;stroke-width:0.264999;stroke-opacity:1"
         x="88.822792"
         y="50.944824"
         id="text7280"><tspan
           sodipodi:role="line"
           id="tspan7278"
           style="font-style:normal;font-variant:normal;font-weight:normal;font-stretch:normal;font-size:3.52778px;font-family:Arial;-inkscape-font-specification:'Arial, Normal';font-variant-ligatures:normal;font-variant-caps:normal;font-variant-numeric:normal;font-variant-east-asian:normal;stroke-width:0.265"
           x="88.822792"
           y="50.944824">stabilité conditionnelle</tspan></text><text
         xml:space="preserve"
         style="font-size:2.82223px;font-family:Arial;-inkscape-font-specification:'Arial, Normal';fill:#000000;fill-opacity:0.990742;stroke:none;stroke-width:0.264999;stroke-opacity:1"
         x="131.01248"
         y="50.944824"
         id="text7284"><tspan
           sodipodi:role="line"
           id="tspan7282"
           style="font-style:normal;font-variant:normal;font-weight:normal;font-stretch:normal;font-size:3.52778px;font-family:Arial;-inkscape-font-specification:'Arial, Normal';font-variant-ligatures:normal;font-variant-caps:normal;font-variant-numeric:normal;font-variant-east-asian:normal;stroke-width:0.265"
           x="131.01248"
           y="50.944824">instabilité</tspan></text><g
         id="g2252"><g
           id="g3885"
           transform="translate(2.3440368,1.0583333)"><rect
             style="fill:none;stroke:#000000;stroke-width:0.264999;stroke-opacity:1"
             id="rect1107"
             width="51.738438"
             height="45.269558"
             x="9.6522627"
             y="2.1331525" /><path
             style="fill:none;stroke:#000000;stroke-width:0.264999;stroke-opacity:1"
             d="m 9.652262,43.416643 c 0,0 7.493237,-5.11754 11.497371,-7.23009 0.639602,-0.33745 1.5606,-0.8957 1.990032,-0.86397 0.235778,0.0174 0.557786,0.0373 0.565803,0.42771 0.008,0.39041 0.142783,9.41742 0.141105,9.69732 -0.0017,0.2799 0.458155,0.0564 0.537353,0 4.991464,-3.5566 12.132275,-8.24806 13.026456,-8.74522 2.668107,-1.48346 1.564292,-0.86538 2.41635,-1.27595 0.852058,-0.41057 0.750395,0.421 0.750395,0.421 l 0.02687,10.2882 c 0,0 -0.04089,0.36088 0.307771,0.0936 3.198238,-2.45169 5.550518,-3.7417 8.345908,-5.58221 2.671915,-1.75922 5.42466,-3.52673 8.053808,-5.21938 0.4283,-0.27574 1.45555,-0.82842 1.49418,-0.3205 0.19587,2.57553 0.30478,5.42251 0.44092,9.2307 0.003,0.0904 0.17709,0.14392 0.25393,0.0961 1.63972,-1.02054 1.89019,-1.2529 1.89019,-1.2529"
             id="path1163"
             sodipodi:nodetypes="caszzsszccsassssc" /><path
             style="fill:none;stroke:#000000;stroke-width:0.264999;stroke-opacity:1"
             d="m 9.652263,29.08596 c 0,0 1.455832,-0.98805 2.21136,-1.4377 1.218693,-0.72531 1.667957,0.055 1.667957,0.055 v 0 c 0,0 0.041,0.17188 0.03906,0.5883 -0.0066,1.41163 0.05536,2.62747 0.1206,4.1631 0.0066,0.25222 0.02309,0.26022 0.199488,0.33682 0.178137,-0.0149 0.343725,-0.10311 0.505388,-0.1794 1.668786,-0.78756 3.167858,-1.89347 4.745919,-2.84993 1.443096,-0.87466 2.84369,-1.82164 4.318484,-2.64172 0.224279,-0.12471 0.444167,-0.26524 0.687782,-0.3459 0.366788,-0.0903 0.57188,-0.0831 0.720087,0.238 0.02865,0.1699 0.08835,0.44876 0.07731,1.05035 0.0029,2.15709 0.02894,4.19263 0.05453,6.47105 0.0011,0.0974 0.06681,0.20543 0.154361,0.24812 0.126538,0.0617 0.287337,0.002 0.419915,-0.0451 0.259767,-0.0927 0.46192,-0.30159 0.692652,-0.45274 1.368031,-0.89615 2.728831,-1.80338 4.101389,-2.69258 1.813189,-1.17466 3.59372,-2.40404 5.460881,-3.49087 0.246103,-0.14325 0.497786,-0.27765 0.75556,-0.39864 0.219008,-0.1028 0.435063,-0.22254 0.670687,-0.27743 0.192284,-0.0448 0.403665,-0.10105 0.591028,-0.0388 0.137095,0.0455 0.253652,0.15858 0.329489,0.28154 0.07144,0.11583 0.09598,0.26034 0.09769,0.39642 0.02823,2.24526 0.0427,2.79552 0.03768,6.60721 -1.98e-4,0.15037 -0.03173,0.33454 0.0695,0.44573 0.05439,0.0598 0.154655,0.0685 0.234958,0.0596 0.224595,-0.025 0.409911,-0.19204 0.604364,-0.30718 1.947658,-1.15321 3.708395,-2.59808 5.608402,-3.82822 1.154556,-0.74751 2.342468,-1.44221 3.517284,-2.15745 0.529871,-0.32259 1.041824,-0.67748 1.592826,-0.96248 0.435198,-0.22928 0.79236,-0.47906 1.329578,-0.44667 0.713452,0.0427 0.659457,1.15894 0.662449,1.73574 -0.03515,2.21644 0.0059,2.50191 0.0586,4.45361 0.0094,0.34951 -0.01305,0.71994 0.12413,1.04154 0.04127,0.0968 0.09991,0.21254 0.200342,0.24385 0.129232,0.0403 0.267552,-0.0549 0.39043,-0.11171 0.579696,-0.26791 1.065833,-0.70382 1.594964,-1.06137 2.375227,-1.60498 7.091317,-4.86547 7.091317,-4.86547"
             id="path2103"
             sodipodi:nodetypes="cscasccaaacccsaaaaaaaaassaaaaacccsaaaac" /><path
             style="fill:none;stroke:#000000;stroke-width:0.264999;stroke-opacity:1"
             d="m 9.661398,24.42912 c 0,0 0.463536,-0.24476 0.627637,-0.32026 2.227977,-1.02511 3.737059,-1.74504 5.830046,-2.64905 0.399067,-0.17237 0.812914,-0.18957 1.29902,0.11501 0.167355,0.10486 0.157534,0.41801 0.162646,0.63714 0.02663,1.14167 0.03349,1.14087 0.206778,2.99379 0.0347,0.37106 0.09233,0.28085 0.214031,0.30343 0.241439,0.0448 0.343619,-0.0563 0.611593,-0.20253 2.280622,-1.24424 4.320498,-2.50408 6.592692,-3.52878 0.273923,-0.12353 0.546392,-0.28036 0.844984,-0.31408 0.248782,-0.0281 0.52601,-0.0239 0.744656,0.0981 0.129825,0.0724 0.281806,0.19696 0.28185,0.34562 5.31e-4,1.78068 0.02114,2.94576 0.02368,4.64252 2.59e-4,0.1729 0.03058,0.40994 0.186875,0.48387 0.2306,0.10908 0.50994,-0.10534 0.726776,-0.23971 2.712126,-1.68065 3.175302,-1.97218 4.781788,-2.92704 1.39178,-0.82725 2.738621,-1.5937 4.207267,-2.42722 0.265546,-0.15071 0.671697,-0.24516 1.017796,-0.21939 0.146251,0.0109 0.302804,0.0571 0.411615,0.15539 0.131332,0.11868 0.227215,0.29857 0.236754,0.47533 0.06084,1.12733 0.109158,1.88007 0.184142,2.92487 0.01506,0.2098 0.03043,0.49222 0.21489,0.59331 0.225464,0.12357 0.529207,-0.0416 0.752628,-0.16877 2.450233,-1.39504 2.891089,-1.72512 4.356076,-2.55392 0.982189,-0.55567 1.832737,-1.02025 2.971935,-1.62134 0.345322,-0.18221 0.774116,-0.33544 1.149154,-0.22685 0.213556,0.0618 0.470811,0.23689 0.484101,0.45882 0.11143,1.8608 0.150731,2.66579 0.223432,3.968 0.0085,0.1526 0.146086,0.31526 0.294603,0.35132 0.315667,0.0766 0.618788,-0.21191 0.898851,-0.37648 1.759312,-1.03381 3.483612,-2.10056 5.248462,-3.11129 0.668008,-0.38257 1.251948,-0.66652 2.021018,-1.11751 0.30032,-0.17612 0.7054,-0.31745 1.02776,-0.18596 0.24348,0.0993 0.43699,0.37062 0.45656,0.64331 0.0838,1.16834 0.12852,2.10148 0.18503,3.17062 0.013,0.24628 0.0366,0.56667 0.24541,0.69797 0.21336,0.13419 0.53487,0.0458 0.7516,-0.0829 0.50564,-0.30019 1.22944,-0.73748 1.22944,-0.73748"
             id="path2105"
             sodipodi:nodetypes="csssssssaaassasasaassasasassasasassasc" /><path
             style="fill:none;stroke:#000000;stroke-width:0.264999;stroke-opacity:1"
             d="m 9.708939,15.56358 c 0,0 1.534892,-0.97924 2.227733,-0.63779 0.16201,0.0798 0.205089,0.32345 0.199054,0.50396 -0.05113,1.52954 -0.04023,1.9785 -0.02267,3.82368 0.0014,0.15171 0.07386,0.3504 0.21726,0.39996 0.218539,0.0755 0.440295,-0.15319 0.636834,-0.275 2.717436,-1.68416 4.9904,-2.91267 7.89586,-4.52204 0.24181,-0.13394 0.544898,-0.19402 0.816723,-0.14379 0.212312,0.0392 0.536514,0.11782 0.555639,0.33288 0.08103,0.91123 0.134642,0.91648 0.259614,1.98543 0.01566,0.13396 0.1962,0.20493 0.326816,0.23854 0.182216,0.0469 0.396001,0.021 0.559919,-0.0714 2.07622,-1.16994 3.431675,-1.89592 5.417201,-3.03641 0.25796,-0.14817 0.639223,-0.32704 0.959953,-0.24749 0.221781,0.055 0.487917,0.23689 0.506892,0.46149 0.12477,1.47686 0.03162,1.021 0.20493,2.72499 0.01689,0.1661 0.128479,0.35599 0.286062,0.41114 0.192918,0.0675 0.412663,-0.0695 0.587642,-0.1751 2.198636,-1.32729 4.205435,-2.45633 6.526821,-3.80931 0.286038,-0.16671 0.646534,-0.34082 0.962946,-0.24338 0.242169,0.0746 0.480227,0.31638 0.504537,0.5686 0.123258,1.27882 0.186976,1.96941 0.318,3.14622 0.02431,0.21831 0.146309,0.48495 0.354285,0.55564 0.273138,0.0928 0.565921,-0.14715 0.813594,-0.29507 2.04267,-1.21996 3.677988,-2.15484 5.749065,-3.26899 0.219137,-0.11789 0.498888,-0.2165 0.734123,-0.13537 0.216723,0.0747 0.398093,0.29324 0.455666,0.51514 0.17563,0.67693 0.246665,0.95701 0.430241,1.58228 0.05248,0.17877 0.230279,0.32482 0.407371,0.38271 0.250884,0.082 0.543582,0.008 0.785932,-0.0966 1.288165,-0.55584 2.30163,-1.11913 3.63076,-1.73566 0.195063,-0.0905 0.448077,-0.03 0.642006,0.0629 0.158159,0.0757 0.350959,0.2013 0.36815,0.37582 0.121287,1.23126 0.218757,1.83873 0.300177,3.18864 0.0067,0.11111 0.195127,0.12181 0.305737,0.13434 0.194678,0.022 0.409778,-0.009 0.577358,-0.11013 2.208934,-1.33794 6.175344,-3.67395 6.175344,-3.67395"
             id="path2107"
             sodipodi:nodetypes="cassassassassassassassassassassassasc" /><path
             style="fill:none;stroke:#000000;stroke-width:0.264999;stroke-opacity:1"
             d="m 9.691775,11.85147 c 0,0 1.756311,-1.0246 2.710712,-0.94925 0.554807,0.0438 0.919095,0.71098 1.469662,0.79225 1.498381,0.22118 2.963502,-1.18807 4.452099,-0.90852 0.665267,0.12493 1.043812,0.96382 1.706827,1.1002 1.646015,0.33858 3.292845,-0.91669 4.971439,-0.83715 0.836576,0.0396 1.589618,0.64359 2.42711,0.64962 1.629165,0.0117 3.110132,-1.1703 4.739143,-1.19556 0.961935,-0.0149 1.857486,0.65035 2.819021,0.61886 1.350218,-0.0442 2.548313,-1.25387 3.893209,-1.1262 0.64118,0.0609 1.08276,0.79718 1.721911,0.87657 1.196255,0.14859 2.895932,-1.60984 4.350321,-1.21908 0.719527,0.19332 0.797299,1.27991 1.560158,1.60054 0.939044,0.39469 3.765474,-1.68319 5.744451,-1.55102 0.724026,0.0484 1.285309,0.77154 2.007529,0.8419 1.516131,0.1477 3.601847,-1.33749 4.476207,-0.92075 0.81285,0.38742 0.48562,1.78596 1.0869,2.47307 0.36001,0.4114 1.55921,-0.50854 1.55921,-0.50854"
             id="path2109"
             sodipodi:nodetypes="caaaaaaaaasasaassc" /><path
             style="fill:none;stroke:#000000;stroke-width:0.264999;stroke-opacity:1"
             d="m 9.708489,5.90696 c 0,0 4.58361,-0.77542 6.766885,-0.20461 0.507297,0.13263 0.831637,0.71907 1.347862,0.81101 0.904683,0.16112 1.790213,-0.57192 2.707571,-0.51841 0.738873,0.0431 1.379581,0.61031 2.117437,0.66827 1.479779,0.11624 2.919395,-0.66562 4.403725,-0.66071 0.357004,0.001 0.701912,0.1416 1.058089,0.16591 1.143458,0.078 2.293925,0.007 3.437716,-0.0662 0.370229,-0.0236 0.735467,-0.11723 1.106437,-0.12018 0.41563,-0.003 0.825987,0.11216 1.241621,0.11494 0.393521,0.003 0.783571,-0.10522 1.176914,-0.0931 0.463393,0.0143 0.913906,0.17568 1.377122,0.19486 1.206212,0.0499 2.408706,-0.18396 3.615687,-0.20923 1.313096,-0.0275 2.626613,0.0326 3.939651,0.0628 0.97972,0.0225 1.961647,0.0113 2.938614,0.0881 1.088151,0.0855 2.158484,0.47665 3.248204,0.41426 1.118948,-0.0641 2.144338,-0.78598 3.264985,-0.80325 0.486529,-0.008 0.943413,0.25629 1.427567,0.30488 0.907383,0.0911 1.826608,-0.1006 2.735678,-0.0283 0.7891,0.0627 1.54941,0.41048 2.34093,0.39958 0.4812,-0.007 1.41592,-0.28201 1.41592,-0.28201 v 0"
             id="path2111"
             sodipodi:nodetypes="caaaaaaaaaaaaaaaaaaaac" /><g
             id="g2341"
             transform="translate(-43.609296,-108.04462)"><path
               style="opacity:1;fill:none;stroke:#000000;stroke-width:0.264999;stroke-opacity:1"
               d="m 63.609247,155.57983 v -0.68907"
               id="path2113" /><path
               style="fill:none;stroke:#000000;stroke-width:0.264999;stroke-opacity:1"
               d="m 73.956935,155.57983 v -0.68907"
               id="path2113-3" /><path
               style="fill:none;stroke:#000000;stroke-width:0.264999;stroke-opacity:1"
               d="m 84.304624,155.57983 v -0.68907"
               id="path2113-6" /><path
               style="fill:none;stroke:#000000;stroke-width:0.264999;stroke-opacity:1"
               d="m 94.652312,155.57983 v -0.68907"
               id="path2113-7" /><path
               style="fill:none;stroke:#000000;stroke-width:0.264999;stroke-opacity:1"
               d="m 53.261559,155.57983 v -0.68907"
               id="path2113-5" /><path
               style="fill:none;stroke:#000000;stroke-width:0.264999;stroke-opacity:1"
               d="m 105,155.57983 v -0.68907"
               id="path2113-35" /></g><g
             id="g2420"
             transform="translate(-94.923667,-104.86962)"><path
               style="fill:none;stroke:#000000;stroke-width:0.264999;stroke-opacity:1"
               d="m 105.1325,148.98025 h -0.68907"
               id="path2113-62" /><path
               style="fill:none;stroke:#000000;stroke-width:0.264999;stroke-opacity:1"
               d="m 105.1325,136.04609 h -0.68907"
               id="path2113-3-9" /><path
               style="fill:none;stroke:#000000;stroke-width:0.264999;stroke-opacity:1"
               d="m 105.1325,129.57901 h -0.68907"
               id="path2113-6-1" /><path
               style="fill:none;stroke:#000000;stroke-width:0.264999;stroke-opacity:1"
               d="m 105.1325,123.11193 h -0.68906"
               id="path2113-7-2" /><path
               style="fill:none;stroke:#000000;stroke-width:0.264999;stroke-opacity:1"
               d="m 105.1325,110.17777 h -0.68906"
               id="path2113-35-0" /><path
               style="fill:none;stroke:#000000;stroke-width:0.264999;stroke-opacity:1"
               d="m 105.1325,116.64485 h -0.68906"
               id="path2113-35-0-9" /><path
               style="fill:none;stroke:#000000;stroke-width:0.264999;stroke-opacity:1"
               d="m 105.1325,142.51317 h -0.68906"
               id="path2113-35-0-3" /></g><g
             id="g3502"
             transform="translate(-43.609296,-104.86962)"><path
               style="opacity:1;fill:none;fill-opacity:1;stroke:#000000;stroke-width:0.264999;stroke-opacity:1;marker-start:url(#marker2992);marker-end:url(#Stop)"
               d="m 51.623787,136.04609 -5e-6,12.93416"
               id="path2589" /><text
               xml:space="preserve"
               style="font-size:2.82223px;font-family:Arial;-inkscape-font-specification:'Arial, Normal';opacity:1;fill:none;fill-opacity:1;stroke:#000000;stroke-width:0.264999;stroke-opacity:1"
               x="-146.39035"
               y="49.114571"
               id="text3088"
               transform="rotate(-90)"><tspan
                 sodipodi:role="line"
                 id="tspan3086"
                 style="fill:#000000;fill-opacity:1;stroke:none;stroke-width:0.265"
                 x="-146.39035"
                 y="49.114571">40 µm</tspan></text></g><path
             style="fill:none;fill-opacity:1;stroke:#000000;stroke-width:0.264999;stroke-opacity:1;marker-start:url(#marker2992-3);marker-end:url(#Stop-5)"
             d="M 30.347639,48.96282 H 9.652263"
             id="path2589-2"
             sodipodi:nodetypes="cc" /><text
             xml:space="preserve"
             style="font-size:2.82223px;font-family:Arial;-inkscape-font-specification:'Arial, Normal';fill:none;fill-opacity:1;stroke:#000000;stroke-width:0.264999;stroke-opacity:1"
             x="17.344572"
             y="52.964886"
             id="text3088-2"><tspan
               sodipodi:role="line"
               id="tspan3086-8"
               style="fill:#000000;fill-opacity:1;stroke:none;stroke-width:0.265"
               x="17.344572"
               y="52.964886">20 s</tspan></text><text
             xml:space="preserve"
             style="font-size:2.82223px;font-family:Arial;-inkscape-font-specification:'Arial, Normal';fill:#000000;fill-opacity:1;stroke:none;stroke-width:0.264999;stroke-opacity:1"
             x="42.387318"
             y="50.936398"
             id="text3352"><tspan
               sodipodi:role="line"
               id="tspan3350"
               style="font-style:normal;font-variant:normal;font-weight:normal;font-stretch:normal;font-size:3.52778px;font-family:Arial;-inkscape-font-specification:'Arial, Normal';font-variant-ligatures:normal;font-variant-caps:normal;font-variant-numeric:normal;font-variant-east-asian:normal;stroke-width:0.265"
               x="42.387318"
               y="50.936398">temps</tspan></text><text
             xml:space="preserve"
             style="font-size:2.82223px;font-family:Arial;-inkscape-font-specification:'Arial, Normal';fill:#000000;fill-opacity:1;stroke:none;stroke-width:0.264999;stroke-opacity:1"
             x="-22.570807"
             y="3.8154526"
             id="text3497"
             transform="rotate(-90)"><tspan
               sodipodi:role="line"
               id="tspan3495"
               style="font-style:normal;font-variant:normal;font-weight:normal;font-stretch:normal;font-size:3.52778px;font-family:Arial;-inkscape-font-specification:'Arial, Normal';font-variant-ligatures:normal;font-variant-caps:normal;font-variant-numeric:normal;font-variant-east-asian:normal;stroke-width:0.265"
               x="-22.570807"
               y="3.8154526">élongation</tspan><tspan
               sodipodi:role="line"
               style="font-style:normal;font-variant:normal;font-weight:normal;font-stretch:normal;font-size:3.52778px;font-family:Arial;-inkscape-font-specification:'Arial, Normal';font-variant-ligatures:normal;font-variant-caps:normal;font-variant-numeric:normal;font-variant-east-asian:normal;stroke-width:0.265"
               x="-22.570807"
               y="8.2251778"
               id="tspan1645">du ressort</tspan></text></g><g
           id="g2169"
           transform="translate(-1.0583333)"><path
             style="fill:none;fill-opacity:1;stroke:#000000;stroke-width:0.264999;stroke-opacity:1;marker-end:url(#Arrow2-3)"
             d="m 66.909742,7.6335249 -0.003,35.9468001"
             id="path4121" /><text
             xml:space="preserve"
             style="font-size:2.82223px;font-family:Arial;-inkscape-font-specification:'Arial, Normal';fill:#000000;fill-opacity:1;stroke:none;stroke-width:0.264999;stroke-opacity:1"
             x="-43.205856"
             y="71.492218"
             id="text4223"
             transform="rotate(-90)"><tspan
               sodipodi:role="line"
               id="tspan4221"
               style="font-style:normal;font-variant:normal;font-weight:normal;font-stretch:normal;font-size:3.52778px;font-family:Arial;-inkscape-font-specification:'Arial, Normal';font-variant-ligatures:normal;font-variant-caps:normal;font-variant-numeric:normal;font-variant-east-asian:normal;fill:#000000;fill-opacity:1;stroke:none;stroke-width:0.265"
               x="-43.205856"
               y="71.492218">chargement croissant</tspan></text></g></g><text
         xml:space="preserve"
         style="font-weight:bold;font-size:4.23333px;font-family:Arial;-inkscape-font-specification:'Arial, Bold';fill:#000000;stroke-width:0.264999;stroke-dasharray:0.264999, 0.264999"
         x="1.5866407"
         y="3.549237"
         id="text1554"><tspan
           sodipodi:role="line"
           id="tspan1552"
           style="stroke-width:0.265"
           x="1.5866407"
           y="3.549237">a.</tspan></text><text
         xml:space="preserve"
         style="font-weight:bold;font-size:4.23333px;font-family:Arial;-inkscape-font-specification:'Arial, Bold';fill:#000000;stroke-width:0.264999;stroke-dasharray:0.264999, 0.264999"
         x="73.412956"
         y="3.549237"
         id="text1554-2"><tspan
           sodipodi:role="line"
           id="tspan1552-9"
           style="stroke-width:0.265"
           x="73.412956"
           y="3.549237">b.</tspan></text></g></g></svg>
