<?xml version="1.0" encoding="UTF-8" standalone="no"?>
<svg
   xmlns:dc="http://purl.org/dc/elements/1.1/"
   xmlns:cc="http://creativecommons.org/ns#"
   xmlns:rdf="http://www.w3.org/1999/02/22-rdf-syntax-ns#"
   xmlns:svg="http://www.w3.org/2000/svg"
   xmlns="http://www.w3.org/2000/svg"
   xmlns:sodipodi="http://sodipodi.sourceforge.net/DTD/sodipodi-0.dtd"
   xmlns:inkscape="http://www.inkscape.org/namespaces/inkscape"
   width="210mm"
   height="297mm"
   viewBox="0 0 210 297"
   version="1.1"
   id="svg8"
   inkscape:version="1.0.2 (e86c870879, 2021-01-15)"
   sodipodi:docname="type_3.svg">
  <defs
     id="defs2">
    <marker
       style="overflow:visible;"
       id="marker26632"
       refX="0.0"
       refY="0.0"
       orient="auto"
       inkscape:stockid="Arrow1Mend"
       inkscape:isstock="true">
      <path
         transform="scale(0.4) rotate(180) translate(10,0)"
         style="fill-rule:evenodd;stroke:#000000;stroke-width:1pt;stroke-opacity:1;fill:#000000;fill-opacity:1"
         d="M 0.0,0.0 L 5.0,-5.0 L -12.5,0.0 L 5.0,5.0 L 0.0,0.0 z "
         id="path26630" />
    </marker>
    <marker
       style="overflow:visible;"
       id="marker26622"
       refX="0.0"
       refY="0.0"
       orient="auto"
       inkscape:stockid="Arrow1Mend"
       inkscape:isstock="true">
      <path
         transform="scale(0.4) rotate(180) translate(10,0)"
         style="fill-rule:evenodd;stroke:#000000;stroke-width:1pt;stroke-opacity:1;fill:#000000;fill-opacity:1"
         d="M 0.0,0.0 L 5.0,-5.0 L -12.5,0.0 L 5.0,5.0 L 0.0,0.0 z "
         id="path26620" />
    </marker>
    <marker
       style="overflow:visible"
       id="marker25776"
       refX="0.0"
       refY="0.0"
       orient="auto"
       inkscape:stockid="Arrow1Mstart"
       inkscape:isstock="true">
      <path
         transform="scale(0.4) translate(10,0)"
         style="fill-rule:evenodd;stroke:#000000;stroke-width:1pt;stroke-opacity:1;fill:#000000;fill-opacity:1"
         d="M 0.0,0.0 L 5.0,-5.0 L -12.5,0.0 L 5.0,5.0 L 0.0,0.0 z "
         id="path25774" />
    </marker>
    <marker
       style="overflow:visible"
       id="marker23789"
       refX="0.0"
       refY="0.0"
       orient="auto"
       inkscape:stockid="Arrow1Mstart"
       inkscape:isstock="true"
       inkscape:collect="always">
      <path
         transform="scale(0.4) translate(10,0)"
         style="fill-rule:evenodd;stroke:#000000;stroke-width:1pt;stroke-opacity:1;fill:#000000;fill-opacity:1"
         d="M 0.0,0.0 L 5.0,-5.0 L -12.5,0.0 L 5.0,5.0 L 0.0,0.0 z "
         id="path23787" />
    </marker>
    <marker
       style="overflow:visible"
       id="marker23575"
       refX="0.0"
       refY="0.0"
       orient="auto"
       inkscape:stockid="Arrow1Mstart"
       inkscape:isstock="true">
      <path
         transform="scale(0.4) translate(10,0)"
         style="fill-rule:evenodd;stroke:#000000;stroke-width:1pt;stroke-opacity:1;fill:#000000;fill-opacity:1"
         d="M 0.0,0.0 L 5.0,-5.0 L -12.5,0.0 L 5.0,5.0 L 0.0,0.0 z "
         id="path23573" />
    </marker>
    <marker
       style="overflow:visible;"
       id="marker23284"
       refX="0.0"
       refY="0.0"
       orient="auto"
       inkscape:stockid="Arrow1Mend"
       inkscape:isstock="true"
       inkscape:collect="always">
      <path
         transform="scale(0.4) rotate(180) translate(10,0)"
         style="fill-rule:evenodd;stroke:#000000;stroke-width:1pt;stroke-opacity:1;fill:#000000;fill-opacity:1"
         d="M 0.0,0.0 L 5.0,-5.0 L -12.5,0.0 L 5.0,5.0 L 0.0,0.0 z "
         id="path23282" />
    </marker>
    <marker
       style="overflow:visible"
       id="marker23088"
       refX="0.0"
       refY="0.0"
       orient="auto"
       inkscape:stockid="Arrow1Mstart"
       inkscape:isstock="true">
      <path
         transform="scale(0.4) translate(10,0)"
         style="fill-rule:evenodd;stroke:#000000;stroke-width:1pt;stroke-opacity:1;fill:#000000;fill-opacity:1"
         d="M 0.0,0.0 L 5.0,-5.0 L -12.5,0.0 L 5.0,5.0 L 0.0,0.0 z "
         id="path23086" />
    </marker>
    <marker
       style="overflow:visible;"
       id="marker2087"
       refX="0.0"
       refY="0.0"
       orient="auto"
       inkscape:stockid="Arrow1Mend"
       inkscape:isstock="true"
       inkscape:collect="always">
      <path
         transform="scale(0.4) rotate(180) translate(10,0)"
         style="fill-rule:evenodd;stroke:#000000;stroke-width:1pt;stroke-opacity:1;fill:#000000;fill-opacity:1"
         d="M 0.0,0.0 L 5.0,-5.0 L -12.5,0.0 L 5.0,5.0 L 0.0,0.0 z "
         id="path2085" />
    </marker>
    <marker
       style="overflow:visible"
       id="marker1927"
       refX="0.0"
       refY="0.0"
       orient="auto"
       inkscape:stockid="Arrow1Mstart"
       inkscape:isstock="true"
       inkscape:collect="always">
      <path
         transform="scale(0.4) translate(10,0)"
         style="fill-rule:evenodd;stroke:#000000;stroke-width:1pt;stroke-opacity:1;fill:#000000;fill-opacity:1"
         d="M 0.0,0.0 L 5.0,-5.0 L -12.5,0.0 L 5.0,5.0 L 0.0,0.0 z "
         id="path1925" />
    </marker>
    <marker
       style="overflow:visible;"
       id="marker3495"
       refX="0.0"
       refY="0.0"
       orient="auto"
       inkscape:stockid="Arrow1Mend"
       inkscape:isstock="true"
       inkscape:collect="always">
      <path
         transform="scale(0.4) rotate(180) translate(10,0)"
         style="fill-rule:evenodd;stroke:#000000;stroke-width:1pt;stroke-opacity:1;fill:#000000;fill-opacity:1"
         d="M 0.0,0.0 L 5.0,-5.0 L -12.5,0.0 L 5.0,5.0 L 0.0,0.0 z "
         id="path3493" />
    </marker>
    <marker
       style="overflow:visible"
       id="marker3323"
       refX="0.0"
       refY="0.0"
       orient="auto"
       inkscape:stockid="Arrow1Mstart"
       inkscape:isstock="true"
       inkscape:collect="always">
      <path
         transform="scale(0.4) translate(10,0)"
         style="fill-rule:evenodd;stroke:#000000;stroke-width:1pt;stroke-opacity:1;fill:#000000;fill-opacity:1"
         d="M 0.0,0.0 L 5.0,-5.0 L -12.5,0.0 L 5.0,5.0 L 0.0,0.0 z "
         id="path3321" />
    </marker>
    <marker
       style="overflow:visible;"
       id="marker2587"
       refX="0.0"
       refY="0.0"
       orient="auto"
       inkscape:stockid="Arrow1Mend"
       inkscape:isstock="true">
      <path
         transform="scale(0.4) rotate(180) translate(10,0)"
         style="fill-rule:evenodd;stroke:#ff0000;stroke-width:1pt;stroke-opacity:1;fill:#ff0000;fill-opacity:1"
         d="M 0.0,0.0 L 5.0,-5.0 L -12.5,0.0 L 5.0,5.0 L 0.0,0.0 z "
         id="path2585" />
    </marker>
    <marker
       style="overflow:visible;"
       id="marker2309"
       refX="0.0"
       refY="0.0"
       orient="auto"
       inkscape:stockid="Arrow1Mend"
       inkscape:isstock="true">
      <path
         transform="scale(0.4) rotate(180) translate(10,0)"
         style="fill-rule:evenodd;stroke:#ff0000;stroke-width:1pt;stroke-opacity:1;fill:none;fill-opacity:1"
         d="M 0.0,0.0 L 5.0,-5.0 L -12.5,0.0 L 5.0,5.0 L 0.0,0.0 z "
         id="path2307" />
    </marker>
    <marker
       style="overflow:visible;"
       id="Arrow1Lend"
       refX="0.0"
       refY="0.0"
       orient="auto"
       inkscape:stockid="Arrow1Lend"
       inkscape:isstock="true">
      <path
         transform="scale(0.8) rotate(180) translate(12.5,0)"
         style="fill-rule:evenodd;stroke:#000000;stroke-width:1pt;stroke-opacity:1;fill:#000000;fill-opacity:1"
         d="M 0.0,0.0 L 5.0,-5.0 L -12.5,0.0 L 5.0,5.0 L 0.0,0.0 z "
         id="path877" />
    </marker>
    <marker
       style="overflow:visible"
       id="Arrow1Lstart"
       refX="0.0"
       refY="0.0"
       orient="auto"
       inkscape:stockid="Arrow1Lstart"
       inkscape:isstock="true">
      <path
         transform="scale(0.8) translate(12.5,0)"
         style="fill-rule:evenodd;stroke:#000000;stroke-width:1.0pt"
         d="M 0.0,0.0 L 5.0,-5.0 L -12.5,0.0 L 5.0,5.0 L 0.0,0.0 z "
         id="path874" />
    </marker>
    <marker
       style="overflow:visible;"
       id="marker1226"
       refX="0.0"
       refY="0.0"
       orient="auto"
       inkscape:stockid="Arrow1Mend"
       inkscape:isstock="true"
       inkscape:collect="always">
      <path
         transform="scale(0.4) rotate(180) translate(10,0)"
         style="fill-rule:evenodd;stroke:#000000;stroke-width:1pt;stroke-opacity:1;fill:#000000;fill-opacity:1"
         d="M 0.0,0.0 L 5.0,-5.0 L -12.5,0.0 L 5.0,5.0 L 0.0,0.0 z "
         id="path1224" />
    </marker>
    <marker
       style="overflow:visible"
       id="marker1186"
       refX="0.0"
       refY="0.0"
       orient="auto"
       inkscape:stockid="Arrow1Mstart"
       inkscape:isstock="true"
       inkscape:collect="always">
      <path
         transform="scale(0.4) translate(10,0)"
         style="fill-rule:evenodd;stroke:#000000;stroke-width:1pt;stroke-opacity:1;fill:#000000;fill-opacity:1"
         d="M 0.0,0.0 L 5.0,-5.0 L -12.5,0.0 L 5.0,5.0 L 0.0,0.0 z "
         id="path1184" />
    </marker>
    <rect
       x="17.822675"
       y="43.1246"
       width="17.016821"
       height="11.023042"
       id="rect1178" />
    <marker
       style="overflow:visible;"
       id="Arrow1Mend"
       refX="0.0"
       refY="0.0"
       orient="auto"
       inkscape:stockid="Arrow1Mend"
       inkscape:isstock="true"
       inkscape:collect="always">
      <path
         transform="scale(0.4) rotate(180) translate(10,0)"
         style="fill-rule:evenodd;stroke:#000000;stroke-width:1pt;stroke-opacity:1;fill:#000000;fill-opacity:1"
         d="M 0.0,0.0 L 5.0,-5.0 L -12.5,0.0 L 5.0,5.0 L 0.0,0.0 z "
         id="path883" />
    </marker>
    <marker
       style="overflow:visible"
       id="Arrow1Mstart"
       refX="0.0"
       refY="0.0"
       orient="auto"
       inkscape:stockid="Arrow1Mstart"
       inkscape:isstock="true"
       inkscape:collect="always">
      <path
         transform="scale(0.4) translate(10,0)"
         style="fill-rule:evenodd;stroke:#000000;stroke-width:1pt;stroke-opacity:1;fill:#000000;fill-opacity:1"
         d="M 0.0,0.0 L 5.0,-5.0 L -12.5,0.0 L 5.0,5.0 L 0.0,0.0 z "
         id="path880" />
    </marker>
    <rect
       x="17.822676"
       y="43.124599"
       width="17.016821"
       height="11.023042"
       id="rect1178-3" />
    <rect
       x="17.822676"
       y="43.124599"
       width="17.016821"
       height="11.023042"
       id="rect1279" />
    <rect
       x="17.822676"
       y="43.124599"
       width="17.016821"
       height="11.023042"
       id="rect1178-3-6" />
    <rect
       x="17.822676"
       y="43.124599"
       width="17.016821"
       height="11.023042"
       id="rect1310" />
    <marker
       style="overflow:visible"
       id="marker1118-1"
       refX="0"
       refY="0"
       orient="auto"
       inkscape:stockid="Arrow1Mstart"
       inkscape:isstock="true">
      <path
         transform="matrix(0.4,0,0,0.4,4,0)"
         style="fill:#000000;fill-opacity:1;fill-rule:evenodd;stroke:#000000;stroke-width:1pt;stroke-opacity:1"
         d="M 0,0 5,-5 -12.5,0 5,5 Z"
         id="path1116-2" />
    </marker>
    <marker
       style="overflow:visible"
       id="marker1206-7"
       refX="0"
       refY="0"
       orient="auto"
       inkscape:stockid="Arrow1Mend"
       inkscape:isstock="true">
      <path
         transform="matrix(-0.4,0,0,-0.4,-4,0)"
         style="fill:#000000;fill-opacity:1;fill-rule:evenodd;stroke:#000000;stroke-width:1pt;stroke-opacity:1"
         d="M 0,0 5,-5 -12.5,0 5,5 Z"
         id="path1204-0" />
    </marker>
    <marker
       style="overflow:visible"
       id="marker1118-3"
       refX="0"
       refY="0"
       orient="auto"
       inkscape:stockid="Arrow1Mstart"
       inkscape:isstock="true">
      <path
         transform="matrix(0.4,0,0,0.4,4,0)"
         style="fill:#000000;fill-opacity:1;fill-rule:evenodd;stroke:#000000;stroke-width:1pt;stroke-opacity:1"
         d="M 0,0 5,-5 -12.5,0 5,5 Z"
         id="path1116-6" />
    </marker>
    <marker
       style="overflow:visible"
       id="marker1206-0"
       refX="0"
       refY="0"
       orient="auto"
       inkscape:stockid="Arrow1Mend"
       inkscape:isstock="true">
      <path
         transform="matrix(-0.4,0,0,-0.4,-4,0)"
         style="fill:#000000;fill-opacity:1;fill-rule:evenodd;stroke:#000000;stroke-width:1pt;stroke-opacity:1"
         d="M 0,0 5,-5 -12.5,0 5,5 Z"
         id="path1204-6" />
    </marker>
    <rect
       x="17.822676"
       y="43.124599"
       width="17.016821"
       height="11.023042"
       id="rect1178-3-6-6" />
    <rect
       x="17.822676"
       y="43.124599"
       width="17.016821"
       height="11.023042"
       id="rect1805" />
    <rect
       x="17.822676"
       y="43.124599"
       width="17.016821"
       height="11.023042"
       id="rect1178-3-6-6-8" />
    <rect
       x="17.822676"
       y="43.124599"
       width="17.016821"
       height="11.023042"
       id="rect1835" />
    <rect
       x="17.822676"
       y="43.124599"
       width="17.016821"
       height="11.023042"
       id="rect1178-3-6-6-2" />
    <rect
       x="17.822676"
       y="43.124599"
       width="17.016821"
       height="11.023042"
       id="rect1918" />
    <rect
       x="17.822676"
       y="43.124599"
       width="17.016821"
       height="11.023042"
       id="rect1178-3-6-6-8-3" />
    <rect
       x="17.822676"
       y="43.124599"
       width="17.016821"
       height="11.023042"
       id="rect1987" />
    <marker
       style="overflow:visible"
       id="marker1118-3-7"
       refX="0"
       refY="0"
       orient="auto"
       inkscape:stockid="Arrow1Mstart"
       inkscape:isstock="true">
      <path
         transform="matrix(0.4,0,0,0.4,4,0)"
         style="fill:#000000;fill-opacity:1;fill-rule:evenodd;stroke:#000000;stroke-width:1pt;stroke-opacity:1"
         d="M 0,0 5,-5 -12.5,0 5,5 Z"
         id="path1116-6-5" />
    </marker>
    <marker
       style="overflow:visible"
       id="marker1206-0-9"
       refX="0"
       refY="0"
       orient="auto"
       inkscape:stockid="Arrow1Mend"
       inkscape:isstock="true">
      <path
         transform="matrix(-0.4,0,0,-0.4,-4,0)"
         style="fill:#000000;fill-opacity:1;fill-rule:evenodd;stroke:#000000;stroke-width:1pt;stroke-opacity:1"
         d="M 0,0 5,-5 -12.5,0 5,5 Z"
         id="path1204-6-2" />
    </marker>
    <rect
       x="17.822676"
       y="43.124599"
       width="17.016821"
       height="11.023042"
       id="rect1178-3-6-6-8-9" />
    <rect
       x="17.822676"
       y="43.124599"
       width="17.016821"
       height="11.023042"
       id="rect2260" />
    <rect
       x="17.822676"
       y="43.124599"
       width="17.016821"
       height="11.023042"
       id="rect1178-3-6-6-8-9-3" />
    <rect
       x="17.822676"
       y="43.124599"
       width="17.016821"
       height="11.023042"
       id="rect2592" />
    <rect
       x="17.822676"
       y="43.124599"
       width="17.016821"
       height="11.023042"
       id="rect1178-3-6-6-2-1" />
    <rect
       x="17.822676"
       y="43.124599"
       width="17.016821"
       height="11.023042"
       id="rect2938" />
    <marker
       style="overflow:visible"
       id="marker1118-3-9"
       refX="0"
       refY="0"
       orient="auto"
       inkscape:stockid="Arrow1Mstart"
       inkscape:isstock="true">
      <path
         transform="matrix(0.4,0,0,0.4,4,0)"
         style="fill:#000000;fill-opacity:1;fill-rule:evenodd;stroke:#000000;stroke-width:1pt;stroke-opacity:1"
         d="M 0,0 5,-5 -12.5,0 5,5 Z"
         id="path1116-6-3" />
    </marker>
    <marker
       style="overflow:visible"
       id="marker1206-0-1"
       refX="0"
       refY="0"
       orient="auto"
       inkscape:stockid="Arrow1Mend"
       inkscape:isstock="true">
      <path
         transform="matrix(-0.4,0,0,-0.4,-4,0)"
         style="fill:#000000;fill-opacity:1;fill-rule:evenodd;stroke:#000000;stroke-width:1pt;stroke-opacity:1"
         d="M 0,0 5,-5 -12.5,0 5,5 Z"
         id="path1204-6-9" />
    </marker>
    <rect
       x="17.822676"
       y="43.124599"
       width="17.016821"
       height="11.023042"
       id="rect1178-3-6-6-8-4" />
    <rect
       x="17.822676"
       y="43.124599"
       width="17.016821"
       height="11.023042"
       id="rect2996" />
    <rect
       x="17.822676"
       y="43.124599"
       width="17.016821"
       height="11.023042"
       id="rect1178-3-6-6-5" />
    <rect
       x="17.822676"
       y="43.124599"
       width="17.016821"
       height="11.023042"
       id="rect3706" />
    <marker
       style="overflow:visible"
       id="marker1333"
       refX="0"
       refY="0"
       orient="auto"
       inkscape:stockid="Arrow1Mstart"
       inkscape:isstock="true"
       inkscape:collect="always">
      <path
         transform="matrix(0.4,0,0,0.4,4,0)"
         style="fill:#000000;fill-opacity:1;fill-rule:evenodd;stroke:#000000;stroke-width:1pt;stroke-opacity:1"
         d="M 0,0 5,-5 -12.5,0 5,5 Z"
         id="path1331" />
    </marker>
    <marker
       style="overflow:visible"
       id="marker1385"
       refX="0"
       refY="0"
       orient="auto"
       inkscape:stockid="Arrow1Mend"
       inkscape:isstock="true"
       inkscape:collect="always">
      <path
         transform="matrix(-0.4,0,0,-0.4,-4,0)"
         style="fill:#000000;fill-opacity:1;fill-rule:evenodd;stroke:#000000;stroke-width:1pt;stroke-opacity:1"
         d="M 0,0 5,-5 -12.5,0 5,5 Z"
         id="path1383" />
    </marker>
    <marker
       style="overflow:visible"
       id="marker2587-6"
       refX="0"
       refY="0"
       orient="auto"
       inkscape:stockid="Arrow1Mend"
       inkscape:isstock="true">
      <path
         transform="matrix(-0.4,0,0,-0.4,-4,0)"
         style="fill:#ff0000;fill-opacity:1;fill-rule:evenodd;stroke:#ff0000;stroke-width:1pt;stroke-opacity:1"
         d="M 0,0 5,-5 -12.5,0 5,5 Z"
         id="path2585-7" />
    </marker>
    <rect
       x="17.822676"
       y="43.124599"
       width="17.016821"
       height="11.023042"
       id="rect1178-3-6-5" />
    <rect
       x="17.822676"
       y="43.124599"
       width="17.016821"
       height="11.023042"
       id="rect4198" />
    <rect
       x="17.822676"
       y="43.124599"
       width="17.016821"
       height="11.023042"
       id="rect1178-3-6-5-5" />
    <rect
       x="17.822676"
       y="43.124599"
       width="17.016821"
       height="11.023042"
       id="rect1889" />
    <rect
       x="17.822676"
       y="43.124599"
       width="17.016821"
       height="11.023042"
       id="rect1178-3-6-5-5-2" />
    <rect
       x="17.822676"
       y="43.124599"
       width="17.016821"
       height="11.023042"
       id="rect2254" />
    <rect
       x="17.822676"
       y="43.124599"
       width="17.016821"
       height="11.023042"
       id="rect1178-3-6-5-5-4" />
    <rect
       x="17.822676"
       y="43.124599"
       width="17.016821"
       height="11.023042"
       id="rect22245" />
    <marker
       style="overflow:visible"
       id="marker3323-7"
       refX="0"
       refY="0"
       orient="auto"
       inkscape:stockid="Arrow1Mstart"
       inkscape:isstock="true"
       inkscape:collect="always">
      <path
         transform="matrix(0.4,0,0,0.4,4,0)"
         style="fill:#000000;fill-opacity:1;fill-rule:evenodd;stroke:#000000;stroke-width:1pt;stroke-opacity:1"
         d="M 0,0 5,-5 -12.5,0 5,5 Z"
         id="path3321-8" />
    </marker>
    <marker
       style="overflow:visible"
       id="marker3495-4"
       refX="0"
       refY="0"
       orient="auto"
       inkscape:stockid="Arrow1Mend"
       inkscape:isstock="true"
       inkscape:collect="always">
      <path
         transform="matrix(-0.4,0,0,-0.4,-4,0)"
         style="fill:#000000;fill-opacity:1;fill-rule:evenodd;stroke:#000000;stroke-width:1pt;stroke-opacity:1"
         d="M 0,0 5,-5 -12.5,0 5,5 Z"
         id="path3493-5" />
    </marker>
    <marker
       style="overflow:visible"
       id="marker1927-6"
       refX="0"
       refY="0"
       orient="auto"
       inkscape:stockid="Arrow1Mstart"
       inkscape:isstock="true">
      <path
         transform="matrix(0.4,0,0,0.4,4,0)"
         style="fill:#000000;fill-opacity:1;fill-rule:evenodd;stroke:#000000;stroke-width:1pt;stroke-opacity:1"
         d="M 0,0 5,-5 -12.5,0 5,5 Z"
         id="path1925-1" />
    </marker>
    <marker
       style="overflow:visible"
       id="marker2087-0"
       refX="0"
       refY="0"
       orient="auto"
       inkscape:stockid="Arrow1Mend"
       inkscape:isstock="true">
      <path
         transform="matrix(-0.4,0,0,-0.4,-4,0)"
         style="fill:#000000;fill-opacity:1;fill-rule:evenodd;stroke:#000000;stroke-width:1pt;stroke-opacity:1"
         d="M 0,0 5,-5 -12.5,0 5,5 Z"
         id="path2085-6" />
    </marker>
    <rect
       x="17.822676"
       y="43.124599"
       width="17.016821"
       height="11.023042"
       id="rect1178-3-6-5-5-2-3" />
    <rect
       x="17.822676"
       y="43.124599"
       width="17.016821"
       height="11.023042"
       id="rect22696" />
    <rect
       x="17.822676"
       y="43.124599"
       width="17.016821"
       height="11.023042"
       id="rect1178-3-6-5-5-4-6" />
    <rect
       x="17.822676"
       y="43.124599"
       width="17.016821"
       height="11.023042"
       id="rect23499" />
    <marker
       style="overflow:visible"
       id="marker23088-5"
       refX="0"
       refY="0"
       orient="auto"
       inkscape:stockid="Arrow1Mstart"
       inkscape:isstock="true">
      <path
         transform="matrix(0.4,0,0,0.4,4,0)"
         style="fill:#000000;fill-opacity:1;fill-rule:evenodd;stroke:#000000;stroke-width:1pt;stroke-opacity:1"
         d="M 0,0 5,-5 -12.5,0 5,5 Z"
         id="path23086-4" />
    </marker>
    <marker
       style="overflow:visible"
       id="marker23284-7"
       refX="0"
       refY="0"
       orient="auto"
       inkscape:stockid="Arrow1Mend"
       inkscape:isstock="true">
      <path
         transform="matrix(-0.4,0,0,-0.4,-4,0)"
         style="fill:#000000;fill-opacity:1;fill-rule:evenodd;stroke:#000000;stroke-width:1pt;stroke-opacity:1"
         d="M 0,0 5,-5 -12.5,0 5,5 Z"
         id="path23282-6" />
    </marker>
    <marker
       style="overflow:visible"
       id="marker2587-6-9"
       refX="0"
       refY="0"
       orient="auto"
       inkscape:stockid="Arrow1Mend"
       inkscape:isstock="true">
      <path
         transform="matrix(-0.4,0,0,-0.4,-4,0)"
         style="fill:#ff0000;fill-opacity:1;fill-rule:evenodd;stroke:#ff0000;stroke-width:1pt;stroke-opacity:1"
         d="M 0,0 5,-5 -12.5,0 5,5 Z"
         id="path2585-7-3" />
    </marker>
    <marker
       style="overflow:visible"
       id="marker23088-4"
       refX="0"
       refY="0"
       orient="auto"
       inkscape:stockid="Arrow1Mstart"
       inkscape:isstock="true">
      <path
         transform="matrix(0.4,0,0,0.4,4,0)"
         style="fill:#000000;fill-opacity:1;fill-rule:evenodd;stroke:#000000;stroke-width:1pt;stroke-opacity:1"
         d="M 0,0 5,-5 -12.5,0 5,5 Z"
         id="path23086-5" />
    </marker>
    <marker
       style="overflow:visible"
       id="marker23284-2"
       refX="0"
       refY="0"
       orient="auto"
       inkscape:stockid="Arrow1Mend"
       inkscape:isstock="true">
      <path
         transform="matrix(-0.4,0,0,-0.4,-4,0)"
         style="fill:#000000;fill-opacity:1;fill-rule:evenodd;stroke:#000000;stroke-width:1pt;stroke-opacity:1"
         d="M 0,0 5,-5 -12.5,0 5,5 Z"
         id="path23282-5" />
    </marker>
    <rect
       x="17.822676"
       y="43.124599"
       width="17.016821"
       height="11.023042"
       id="rect1178-3-6-5-5-4-7" />
    <rect
       x="17.822676"
       y="43.124599"
       width="17.016821"
       height="11.023042"
       id="rect25383" />
    <rect
       x="17.822676"
       y="43.124599"
       width="17.016821"
       height="11.023042"
       id="rect1178-3-6-5-5-4-7-4" />
    <rect
       x="17.822676"
       y="43.124599"
       width="17.016821"
       height="11.023042"
       id="rect25738" />
    <rect
       x="17.822676"
       y="43.124599"
       width="17.016821"
       height="11.023042"
       id="rect1178-3-6-5-5-4-7-4-0" />
    <rect
       x="17.822676"
       y="43.124599"
       width="17.016821"
       height="11.023042"
       id="rect26295" />
  </defs>
  <sodipodi:namedview
     id="base"
     pagecolor="#ffffff"
     bordercolor="#666666"
     borderopacity="1.0"
     inkscape:pageopacity="0.0"
     inkscape:pageshadow="2"
     inkscape:zoom="0.89910813"
     inkscape:cx="340.45176"
     inkscape:cy="413.60265"
     inkscape:document-units="mm"
     inkscape:current-layer="layer1"
     inkscape:document-rotation="0"
     showgrid="false"
     inkscape:window-width="1920"
     inkscape:window-height="1016"
     inkscape:window-x="0"
     inkscape:window-y="0"
     inkscape:window-maximized="1"
     inkscape:snap-global="true" />
  <metadata
     id="metadata5">
    <rdf:RDF>
      <cc:Work
         rdf:about="">
        <dc:format>image/svg+xml</dc:format>
        <dc:type
           rdf:resource="http://purl.org/dc/dcmitype/StillImage" />
        <dc:title />
      </cc:Work>
    </rdf:RDF>
  </metadata>
  <g
     inkscape:label="Layer 1"
     inkscape:groupmode="layer"
     id="layer1">
    <path
       id="rect835"
       style="fill:none;stroke:#000000;stroke-width:1.88976;stroke-linecap:round;stroke-miterlimit:4;stroke-dasharray:none;stroke-dashoffset:0;stroke-opacity:1;stop-color:#000000"
       d="M 134.49609 84.527344 L 134.49609 349.0957 L 323.11719 349.0957 A 103.83587 51.917937 0 0 1 417.96094 318.31055 A 103.83587 51.917937 0 0 1 512.80469 349.0957 L 701.42383 349.0957 L 701.42383 84.527344 L 134.49609 84.527344 z "
       transform="scale(0.26458333)" />
    <path
       style="fill:none;stroke:#000000;stroke-width:0.264583px;stroke-linecap:butt;stroke-linejoin:miter;stroke-opacity:1"
       d="m 35.585441,22.364475 6.355538,-3.669371"
       id="path837" />
    <path
       style="fill:none;stroke:#000000;stroke-width:0.264583px;stroke-linecap:butt;stroke-linejoin:miter;stroke-opacity:1"
       d="m 185.58545,22.364477 6.35554,-3.669371"
       id="path837-3" />
    <path
       style="fill:none;stroke:#000000;stroke-width:0.264583px;stroke-linecap:butt;stroke-linejoin:miter;stroke-opacity:1"
       d="m 185.58545,92.364483 6.35554,-3.66937"
       id="path837-7" />
    <path
       style="fill:none;stroke:#000000;stroke-width:0.264583px;stroke-linecap:butt;stroke-linejoin:miter;stroke-opacity:1"
       d="m 41.940979,18.695104 150.000011,2e-6 v 70.000007"
       id="path866" />
    <path
       style="fill:none;stroke:#000000;stroke-width:0.264583px;stroke-linecap:butt;stroke-linejoin:miter;stroke-opacity:1;marker-start:url(#Arrow1Mstart);marker-end:url(#Arrow1Mend)"
       d="m 24.853101,22.364622 6.355538,-3.669371"
       id="path837-5" />
    <text
       xml:space="preserve"
       id="text1176"
       style="font-size:5.64444px;line-height:1.25;font-family:sans-serif;letter-spacing:0px;word-spacing:0px;white-space:pre;shape-inside:url(#rect1178);"
       transform="translate(-2.8044303,-29.866022)"><tspan
         x="17.822266"
         y="48.119007"><tspan
           style="font-size:3.88056px">10mm</tspan></tspan></text>
    <path
       style="fill:none;stroke:#000000;stroke-width:0.264583px;stroke-linecap:butt;stroke-linejoin:miter;stroke-opacity:1;marker-start:url(#marker1186);marker-end:url(#marker1226)"
       d="M 24.853101,22.364622 V 92.364633"
       id="path1182" />
    <text
       xml:space="preserve"
       id="text1176-5"
       style="font-size:5.64444px;line-height:1.25;font-family:sans-serif;letter-spacing:0px;word-spacing:0px;white-space:pre;shape-inside:url(#rect1178-3);"
       transform="translate(-13.468091,0.19214812)"><tspan
         x="17.822266"
         y="48.119007"><tspan
           style="font-size:3.88056px">90mm</tspan></tspan></text>
    <text
       xml:space="preserve"
       style="font-size:5.64444px;line-height:1.25;font-family:sans-serif;letter-spacing:0px;word-spacing:0px;stroke-width:0.264583"
       x="25.833662"
       y="168.4314"
       id="text2581"><tspan
         sodipodi:role="line"
         id="tspan2579"
         x="25.833662"
         y="168.4314"
         style="stroke-width:0.264583" /></text>
    <path
       style="fill:none;stroke:#000000;stroke-width:0.2;stroke-linecap:butt;stroke-linejoin:miter;stroke-opacity:1;stroke-miterlimit:4;stroke-dasharray:none"
       d="m 85.533678,92.512145 6.35554,-3.669371"
       id="path837-7-3" />
    <path
       id="path1493"
       style="fill:none;stroke:#000000;stroke-width:0.502677;stroke-linecap:round;stroke-miterlimit:4;stroke-dasharray:none;stroke-dashoffset:0;stop-color:#000000"
       d="M 347.34805 335.70955 A 103.83587 51.917937 0 0 1 356.28653 328.07311 "
       transform="scale(0.26458333)" />
    <path
       style="fill:none;stroke:#000000;stroke-width:0.264583px;stroke-linecap:butt;stroke-linejoin:miter;stroke-opacity:1;marker-start:url(#marker1333);marker-end:url(#marker1385)"
       d="M 35.321656,98.953246 H 185.32188"
       id="path1299" />
    <rect
       style="fill:none;stroke:#ff0000;stroke-width:0.499999;stroke-linecap:round;stroke-miterlimit:4;stroke-dasharray:0.499999, 0.999998;stroke-dashoffset:0;stroke-opacity:1;stop-color:#000000"
       id="rect2159"
       width="155.33653"
       height="10.455881"
       x="33.203678"
       y="83.127663" />
    <path
       style="fill:none;stroke:#ff0000;stroke-width:0.865;stroke-linecap:butt;stroke-linejoin:miter;stroke-miterlimit:4;stroke-dasharray:none;stroke-opacity:1;marker-end:url(#marker2587-6)"
       d="m 33.203682,93.583543 c 0,0 -15.213172,10.185917 -18.383982,18.206437 -1.91496,4.84387 -1.449672,10.81926 0.58255,15.61511 2.160452,5.09846 11.49631,11.99131 11.49631,11.99131"
       id="path2163"
       sodipodi:nodetypes="caac" />
    <text
       xml:space="preserve"
       id="text1176-5-2"
       style="font-size:5.64444px;line-height:1.25;font-family:sans-serif;letter-spacing:0px;word-spacing:0px;white-space:pre;shape-inside:url(#rect1178-3-6-5);"
       transform="translate(85.252509,59.135411)"><tspan
         x="17.822266"
         y="48.119007"><tspan
           style="font-size:3.88056px">150mm</tspan></tspan></text>
    <path
       style="fill:none;stroke:#000000;stroke-width:0.264583px;stroke-linecap:butt;stroke-linejoin:miter;stroke-opacity:1;marker-start:url(#marker3323);marker-end:url(#marker3495)"
       d="m 85.533676,79.812135 50.145894,-0.14724"
       id="path1848" />
    <text
       xml:space="preserve"
       id="text1176-5-2-6"
       style="font-size:5.64444px;line-height:1.25;font-family:sans-serif;letter-spacing:0px;word-spacing:0px;white-space:pre;shape-inside:url(#rect1178-3-6-5-5);"
       transform="translate(86.552345,27.708713)"><tspan
         x="17.822266"
         y="48.119007"><tspan
           style="font-size:3.88056px">30mm</tspan></tspan></text>
    <path
       style="fill:none;stroke:#000000;stroke-width:0.264583px;stroke-linecap:butt;stroke-linejoin:miter;stroke-opacity:1;marker-start:url(#marker1927);marker-end:url(#marker2087)"
       d="m 110.85952,84.36938 v 7.516717"
       id="path1917" />
    <text
       xml:space="preserve"
       id="text1176-5-2-6-9"
       style="font-size:5.64444px;line-height:1.25;font-family:sans-serif;letter-spacing:0px;word-spacing:0px;white-space:pre;shape-inside:url(#rect1178-3-6-5-5-2);"
       transform="translate(94.098535,41.285138)"><tspan
         x="17.822266"
         y="48.119007"><tspan
           style="font-size:3.88056px">3mm</tspan></tspan></text>
    <path
       id="path22209"
       style="fill:none;stroke:#000000;stroke-width:0.999999px;stroke-linecap:butt;stroke-linejoin:miter;stroke-opacity:1"
       d="M 174.35546 570.46483 L 280.11914 570.46483 A 158.63455 79.317274 0 0 1 285.66602 566.01952 A 4.7441321 4.4252514 0 0 1 284.48047 565.02147 A 4.7441321 4.4252514 0 0 1 283.49414 562.80272 A 4.7441321 4.4252514 0 0 1 283.46094 562.28124 A 4.7441321 4.4252514 0 0 1 283.46484 562.10937 A 4.7441321 4.4252514 0 0 1 283.46484 562.10741 A 4.7441321 4.4252514 0 0 1 283.46484 562.10546 A 4.7441321 4.4252514 0 0 1 283.46484 562.09374 A 4.7441321 4.4252514 0 0 1 283.49023 561.79101 A 4.7441321 4.4252514 0 0 1 283.49414 561.76171 A 4.7441321 4.4252514 0 0 1 283.49414 561.7578 A 4.7441321 4.4252514 0 0 1 283.51953 561.58983 A 4.7441321 4.4252514 0 0 1 283.51953 561.58593 A 4.7441321 4.4252514 0 0 1 283.5293 561.53319 A 4.7441321 4.4252514 0 0 1 283.67578 560.96679 A 4.7441321 4.4252514 0 0 1 283.69336 560.91405 A 4.7441321 4.4252514 0 0 1 283.69336 560.9121 A 4.7441321 4.4252514 0 0 1 283.7168 560.85155 A 4.7441321 4.4252514 0 0 1 283.75391 560.74999 A 4.7441321 4.4252514 0 0 1 283.75586 560.74804 A 4.7441321 4.4252514 0 0 1 283.82227 560.58788 A 4.7441321 4.4252514 0 0 1 283.82227 560.58593 A 4.7441321 4.4252514 0 0 1 283.88867 560.4453 A 4.7441321 4.4252514 0 0 1 283.89648 560.42968 A 4.7441321 4.4252514 0 0 1 283.89844 560.42772 A 4.7441321 4.4252514 0 0 1 283.97656 560.27343 A 4.7441321 4.4252514 0 0 1 283.97852 560.26952 A 4.7441321 4.4252514 0 0 1 284 560.23241 A 4.7441321 4.4252514 0 0 1 284.06445 560.11913 A 4.7441321 4.4252514 0 0 1 284.06641 560.11718 A 4.7441321 4.4252514 0 0 1 284.16016 559.96874 A 4.7441321 4.4252514 0 0 1 284.16016 559.96679 A 4.7441321 4.4252514 0 0 1 284.25977 559.82421 A 4.7441321 4.4252514 0 0 1 284.26172 559.8203 A 4.7441321 4.4252514 0 0 1 284.36523 559.68163 A 4.7441321 4.4252514 0 0 1 284.36719 559.67772 A 4.7441321 4.4252514 0 0 1 284.47852 559.54296 A 4.7441321 4.4252514 0 0 1 284.48047 559.53905 A 4.7441321 4.4252514 0 0 1 284.58008 559.42577 A 4.7441321 4.4252514 0 0 1 284.5957 559.40624 A 4.7441321 4.4252514 0 0 1 284.59766 559.40429 A 4.7441321 4.4252514 0 0 1 284.7207 559.27538 A 4.7441321 4.4252514 0 0 1 284.72266 559.27343 A 4.7441321 4.4252514 0 0 1 284.84961 559.15038 A 4.7441321 4.4252514 0 0 1 284.85156 559.14843 A 4.7441321 4.4252514 0 0 1 285.12305 558.91405 A 4.7441321 4.4252514 0 0 1 285.125 558.9121 A 4.7441321 4.4252514 0 0 1 285.56836 558.5996 A 4.7441321 4.4252514 0 0 1 285.57031 558.59765 A 4.7441321 4.4252514 0 0 1 285.72461 558.50585 A 4.7441321 4.4252514 0 0 1 285.72656 558.5039 A 4.7441321 4.4252514 0 0 1 285.88477 558.41796 A 4.7441321 4.4252514 0 0 1 285.88672 558.41601 A 4.7441321 4.4252514 0 0 1 288.20703 557.85155 A 4.7441321 4.4252514 0 0 1 292.04297 559.67577 A 4.7441321 4.4252514 0 0 1 292.04297 559.67772 A 4.7441321 4.4252514 0 0 1 292.43164 560.26757 A 4.7441321 4.4252514 0 0 1 292.43164 560.26952 A 4.7441321 4.4252514 0 0 1 292.58789 560.58202 A 4.7441321 4.4252514 0 0 1 292.7168 560.90819 A 4.7441321 4.4252514 0 0 1 292.78516 561.12499 A 158.63455 79.317274 0 0 1 303.19922 555.15624 A 4.7441321 4.4252514 0 0 1 302.62891 554.6289 A 4.7441321 4.4252514 0 0 1 302.39844 554.35741 A 4.7441321 4.4252514 0 0 1 302.19141 554.06835 A 4.7441321 4.4252514 0 0 1 301.92773 553.60937 A 4.7441321 4.4252514 0 0 1 301.92773 553.60741 A 4.7441321 4.4252514 0 0 1 301.85352 553.44921 A 4.7441321 4.4252514 0 0 1 301.85352 553.44726 A 4.7441321 4.4252514 0 0 1 301.78516 553.2871 A 4.7441321 4.4252514 0 0 1 301.78516 553.28515 A 4.7441321 4.4252514 0 0 1 301.72461 553.12304 A 4.7441321 4.4252514 0 0 1 301.72461 553.12108 A 4.7441321 4.4252514 0 0 1 301.66992 552.95702 A 4.7441321 4.4252514 0 0 1 301.66992 552.95507 A 4.7441321 4.4252514 0 0 1 301.62305 552.78905 A 4.7441321 4.4252514 0 0 1 301.49023 551.75585 A 4.7441321 4.4252514 0 0 1 301.61328 550.76171 A 4.7441321 4.4252514 0 0 1 301.62305 550.72265 A 4.7441321 4.4252514 0 0 1 301.62305 550.72069 A 4.7441321 4.4252514 0 0 1 301.66992 550.55663 A 4.7441321 4.4252514 0 0 1 301.66992 550.55468 A 4.7441321 4.4252514 0 0 1 301.69531 550.4746 A 4.7441321 4.4252514 0 0 1 301.72461 550.38476 A 4.7441321 4.4252514 0 0 1 301.7832 550.2246 A 4.7441321 4.4252514 0 0 1 301.78516 550.22069 A 4.7441321 4.4252514 0 0 1 301.85156 550.06249 A 4.7441321 4.4252514 0 0 1 301.85352 550.06054 A 4.7441321 4.4252514 0 0 1 301.92578 549.90233 A 4.7441321 4.4252514 0 0 1 301.92773 549.90038 A 4.7441321 4.4252514 0 0 1 302.00781 549.74608 A 4.7441321 4.4252514 0 0 1 302.00977 549.74413 A 4.7441321 4.4252514 0 0 1 302.0957 549.59374 A 4.7441321 4.4252514 0 0 1 302.09766 549.59179 A 4.7441321 4.4252514 0 0 1 302.18945 549.44335 A 4.7441321 4.4252514 0 0 1 302.19141 549.4414 A 4.7441321 4.4252514 0 0 1 302.29102 549.29687 A 4.7441321 4.4252514 0 0 1 302.29102 549.29491 A 4.7441321 4.4252514 0 0 1 302.37109 549.18944 A 4.7441321 4.4252514 0 0 1 302.39648 549.15624 A 4.7441321 4.4252514 0 0 1 302.39844 549.15429 A 4.7441321 4.4252514 0 0 1 302.50977 549.01757 A 4.7441321 4.4252514 0 0 1 302.50977 549.01561 A 4.7441321 4.4252514 0 0 1 302.61328 548.89843 A 4.7441321 4.4252514 0 0 1 302.62695 548.8828 A 4.7441321 4.4252514 0 0 1 302.62891 548.88085 A 4.7441321 4.4252514 0 0 1 302.75 548.7539 A 4.7441321 4.4252514 0 0 1 302.75195 548.7539 A 4.7441321 4.4252514 0 0 1 303.01367 548.5078 A 4.7441321 4.4252514 0 0 1 303.01562 548.50585 A 4.7441321 4.4252514 0 0 1 303.44531 548.17772 A 4.7441321 4.4252514 0 0 1 303.44727 548.17577 A 4.7441321 4.4252514 0 0 1 303.59766 548.07811 A 4.7441321 4.4252514 0 0 1 303.59961 548.07616 A 4.7441321 4.4252514 0 0 1 303.91602 547.89647 A 4.7441321 4.4252514 0 0 1 303.91797 547.89452 A 4.7441321 4.4252514 0 0 1 304.08008 547.81444 A 4.7441321 4.4252514 0 0 1 304.08203 547.81249 A 4.7441321 4.4252514 0 0 1 304.5918 547.60546 A 4.7441321 4.4252514 0 0 1 306.23633 547.33007 A 4.7441321 4.4252514 0 0 1 309.71875 548.74999 A 4.7441321 4.4252514 0 0 1 309.96094 549.01366 A 4.7441321 4.4252514 0 0 1 310.17969 549.29491 A 4.7441321 4.4252514 0 0 1 310.88867 550.89061 A 4.7441321 4.4252514 0 0 1 310.88867 550.89257 A 4.7441321 4.4252514 0 0 1 310.96484 551.39843 A 158.63455 79.317274 0 0 1 322.11523 546.79882 A 4.7441321 4.4252514 0 0 1 321.37109 545.86913 A 4.7441321 4.4252514 0 0 1 321.12695 545.40038 A 4.7441321 4.4252514 0 0 1 320.99805 545.07421 A 4.7441321 4.4252514 0 0 1 320.76367 543.70507 A 4.7441321 4.4252514 0 0 1 320.85742 542.83983 A 4.7441321 4.4252514 0 0 1 320.89648 542.67382 A 4.7441321 4.4252514 0 0 1 320.89648 542.66991 A 4.7441321 4.4252514 0 0 1 320.94336 542.50585 A 4.7441321 4.4252514 0 0 1 320.94336 542.50194 A 4.7441321 4.4252514 0 0 1 320.96875 542.42187 A 4.7441321 4.4252514 0 0 1 320.99609 542.33788 A 4.7441321 4.4252514 0 0 1 320.99805 542.33593 A 4.7441321 4.4252514 0 0 1 321.05859 542.17382 A 4.7441321 4.4252514 0 0 1 321.05859 542.17187 A 4.7441321 4.4252514 0 0 1 321.10742 542.05663 A 4.7441321 4.4252514 0 0 1 321.12695 542.00976 A 4.7441321 4.4252514 0 0 1 321.20117 541.85546 A 4.7441321 4.4252514 0 0 0 321.20117 541.85155 A 4.7441321 4.4252514 0 0 1 321.24414 541.77147 A 4.7441321 4.4252514 0 0 1 321.28125 541.69921 A 4.7441321 4.4252514 0 0 1 321.2832 541.69726 A 4.7441321 4.4252514 0 0 1 321.36914 541.54687 A 4.7441321 4.4252514 0 0 1 321.37109 541.54296 A 4.7441321 4.4252514 0 0 1 321.4082 541.48437 A 4.7441321 4.4252514 0 0 1 321.46289 541.39647 A 4.7441321 4.4252514 0 0 1 321.46484 541.39452 A 4.7441321 4.4252514 0 0 1 321.56445 541.24999 A 4.7441321 4.4252514 0 0 1 321.56445 541.24804 A 4.7441321 4.4252514 0 0 1 321.64453 541.14257 A 4.7441321 4.4252514 0 0 1 321.66992 541.10741 A 4.7441321 4.4252514 0 0 1 321.67188 541.10546 A 4.7441321 4.4252514 0 0 1 321.7832 540.96874 A 4.7441321 4.4252514 0 0 1 321.7832 540.96679 A 4.7441321 4.4252514 0 0 1 321.88672 540.8496 A 4.7441321 4.4252514 0 0 1 321.90039 540.83593 A 4.7441321 4.4252514 0 0 1 321.90234 540.83397 A 4.7441321 4.4252514 0 0 1 322.02539 540.70702 A 4.7441321 4.4252514 0 0 1 322.28711 540.46093 A 4.7441321 4.4252514 0 0 1 322.28906 540.45897 A 4.7441321 4.4252514 0 0 1 322.57031 540.23437 A 4.7441321 4.4252514 0 0 1 322.57227 540.23241 A 4.7441321 4.4252514 0 0 1 322.71875 540.13085 A 4.7441321 4.4252514 0 0 1 322.7207 540.1289 A 4.7441321 4.4252514 0 0 1 323.0293 539.93749 A 4.7441321 4.4252514 0 0 1 323.03125 539.93554 A 4.7441321 4.4252514 0 0 1 323.18945 539.8496 A 4.7441321 4.4252514 0 0 1 323.19141 539.84765 A 4.7441321 4.4252514 0 0 1 323.35352 539.76757 A 4.7441321 4.4252514 0 0 1 323.35547 539.76561 A 4.7441321 4.4252514 0 0 1 323.52148 539.6914 A 4.7441321 4.4252514 0 0 1 323.52344 539.68944 A 4.7441321 4.4252514 0 0 1 323.69141 539.62108 A 4.7441321 4.4252514 0 0 1 323.69336 539.61913 A 4.7441321 4.4252514 0 0 1 323.86523 539.55858 A 4.7441321 4.4252514 0 0 1 325.50977 539.28319 A 4.7441321 4.4252514 0 0 1 329.23438 540.96679 A 4.7441321 4.4252514 0 0 1 330.16211 542.84374 A 4.7441321 4.4252514 0 0 1 330.16211 542.84569 A 4.7441321 4.4252514 0 0 1 330.2207 543.18554 A 4.7441321 4.4252514 0 0 1 330.2207 543.18749 A 4.7441321 4.4252514 0 0 1 330.25 543.53124 A 4.7441321 4.4252514 0 0 1 330.25 543.53515 A 4.7441321 4.4252514 0 0 1 330.25391 543.70702 A 4.7441321 4.4252514 0 0 1 330.25 543.8789 A 4.7441321 4.4252514 0 0 1 330.25 543.88085 A 4.7441321 4.4252514 0 0 1 330.24609 543.9453 A 158.63455 79.317274 0 0 1 341.84766 540.47265 A 4.7441321 4.4252514 0 0 1 341.19727 539.50976 A 4.7441321 4.4252514 0 0 1 341.05469 539.18749 A 4.7441321 4.4252514 0 0 1 340.93945 538.85741 A 4.7441321 4.4252514 0 0 1 340.93945 538.85546 A 4.7441321 4.4252514 0 0 1 340.89258 538.68944 A 4.7441321 4.4252514 0 0 1 340.75977 537.65624 A 4.7441321 4.4252514 0 0 1 340.99219 536.28905 A 4.7441321 4.4252514 0 0 1 340.99414 536.2871 A 4.7441321 4.4252514 0 0 1 341.05273 536.12499 A 4.7441321 4.4252514 0 0 1 341.05469 536.12304 A 4.7441321 4.4252514 0 0 1 341.12109 535.96288 A 4.7441321 4.4252514 0 0 1 341.12305 535.96093 A 4.7441321 4.4252514 0 0 1 341.19531 535.80272 A 4.7441321 4.4252514 0 0 1 341.19727 535.80077 A 4.7441321 4.4252514 0 0 1 341.27734 535.64647 A 4.7441321 4.4252514 0 0 1 341.2793 535.64452 A 4.7441321 4.4252514 0 0 1 341.36523 535.49413 A 4.7441321 4.4252514 0 0 1 341.36719 535.49218 A 4.7441321 4.4252514 0 0 1 341.45898 535.34374 A 4.7441321 4.4252514 0 0 1 341.46094 535.34179 A 4.7441321 4.4252514 0 0 1 341.55859 535.19726 A 4.7441321 4.4252514 0 0 1 341.56055 535.1953 A 4.7441321 4.4252514 0 0 1 341.66602 535.05468 A 4.7441321 4.4252514 0 0 1 341.66797 535.05272 A 4.7441321 4.4252514 0 0 1 341.77734 534.91601 A 4.7441321 4.4252514 0 0 1 341.7793 534.91405 A 4.7441321 4.4252514 0 0 1 341.89648 534.78124 A 4.7441321 4.4252514 0 0 1 341.89844 534.77929 A 4.7441321 4.4252514 0 0 1 342.01953 534.65233 A 4.7441321 4.4252514 0 0 1 342.02148 534.65038 A 4.7441321 4.4252514 0 0 1 342.14844 534.52733 A 4.7441321 4.4252514 0 0 1 342.15039 534.52538 A 4.7441321 4.4252514 0 0 1 342.2832 534.40624 A 4.7441321 4.4252514 0 0 1 342.28516 534.40429 A 4.7441321 4.4252514 0 0 1 342.42188 534.29101 A 4.7441321 4.4252514 0 0 1 342.42383 534.28905 A 4.7441321 4.4252514 0 0 1 342.56641 534.18163 A 4.7441321 4.4252514 0 0 1 342.56836 534.17968 A 4.7441321 4.4252514 0 0 1 342.71484 534.07616 A 4.7441321 4.4252514 0 0 1 342.7168 534.07421 A 4.7441321 4.4252514 0 0 1 342.86719 533.97655 A 4.7441321 4.4252514 0 0 1 342.86914 533.9746 A 4.7441321 4.4252514 0 0 1 343.18555 533.79491 A 4.7441321 4.4252514 0 0 1 343.1875 533.79296 A 4.7441321 4.4252514 0 0 1 343.34961 533.71288 A 4.7441321 4.4252514 0 0 1 343.35156 533.71093 A 4.7441321 4.4252514 0 0 1 343.6875 533.56835 A 4.7441321 4.4252514 0 0 1 343.68945 533.5664 A 4.7441321 4.4252514 0 0 1 343.86133 533.5039 A 4.7441321 4.4252514 0 0 1 345.50586 533.22851 A 4.7441321 4.4252514 0 0 1 348.98828 534.64843 A 4.7441321 4.4252514 0 0 1 349.44922 535.19335 A 4.7441321 4.4252514 0 0 1 349.44922 535.1953 A 4.7441321 4.4252514 0 0 1 350.23438 537.30468 A 4.7441321 4.4252514 0 0 1 350.23438 537.30663 A 4.7441321 4.4252514 0 0 1 350.25 537.65429 A 4.7441321 4.4252514 0 0 1 350.18555 538.37304 A 158.63455 79.317274 0 0 1 362.04492 535.88866 A 4.7441321 4.4252514 0 0 1 361.64844 535.23827 A 4.7441321 4.4252514 0 0 1 361.39062 534.58593 A 4.7441321 4.4252514 0 0 1 361.22656 533.73241 A 4.7441321 4.4252514 0 0 1 361.21094 533.38476 A 4.7441321 4.4252514 0 0 1 361.22656 533.04687 A 4.7441321 4.4252514 0 0 1 361.22656 533.03515 A 4.7441321 4.4252514 0 0 1 361.22656 533.03319 A 4.7441321 4.4252514 0 0 1 361.22852 533.01366 A 4.7441321 4.4252514 0 0 1 361.44336 532.01366 A 4.7441321 4.4252514 0 0 1 361.44531 532.01171 A 4.7441321 4.4252514 0 0 1 361.50391 531.8496 A 4.7441321 4.4252514 0 0 1 361.50586 531.84765 A 4.7441321 4.4252514 0 0 1 361.57227 531.68749 A 4.7441321 4.4252514 0 0 1 361.57422 531.68554 A 4.7441321 4.4252514 0 0 1 361.64648 531.52733 A 4.7441321 4.4252514 0 0 1 361.64844 531.52538 A 4.7441321 4.4252514 0 0 1 361.72852 531.37108 A 4.7441321 4.4252514 0 0 1 361.73047 531.36913 A 4.7441321 4.4252514 0 0 1 361.81641 531.21874 A 4.7441321 4.4252514 0 0 1 361.81836 531.21679 A 4.7441321 4.4252514 0 0 1 361.91016 531.06835 A 4.7441321 4.4252514 0 0 1 361.91211 531.0664 A 4.7441321 4.4252514 0 0 1 362.00977 530.92187 A 4.7441321 4.4252514 0 0 1 362.01172 530.91991 A 4.7441321 4.4252514 0 0 1 362.11719 530.77929 A 4.7441321 4.4252514 0 0 1 362.11914 530.77733 A 4.7441321 4.4252514 0 0 1 362.22852 530.64061 A 4.7441321 4.4252514 0 0 1 362.4707 530.37694 A 4.7441321 4.4252514 0 0 1 362.47266 530.37499 A 4.7441321 4.4252514 0 0 1 362.59961 530.25194 A 4.7441321 4.4252514 0 0 1 362.60156 530.24999 A 4.7441321 4.4252514 0 0 1 362.73438 530.13085 A 4.7441321 4.4252514 0 0 1 362.73633 530.1289 A 4.7441321 4.4252514 0 0 1 362.87305 530.01561 A 4.7441321 4.4252514 0 0 1 362.875 530.01366 A 4.7441321 4.4252514 0 0 1 363.01758 529.90624 A 4.7441321 4.4252514 0 0 1 363.01953 529.90429 A 4.7441321 4.4252514 0 0 1 363.16602 529.80077 A 4.7441321 4.4252514 0 0 1 363.16797 529.79882 A 4.7441321 4.4252514 0 0 1 363.31836 529.70116 A 4.7441321 4.4252514 0 0 1 363.32031 529.69921 A 4.7441321 4.4252514 0 0 1 363.47461 529.60741 A 4.7441321 4.4252514 0 0 1 363.47656 529.60546 A 4.7441321 4.4252514 0 0 1 363.63672 529.51952 A 4.7441321 4.4252514 0 0 1 363.63867 529.51757 A 4.7441321 4.4252514 0 0 1 363.80078 529.43749 A 4.7441321 4.4252514 0 0 1 363.80273 529.43554 A 4.7441321 4.4252514 0 0 1 364.13867 529.29296 A 4.7441321 4.4252514 0 0 1 364.14062 529.29101 A 4.7441321 4.4252514 0 0 1 364.3125 529.22851 A 4.7441321 4.4252514 0 0 1 365.95703 528.95311 A 4.7441321 4.4252514 0 0 1 367.0625 529.07616 A 4.7441321 4.4252514 0 0 1 369.43945 530.37304 A 4.7441321 4.4252514 0 0 1 370.68555 533.02929 A 4.7441321 4.4252514 0 0 1 370.70117 533.3789 A 4.7441321 4.4252514 0 0 1 370.68555 533.7246 A 4.7441321 4.4252514 0 0 1 370.60938 534.24218 A 4.7441321 4.4252514 0 0 1 370.60938 534.24413 A 4.7441321 4.4252514 0 0 1 370.5625 534.43554 A 158.63455 79.317274 0 0 1 382.62695 532.82811 A 4.7441321 4.4252514 0 0 1 382.60547 532.79491 A 4.7441321 4.4252514 0 0 1 382.26758 532.17772 A 4.7441321 4.4252514 0 0 1 382.03711 531.51757 A 4.7441321 4.4252514 0 0 1 381.9043 530.48241 A 4.7441321 4.4252514 0 0 1 382.07031 529.32811 A 4.7441321 4.4252514 0 0 1 382.08398 529.28124 A 4.7441321 4.4252514 0 0 1 382.08398 529.27929 A 4.7441321 4.4252514 0 0 1 382.10352 529.22655 A 4.7441321 4.4252514 0 0 1 382.13672 529.11522 A 4.7441321 4.4252514 0 0 1 382.13867 529.11327 A 4.7441321 4.4252514 0 0 1 382.19727 528.95116 A 4.7441321 4.4252514 0 0 1 382.19922 528.94921 A 4.7441321 4.4252514 0 0 1 382.26562 528.78905 A 4.7441321 4.4252514 0 0 1 382.26758 528.7871 A 4.7441321 4.4252514 0 0 1 382.33984 528.63085 A 4.7441321 4.4252514 0 0 1 382.3418 528.6289 A 4.7441321 4.4252514 0 0 1 382.42188 528.4746 A 4.7441321 4.4252514 0 0 1 382.42383 528.47265 A 4.7441321 4.4252514 0 0 1 382.50977 528.3203 A 4.7441321 4.4252514 0 0 1 382.87305 527.80468 A 4.7441321 4.4252514 0 0 1 382.92383 527.74413 A 4.7441321 4.4252514 0 0 1 382.92383 527.74218 A 4.7441321 4.4252514 0 0 1 383.02734 527.62499 A 4.7441321 4.4252514 0 0 1 383.04297 527.60937 A 4.7441321 4.4252514 0 0 1 383.04492 527.60741 A 4.7441321 4.4252514 0 0 1 383.16602 527.47851 A 4.7441321 4.4252514 0 0 1 383.16797 527.47655 A 4.7441321 4.4252514 0 0 1 383.29492 527.35351 A 4.7441321 4.4252514 0 0 1 383.29688 527.35155 A 4.7441321 4.4252514 0 0 1 383.3125 527.33983 A 4.7441321 4.4252514 0 0 1 383.43164 527.23241 A 4.7441321 4.4252514 0 0 1 383.57031 527.11718 A 4.7441321 4.4252514 0 0 1 383.68164 527.03319 A 4.7441321 4.4252514 0 0 1 383.71484 527.0078 A 4.7441321 4.4252514 0 0 1 383.7168 527.00585 A 4.7441321 4.4252514 0 0 1 383.86328 526.90233 A 4.7441321 4.4252514 0 0 1 383.86523 526.90038 A 4.7441321 4.4252514 0 0 1 383.91797 526.86522 A 4.7441321 4.4252514 0 0 1 384.01562 526.80077 A 4.7441321 4.4252514 0 0 1 384.17383 526.70702 A 4.7441321 4.4252514 0 0 1 384.33398 526.61913 A 4.7441321 4.4252514 0 0 1 384.49805 526.5371 A 4.7441321 4.4252514 0 0 1 384.57422 526.5039 A 4.7441321 4.4252514 0 0 1 384.66602 526.46288 A 4.7441321 4.4252514 0 0 1 384.66797 526.46093 A 4.7441321 4.4252514 0 0 1 384.83594 526.39257 A 4.7441321 4.4252514 0 0 1 384.83789 526.39061 A 4.7441321 4.4252514 0 0 1 384.94727 526.35155 A 4.7441321 4.4252514 0 0 1 385.00977 526.32811 A 4.7441321 4.4252514 0 0 1 385.18555 526.27147 A 4.7441321 4.4252514 0 0 1 385.36328 526.22069 A 4.7441321 4.4252514 0 0 1 385.40039 526.21288 A 4.7441321 4.4252514 0 0 1 386.6543 526.05272 A 4.7441321 4.4252514 0 0 1 389.58984 527.0039 A 4.7441321 4.4252514 0 0 1 389.5918 527.0039 A 4.7441321 4.4252514 0 0 1 390.37891 527.73827 A 4.7441321 4.4252514 0 0 1 391.30664 529.61327 A 4.7441321 4.4252514 0 0 1 391.30664 529.61522 A 4.7441321 4.4252514 0 0 1 391.39844 530.47851 A 4.7441321 4.4252514 0 0 1 391.36523 530.99804 A 4.7441321 4.4252514 0 0 1 391.16602 531.84569 A 4.7441321 4.4252514 0 0 1 391.11133 531.99608 A 158.63455 79.317274 0 0 1 403.29101 531.21483 A 4.7441321 4.4252514 0 0 1 402.76366 529.18749 A 4.7441321 4.4252514 0 0 1 402.99608 527.8203 A 4.7441321 4.4252514 0 0 1 402.99804 527.81835 A 4.7441321 4.4252514 0 0 1 403.05663 527.65624 A 4.7441321 4.4252514 0 0 1 403.19921 527.33593 A 4.7441321 4.4252514 0 0 1 403.20116 527.33397 A 4.7441321 4.4252514 0 0 1 403.28124 527.17968 A 4.7441321 4.4252514 0 0 1 403.28124 527.17772 A 4.7441321 4.4252514 0 0 1 403.31054 527.12304 A 4.7441321 4.4252514 0 0 1 403.46093 526.87694 A 4.7441321 4.4252514 0 0 1 403.46288 526.87499 A 4.7441321 4.4252514 0 0 1 403.56054 526.73046 A 4.7441321 4.4252514 0 0 1 403.56249 526.72851 A 4.7441321 4.4252514 0 0 1 403.66796 526.58788 A 4.7441321 4.4252514 0 0 1 403.66796 526.58593 A 4.7441321 4.4252514 0 0 1 403.75976 526.4746 A 4.7441321 4.4252514 0 0 1 403.77929 526.44921 A 4.7441321 4.4252514 0 0 1 403.78124 526.44726 A 4.7441321 4.4252514 0 0 1 403.89843 526.31444 A 4.7441321 4.4252514 0 0 1 403.89843 526.31249 A 4.7441321 4.4252514 0 0 1 404.01757 526.18944 A 4.7441321 4.4252514 0 0 1 404.02147 526.18554 A 4.7441321 4.4252514 0 0 1 404.02343 526.18358 A 4.7441321 4.4252514 0 0 1 404.02538 526.18163 A 4.7441321 4.4252514 0 0 1 404.15038 526.05858 A 4.7441321 4.4252514 0 0 1 404.27147 525.95116 A 4.7441321 4.4252514 0 0 1 404.28515 525.93944 A 4.7441321 4.4252514 0 0 1 404.2871 525.93749 A 4.7441321 4.4252514 0 0 1 404.42577 525.82421 A 4.7441321 4.4252514 0 0 1 404.42772 525.82226 A 4.7441321 4.4252514 0 0 1 404.56835 525.71288 A 4.7441321 4.4252514 0 0 1 404.5703 525.71093 A 4.7441321 4.4252514 0 0 1 404.71874 525.60937 A 4.7441321 4.4252514 0 0 1 404.72069 525.60741 A 4.7441321 4.4252514 0 0 1 404.87108 525.50976 A 4.7441321 4.4252514 0 0 1 404.87304 525.5078 A 4.7441321 4.4252514 0 0 1 405.02733 525.41601 A 4.7441321 4.4252514 0 0 1 405.02929 525.41405 A 4.7441321 4.4252514 0 0 1 405.18749 525.32811 A 4.7441321 4.4252514 0 0 1 405.18944 525.32616 A 4.7441321 4.4252514 0 0 1 405.51952 525.16991 A 4.7441321 4.4252514 0 0 1 405.52147 525.16796 A 4.7441321 4.4252514 0 0 1 405.6914 525.0996 A 4.7441321 4.4252514 0 0 1 405.69335 525.09765 A 4.7441321 4.4252514 0 0 1 406.35546 524.89452 A 4.7441321 4.4252514 0 0 1 406.39843 524.8828 A 4.7441321 4.4252514 0 0 1 406.43749 524.87499 A 4.7441321 4.4252514 0 0 1 407.50585 524.75976 A 4.7441321 4.4252514 0 0 1 407.5078 524.75976 A 4.7441321 4.4252514 0 0 1 407.50976 524.75976 A 4.7441321 4.4252514 0 0 1 407.8789 524.77538 A 4.7441321 4.4252514 0 0 1 408.24999 524.8164 A 4.7441321 4.4252514 0 0 1 408.97265 524.97851 A 4.7441321 4.4252514 0 0 1 408.9746 524.97851 A 4.7441321 4.4252514 0 0 1 409.14843 525.03515 A 4.7441321 4.4252514 0 0 1 409.66015 525.24413 A 4.7441321 4.4252514 0 0 1 411.55272 526.87304 A 4.7441321 4.4252514 0 0 1 411.55272 526.87499 A 4.7441321 4.4252514 0 0 1 412.12108 528.15233 A 4.7441321 4.4252514 0 0 1 412.12108 528.15429 A 4.7441321 4.4252514 0 0 1 412.2539 529.18554 A 4.7441321 4.4252514 0 0 1 412.02147 530.55272 A 4.7441321 4.4252514 0 0 1 411.96093 530.71679 A 4.7441321 4.4252514 0 0 1 411.95897 530.71874 A 4.7441321 4.4252514 0 0 1 411.89257 530.8789 A 4.7441321 4.4252514 0 0 1 411.89061 530.88085 A 4.7441321 4.4252514 0 0 1 411.85937 530.94921 A 158.63455 79.317274 0 0 1 417.39061 530.90038 A 158.63455 79.317274 0 0 1 424.06054 530.97069 A 4.7441321 4.4252514 0 0 1 423.65624 529.18749 A 4.7441321 4.4252514 0 0 1 423.67187 528.8496 A 4.7441321 4.4252514 0 0 1 423.67187 528.83788 A 4.7441321 4.4252514 0 0 1 423.67187 528.83593 A 4.7441321 4.4252514 0 0 1 423.67382 528.82226 A 4.7441321 4.4252514 0 0 1 423.88866 527.8203 A 4.7441321 4.4252514 0 0 1 423.94921 527.65624 A 4.7441321 4.4252514 0 0 1 424.01757 527.49413 A 4.7441321 4.4252514 0 0 1 424.17382 527.17772 A 4.7441321 4.4252514 0 0 1 424.26171 527.02538 A 4.7441321 4.4252514 0 0 1 424.35546 526.87499 A 4.7441321 4.4252514 0 0 1 424.45507 526.72851 A 4.7441321 4.4252514 0 0 1 424.56249 526.58593 A 4.7441321 4.4252514 0 0 1 424.67382 526.44726 A 4.7441321 4.4252514 0 0 1 424.91601 526.18358 A 4.7441321 4.4252514 0 0 1 424.91796 526.18163 A 4.7441321 4.4252514 0 0 1 425.04491 526.05858 A 4.7441321 4.4252514 0 0 1 425.04687 526.05663 A 4.7441321 4.4252514 0 0 1 425.17968 525.93749 A 4.7441321 4.4252514 0 0 1 425.18163 525.93554 A 4.7441321 4.4252514 0 0 1 425.31835 525.82226 A 4.7441321 4.4252514 0 0 1 425.3203 525.8203 A 4.7441321 4.4252514 0 0 1 425.46288 525.71288 A 4.7441321 4.4252514 0 0 1 425.46483 525.71093 A 4.7441321 4.4252514 0 0 1 425.61132 525.60741 A 4.7441321 4.4252514 0 0 1 425.61327 525.60546 A 4.7441321 4.4252514 0 0 1 425.76366 525.5078 A 4.7441321 4.4252514 0 0 1 425.76561 525.50585 A 4.7441321 4.4252514 0 0 1 425.91991 525.41405 A 4.7441321 4.4252514 0 0 1 425.92187 525.4121 A 4.7441321 4.4252514 0 0 1 426.08202 525.32616 A 4.7441321 4.4252514 0 0 1 426.08397 525.32421 A 4.7441321 4.4252514 0 0 1 426.24608 525.24413 A 4.7441321 4.4252514 0 0 1 426.58397 525.0996 A 4.7441321 4.4252514 0 0 1 426.58593 525.09765 A 4.7441321 4.4252514 0 0 1 426.7578 525.03515 A 4.7441321 4.4252514 0 0 1 428.40038 524.75976 L 428.40429 524.79296 A 4.7441321 4.4252514 0 0 1 428.40624 524.79296 A 4.7441321 4.4252514 0 0 1 429.33007 524.8789 A 4.7441321 4.4252514 0 0 1 430.21874 525.13085 A 4.7441321 4.4252514 0 0 1 430.22069 525.13085 A 4.7441321 4.4252514 0 0 1 431.88671 526.21483 A 4.7441321 4.4252514 0 0 1 433.13476 528.86913 A 4.7441321 4.4252514 0 0 1 433.14843 529.21874 A 4.7441321 4.4252514 0 0 1 432.91601 530.58593 A 4.7441321 4.4252514 0 0 1 432.85546 530.74999 A 4.7441321 4.4252514 0 0 1 432.85351 530.75194 A 4.7441321 4.4252514 0 0 1 432.7871 530.9121 A 4.7441321 4.4252514 0 0 1 432.78515 530.91405 A 4.7441321 4.4252514 0 0 1 432.71288 531.0703 A 4.7441321 4.4252514 0 0 1 432.67382 531.14647 A 4.7441321 4.4252514 0 0 1 432.63085 531.22655 A 4.7441321 4.4252514 0 0 1 432.63085 531.22851 A 4.7441321 4.4252514 0 0 1 432.58983 531.29882 A 158.63455 79.317274 0 0 1 444.84374 532.13085 A 4.7441321 4.4252514 0 0 1 444.51366 530.50976 A 4.7441321 4.4252514 0 0 1 444.72851 529.1953 A 4.7441321 4.4252514 0 0 1 444.74804 529.14257 A 4.7441321 4.4252514 0 0 1 444.74804 529.14061 A 4.7441321 4.4252514 0 0 1 444.77147 529.08007 A 4.7441321 4.4252514 0 0 1 444.80858 528.97851 A 4.7441321 4.4252514 0 0 1 444.81054 528.97655 A 4.7441321 4.4252514 0 0 1 444.87694 528.8164 A 4.7441321 4.4252514 0 0 1 444.87694 528.81444 A 4.7441321 4.4252514 0 0 1 444.91015 528.74022 A 4.7441321 4.4252514 0 0 1 444.94921 528.65624 A 4.7441321 4.4252514 0 0 1 444.95116 528.65429 A 4.7441321 4.4252514 0 0 1 445.02929 528.49999 A 4.7441321 4.4252514 0 0 1 445.03124 528.49804 A 4.7441321 4.4252514 0 0 1 445.11718 528.34765 A 4.7441321 4.4252514 0 0 1 445.11913 528.34569 A 4.7441321 4.4252514 0 0 1 445.21288 528.19726 A 4.7441321 4.4252514 0 0 1 445.21288 528.1953 A 4.7441321 4.4252514 0 0 1 445.28124 528.09569 A 4.7441321 4.4252514 0 0 1 445.31249 528.05077 A 4.7441321 4.4252514 0 0 1 445.31444 528.04882 A 4.7441321 4.4252514 0 0 1 445.41796 527.90819 A 4.7441321 4.4252514 0 0 1 445.41991 527.90624 A 4.7441321 4.4252514 0 0 1 445.53124 527.76952 A 4.7441321 4.4252514 0 0 1 445.77343 527.50585 A 4.7441321 4.4252514 0 0 1 445.77538 527.5039 A 4.7441321 4.4252514 0 0 1 445.90233 527.38085 A 4.7441321 4.4252514 0 0 1 445.90429 527.3789 A 4.7441321 4.4252514 0 0 1 446.17577 527.14452 A 4.7441321 4.4252514 0 0 1 446.17772 527.14257 A 4.7441321 4.4252514 0 0 1 446.62108 526.83007 A 4.7441321 4.4252514 0 0 1 446.62304 526.82811 A 4.7441321 4.4252514 0 0 1 446.77733 526.73632 A 4.7441321 4.4252514 0 0 1 446.77929 526.73437 A 4.7441321 4.4252514 0 0 1 446.93749 526.64843 A 4.7441321 4.4252514 0 0 1 446.93944 526.64647 A 4.7441321 4.4252514 0 0 1 447.10155 526.5664 A 4.7441321 4.4252514 0 0 1 447.10351 526.56444 A 4.7441321 4.4252514 0 0 1 447.26952 526.49022 A 4.7441321 4.4252514 0 0 1 447.27147 526.48827 A 4.7441321 4.4252514 0 0 1 447.61327 526.35741 A 4.7441321 4.4252514 0 0 1 449.25976 526.08202 A 4.7441321 4.4252514 0 0 1 450.18358 526.16796 A 4.7441321 4.4252514 0 0 1 450.36522 526.20507 A 4.7441321 4.4252514 0 0 1 452.04491 526.92772 A 4.7441321 4.4252514 0 0 1 452.33788 527.14257 A 4.7441321 4.4252514 0 0 1 452.33983 527.14257 A 4.7441321 4.4252514 0 0 1 452.74022 527.5039 A 4.7441321 4.4252514 0 0 1 453.64061 528.81249 A 4.7441321 4.4252514 0 0 1 454.0039 530.5078 A 4.7441321 4.4252514 0 0 1 453.77147 531.87499 A 4.7441321 4.4252514 0 0 1 453.71093 532.03905 A 4.7441321 4.4252514 0 0 1 453.70897 532.04101 A 4.7441321 4.4252514 0 0 1 453.56835 532.35937 A 4.7441321 4.4252514 0 0 1 453.5664 532.36132 A 4.7441321 4.4252514 0 0 1 453.48632 532.51561 A 4.7441321 4.4252514 0 0 1 453.48437 532.51757 A 4.7441321 4.4252514 0 0 1 453.30468 532.81835 A 4.7441321 4.4252514 0 0 1 453.26952 532.86522 A 4.7441321 4.4252514 0 0 1 453.20116 532.96483 A 4.7441321 4.4252514 0 0 1 453.18944 532.98046 A 158.63455 79.317274 0 0 1 465.39647 534.65233 A 4.7441321 4.4252514 0 0 1 465.3828 534.60546 A 4.7441321 4.4252514 0 0 1 465.33593 534.43749 A 4.7441321 4.4252514 0 0 1 465.20311 533.40429 A 4.7441321 4.4252514 0 0 1 465.21679 533.0664 A 4.7441321 4.4252514 0 0 1 465.21679 533.05468 A 4.7441321 4.4252514 0 0 1 465.21679 533.05272 A 4.7441321 4.4252514 0 0 1 465.21874 533.0371 A 4.7441321 4.4252514 0 0 1 465.43358 532.03515 A 4.7441321 4.4252514 0 0 1 465.43554 532.03319 A 4.7441321 4.4252514 0 0 1 465.49413 531.87108 A 4.7441321 4.4252514 0 0 1 465.49608 531.86913 A 4.7441321 4.4252514 0 0 1 465.56249 531.70897 A 4.7441321 4.4252514 0 0 1 465.80663 531.24022 A 4.7441321 4.4252514 0 0 1 465.80858 531.23827 A 4.7441321 4.4252514 0 0 1 465.90038 531.08983 A 4.7441321 4.4252514 0 0 1 465.90233 531.08788 A 4.7441321 4.4252514 0 0 1 465.99999 530.94335 A 4.7441321 4.4252514 0 0 1 466.00194 530.9414 A 4.7441321 4.4252514 0 0 1 466.10741 530.80077 A 4.7441321 4.4252514 0 0 1 466.46093 530.39843 A 4.7441321 4.4252514 0 0 1 466.46288 530.39647 A 4.7441321 4.4252514 0 0 1 466.58983 530.27343 A 4.7441321 4.4252514 0 0 1 466.59179 530.27147 A 4.7441321 4.4252514 0 0 1 466.7246 530.15233 A 4.7441321 4.4252514 0 0 1 466.72655 530.15038 A 4.7441321 4.4252514 0 0 1 466.86327 530.0371 A 4.7441321 4.4252514 0 0 1 466.86522 530.03515 A 4.7441321 4.4252514 0 0 1 467.0078 529.92772 A 4.7441321 4.4252514 0 0 1 467.00976 529.92577 A 4.7441321 4.4252514 0 0 1 467.15624 529.82226 A 4.7441321 4.4252514 0 0 1 467.15819 529.8203 A 4.7441321 4.4252514 0 0 1 467.30858 529.72265 A 4.7441321 4.4252514 0 0 1 467.31054 529.72069 A 4.7441321 4.4252514 0 0 1 467.62694 529.54296 A 4.7441321 4.4252514 0 0 1 467.6289 529.54101 A 4.7441321 4.4252514 0 0 1 467.79101 529.45897 A 4.7441321 4.4252514 0 0 1 467.79296 529.45702 A 4.7441321 4.4252514 0 0 1 468.1289 529.3164 A 4.7441321 4.4252514 0 0 1 468.13085 529.31444 A 4.7441321 4.4252514 0 0 1 468.24022 529.27538 A 4.7441321 4.4252514 0 0 1 468.30272 529.25194 A 4.7441321 4.4252514 0 0 1 468.36132 529.23241 A 4.7441321 4.4252514 0 0 1 468.47851 529.1953 A 4.7441321 4.4252514 0 0 1 469.94726 528.97655 A 4.7441321 4.4252514 0 0 1 470.87108 529.06249 A 4.7441321 4.4252514 0 0 1 470.87304 529.06249 A 4.7441321 4.4252514 0 0 1 471.05272 529.0996 A 4.7441321 4.4252514 0 0 1 473.02538 530.0371 A 4.7441321 4.4252514 0 0 1 473.02733 530.0371 A 4.7441321 4.4252514 0 0 1 473.29882 530.27343 A 4.7441321 4.4252514 0 0 1 473.30077 530.27343 A 4.7441321 4.4252514 0 0 1 474.67577 533.05272 A 4.7441321 4.4252514 0 0 1 474.6914 533.40233 A 4.7441321 4.4252514 0 0 1 474.45897 534.76952 A 4.7441321 4.4252514 0 0 1 474.39843 534.93358 A 4.7441321 4.4252514 0 0 1 474.39647 534.93554 A 4.7441321 4.4252514 0 0 1 474.25585 535.2539 A 4.7441321 4.4252514 0 0 1 474.21679 535.33007 A 4.7441321 4.4252514 0 0 1 474.17382 535.41015 A 4.7441321 4.4252514 0 0 1 474.17382 535.4121 A 4.7441321 4.4252514 0 0 1 473.89257 535.85937 A 4.7441321 4.4252514 0 0 1 473.86522 535.89843 A 4.7441321 4.4252514 0 0 1 473.78515 536.0039 A 4.7441321 4.4252514 0 0 1 473.78515 536.00585 A 4.7441321 4.4252514 0 0 1 473.70702 536.0996 A 158.63455 79.317274 0 0 1 485.77929 538.68358 A 4.7441321 4.4252514 0 0 1 485.65429 537.67187 A 4.7441321 4.4252514 0 0 1 485.65429 537.66991 A 4.7441321 4.4252514 0 0 1 485.65429 537.66796 A 4.7441321 4.4252514 0 0 1 485.78515 536.63866 A 4.7441321 4.4252514 0 0 1 485.83202 536.47265 A 4.7441321 4.4252514 0 0 1 485.83202 536.47069 A 4.7441321 4.4252514 0 0 1 485.85155 536.41796 A 4.7441321 4.4252514 0 0 1 485.88476 536.30663 A 4.7441321 4.4252514 0 0 1 485.88671 536.30468 A 4.7441321 4.4252514 0 0 1 485.94726 536.14257 A 4.7441321 4.4252514 0 0 1 485.94726 536.14061 A 4.7441321 4.4252514 0 0 1 485.9746 536.07421 A 4.7441321 4.4252514 0 0 1 486.01366 535.98046 A 4.7441321 4.4252514 0 0 1 486.01561 535.97851 A 4.7441321 4.4252514 0 0 1 486.08983 535.81835 A 4.7441321 4.4252514 0 0 1 486.2578 535.51171 A 4.7441321 4.4252514 0 0 1 486.78905 534.80077 A 4.7441321 4.4252514 0 0 1 486.79101 534.79882 A 4.7441321 4.4252514 0 0 1 487.17577 534.42382 A 4.7441321 4.4252514 0 0 1 487.3164 534.30858 A 4.7441321 4.4252514 0 0 1 487.45897 534.19921 A 4.7441321 4.4252514 0 0 1 487.46093 534.19726 A 4.7441321 4.4252514 0 0 1 487.5039 534.16601 A 4.7441321 4.4252514 0 0 1 487.60741 534.09179 A 4.7441321 4.4252514 0 0 1 487.76171 533.99218 A 4.7441321 4.4252514 0 0 1 487.91796 533.89843 A 4.7441321 4.4252514 0 0 1 488.07811 533.81054 A 4.7441321 4.4252514 0 0 1 488.24218 533.72851 A 4.7441321 4.4252514 0 0 1 488.41015 533.65233 A 4.7441321 4.4252514 0 0 1 488.47851 533.62694 A 4.7441321 4.4252514 0 0 1 488.58007 533.58593 A 4.7441321 4.4252514 0 0 0 488.58202 533.58202 A 4.7441321 4.4252514 0 0 1 488.68944 533.54491 A 4.7441321 4.4252514 0 0 1 488.75194 533.52147 A 4.7441321 4.4252514 0 0 1 488.92772 533.46483 A 4.7441321 4.4252514 0 0 1 489.10546 533.41405 A 4.7441321 4.4252514 0 0 1 489.15038 533.40233 A 4.7441321 4.4252514 0 0 1 489.62304 533.30663 A 4.7441321 4.4252514 0 0 1 489.65429 533.29882 A 4.7441321 4.4252514 0 0 1 489.67968 533.29491 A 4.7441321 4.4252514 0 0 1 490.0078 533.26171 A 4.7441321 4.4252514 0 0 1 490.02343 533.25976 A 4.7441321 4.4252514 0 0 1 490.02538 533.25976 A 4.7441321 4.4252514 0 0 1 490.39843 533.24413 A 4.7441321 4.4252514 0 0 1 490.76952 533.25976 A 4.7441321 4.4252514 0 0 1 491.32226 533.33007 A 4.7441321 4.4252514 0 0 1 492.03905 533.51952 A 4.7441321 4.4252514 0 0 1 492.04101 533.51952 A 4.7441321 4.4252514 0 0 1 492.21288 533.58202 A 4.7441321 4.4252514 0 0 1 492.3828 533.65233 A 4.7441321 4.4252514 0 0 1 493.18554 534.08983 A 4.7441321 4.4252514 0 0 1 493.18749 534.08983 A 4.7441321 4.4252514 0 0 1 493.33397 534.1953 A 4.7441321 4.4252514 0 0 1 493.33593 534.1953 A 4.7441321 4.4252514 0 0 1 493.75194 534.54101 A 4.7441321 4.4252514 0 0 1 493.7539 534.54101 A 4.7441321 4.4252514 0 0 1 493.88085 534.66601 A 4.7441321 4.4252514 0 0 1 495.10937 537.14843 A 4.7441321 4.4252514 0 0 1 495.10937 537.15038 A 4.7441321 4.4252514 0 0 1 495.14061 537.49608 A 4.7441321 4.4252514 0 0 1 495.14452 537.66796 A 4.7441321 4.4252514 0 0 1 495.14452 537.66991 A 4.7441321 4.4252514 0 0 1 495.14061 537.84374 A 4.7441321 4.4252514 0 0 1 494.9121 539.0371 A 4.7441321 4.4252514 0 0 1 494.9121 539.03905 A 4.7441321 4.4252514 0 0 1 494.85155 539.20116 A 4.7441321 4.4252514 0 0 1 494.81054 539.29687 A 4.7441321 4.4252514 0 0 1 494.78319 539.36327 A 4.7441321 4.4252514 0 0 1 494.54101 539.83202 A 4.7441321 4.4252514 0 0 1 494.53905 539.83397 A 4.7441321 4.4252514 0 0 1 493.88476 540.67382 A 4.7441321 4.4252514 0 0 1 493.8828 540.67382 A 4.7441321 4.4252514 0 0 1 493.83397 540.72265 A 4.7441321 4.4252514 0 0 1 493.81249 540.74608 A 158.63455 79.317274 0 0 1 505.70507 544.36327 A 4.7441321 4.4252514 0 0 1 505.65429 543.72265 A 4.7441321 4.4252514 0 0 1 505.74022 542.88671 A 4.7441321 4.4252514 0 0 1 505.74804 542.85937 A 4.7441321 4.4252514 0 0 1 505.74804 542.85741 A 4.7441321 4.4252514 0 0 1 505.7578 542.81835 A 4.7441321 4.4252514 0 0 1 505.99804 542.07616 A 4.7441321 4.4252514 0 0 1 506.01757 542.02929 A 4.7441321 4.4252514 0 0 1 506.01757 542.02733 A 4.7441321 4.4252514 0 0 1 506.04101 541.97655 A 4.7441321 4.4252514 0 0 1 506.17382 541.71288 A 4.7441321 4.4252514 0 0 1 506.25976 541.56054 A 4.7441321 4.4252514 0 0 1 506.26171 541.55858 A 4.7441321 4.4252514 0 0 1 506.35546 541.41015 A 4.7441321 4.4252514 0 0 1 506.91601 540.71874 A 4.7441321 4.4252514 0 0 1 507.04296 540.59569 A 4.7441321 4.4252514 0 0 1 507.04491 540.59374 A 4.7441321 4.4252514 0 0 1 507.04687 540.59179 A 4.7441321 4.4252514 0 0 1 507.31835 540.35741 A 4.7441321 4.4252514 0 0 1 507.46093 540.24608 A 4.7441321 4.4252514 0 0 1 507.76366 540.04296 A 4.7441321 4.4252514 0 0 1 507.91991 539.94921 A 4.7441321 4.4252514 0 0 1 508.08007 539.86132 A 4.7441321 4.4252514 0 0 1 508.24608 539.77929 A 4.7441321 4.4252514 0 0 1 508.4121 539.70311 A 4.7441321 4.4252514 0 0 1 508.58397 539.6328 A 4.7441321 4.4252514 0 0 1 509.11132 539.46288 A 4.7441321 4.4252514 0 0 1 509.29101 539.41796 A 4.7441321 4.4252514 0 0 1 509.47265 539.3789 A 4.7441321 4.4252514 0 0 1 509.65624 539.3496 A 4.7441321 4.4252514 0 0 1 509.67772 539.34765 A 4.7441321 4.4252514 0 0 1 510.01171 539.31054 A 4.7441321 4.4252514 0 0 1 510.02538 539.30858 A 4.7441321 4.4252514 0 0 1 510.21288 539.29687 A 4.7441321 4.4252514 0 0 1 510.39843 539.29491 A 4.7441321 4.4252514 0 0 1 510.40038 539.29491 A 4.7441321 4.4252514 0 0 1 510.40233 539.29491 A 4.7441321 4.4252514 0 0 1 510.58593 539.29687 A 4.7441321 4.4252514 0 0 1 510.77147 539.30858 A 4.7441321 4.4252514 0 0 1 510.77343 539.30858 A 4.7441321 4.4252514 0 0 1 510.95702 539.32226 A 4.7441321 4.4252514 0 0 1 511.32616 539.37694 A 4.7441321 4.4252514 0 0 1 511.50976 539.41601 A 4.7441321 4.4252514 0 0 1 511.51171 539.41601 A 4.7441321 4.4252514 0 0 1 511.68944 539.46093 A 4.7441321 4.4252514 0 0 1 512.04101 539.56835 A 4.7441321 4.4252514 0 0 1 512.21483 539.63085 A 4.7441321 4.4252514 0 0 1 512.38866 539.70116 A 4.7441321 4.4252514 0 0 1 512.71679 539.85741 A 4.7441321 4.4252514 0 0 1 512.71874 539.85741 A 4.7441321 4.4252514 0 0 1 512.88085 539.9453 A 4.7441321 4.4252514 0 0 1 512.8828 539.9453 A 4.7441321 4.4252514 0 0 1 513.03515 540.03905 A 4.7441321 4.4252514 0 0 1 513.0371 540.03905 A 4.7441321 4.4252514 0 0 1 513.18749 540.13866 A 4.7441321 4.4252514 0 0 1 513.18944 540.13866 A 4.7441321 4.4252514 0 0 1 513.33593 540.24413 A 4.7441321 4.4252514 0 0 1 513.48046 540.35351 A 4.7441321 4.4252514 0 0 1 513.48241 540.35351 A 4.7441321 4.4252514 0 0 1 513.61913 540.46874 A 4.7441321 4.4252514 0 0 1 513.62108 540.46874 A 4.7441321 4.4252514 0 0 1 513.7539 540.58983 A 4.7441321 4.4252514 0 0 1 513.8828 540.71483 A 4.7441321 4.4252514 0 0 1 514.0078 540.84374 A 4.7441321 4.4252514 0 0 1 514.0078 540.84569 A 4.7441321 4.4252514 0 0 1 515.14647 543.71874 A 4.7441321 4.4252514 0 0 1 514.00976 546.59179 A 4.7441321 4.4252514 0 0 1 514.0078 546.59374 A 4.7441321 4.4252514 0 0 1 513.88671 546.72265 A 4.7441321 4.4252514 0 0 1 513.88476 546.72265 A 4.7441321 4.4252514 0 0 1 513.7578 546.84765 A 4.7441321 4.4252514 0 0 1 513.62304 546.96874 A 4.7441321 4.4252514 0 0 1 513.48437 547.08397 A 4.7441321 4.4252514 0 0 1 513.48241 547.08397 A 4.7441321 4.4252514 0 0 1 513.43749 547.12108 A 158.63455 79.317274 0 0 1 524.93554 551.93944 A 4.7441321 4.4252514 0 0 1 524.93163 551.76561 A 4.7441321 4.4252514 0 0 1 524.94726 551.42968 A 4.7441321 4.4252514 0 0 1 524.94726 551.41796 A 4.7441321 4.4252514 0 0 1 524.94726 551.41601 A 4.7441321 4.4252514 0 0 1 524.94921 551.40038 A 4.7441321 4.4252514 0 0 1 525.44921 549.75585 A 4.7441321 4.4252514 0 0 1 525.63085 549.45311 A 4.7441321 4.4252514 0 0 1 525.63085 549.45116 A 4.7441321 4.4252514 0 0 1 525.67187 549.39257 A 4.7441321 4.4252514 0 0 1 526.06835 548.89061 A 4.7441321 4.4252514 0 0 1 526.1914 548.76171 A 4.7441321 4.4252514 0 0 1 526.19335 548.75976 A 4.7441321 4.4252514 0 0 1 526.1953 548.7578 A 4.7441321 4.4252514 0 0 1 526.3203 548.63476 A 4.7441321 4.4252514 0 0 1 526.45507 548.51561 A 4.7441321 4.4252514 0 0 1 526.57226 548.41796 A 4.7441321 4.4252514 0 0 1 526.59569 548.40038 A 4.7441321 4.4252514 0 0 1 526.59765 548.39843 A 4.7441321 4.4252514 0 0 1 527.04101 548.08593 A 4.7441321 4.4252514 0 0 1 527.04296 548.08397 A 4.7441321 4.4252514 0 0 1 527.19726 547.99218 A 4.7441321 4.4252514 0 0 1 528.35155 547.51757 A 4.7441321 4.4252514 0 0 1 528.38866 547.50585 A 4.7441321 4.4252514 0 0 1 528.56835 547.46093 A 4.7441321 4.4252514 0 0 1 528.74999 547.42382 A 4.7441321 4.4252514 0 0 1 528.78124 547.41601 A 4.7441321 4.4252514 0 0 1 529.67968 547.33593 A 4.7441321 4.4252514 0 0 1 529.86327 547.33983 A 4.7441321 4.4252514 0 0 1 529.86522 547.33983 A 4.7441321 4.4252514 0 0 1 530.23632 547.36522 A 4.7441321 4.4252514 0 0 1 530.41991 547.38866 A 4.7441321 4.4252514 0 0 1 530.42187 547.38866 A 4.7441321 4.4252514 0 0 1 530.78515 547.45702 A 4.7441321 4.4252514 0 0 1 531.49218 547.67187 A 4.7441321 4.4252514 0 0 1 531.49413 547.67187 A 4.7441321 4.4252514 0 0 1 531.99608 547.89843 A 4.7441321 4.4252514 0 0 1 532.15624 547.98632 A 4.7441321 4.4252514 0 0 1 532.31249 548.08007 A 4.7441321 4.4252514 0 0 1 532.31444 548.08007 A 4.7441321 4.4252514 0 0 1 532.46679 548.17968 A 4.7441321 4.4252514 0 0 1 532.7578 548.39452 A 4.7441321 4.4252514 0 0 1 532.75976 548.39452 A 4.7441321 4.4252514 0 0 1 532.89843 548.50976 A 4.7441321 4.4252514 0 0 1 533.03124 548.63085 A 4.7441321 4.4252514 0 0 1 533.03319 548.63085 A 4.7441321 4.4252514 0 0 1 533.16015 548.75585 A 4.7441321 4.4252514 0 0 1 534.24413 550.55663 A 4.7441321 4.4252514 0 0 1 534.24413 550.55858 A 4.7441321 4.4252514 0 0 1 534.29101 550.7246 A 4.7441321 4.4252514 0 0 1 534.29101 550.72655 A 4.7441321 4.4252514 0 0 1 534.40819 551.41015 A 4.7441321 4.4252514 0 0 1 534.42382 551.75976 A 4.7441321 4.4252514 0 0 1 533.98827 553.61132 A 4.7441321 4.4252514 0 0 1 533.98632 553.61327 A 4.7441321 4.4252514 0 0 1 533.90624 553.76757 A 4.7441321 4.4252514 0 0 0 533.90233 553.76952 A 4.7441321 4.4252514 0 0 1 533.40429 554.49804 A 4.7441321 4.4252514 0 0 1 533.1621 554.76366 A 4.7441321 4.4252514 0 0 1 533.16015 554.76366 A 4.7441321 4.4252514 0 0 1 533.03319 554.88866 A 4.7441321 4.4252514 0 0 1 532.89843 555.00976 A 4.7441321 4.4252514 0 0 1 532.75976 555.12499 A 4.7441321 4.4252514 0 0 1 532.61522 555.23437 A 4.7441321 4.4252514 0 0 1 532.46679 555.33983 A 4.7441321 4.4252514 0 0 1 532.31444 555.43944 A 4.7441321 4.4252514 0 0 1 532.23046 555.49022 A 4.7441321 4.4252514 0 0 1 532.20116 555.5039 A 158.63455 79.317274 0 0 1 542.99413 561.79101 A 4.7441321 4.4252514 0 0 1 543.09765 561.24413 A 4.7441321 4.4252514 0 0 1 543.09765 561.24218 A 4.7441321 4.4252514 0 0 1 543.14452 561.07616 A 4.7441321 4.4252514 0 0 1 543.14452 561.07421 A 4.7441321 4.4252514 0 0 1 544.48827 559.02733 A 4.7441321 4.4252514 0 0 1 544.6289 558.9121 A 4.7441321 4.4252514 0 0 1 544.77147 558.80077 A 4.7441321 4.4252514 0 0 1 544.91991 558.69726 A 4.7441321 4.4252514 0 0 1 545.07421 558.59765 A 4.7441321 4.4252514 0 0 1 545.39061 558.41601 A 4.7441321 4.4252514 0 0 1 545.55468 558.33397 A 4.7441321 4.4252514 0 0 1 545.72265 558.2578 A 4.7441321 4.4252514 0 0 1 545.89257 558.18749 A 4.7441321 4.4252514 0 0 1 546.0664 558.12499 A 4.7441321 4.4252514 0 0 1 546.24218 558.06835 A 4.7441321 4.4252514 0 0 1 546.41991 558.01757 A 4.7441321 4.4252514 0 0 1 546.60155 557.97265 A 4.7441321 4.4252514 0 0 1 547.15038 557.88085 A 4.7441321 4.4252514 0 0 1 547.33593 557.86522 A 4.7441321 4.4252514 0 0 1 547.52147 557.85351 A 4.7441321 4.4252514 0 0 1 547.71093 557.85155 A 4.7441321 4.4252514 0 0 1 548.26757 557.88085 A 4.7441321 4.4252514 0 0 1 548.26952 557.88085 A 4.7441321 4.4252514 0 0 1 548.63476 557.93554 A 4.7441321 4.4252514 0 0 1 548.8164 557.97265 A 4.7441321 4.4252514 0 0 1 549.35155 558.12304 A 4.7441321 4.4252514 0 0 1 549.35351 558.12499 A 4.7441321 4.4252514 0 0 1 549.52538 558.18749 A 4.7441321 4.4252514 0 0 1 549.6953 558.2578 A 4.7441321 4.4252514 0 0 1 549.69726 558.2578 A 4.7441321 4.4252514 0 0 1 549.86327 558.33202 A 4.7441321 4.4252514 0 0 1 549.94726 558.37499 A 4.7441321 4.4252514 0 0 1 550.02733 558.41405 A 4.7441321 4.4252514 0 0 1 550.02929 558.41405 A 4.7441321 4.4252514 0 0 1 550.18749 558.50194 A 4.7441321 4.4252514 0 0 1 550.34569 558.59569 A 4.7441321 4.4252514 0 0 1 550.49804 558.6953 A 4.7441321 4.4252514 0 0 1 550.49999 558.6953 A 4.7441321 4.4252514 0 0 1 550.64647 558.80077 A 4.7441321 4.4252514 0 0 1 550.79101 558.91015 A 4.7441321 4.4252514 0 0 1 550.92968 559.02538 A 4.7441321 4.4252514 0 0 1 551.19335 559.27147 A 4.7441321 4.4252514 0 0 1 551.3164 559.40038 A 4.7441321 4.4252514 0 0 1 551.31835 559.40233 A 4.7441321 4.4252514 0 0 1 552.16015 560.74218 A 4.7441321 4.4252514 0 0 1 552.22069 560.90624 A 4.7441321 4.4252514 0 0 1 552.35546 561.3789 A 4.7441321 4.4252514 0 0 1 552.36327 561.41015 A 4.7441321 4.4252514 0 0 1 552.45116 562.08983 A 4.7441321 4.4252514 0 0 1 552.45116 562.0996 A 4.7441321 4.4252514 0 0 1 552.45116 562.10155 A 4.7441321 4.4252514 0 0 1 552.45507 562.27343 A 4.7441321 4.4252514 0 0 1 552.45507 562.27538 A 4.7441321 4.4252514 0 0 1 552.42187 562.79491 A 4.7441321 4.4252514 0 0 1 552.39452 562.96874 A 4.7441321 4.4252514 0 0 1 551.3164 565.14843 A 4.7441321 4.4252514 0 0 1 551.3164 565.15038 A 4.7441321 4.4252514 0 0 1 551.19335 565.27929 A 4.7441321 4.4252514 0 0 1 551.1914 565.27929 A 4.7441321 4.4252514 0 0 1 551.06444 565.40624 A 4.7441321 4.4252514 0 0 1 550.79101 565.64061 A 4.7441321 4.4252514 0 0 1 550.78905 565.64061 A 4.7441321 4.4252514 0 0 1 550.64647 565.74999 A 4.7441321 4.4252514 0 0 1 550.34569 565.95507 A 4.7441321 4.4252514 0 0 1 550.18944 566.04882 A 4.7441321 4.4252514 0 0 1 550.02929 566.13866 A 4.7441321 4.4252514 0 0 1 549.69726 566.29687 A 4.7441321 4.4252514 0 0 1 549.6953 566.29687 A 4.7441321 4.4252514 0 0 1 549.5371 566.36132 A 158.63455 79.317274 0 0 1 554.6328 570.46483 L 662.56249 570.46483 "
       transform="scale(0.26458333)" />
    <path
       style="fill:none;stroke:#000000;stroke-width:0.26458299;stroke-linecap:butt;stroke-linejoin:miter;stroke-opacity:1;stroke-miterlimit:4;stroke-dasharray:0.26458299,0.52916597;stroke-dashoffset:0"
       d="M 45.584998,150.93531 H 35.517264"
       id="path2320" />
    <path
       style="fill:none;stroke:#000000;stroke-width:0.264583;stroke-linecap:butt;stroke-linejoin:miter;stroke-miterlimit:4;stroke-dasharray:0.264583, 0.529166;stroke-dashoffset:0;stroke-opacity:1"
       d="M 185.65274,150.93531 H 175.585"
       id="path2320-1" />
    <path
       style="fill:none;stroke:#000000;stroke-width:0.264583px;stroke-linecap:butt;stroke-linejoin:miter;stroke-opacity:1;marker-start:url(#marker3323-7);marker-end:url(#marker3495-4)"
       d="m 76.400967,154.02264 68.632603,-0.40787"
       id="path1848-0" />
    <text
       xml:space="preserve"
       id="text1176-5-2-6-3"
       style="font-size:5.64444px;line-height:1.25;font-family:sans-serif;letter-spacing:0px;word-spacing:0px;white-space:pre;shape-inside:url(#rect1178-3-6-5-5-4);"
       transform="translate(86.662991,109.72645)"><tspan
         x="17.822266"
         y="48.119007"><tspan
           style="font-size:3.88056px">30mm</tspan></tspan></text>
    <path
       style="fill:none;stroke:#000000;stroke-width:0.264583px;stroke-linecap:butt;stroke-linejoin:miter;stroke-opacity:1;marker-start:url(#marker1927-6);marker-end:url(#marker2087-0)"
       d="m 110.54752,140.99773 v 9.12981"
       id="path1917-2" />
    <text
       xml:space="preserve"
       id="text1176-5-2-6-9-0"
       style="font-size:5.64444px;line-height:1.25;font-family:sans-serif;letter-spacing:0px;word-spacing:0px;white-space:pre;shape-inside:url(#rect1178-3-6-5-5-2-3);"
       transform="translate(93.786486,99.638482)"><tspan
         x="17.822266"
         y="48.119007"><tspan
           style="font-size:3.88056px">3mm</tspan></tspan></text>
    <path
       style="fill:none;stroke:#000000;stroke-width:0.165;stroke-linecap:butt;stroke-linejoin:miter;stroke-miterlimit:4;stroke-dasharray:none;stroke-opacity:1;marker-start:url(#marker23088);marker-end:url(#marker23284)"
       d="m 76.257255,135.36823 4.854485,0.0125"
       id="path23078"
       sodipodi:nodetypes="cc" />
    <text
       xml:space="preserve"
       id="text1176-5-2-6-3-1"
       style="font-size:5.64444px;line-height:1.25;font-family:sans-serif;letter-spacing:0px;word-spacing:0px;white-space:pre;shape-inside:url(#rect1178-3-6-5-5-4-6);"
       transform="translate(54.696739,84.699345)"><tspan
         x="17.822266"
         y="48.119007"><tspan
           style="font-size:3.88056px">3mm</tspan></tspan></text>
    <path
       style="fill:none;stroke:#000000;stroke-width:0.165;stroke-linecap:butt;stroke-linejoin:miter;stroke-opacity:1;stroke-miterlimit:4;stroke-dasharray:0.165,0.33;stroke-dashoffset:0"
       d="M 76.257255,148.74435 V 135.36823"
       id="path23551" />
    <path
       style="fill:none;stroke:#000000;stroke-width:0.165;stroke-linecap:butt;stroke-linejoin:miter;stroke-opacity:1;stroke-miterlimit:4;stroke-dasharray:0.165,0.33;stroke-dashoffset:0"
       d="M 81.088843,146.0514 V 135.22299"
       id="path23553" />
    <path
       style="fill:none;stroke:#000000;stroke-width:0.165;stroke-linecap:butt;stroke-linejoin:miter;stroke-miterlimit:4;stroke-dasharray:0.165, 0.33;stroke-dashoffset:0;stroke-opacity:1"
       d="m 86.0975,143.55741 v -8.18152"
       id="path23553-5" />
    <path
       style="fill:none;stroke:#000000;stroke-width:0.165;stroke-linecap:butt;stroke-linejoin:miter;stroke-miterlimit:4;stroke-dasharray:none;stroke-opacity:1;marker-start:url(#marker23088-5);marker-end:url(#marker23284-7)"
       d="m 81.243015,135.36339 4.854485,0.0125"
       id="path23078-5"
       sodipodi:nodetypes="cc" />
    <rect
       style="fill:none;stroke:#ff0000;stroke-width:0.499998;stroke-linecap:round;stroke-miterlimit:4;stroke-dasharray:0.499998, 1;stroke-dashoffset:0;stroke-opacity:1;stop-color:#000000"
       id="rect2159-6"
       width="8.6224079"
       height="6.2480826"
       x="92.412766"
       y="138.35074" />
    <path
       style="fill:none;stroke:#ff0000;stroke-width:0.865;stroke-linecap:butt;stroke-linejoin:miter;stroke-miterlimit:4;stroke-dasharray:none;stroke-opacity:1;marker-end:url(#marker2587-6-9)"
       d="m 92.412766,144.59882 c 0,0 -15.213172,10.18592 -18.383982,18.20644 -1.91496,4.84387 -1.449672,10.81926 0.58255,15.61511 2.160452,5.09846 11.49631,11.99131 11.49631,11.99131"
       id="path2163-7"
       sodipodi:nodetypes="caac" />
    <path
       id="path26553"
       style="fill:none;stroke:#000000;stroke-width:0.165;stroke-linecap:round;stroke-miterlimit:4;stroke-dasharray:none;stroke-dashoffset:0;stop-color:#000000"
       d="m 58.913541,222.83165 23.650627,2e-5 a 29.17687,29.17687 0 0 1 -1.975384,-10.55232 29.17687,29.17687 0 0 1 29.176606,-29.17768 29.17687,29.17687 0 0 1 29.17768,29.17768 29.17687,29.17687 0 0 1 -1.97538,10.55232 h 23.7099" />
    <path
       style="fill:none;stroke:#000000;stroke-width:0.165;stroke-linecap:butt;stroke-linejoin:miter;stroke-miterlimit:4;stroke-dasharray:none;stroke-opacity:1;marker-start:url(#marker23088-4);marker-end:url(#marker23284-2)"
       d="m 81.085204,211.52323 57.480276,0.0256"
       id="path23078-4"
       sodipodi:nodetypes="cc" />
    <text
       xml:space="preserve"
       id="text1176-5-2-6-3-4"
       style="font-size:1.89429px;line-height:1.25;font-family:sans-serif;letter-spacing:0px;word-spacing:0px;white-space:pre;shape-inside:url(#rect1178-3-6-5-5-4-7);stroke-width:0.488149;"
       transform="matrix(2.048554,0,0,2.048554,66.401335,116.92307)"><tspan
         x="17.822266"
         y="44.801003"><tspan
           style="font-size:1.89429px;stroke-width:0.488149">1.4mm</tspan></tspan></text>
    <path
       style="fill:none;stroke:#000000;stroke-width:0.265001;stroke-linecap:butt;stroke-linejoin:miter;stroke-miterlimit:4;stroke-dasharray:none;stroke-opacity:1;marker-start:url(#marker23789);marker-end:url(#marker26622)"
       d="M 145.57682,222.0034 V 184.14221"
       id="path25435" />
    <text
       xml:space="preserve"
       id="text1176-5-2-6-3-4-3"
       style="font-size:1.89429px;line-height:1.25;font-family:sans-serif;letter-spacing:0px;word-spacing:0px;white-space:pre;shape-inside:url(#rect1178-3-6-5-5-4-7-4);stroke-width:0.488149;"
       transform="matrix(2.048554,0,0,2.048554,110.04109,112.71)"><tspan
         x="17.822266"
         y="44.801003"><tspan
           style="font-size:1.89429px;stroke-width:0.488149">0.9mm</tspan></tspan></text>
    <path
       style="fill:none;stroke:#000000;stroke-width:0.264583px;stroke-linecap:butt;stroke-linejoin:miter;stroke-opacity:1;marker-start:url(#marker25776);marker-end:url(#marker26632)"
       d="m 154.79947,211.39298 v 10.27925"
       id="path25766" />
    <text
       xml:space="preserve"
       id="text1176-5-2-6-3-4-3-7"
       style="font-size:1.89429px;line-height:1.25;font-family:sans-serif;letter-spacing:0px;word-spacing:0px;white-space:pre;shape-inside:url(#rect1178-3-6-5-5-4-7-4-0);stroke-width:0.488149;"
       transform="matrix(2.048554,0,0,2.048554,120.42295,126.16791)"><tspan
         x="17.822266"
         y="44.801003"><tspan
           style="font-size:1.89429px;stroke-width:0.488149">0.2mm</tspan></tspan></text>
    <path
       style="fill:none;stroke:#000000;stroke-width:0.264583;stroke-linecap:butt;stroke-linejoin:miter;stroke-miterlimit:4;stroke-dasharray:0.264583, 0.529166;stroke-dashoffset:0;stroke-opacity:1"
       d="M 58.913541,222.83165 H 38.289244"
       id="path2320-8" />
    <path
       style="fill:none;stroke:#000000;stroke-width:0.264583;stroke-linecap:butt;stroke-linejoin:miter;stroke-miterlimit:4;stroke-dasharray:0.264583, 0.529166;stroke-dashoffset:0;stroke-opacity:1"
       d="M 181.30188,222.83167 H 160.67759"
       id="path2320-8-6" />
  </g>
</svg>
