<?xml version="1.0" encoding="utf-8" standalone="no"?>
<!DOCTYPE svg PUBLIC "-//W3C//DTD SVG 1.1//EN"
  "http://www.w3.org/Graphics/SVG/1.1/DTD/svg11.dtd">
<svg xmlns:xlink="http://www.w3.org/1999/xlink" width="368.503937pt" height="141.732283pt" viewBox="0 0 368.503937 141.732283" xmlns="http://www.w3.org/2000/svg" version="1.1">
 <metadata>
  <rdf:RDF xmlns:dc="http://purl.org/dc/elements/1.1/" xmlns:cc="http://creativecommons.org/ns#" xmlns:rdf="http://www.w3.org/1999/02/22-rdf-syntax-ns#">
   <cc:Work>
    <dc:type rdf:resource="http://purl.org/dc/dcmitype/StillImage"/>
    <dc:date>2024-05-21T08:30:42.589115</dc:date>
    <dc:format>image/svg+xml</dc:format>
    <dc:creator>
     <cc:Agent>
      <dc:title>Matplotlib v3.6.3, https://matplotlib.org/</dc:title>
     </cc:Agent>
    </dc:creator>
   </cc:Work>
  </rdf:RDF>
 </metadata>
 <defs>
  <style type="text/css">*{stroke-linejoin: round; stroke-linecap: butt}</style>
 </defs>
 <g id="figure_1">
  <g id="patch_1">
   <path d="M 0 141.732283 
L 368.503937 141.732283 
L 368.503937 0 
L 0 0 
z
" style="fill: #ffffff"/>
  </g>
  <g id="axes_1">
   <g id="patch_2">
    <path d="M 39.54 106.152283 
L 224.687373 106.152283 
L 224.687373 14.04 
L 39.54 14.04 
L 39.54 106.152283 
z
" style="fill: none"/>
   </g>
   <g id="matplotlib.axis_1">
    <g id="xtick_1">
     <g id="line2d_1">
      <path d="M 39.54 106.152283 
L 39.54 14.04 
" clip-path="url(#pf10d3c447c)" style="fill: none; stroke: #a9a9a9; stroke-opacity: 0.7; stroke-width: 0.5; stroke-linecap: square"/>
     </g>
     <g id="line2d_2">
      <defs>
       <path id="m58590a5e5e" d="M 0 0 
L 0 2.5 
" style="stroke: #000000; stroke-width: 0.5"/>
      </defs>
      <g>
       <use xlink:href="#m58590a5e5e" x="39.54" y="106.152283" style="stroke: #000000; stroke-width: 0.5"/>
      </g>
     </g>
     <g id="text_1">
      <!-- 0 -->
      <g transform="translate(37.037578 116.094315) scale(0.09 -0.09)">
       <defs>
        <path id="ArialMT-30" d="M 266 2259 
Q 266 3072 433 3567 
Q 600 4063 929 4331 
Q 1259 4600 1759 4600 
Q 2128 4600 2406 4451 
Q 2684 4303 2865 4023 
Q 3047 3744 3150 3342 
Q 3253 2941 3253 2259 
Q 3253 1453 3087 958 
Q 2922 463 2592 192 
Q 2263 -78 1759 -78 
Q 1097 -78 719 397 
Q 266 969 266 2259 
z
M 844 2259 
Q 844 1131 1108 757 
Q 1372 384 1759 384 
Q 2147 384 2411 759 
Q 2675 1134 2675 2259 
Q 2675 3391 2411 3762 
Q 2147 4134 1753 4134 
Q 1366 4134 1134 3806 
Q 844 3388 844 2259 
z
" transform="scale(0.015625)"/>
       </defs>
       <use xlink:href="#ArialMT-30"/>
      </g>
     </g>
    </g>
    <g id="xtick_2">
     <g id="line2d_3">
      <path d="M 98.882107 106.152283 
L 98.882107 14.04 
" clip-path="url(#pf10d3c447c)" style="fill: none; stroke: #a9a9a9; stroke-opacity: 0.7; stroke-width: 0.5; stroke-linecap: square"/>
     </g>
     <g id="line2d_4">
      <g>
       <use xlink:href="#m58590a5e5e" x="98.882107" y="106.152283" style="stroke: #000000; stroke-width: 0.5"/>
      </g>
     </g>
     <g id="text_2">
      <!-- 50 -->
      <g transform="translate(93.877263 116.094315) scale(0.09 -0.09)">
       <defs>
        <path id="ArialMT-35" d="M 266 1200 
L 856 1250 
Q 922 819 1161 601 
Q 1400 384 1738 384 
Q 2144 384 2425 690 
Q 2706 997 2706 1503 
Q 2706 1984 2436 2262 
Q 2166 2541 1728 2541 
Q 1456 2541 1237 2417 
Q 1019 2294 894 2097 
L 366 2166 
L 809 4519 
L 3088 4519 
L 3088 3981 
L 1259 3981 
L 1013 2750 
Q 1425 3038 1878 3038 
Q 2478 3038 2890 2622 
Q 3303 2206 3303 1553 
Q 3303 931 2941 478 
Q 2500 -78 1738 -78 
Q 1113 -78 717 272 
Q 322 622 266 1200 
z
" transform="scale(0.015625)"/>
       </defs>
       <use xlink:href="#ArialMT-35"/>
       <use xlink:href="#ArialMT-30" x="55.615234"/>
      </g>
     </g>
    </g>
    <g id="xtick_3">
     <g id="line2d_5">
      <path d="M 158.224213 106.152283 
L 158.224213 14.04 
" clip-path="url(#pf10d3c447c)" style="fill: none; stroke: #a9a9a9; stroke-opacity: 0.7; stroke-width: 0.5; stroke-linecap: square"/>
     </g>
     <g id="line2d_6">
      <g>
       <use xlink:href="#m58590a5e5e" x="158.224213" y="106.152283" style="stroke: #000000; stroke-width: 0.5"/>
      </g>
     </g>
     <g id="text_3">
      <!-- 100 -->
      <g transform="translate(150.716948 116.094315) scale(0.09 -0.09)">
       <defs>
        <path id="ArialMT-31" d="M 2384 0 
L 1822 0 
L 1822 3584 
Q 1619 3391 1289 3197 
Q 959 3003 697 2906 
L 697 3450 
Q 1169 3672 1522 3987 
Q 1875 4303 2022 4600 
L 2384 4600 
L 2384 0 
z
" transform="scale(0.015625)"/>
       </defs>
       <use xlink:href="#ArialMT-31"/>
       <use xlink:href="#ArialMT-30" x="55.615234"/>
       <use xlink:href="#ArialMT-30" x="111.230469"/>
      </g>
     </g>
    </g>
    <g id="xtick_4">
     <g id="line2d_7">
      <path d="M 217.56632 106.152283 
L 217.56632 14.04 
" clip-path="url(#pf10d3c447c)" style="fill: none; stroke: #a9a9a9; stroke-opacity: 0.7; stroke-width: 0.5; stroke-linecap: square"/>
     </g>
     <g id="line2d_8">
      <g>
       <use xlink:href="#m58590a5e5e" x="217.56632" y="106.152283" style="stroke: #000000; stroke-width: 0.5"/>
      </g>
     </g>
     <g id="text_4">
      <!-- 150 -->
      <g transform="translate(210.059055 116.094315) scale(0.09 -0.09)">
       <use xlink:href="#ArialMT-31"/>
       <use xlink:href="#ArialMT-35" x="55.615234"/>
       <use xlink:href="#ArialMT-30" x="111.230469"/>
      </g>
     </g>
    </g>
    <g id="xtick_5">
     <g id="line2d_9">
      <path d="M 69.211053 106.152283 
L 69.211053 14.04 
" clip-path="url(#pf10d3c447c)" style="fill: none; stroke: #d3d3d3; stroke-opacity: 0.5; stroke-width: 0.3; stroke-linecap: square"/>
     </g>
     <g id="line2d_10">
      <defs>
       <path id="m115c040405" d="M 0 0 
L 0 1 
" style="stroke: #000000; stroke-width: 0.3"/>
      </defs>
      <g>
       <use xlink:href="#m115c040405" x="69.211053" y="106.152283" style="stroke: #000000; stroke-width: 0.3"/>
      </g>
     </g>
    </g>
    <g id="xtick_6">
     <g id="line2d_11">
      <path d="M 128.55316 106.152283 
L 128.55316 14.04 
" clip-path="url(#pf10d3c447c)" style="fill: none; stroke: #d3d3d3; stroke-opacity: 0.5; stroke-width: 0.3; stroke-linecap: square"/>
     </g>
     <g id="line2d_12">
      <g>
       <use xlink:href="#m115c040405" x="128.55316" y="106.152283" style="stroke: #000000; stroke-width: 0.3"/>
      </g>
     </g>
    </g>
    <g id="xtick_7">
     <g id="line2d_13">
      <path d="M 187.895267 106.152283 
L 187.895267 14.04 
" clip-path="url(#pf10d3c447c)" style="fill: none; stroke: #d3d3d3; stroke-opacity: 0.5; stroke-width: 0.3; stroke-linecap: square"/>
     </g>
     <g id="line2d_14">
      <g>
       <use xlink:href="#m115c040405" x="187.895267" y="106.152283" style="stroke: #000000; stroke-width: 0.3"/>
      </g>
     </g>
    </g>
    <g id="text_5">
     <!-- x (px) -->
     <g transform="translate(119.614468 129.162752) scale(0.1 -0.1)">
      <defs>
       <path id="ArialMT-78" d="M 47 0 
L 1259 1725 
L 138 3319 
L 841 3319 
L 1350 2541 
Q 1494 2319 1581 2169 
Q 1719 2375 1834 2534 
L 2394 3319 
L 3066 3319 
L 1919 1756 
L 3153 0 
L 2463 0 
L 1781 1031 
L 1600 1309 
L 728 0 
L 47 0 
z
" transform="scale(0.015625)"/>
       <path id="ArialMT-20" transform="scale(0.015625)"/>
       <path id="ArialMT-28" d="M 1497 -1347 
Q 1031 -759 709 28 
Q 388 816 388 1659 
Q 388 2403 628 3084 
Q 909 3875 1497 4659 
L 1900 4659 
Q 1522 4009 1400 3731 
Q 1209 3300 1100 2831 
Q 966 2247 966 1656 
Q 966 153 1900 -1347 
L 1497 -1347 
z
" transform="scale(0.015625)"/>
       <path id="ArialMT-70" d="M 422 -1272 
L 422 3319 
L 934 3319 
L 934 2888 
Q 1116 3141 1344 3267 
Q 1572 3394 1897 3394 
Q 2322 3394 2647 3175 
Q 2972 2956 3137 2557 
Q 3303 2159 3303 1684 
Q 3303 1175 3120 767 
Q 2938 359 2589 142 
Q 2241 -75 1856 -75 
Q 1575 -75 1351 44 
Q 1128 163 984 344 
L 984 -1272 
L 422 -1272 
z
M 931 1641 
Q 931 1000 1190 694 
Q 1450 388 1819 388 
Q 2194 388 2461 705 
Q 2728 1022 2728 1688 
Q 2728 2322 2467 2637 
Q 2206 2953 1844 2953 
Q 1484 2953 1207 2617 
Q 931 2281 931 1641 
z
" transform="scale(0.015625)"/>
       <path id="ArialMT-29" d="M 791 -1347 
L 388 -1347 
Q 1322 153 1322 1656 
Q 1322 2244 1188 2822 
Q 1081 3291 891 3722 
Q 769 4003 388 4659 
L 791 4659 
Q 1378 3875 1659 3084 
Q 1900 2403 1900 1659 
Q 1900 816 1576 28 
Q 1253 -759 791 -1347 
z
" transform="scale(0.015625)"/>
      </defs>
      <use xlink:href="#ArialMT-78"/>
      <use xlink:href="#ArialMT-20" x="50"/>
      <use xlink:href="#ArialMT-28" x="77.783203"/>
      <use xlink:href="#ArialMT-70" x="111.083984"/>
      <use xlink:href="#ArialMT-78" x="166.699219"/>
      <use xlink:href="#ArialMT-29" x="216.699219"/>
     </g>
    </g>
   </g>
   <g id="matplotlib.axis_2">
    <g id="ytick_1">
     <g id="line2d_15">
      <path d="M 39.54 106.152283 
L 224.687373 106.152283 
" clip-path="url(#pf10d3c447c)" style="fill: none; stroke: #a9a9a9; stroke-opacity: 0.7; stroke-width: 0.5; stroke-linecap: square"/>
     </g>
     <g id="line2d_16">
      <defs>
       <path id="m659deee266" d="M 0 0 
L -2.5 0 
" style="stroke: #000000; stroke-width: 0.5"/>
      </defs>
      <g>
       <use xlink:href="#m659deee266" x="39.54" y="106.152283" style="stroke: #000000; stroke-width: 0.5"/>
      </g>
     </g>
     <g id="text_6">
      <!-- 0 -->
      <g transform="translate(31.035156 109.373299) scale(0.09 -0.09)">
       <use xlink:href="#ArialMT-30"/>
      </g>
     </g>
    </g>
    <g id="ytick_2">
     <g id="line2d_17">
      <path d="M 39.54 60.096142 
L 224.687373 60.096142 
" clip-path="url(#pf10d3c447c)" style="fill: none; stroke: #a9a9a9; stroke-opacity: 0.7; stroke-width: 0.5; stroke-linecap: square"/>
     </g>
     <g id="line2d_18">
      <g>
       <use xlink:href="#m659deee266" x="39.54" y="60.096142" style="stroke: #000000; stroke-width: 0.5"/>
      </g>
     </g>
     <g id="text_7">
      <!-- 0.5 -->
      <g transform="translate(23.53 63.317157) scale(0.09 -0.09)">
       <defs>
        <path id="ArialMT-2e" d="M 581 0 
L 581 641 
L 1222 641 
L 1222 0 
L 581 0 
z
" transform="scale(0.015625)"/>
       </defs>
       <use xlink:href="#ArialMT-30"/>
       <use xlink:href="#ArialMT-2e" x="55.615234"/>
       <use xlink:href="#ArialMT-35" x="83.398438"/>
      </g>
     </g>
    </g>
    <g id="ytick_3">
     <g id="line2d_19">
      <path d="M 39.54 14.04 
L 224.687373 14.04 
" clip-path="url(#pf10d3c447c)" style="fill: none; stroke: #a9a9a9; stroke-opacity: 0.7; stroke-width: 0.5; stroke-linecap: square"/>
     </g>
     <g id="line2d_20">
      <g>
       <use xlink:href="#m659deee266" x="39.54" y="14.04" style="stroke: #000000; stroke-width: 0.5"/>
      </g>
     </g>
     <g id="text_8">
      <!-- 1 -->
      <g transform="translate(31.035156 17.261016) scale(0.09 -0.09)">
       <use xlink:href="#ArialMT-31"/>
      </g>
     </g>
    </g>
    <g id="ytick_4">
     <g id="line2d_21">
      <path d="M 39.54 83.124213 
L 224.687373 83.124213 
" clip-path="url(#pf10d3c447c)" style="fill: none; stroke: #d3d3d3; stroke-opacity: 0.5; stroke-width: 0.3; stroke-linecap: square"/>
     </g>
     <g id="line2d_22">
      <defs>
       <path id="m7ef156e060" d="M 0 0 
L -1 0 
" style="stroke: #000000; stroke-width: 0.3"/>
      </defs>
      <g>
       <use xlink:href="#m7ef156e060" x="39.54" y="83.124213" style="stroke: #000000; stroke-width: 0.3"/>
      </g>
     </g>
    </g>
    <g id="ytick_5">
     <g id="line2d_23">
      <path d="M 39.54 37.068071 
L 224.687373 37.068071 
" clip-path="url(#pf10d3c447c)" style="fill: none; stroke: #d3d3d3; stroke-opacity: 0.5; stroke-width: 0.3; stroke-linecap: square"/>
     </g>
     <g id="line2d_24">
      <g>
       <use xlink:href="#m7ef156e060" x="39.54" y="37.068071" style="stroke: #000000; stroke-width: 0.3"/>
      </g>
     </g>
    </g>
    <g id="text_9">
     <!-- correl. (U.A.) -->
     <g transform="translate(17.425312 88.429735) rotate(-90) scale(0.1 -0.1)">
      <defs>
       <path id="ArialMT-63" d="M 2588 1216 
L 3141 1144 
Q 3050 572 2676 248 
Q 2303 -75 1759 -75 
Q 1078 -75 664 370 
Q 250 816 250 1647 
Q 250 2184 428 2587 
Q 606 2991 970 3192 
Q 1334 3394 1763 3394 
Q 2303 3394 2647 3120 
Q 2991 2847 3088 2344 
L 2541 2259 
Q 2463 2594 2264 2762 
Q 2066 2931 1784 2931 
Q 1359 2931 1093 2626 
Q 828 2322 828 1663 
Q 828 994 1084 691 
Q 1341 388 1753 388 
Q 2084 388 2306 591 
Q 2528 794 2588 1216 
z
" transform="scale(0.015625)"/>
       <path id="ArialMT-6f" d="M 213 1659 
Q 213 2581 725 3025 
Q 1153 3394 1769 3394 
Q 2453 3394 2887 2945 
Q 3322 2497 3322 1706 
Q 3322 1066 3130 698 
Q 2938 331 2570 128 
Q 2203 -75 1769 -75 
Q 1072 -75 642 372 
Q 213 819 213 1659 
z
M 791 1659 
Q 791 1022 1069 705 
Q 1347 388 1769 388 
Q 2188 388 2466 706 
Q 2744 1025 2744 1678 
Q 2744 2294 2464 2611 
Q 2184 2928 1769 2928 
Q 1347 2928 1069 2612 
Q 791 2297 791 1659 
z
" transform="scale(0.015625)"/>
       <path id="ArialMT-72" d="M 416 0 
L 416 3319 
L 922 3319 
L 922 2816 
Q 1116 3169 1280 3281 
Q 1444 3394 1641 3394 
Q 1925 3394 2219 3213 
L 2025 2691 
Q 1819 2813 1613 2813 
Q 1428 2813 1281 2702 
Q 1134 2591 1072 2394 
Q 978 2094 978 1738 
L 978 0 
L 416 0 
z
" transform="scale(0.015625)"/>
       <path id="ArialMT-65" d="M 2694 1069 
L 3275 997 
Q 3138 488 2766 206 
Q 2394 -75 1816 -75 
Q 1088 -75 661 373 
Q 234 822 234 1631 
Q 234 2469 665 2931 
Q 1097 3394 1784 3394 
Q 2450 3394 2872 2941 
Q 3294 2488 3294 1666 
Q 3294 1616 3291 1516 
L 816 1516 
Q 847 969 1125 678 
Q 1403 388 1819 388 
Q 2128 388 2347 550 
Q 2566 713 2694 1069 
z
M 847 1978 
L 2700 1978 
Q 2663 2397 2488 2606 
Q 2219 2931 1791 2931 
Q 1403 2931 1139 2672 
Q 875 2413 847 1978 
z
" transform="scale(0.015625)"/>
       <path id="ArialMT-6c" d="M 409 0 
L 409 4581 
L 972 4581 
L 972 0 
L 409 0 
z
" transform="scale(0.015625)"/>
       <path id="ArialMT-55" d="M 3500 4581 
L 4106 4581 
L 4106 1934 
Q 4106 1244 3950 837 
Q 3794 431 3386 176 
Q 2978 -78 2316 -78 
Q 1672 -78 1262 144 
Q 853 366 678 786 
Q 503 1206 503 1934 
L 503 4581 
L 1109 4581 
L 1109 1938 
Q 1109 1341 1220 1058 
Q 1331 775 1601 622 
Q 1872 469 2263 469 
Q 2931 469 3215 772 
Q 3500 1075 3500 1938 
L 3500 4581 
z
" transform="scale(0.015625)"/>
       <path id="ArialMT-41" d="M -9 0 
L 1750 4581 
L 2403 4581 
L 4278 0 
L 3588 0 
L 3053 1388 
L 1138 1388 
L 634 0 
L -9 0 
z
M 1313 1881 
L 2866 1881 
L 2388 3150 
Q 2169 3728 2063 4100 
Q 1975 3659 1816 3225 
L 1313 1881 
z
" transform="scale(0.015625)"/>
      </defs>
      <use xlink:href="#ArialMT-63"/>
      <use xlink:href="#ArialMT-6f" x="50"/>
      <use xlink:href="#ArialMT-72" x="105.615234"/>
      <use xlink:href="#ArialMT-72" x="138.916016"/>
      <use xlink:href="#ArialMT-65" x="172.216797"/>
      <use xlink:href="#ArialMT-6c" x="227.832031"/>
      <use xlink:href="#ArialMT-2e" x="250.048828"/>
      <use xlink:href="#ArialMT-20" x="277.832031"/>
      <use xlink:href="#ArialMT-28" x="305.615234"/>
      <use xlink:href="#ArialMT-55" x="338.916016"/>
      <use xlink:href="#ArialMT-2e" x="411.132812"/>
      <use xlink:href="#ArialMT-41" x="438.916016"/>
      <use xlink:href="#ArialMT-2e" x="505.615234"/>
      <use xlink:href="#ArialMT-29" x="533.398438"/>
     </g>
    </g>
   </g>
   <g id="line2d_25">
    <path d="M 39.54 67.136341 
L 40.726842 73.604928 
L 41.913684 76.661277 
L 43.100526 74.657154 
L 44.287369 71.062842 
L 45.474211 71.054362 
L 46.661053 73.713502 
L 47.847895 75.669731 
L 49.034737 74.619004 
L 50.221579 70.601924 
L 51.408421 69.364502 
L 52.595263 74.250865 
L 53.782106 80.906148 
L 54.968948 82.884881 
L 56.15579 80.758519 
L 58.529474 69.625514 
L 59.716316 68.56196 
L 60.903158 71.728035 
L 62.090001 70.6738 
L 63.276843 68.225049 
L 64.463685 69.909847 
L 65.650527 76.596609 
L 66.837369 84.789676 
L 68.024211 91.986979 
L 69.211053 94.907007 
L 71.584738 91.070563 
L 72.77158 89.741982 
L 73.958422 85.6104 
L 75.145264 76.236502 
L 76.332106 69.821818 
L 77.518948 68.694611 
L 78.70579 65.735115 
L 81.079475 59.056852 
L 82.266317 60.392583 
L 83.453159 64.015418 
L 84.640001 63.801976 
L 85.826843 62.448346 
L 87.013685 62.236543 
L 88.200528 62.145044 
L 89.38737 62.670072 
L 90.574212 61.488715 
L 91.761054 55.643915 
L 92.947896 54.233545 
L 94.134738 59.408062 
L 95.32158 66.540287 
L 96.508422 72.250392 
L 97.695265 76.300706 
L 98.882107 79.953676 
L 100.068949 81.169025 
L 101.255791 78.852735 
L 102.442633 73.757881 
L 103.629475 67.293344 
L 104.816317 59.917695 
L 106.00316 55.392458 
L 107.190002 58.021569 
L 108.376844 66.351952 
L 109.563686 73.671943 
L 110.750528 76.631165 
L 111.93737 74.787771 
L 113.124212 69.79961 
L 114.311054 65.616477 
L 115.497897 63.854411 
L 116.684739 60.494736 
L 117.871581 54.365038 
L 119.058423 44.332033 
L 120.245265 26.984999 
L 121.432107 14.04 
L 122.618949 28.961476 
L 123.805792 52.258276 
L 124.992634 65.369495 
L 126.179476 70.589749 
L 128.55316 77.072134 
L 129.740002 79.945438 
L 130.926844 79.175657 
L 132.113686 73.291582 
L 133.300529 66.563231 
L 134.487371 62.612103 
L 135.674213 61.54972 
L 136.861055 64.982793 
L 138.047897 71.42442 
L 139.234739 72.027414 
L 140.421581 68.212133 
L 141.608424 67.659884 
L 142.795266 68.050391 
L 143.982108 68.162004 
L 145.16895 69.991255 
L 146.355792 76.687397 
L 147.542634 84.787506 
L 148.729476 89.304614 
L 149.916318 85.686793 
L 151.103161 81.574979 
L 152.290003 79.760527 
L 153.476845 71.708042 
L 154.663687 66.52857 
L 155.850529 65.594933 
L 157.037371 63.888256 
L 158.224213 64.032237 
L 159.411056 70.576512 
L 160.597898 78.751994 
L 162.971582 90.391281 
L 164.158424 94.578861 
L 165.345266 94.45528 
L 166.532108 94.88811 
L 167.71895 94.958876 
L 168.905793 93.147125 
L 171.279477 84.11248 
L 172.466319 77.759176 
L 173.653161 70.630279 
L 174.840003 68.131187 
L 176.026845 67.932223 
L 177.213688 68.653269 
L 178.40053 71.128198 
L 179.587372 73.206883 
L 180.774214 72.137761 
L 181.961056 69.275822 
L 183.147898 65.043367 
L 184.33474 59.82962 
L 185.521583 58.072607 
L 186.708425 60.956519 
L 187.895267 64.263824 
L 189.082109 68.076876 
L 190.268951 71.163548 
L 191.455793 74.795729 
L 192.642635 75.156614 
L 193.829477 75.661882 
L 195.01632 75.854011 
L 196.203162 76.21255 
L 197.390004 74.886449 
L 198.576846 75.856698 
L 199.763688 74.218969 
L 200.95053 69.645249 
L 202.137372 67.941869 
L 203.324215 71.940425 
L 204.511057 72.924077 
L 205.697899 69.379257 
L 206.884741 69.366495 
L 208.071583 67.928948 
L 209.258425 69.529813 
L 210.445267 75.730154 
L 211.632109 79.10386 
L 212.818952 76.524074 
L 214.005794 69.967221 
L 215.192636 62.691443 
L 216.379478 60.493199 
L 217.56632 65.198469 
L 218.753162 70.715315 
L 219.940004 72.896694 
L 221.126847 71.533722 
L 222.313689 67.547513 
L 223.500531 66.468254 
L 224.687373 67.857102 
L 224.687373 67.857102 
" clip-path="url(#pf10d3c447c)" style="fill: none; stroke: #1e90ff; stroke-linecap: square"/>
   </g>
   <g id="line2d_26">
    <path d="M 121.432107 106.152283 
L 121.432107 14.04 
" clip-path="url(#pf10d3c447c)" style="fill: none; stroke-dasharray: 1,1.65; stroke-dashoffset: 0; stroke: #000000"/>
   </g>
   <g id="patch_3">
    <path d="M 39.54 106.152283 
L 39.54 14.04 
" style="fill: none; stroke: #000000; stroke-width: 0.5; stroke-linejoin: miter; stroke-linecap: square"/>
   </g>
   <g id="patch_4">
    <path d="M 224.687373 106.152283 
L 224.687373 14.04 
" style="fill: none; stroke: #000000; stroke-width: 0.5; stroke-linejoin: miter; stroke-linecap: square"/>
   </g>
   <g id="patch_5">
    <path d="M 39.54 106.152283 
L 224.687373 106.152283 
" style="fill: none; stroke: #000000; stroke-width: 0.5; stroke-linejoin: miter; stroke-linecap: square"/>
   </g>
   <g id="patch_6">
    <path d="M 39.54 14.04 
L 224.687373 14.04 
" style="fill: none; stroke: #000000; stroke-width: 0.5; stroke-linejoin: miter; stroke-linecap: square"/>
   </g>
  </g>
  <g id="axes_2">
   <g id="patch_7">
    <path d="M 262.610251 106.152283 
L 355.183937 106.152283 
L 355.183937 14.04 
L 262.610251 14.04 
L 262.610251 106.152283 
z
" style="fill: none"/>
   </g>
   <g id="matplotlib.axis_3">
    <g id="xtick_8">
     <g id="line2d_27">
      <path d="M 262.610251 106.152283 
L 262.610251 14.04 
" clip-path="url(#p7ea26d1a24)" style="fill: none; stroke: #a9a9a9; stroke-opacity: 0.7; stroke-width: 0.5; stroke-linecap: square"/>
     </g>
     <g id="line2d_28">
      <g>
       <use xlink:href="#m58590a5e5e" x="262.610251" y="106.152283" style="stroke: #000000; stroke-width: 0.5"/>
      </g>
     </g>
     <g id="text_10">
      <!-- 0 -->
      <g transform="translate(260.107829 116.094315) scale(0.09 -0.09)">
       <use xlink:href="#ArialMT-30"/>
      </g>
     </g>
    </g>
    <g id="xtick_9">
     <g id="line2d_29">
      <path d="M 308.897094 106.152283 
L 308.897094 14.04 
" clip-path="url(#p7ea26d1a24)" style="fill: none; stroke: #a9a9a9; stroke-opacity: 0.7; stroke-width: 0.5; stroke-linecap: square"/>
     </g>
     <g id="line2d_30">
      <g>
       <use xlink:href="#m58590a5e5e" x="308.897094" y="106.152283" style="stroke: #000000; stroke-width: 0.5"/>
      </g>
     </g>
     <g id="text_11">
      <!-- 0.5 -->
      <g transform="translate(302.642094 116.094315) scale(0.09 -0.09)">
       <use xlink:href="#ArialMT-30"/>
       <use xlink:href="#ArialMT-2e" x="55.615234"/>
       <use xlink:href="#ArialMT-35" x="83.398438"/>
      </g>
     </g>
    </g>
    <g id="xtick_10">
     <g id="line2d_31">
      <path d="M 355.183937 106.152283 
L 355.183937 14.04 
" clip-path="url(#p7ea26d1a24)" style="fill: none; stroke: #a9a9a9; stroke-opacity: 0.7; stroke-width: 0.5; stroke-linecap: square"/>
     </g>
     <g id="line2d_32">
      <g>
       <use xlink:href="#m58590a5e5e" x="355.183937" y="106.152283" style="stroke: #000000; stroke-width: 0.5"/>
      </g>
     </g>
     <g id="text_12">
      <!-- 1 -->
      <g transform="translate(352.681515 116.094315) scale(0.09 -0.09)">
       <use xlink:href="#ArialMT-31"/>
      </g>
     </g>
    </g>
    <g id="xtick_11">
     <g id="line2d_33">
      <path d="M 285.753672 106.152283 
L 285.753672 14.04 
" clip-path="url(#p7ea26d1a24)" style="fill: none; stroke: #d3d3d3; stroke-opacity: 0.5; stroke-width: 0.3; stroke-linecap: square"/>
     </g>
     <g id="line2d_34">
      <g>
       <use xlink:href="#m115c040405" x="285.753672" y="106.152283" style="stroke: #000000; stroke-width: 0.3"/>
      </g>
     </g>
    </g>
    <g id="xtick_12">
     <g id="line2d_35">
      <path d="M 332.040515 106.152283 
L 332.040515 14.04 
" clip-path="url(#p7ea26d1a24)" style="fill: none; stroke: #d3d3d3; stroke-opacity: 0.5; stroke-width: 0.3; stroke-linecap: square"/>
     </g>
     <g id="line2d_36">
      <g>
       <use xlink:href="#m115c040405" x="332.040515" y="106.152283" style="stroke: #000000; stroke-width: 0.3"/>
      </g>
     </g>
    </g>
    <g id="text_13">
     <!-- correl. (U.A.) -->
     <g transform="translate(280.5635 129.162752) scale(0.1 -0.1)">
      <use xlink:href="#ArialMT-63"/>
      <use xlink:href="#ArialMT-6f" x="50"/>
      <use xlink:href="#ArialMT-72" x="105.615234"/>
      <use xlink:href="#ArialMT-72" x="138.916016"/>
      <use xlink:href="#ArialMT-65" x="172.216797"/>
      <use xlink:href="#ArialMT-6c" x="227.832031"/>
      <use xlink:href="#ArialMT-2e" x="250.048828"/>
      <use xlink:href="#ArialMT-20" x="277.832031"/>
      <use xlink:href="#ArialMT-28" x="305.615234"/>
      <use xlink:href="#ArialMT-55" x="338.916016"/>
      <use xlink:href="#ArialMT-2e" x="411.132812"/>
      <use xlink:href="#ArialMT-41" x="438.916016"/>
      <use xlink:href="#ArialMT-2e" x="505.615234"/>
      <use xlink:href="#ArialMT-29" x="533.398438"/>
     </g>
    </g>
   </g>
   <g id="matplotlib.axis_4">
    <g id="ytick_6">
     <g id="line2d_37">
      <path d="M 262.610251 106.152283 
L 355.183937 106.152283 
" clip-path="url(#p7ea26d1a24)" style="fill: none; stroke: #a9a9a9; stroke-opacity: 0.7; stroke-width: 0.5; stroke-linecap: square"/>
     </g>
     <g id="line2d_38">
      <g>
       <use xlink:href="#m659deee266" x="262.610251" y="106.152283" style="stroke: #000000; stroke-width: 0.5"/>
      </g>
     </g>
     <g id="text_14">
      <!-- 0 -->
      <g transform="translate(254.105407 109.373299) scale(0.09 -0.09)">
       <use xlink:href="#ArialMT-30"/>
      </g>
     </g>
    </g>
    <g id="ytick_7">
     <g id="line2d_39">
      <path d="M 262.610251 66.448713 
L 355.183937 66.448713 
" clip-path="url(#p7ea26d1a24)" style="fill: none; stroke: #a9a9a9; stroke-opacity: 0.7; stroke-width: 0.5; stroke-linecap: square"/>
     </g>
     <g id="line2d_40">
      <g>
       <use xlink:href="#m659deee266" x="262.610251" y="66.448713" style="stroke: #000000; stroke-width: 0.5"/>
      </g>
     </g>
     <g id="text_15">
      <!-- 25 -->
      <g transform="translate(249.100563 69.669729) scale(0.09 -0.09)">
       <defs>
        <path id="ArialMT-32" d="M 3222 541 
L 3222 0 
L 194 0 
Q 188 203 259 391 
Q 375 700 629 1000 
Q 884 1300 1366 1694 
Q 2113 2306 2375 2664 
Q 2638 3022 2638 3341 
Q 2638 3675 2398 3904 
Q 2159 4134 1775 4134 
Q 1369 4134 1125 3890 
Q 881 3647 878 3216 
L 300 3275 
Q 359 3922 746 4261 
Q 1134 4600 1788 4600 
Q 2447 4600 2831 4234 
Q 3216 3869 3216 3328 
Q 3216 3053 3103 2787 
Q 2991 2522 2730 2228 
Q 2469 1934 1863 1422 
Q 1356 997 1212 845 
Q 1069 694 975 541 
L 3222 541 
z
" transform="scale(0.015625)"/>
       </defs>
       <use xlink:href="#ArialMT-32"/>
       <use xlink:href="#ArialMT-35" x="55.615234"/>
      </g>
     </g>
    </g>
    <g id="ytick_8">
     <g id="line2d_41">
      <path d="M 262.610251 26.745143 
L 355.183937 26.745143 
" clip-path="url(#p7ea26d1a24)" style="fill: none; stroke: #a9a9a9; stroke-opacity: 0.7; stroke-width: 0.5; stroke-linecap: square"/>
     </g>
     <g id="line2d_42">
      <g>
       <use xlink:href="#m659deee266" x="262.610251" y="26.745143" style="stroke: #000000; stroke-width: 0.5"/>
      </g>
     </g>
     <g id="text_16">
      <!-- 50 -->
      <g transform="translate(249.100563 29.966158) scale(0.09 -0.09)">
       <use xlink:href="#ArialMT-35"/>
       <use xlink:href="#ArialMT-30" x="55.615234"/>
      </g>
     </g>
    </g>
    <g id="text_17">
     <!-- y (px) -->
     <g transform="translate(242.995876 72.59536) rotate(-90) scale(0.1 -0.1)">
      <defs>
       <path id="ArialMT-79" d="M 397 -1278 
L 334 -750 
Q 519 -800 656 -800 
Q 844 -800 956 -737 
Q 1069 -675 1141 -563 
Q 1194 -478 1313 -144 
Q 1328 -97 1363 -6 
L 103 3319 
L 709 3319 
L 1400 1397 
Q 1534 1031 1641 628 
Q 1738 1016 1872 1384 
L 2581 3319 
L 3144 3319 
L 1881 -56 
Q 1678 -603 1566 -809 
Q 1416 -1088 1222 -1217 
Q 1028 -1347 759 -1347 
Q 597 -1347 397 -1278 
z
" transform="scale(0.015625)"/>
      </defs>
      <use xlink:href="#ArialMT-79"/>
      <use xlink:href="#ArialMT-20" x="50"/>
      <use xlink:href="#ArialMT-28" x="77.783203"/>
      <use xlink:href="#ArialMT-70" x="111.083984"/>
      <use xlink:href="#ArialMT-78" x="166.699219"/>
      <use xlink:href="#ArialMT-29" x="216.699219"/>
     </g>
    </g>
   </g>
   <g id="line2d_43">
    <path d="M 296.725055 106.152283 
L 297.191159 104.564141 
L 293.968887 102.975998 
L 294.203824 101.387855 
L 290.268437 99.799712 
L 286.534121 98.211569 
L 285.938701 96.623427 
L 288.396463 95.035284 
L 294.96815 93.447141 
L 301.900877 91.858998 
L 304.050054 90.270855 
L 304.779466 88.682712 
L 308.903759 87.09457 
L 308.149611 85.506427 
L 304.948692 83.918284 
L 304.867299 82.330141 
L 307.662244 80.741998 
L 307.503422 79.153856 
L 300.462907 77.565713 
L 295.853333 75.97757 
L 299.647575 74.389427 
L 307.454258 72.801284 
L 312.757263 71.213141 
L 323.073426 69.624999 
L 341.703027 68.036856 
L 355.183937 66.448713 
L 342.421806 64.86057 
L 320.698236 63.272427 
L 306.829698 61.684285 
L 299.748885 60.096142 
L 294.159425 58.507999 
L 289.116972 56.919856 
L 285.827768 55.331713 
L 282.127476 53.74357 
L 278.368487 52.155428 
L 276.784762 50.567285 
L 279.217538 48.979142 
L 287.015278 47.390999 
L 296.589877 45.802856 
L 300.785711 44.214714 
L 300.639878 42.626571 
L 298.55626 41.038428 
L 297.477278 39.450285 
L 294.243368 37.862142 
L 289.709719 36.273999 
L 286.560317 34.685857 
L 284.67321 33.097714 
L 281.49676 31.509571 
L 278.229972 29.921428 
L 276.281177 28.333285 
L 279.343525 26.745143 
L 282.555512 25.157 
L 285.099835 23.568857 
L 285.563587 21.980714 
L 284.846163 20.392571 
L 284.560751 18.804428 
L 282.188155 17.216286 
L 283.712993 15.628143 
L 285.134246 14.04 
" clip-path="url(#p7ea26d1a24)" style="fill: none; stroke: #1e90ff; stroke-linecap: square"/>
   </g>
   <g id="line2d_44">
    <path d="M 262.610251 66.448713 
L 355.183937 66.448713 
" clip-path="url(#p7ea26d1a24)" style="fill: none; stroke-dasharray: 1,1.65; stroke-dashoffset: 0; stroke: #000000"/>
   </g>
   <g id="patch_8">
    <path d="M 262.610251 106.152283 
L 262.610251 14.04 
" style="fill: none; stroke: #000000; stroke-width: 0.5; stroke-linejoin: miter; stroke-linecap: square"/>
   </g>
   <g id="patch_9">
    <path d="M 355.183937 106.152283 
L 355.183937 14.04 
" style="fill: none; stroke: #000000; stroke-width: 0.5; stroke-linejoin: miter; stroke-linecap: square"/>
   </g>
   <g id="patch_10">
    <path d="M 262.610251 106.152283 
L 355.183937 106.152283 
" style="fill: none; stroke: #000000; stroke-width: 0.5; stroke-linejoin: miter; stroke-linecap: square"/>
   </g>
   <g id="patch_11">
    <path d="M 262.610251 14.04 
L 355.183937 14.04 
" style="fill: none; stroke: #000000; stroke-width: 0.5; stroke-linejoin: miter; stroke-linecap: square"/>
   </g>
  </g>
 </g>
 <defs>
  <clipPath id="pf10d3c447c">
   <rect x="39.54" y="14.04" width="185.147373" height="92.112283"/>
  </clipPath>
  <clipPath id="p7ea26d1a24">
   <rect x="262.610251" y="14.04" width="92.573686" height="92.112283"/>
  </clipPath>
 </defs>
</svg>
