<?xml version="1.0" encoding="utf-8" standalone="no"?>
<!DOCTYPE svg PUBLIC "-//W3C//DTD SVG 1.1//EN"
  "http://www.w3.org/Graphics/SVG/1.1/DTD/svg11.dtd">
<svg xmlns:xlink="http://www.w3.org/1999/xlink" width="283.464567pt" height="226.771654pt" viewBox="0 0 283.464567 226.771654" xmlns="http://www.w3.org/2000/svg" version="1.1">
 <metadata>
  <rdf:RDF xmlns:dc="http://purl.org/dc/elements/1.1/" xmlns:cc="http://creativecommons.org/ns#" xmlns:rdf="http://www.w3.org/1999/02/22-rdf-syntax-ns#">
   <cc:Work>
    <dc:type rdf:resource="http://purl.org/dc/dcmitype/StillImage"/>
    <dc:date>2024-05-21T07:48:23.837678</dc:date>
    <dc:format>image/svg+xml</dc:format>
    <dc:creator>
     <cc:Agent>
      <dc:title>Matplotlib v3.6.3, https://matplotlib.org/</dc:title>
     </cc:Agent>
    </dc:creator>
   </cc:Work>
  </rdf:RDF>
 </metadata>
 <defs>
  <style type="text/css">*{stroke-linejoin: round; stroke-linecap: butt}</style>
 </defs>
 <g id="figure_1">
  <g id="patch_1">
   <path d="M 0 226.771654 
L 283.464567 226.771654 
L 283.464567 0 
L 0 0 
z
" style="fill: #ffffff"/>
  </g>
  <g id="axes_1">
   <g id="patch_2">
    <path d="M 40.62 187.591654 
L 271.969724 187.591654 
L 271.969724 10.8 
L 40.62 10.8 
z
" style="fill: #ffffff"/>
   </g>
   <g id="matplotlib.axis_1">
    <g id="xtick_1">
     <g id="line2d_1">
      <path d="M 47.849679 187.591654 
L 47.849679 10.8 
" clip-path="url(#p5585e0236b)" style="fill: none; stroke: #a9a9a9; stroke-opacity: 0.7; stroke-width: 0.5; stroke-linecap: square"/>
     </g>
     <g id="line2d_2">
      <defs>
       <path id="m1f9072ef86" d="M 0 0 
L 0 2.5 
" style="stroke: #000000; stroke-width: 0.5"/>
      </defs>
      <g>
       <use xlink:href="#m1f9072ef86" x="47.849679" y="187.591654" style="stroke: #000000; stroke-width: 0.5"/>
      </g>
     </g>
     <g id="text_1">
      <!-- 0 -->
      <g transform="translate(45.347257 197.533685) scale(0.09 -0.09)">
       <defs>
        <path id="ArialMT-30" d="M 266 2259 
Q 266 3072 433 3567 
Q 600 4063 929 4331 
Q 1259 4600 1759 4600 
Q 2128 4600 2406 4451 
Q 2684 4303 2865 4023 
Q 3047 3744 3150 3342 
Q 3253 2941 3253 2259 
Q 3253 1453 3087 958 
Q 2922 463 2592 192 
Q 2263 -78 1759 -78 
Q 1097 -78 719 397 
Q 266 969 266 2259 
z
M 844 2259 
Q 844 1131 1108 757 
Q 1372 384 1759 384 
Q 2147 384 2411 759 
Q 2675 1134 2675 2259 
Q 2675 3391 2411 3762 
Q 2147 4134 1753 4134 
Q 1366 4134 1134 3806 
Q 844 3388 844 2259 
z
" transform="scale(0.015625)"/>
       </defs>
       <use xlink:href="#ArialMT-30"/>
      </g>
     </g>
    </g>
    <g id="xtick_2">
     <g id="line2d_3">
      <path d="M 120.146468 187.591654 
L 120.146468 10.8 
" clip-path="url(#p5585e0236b)" style="fill: none; stroke: #a9a9a9; stroke-opacity: 0.7; stroke-width: 0.5; stroke-linecap: square"/>
     </g>
     <g id="line2d_4">
      <g>
       <use xlink:href="#m1f9072ef86" x="120.146468" y="187.591654" style="stroke: #000000; stroke-width: 0.5"/>
      </g>
     </g>
     <g id="text_2">
      <!-- 50 -->
      <g transform="translate(115.141624 197.533685) scale(0.09 -0.09)">
       <defs>
        <path id="ArialMT-35" d="M 266 1200 
L 856 1250 
Q 922 819 1161 601 
Q 1400 384 1738 384 
Q 2144 384 2425 690 
Q 2706 997 2706 1503 
Q 2706 1984 2436 2262 
Q 2166 2541 1728 2541 
Q 1456 2541 1237 2417 
Q 1019 2294 894 2097 
L 366 2166 
L 809 4519 
L 3088 4519 
L 3088 3981 
L 1259 3981 
L 1013 2750 
Q 1425 3038 1878 3038 
Q 2478 3038 2890 2622 
Q 3303 2206 3303 1553 
Q 3303 931 2941 478 
Q 2500 -78 1738 -78 
Q 1113 -78 717 272 
Q 322 622 266 1200 
z
" transform="scale(0.015625)"/>
       </defs>
       <use xlink:href="#ArialMT-35"/>
       <use xlink:href="#ArialMT-30" x="55.615234"/>
      </g>
     </g>
    </g>
    <g id="xtick_3">
     <g id="line2d_5">
      <path d="M 192.443257 187.591654 
L 192.443257 10.8 
" clip-path="url(#p5585e0236b)" style="fill: none; stroke: #a9a9a9; stroke-opacity: 0.7; stroke-width: 0.5; stroke-linecap: square"/>
     </g>
     <g id="line2d_6">
      <g>
       <use xlink:href="#m1f9072ef86" x="192.443257" y="187.591654" style="stroke: #000000; stroke-width: 0.5"/>
      </g>
     </g>
     <g id="text_3">
      <!-- 100 -->
      <g transform="translate(184.935991 197.533685) scale(0.09 -0.09)">
       <defs>
        <path id="ArialMT-31" d="M 2384 0 
L 1822 0 
L 1822 3584 
Q 1619 3391 1289 3197 
Q 959 3003 697 2906 
L 697 3450 
Q 1169 3672 1522 3987 
Q 1875 4303 2022 4600 
L 2384 4600 
L 2384 0 
z
" transform="scale(0.015625)"/>
       </defs>
       <use xlink:href="#ArialMT-31"/>
       <use xlink:href="#ArialMT-30" x="55.615234"/>
       <use xlink:href="#ArialMT-30" x="111.230469"/>
      </g>
     </g>
    </g>
    <g id="xtick_4">
     <g id="line2d_7">
      <path d="M 264.740046 187.591654 
L 264.740046 10.8 
" clip-path="url(#p5585e0236b)" style="fill: none; stroke: #a9a9a9; stroke-opacity: 0.7; stroke-width: 0.5; stroke-linecap: square"/>
     </g>
     <g id="line2d_8">
      <g>
       <use xlink:href="#m1f9072ef86" x="264.740046" y="187.591654" style="stroke: #000000; stroke-width: 0.5"/>
      </g>
     </g>
     <g id="text_4">
      <!-- 150 -->
      <g transform="translate(257.23278 197.533685) scale(0.09 -0.09)">
       <use xlink:href="#ArialMT-31"/>
       <use xlink:href="#ArialMT-35" x="55.615234"/>
       <use xlink:href="#ArialMT-30" x="111.230469"/>
      </g>
     </g>
    </g>
    <g id="xtick_5">
     <g id="line2d_9">
      <path d="M 83.998073 187.591654 
L 83.998073 10.8 
" clip-path="url(#p5585e0236b)" style="fill: none; stroke: #d3d3d3; stroke-opacity: 0.5; stroke-width: 0.3; stroke-linecap: square"/>
     </g>
     <g id="line2d_10">
      <defs>
       <path id="m76c3e77c1a" d="M 0 0 
L 0 1 
" style="stroke: #000000; stroke-width: 0.3"/>
      </defs>
      <g>
       <use xlink:href="#m76c3e77c1a" x="83.998073" y="187.591654" style="stroke: #000000; stroke-width: 0.3"/>
      </g>
     </g>
    </g>
    <g id="xtick_6">
     <g id="line2d_11">
      <path d="M 156.294862 187.591654 
L 156.294862 10.8 
" clip-path="url(#p5585e0236b)" style="fill: none; stroke: #d3d3d3; stroke-opacity: 0.5; stroke-width: 0.3; stroke-linecap: square"/>
     </g>
     <g id="line2d_12">
      <g>
       <use xlink:href="#m76c3e77c1a" x="156.294862" y="187.591654" style="stroke: #000000; stroke-width: 0.3"/>
      </g>
     </g>
    </g>
    <g id="xtick_7">
     <g id="line2d_13">
      <path d="M 228.591651 187.591654 
L 228.591651 10.8 
" clip-path="url(#p5585e0236b)" style="fill: none; stroke: #d3d3d3; stroke-opacity: 0.5; stroke-width: 0.3; stroke-linecap: square"/>
     </g>
     <g id="line2d_14">
      <g>
       <use xlink:href="#m76c3e77c1a" x="228.591651" y="187.591654" style="stroke: #000000; stroke-width: 0.3"/>
      </g>
     </g>
    </g>
    <g id="text_5">
     <!-- position $x$ (mm) -->
     <g transform="translate(121.644862 210.622435) scale(0.1 -0.1)">
      <defs>
       <path id="ArialMT-70" d="M 422 -1272 
L 422 3319 
L 934 3319 
L 934 2888 
Q 1116 3141 1344 3267 
Q 1572 3394 1897 3394 
Q 2322 3394 2647 3175 
Q 2972 2956 3137 2557 
Q 3303 2159 3303 1684 
Q 3303 1175 3120 767 
Q 2938 359 2589 142 
Q 2241 -75 1856 -75 
Q 1575 -75 1351 44 
Q 1128 163 984 344 
L 984 -1272 
L 422 -1272 
z
M 931 1641 
Q 931 1000 1190 694 
Q 1450 388 1819 388 
Q 2194 388 2461 705 
Q 2728 1022 2728 1688 
Q 2728 2322 2467 2637 
Q 2206 2953 1844 2953 
Q 1484 2953 1207 2617 
Q 931 2281 931 1641 
z
" transform="scale(0.015625)"/>
       <path id="ArialMT-6f" d="M 213 1659 
Q 213 2581 725 3025 
Q 1153 3394 1769 3394 
Q 2453 3394 2887 2945 
Q 3322 2497 3322 1706 
Q 3322 1066 3130 698 
Q 2938 331 2570 128 
Q 2203 -75 1769 -75 
Q 1072 -75 642 372 
Q 213 819 213 1659 
z
M 791 1659 
Q 791 1022 1069 705 
Q 1347 388 1769 388 
Q 2188 388 2466 706 
Q 2744 1025 2744 1678 
Q 2744 2294 2464 2611 
Q 2184 2928 1769 2928 
Q 1347 2928 1069 2612 
Q 791 2297 791 1659 
z
" transform="scale(0.015625)"/>
       <path id="ArialMT-73" d="M 197 991 
L 753 1078 
Q 800 744 1014 566 
Q 1228 388 1613 388 
Q 2000 388 2187 545 
Q 2375 703 2375 916 
Q 2375 1106 2209 1216 
Q 2094 1291 1634 1406 
Q 1016 1563 777 1677 
Q 538 1791 414 1992 
Q 291 2194 291 2438 
Q 291 2659 392 2848 
Q 494 3038 669 3163 
Q 800 3259 1026 3326 
Q 1253 3394 1513 3394 
Q 1903 3394 2198 3281 
Q 2494 3169 2634 2976 
Q 2775 2784 2828 2463 
L 2278 2388 
Q 2241 2644 2061 2787 
Q 1881 2931 1553 2931 
Q 1166 2931 1000 2803 
Q 834 2675 834 2503 
Q 834 2394 903 2306 
Q 972 2216 1119 2156 
Q 1203 2125 1616 2013 
Q 2213 1853 2448 1751 
Q 2684 1650 2818 1456 
Q 2953 1263 2953 975 
Q 2953 694 2789 445 
Q 2625 197 2315 61 
Q 2006 -75 1616 -75 
Q 969 -75 630 194 
Q 291 463 197 991 
z
" transform="scale(0.015625)"/>
       <path id="ArialMT-69" d="M 425 3934 
L 425 4581 
L 988 4581 
L 988 3934 
L 425 3934 
z
M 425 0 
L 425 3319 
L 988 3319 
L 988 0 
L 425 0 
z
" transform="scale(0.015625)"/>
       <path id="ArialMT-74" d="M 1650 503 
L 1731 6 
Q 1494 -44 1306 -44 
Q 1000 -44 831 53 
Q 663 150 594 308 
Q 525 466 525 972 
L 525 2881 
L 113 2881 
L 113 3319 
L 525 3319 
L 525 4141 
L 1084 4478 
L 1084 3319 
L 1650 3319 
L 1650 2881 
L 1084 2881 
L 1084 941 
Q 1084 700 1114 631 
Q 1144 563 1211 522 
Q 1278 481 1403 481 
Q 1497 481 1650 503 
z
" transform="scale(0.015625)"/>
       <path id="ArialMT-6e" d="M 422 0 
L 422 3319 
L 928 3319 
L 928 2847 
Q 1294 3394 1984 3394 
Q 2284 3394 2536 3286 
Q 2788 3178 2913 3003 
Q 3038 2828 3088 2588 
Q 3119 2431 3119 2041 
L 3119 0 
L 2556 0 
L 2556 2019 
Q 2556 2363 2490 2533 
Q 2425 2703 2258 2804 
Q 2091 2906 1866 2906 
Q 1506 2906 1245 2678 
Q 984 2450 984 1813 
L 984 0 
L 422 0 
z
" transform="scale(0.015625)"/>
       <path id="ArialMT-20" transform="scale(0.015625)"/>
       <path id="DejaVuSans-Oblique-78" d="M 3841 3500 
L 2234 1784 
L 3219 0 
L 2559 0 
L 1819 1388 
L 531 0 
L -166 0 
L 1556 1844 
L 641 3500 
L 1300 3500 
L 1972 2234 
L 3144 3500 
L 3841 3500 
z
" transform="scale(0.015625)"/>
       <path id="ArialMT-28" d="M 1497 -1347 
Q 1031 -759 709 28 
Q 388 816 388 1659 
Q 388 2403 628 3084 
Q 909 3875 1497 4659 
L 1900 4659 
Q 1522 4009 1400 3731 
Q 1209 3300 1100 2831 
Q 966 2247 966 1656 
Q 966 153 1900 -1347 
L 1497 -1347 
z
" transform="scale(0.015625)"/>
       <path id="ArialMT-6d" d="M 422 0 
L 422 3319 
L 925 3319 
L 925 2853 
Q 1081 3097 1340 3245 
Q 1600 3394 1931 3394 
Q 2300 3394 2536 3241 
Q 2772 3088 2869 2813 
Q 3263 3394 3894 3394 
Q 4388 3394 4653 3120 
Q 4919 2847 4919 2278 
L 4919 0 
L 4359 0 
L 4359 2091 
Q 4359 2428 4304 2576 
Q 4250 2725 4106 2815 
Q 3963 2906 3769 2906 
Q 3419 2906 3187 2673 
Q 2956 2441 2956 1928 
L 2956 0 
L 2394 0 
L 2394 2156 
Q 2394 2531 2256 2718 
Q 2119 2906 1806 2906 
Q 1569 2906 1367 2781 
Q 1166 2656 1075 2415 
Q 984 2175 984 1722 
L 984 0 
L 422 0 
z
" transform="scale(0.015625)"/>
       <path id="ArialMT-29" d="M 791 -1347 
L 388 -1347 
Q 1322 153 1322 1656 
Q 1322 2244 1188 2822 
Q 1081 3291 891 3722 
Q 769 4003 388 4659 
L 791 4659 
Q 1378 3875 1659 3084 
Q 1900 2403 1900 1659 
Q 1900 816 1576 28 
Q 1253 -759 791 -1347 
z
" transform="scale(0.015625)"/>
      </defs>
      <use xlink:href="#ArialMT-70" transform="translate(0 0.203125)"/>
      <use xlink:href="#ArialMT-6f" transform="translate(55.615234 0.203125)"/>
      <use xlink:href="#ArialMT-73" transform="translate(111.230469 0.203125)"/>
      <use xlink:href="#ArialMT-69" transform="translate(161.230469 0.203125)"/>
      <use xlink:href="#ArialMT-74" transform="translate(183.447266 0.203125)"/>
      <use xlink:href="#ArialMT-69" transform="translate(211.230469 0.203125)"/>
      <use xlink:href="#ArialMT-6f" transform="translate(233.447266 0.203125)"/>
      <use xlink:href="#ArialMT-6e" transform="translate(289.0625 0.203125)"/>
      <use xlink:href="#ArialMT-20" transform="translate(344.677734 0.203125)"/>
      <use xlink:href="#DejaVuSans-Oblique-78" transform="translate(372.460938 0.203125)"/>
      <use xlink:href="#ArialMT-20" transform="translate(431.640625 0.203125)"/>
      <use xlink:href="#ArialMT-28" transform="translate(459.423828 0.203125)"/>
      <use xlink:href="#ArialMT-6d" transform="translate(492.724609 0.203125)"/>
      <use xlink:href="#ArialMT-6d" transform="translate(576.025391 0.203125)"/>
      <use xlink:href="#ArialMT-29" transform="translate(659.326172 0.203125)"/>
     </g>
    </g>
   </g>
   <g id="matplotlib.axis_2">
    <g id="ytick_1">
     <g id="line2d_15">
      <path d="M 40.62 168.982006 
L 271.969724 168.982006 
" clip-path="url(#p5585e0236b)" style="fill: none; stroke: #a9a9a9; stroke-opacity: 0.7; stroke-width: 0.5; stroke-linecap: square"/>
     </g>
     <g id="line2d_16">
      <defs>
       <path id="m117163e20f" d="M 0 0 
L -2.5 0 
" style="stroke: #000000; stroke-width: 0.5"/>
      </defs>
      <g>
       <use xlink:href="#m117163e20f" x="40.62" y="168.982006" style="stroke: #000000; stroke-width: 0.5"/>
      </g>
     </g>
     <g id="text_6">
      <!-- 0 -->
      <g transform="translate(32.115156 172.203021) scale(0.09 -0.09)">
       <use xlink:href="#ArialMT-30"/>
      </g>
     </g>
    </g>
    <g id="ytick_2">
     <g id="line2d_17">
      <path d="M 40.62 122.457886 
L 271.969724 122.457886 
" clip-path="url(#p5585e0236b)" style="fill: none; stroke: #a9a9a9; stroke-opacity: 0.7; stroke-width: 0.5; stroke-linecap: square"/>
     </g>
     <g id="line2d_18">
      <g>
       <use xlink:href="#m117163e20f" x="40.62" y="122.457886" style="stroke: #000000; stroke-width: 0.5"/>
      </g>
     </g>
     <g id="text_7">
      <!-- 5 -->
      <g transform="translate(32.115156 125.678902) scale(0.09 -0.09)">
       <use xlink:href="#ArialMT-35"/>
      </g>
     </g>
    </g>
    <g id="ytick_3">
     <g id="line2d_19">
      <path d="M 40.62 75.933767 
L 271.969724 75.933767 
" clip-path="url(#p5585e0236b)" style="fill: none; stroke: #a9a9a9; stroke-opacity: 0.7; stroke-width: 0.5; stroke-linecap: square"/>
     </g>
     <g id="line2d_20">
      <g>
       <use xlink:href="#m117163e20f" x="40.62" y="75.933767" style="stroke: #000000; stroke-width: 0.5"/>
      </g>
     </g>
     <g id="text_8">
      <!-- 10 -->
      <g transform="translate(27.110313 79.154783) scale(0.09 -0.09)">
       <use xlink:href="#ArialMT-31"/>
       <use xlink:href="#ArialMT-30" x="55.615234"/>
      </g>
     </g>
    </g>
    <g id="ytick_4">
     <g id="line2d_21">
      <path d="M 40.62 29.409648 
L 271.969724 29.409648 
" clip-path="url(#p5585e0236b)" style="fill: none; stroke: #a9a9a9; stroke-opacity: 0.7; stroke-width: 0.5; stroke-linecap: square"/>
     </g>
     <g id="line2d_22">
      <g>
       <use xlink:href="#m117163e20f" x="40.62" y="29.409648" style="stroke: #000000; stroke-width: 0.5"/>
      </g>
     </g>
     <g id="text_9">
      <!-- 15 -->
      <g transform="translate(27.110313 32.630663) scale(0.09 -0.09)">
       <use xlink:href="#ArialMT-31"/>
       <use xlink:href="#ArialMT-35" x="55.615234"/>
      </g>
     </g>
    </g>
    <g id="ytick_5">
     <g id="line2d_23">
      <path d="M 40.62 145.719946 
L 271.969724 145.719946 
" clip-path="url(#p5585e0236b)" style="fill: none; stroke: #d3d3d3; stroke-opacity: 0.5; stroke-width: 0.3; stroke-linecap: square"/>
     </g>
     <g id="line2d_24">
      <defs>
       <path id="me1408700b5" d="M 0 0 
L -1 0 
" style="stroke: #000000; stroke-width: 0.3"/>
      </defs>
      <g>
       <use xlink:href="#me1408700b5" x="40.62" y="145.719946" style="stroke: #000000; stroke-width: 0.3"/>
      </g>
     </g>
    </g>
    <g id="ytick_6">
     <g id="line2d_25">
      <path d="M 40.62 99.195827 
L 271.969724 99.195827 
" clip-path="url(#p5585e0236b)" style="fill: none; stroke: #d3d3d3; stroke-opacity: 0.5; stroke-width: 0.3; stroke-linecap: square"/>
     </g>
     <g id="line2d_26">
      <g>
       <use xlink:href="#me1408700b5" x="40.62" y="99.195827" style="stroke: #000000; stroke-width: 0.3"/>
      </g>
     </g>
    </g>
    <g id="ytick_7">
     <g id="line2d_27">
      <path d="M 40.62 52.671707 
L 271.969724 52.671707 
" clip-path="url(#p5585e0236b)" style="fill: none; stroke: #d3d3d3; stroke-opacity: 0.5; stroke-width: 0.3; stroke-linecap: square"/>
     </g>
     <g id="line2d_28">
      <g>
       <use xlink:href="#me1408700b5" x="40.62" y="52.671707" style="stroke: #000000; stroke-width: 0.3"/>
      </g>
     </g>
    </g>
    <g id="text_10">
     <!-- profil d'altitude $y$ (µm) -->
     <g transform="translate(20.910313 147.395827) rotate(-90) scale(0.1 -0.1)">
      <defs>
       <path id="ArialMT-72" d="M 416 0 
L 416 3319 
L 922 3319 
L 922 2816 
Q 1116 3169 1280 3281 
Q 1444 3394 1641 3394 
Q 1925 3394 2219 3213 
L 2025 2691 
Q 1819 2813 1613 2813 
Q 1428 2813 1281 2702 
Q 1134 2591 1072 2394 
Q 978 2094 978 1738 
L 978 0 
L 416 0 
z
" transform="scale(0.015625)"/>
       <path id="ArialMT-66" d="M 556 0 
L 556 2881 
L 59 2881 
L 59 3319 
L 556 3319 
L 556 3672 
Q 556 4006 616 4169 
Q 697 4388 901 4523 
Q 1106 4659 1475 4659 
Q 1713 4659 2000 4603 
L 1916 4113 
Q 1741 4144 1584 4144 
Q 1328 4144 1222 4034 
Q 1116 3925 1116 3625 
L 1116 3319 
L 1763 3319 
L 1763 2881 
L 1116 2881 
L 1116 0 
L 556 0 
z
" transform="scale(0.015625)"/>
       <path id="ArialMT-6c" d="M 409 0 
L 409 4581 
L 972 4581 
L 972 0 
L 409 0 
z
" transform="scale(0.015625)"/>
       <path id="ArialMT-64" d="M 2575 0 
L 2575 419 
Q 2259 -75 1647 -75 
Q 1250 -75 917 144 
Q 584 363 401 755 
Q 219 1147 219 1656 
Q 219 2153 384 2558 
Q 550 2963 881 3178 
Q 1213 3394 1622 3394 
Q 1922 3394 2156 3267 
Q 2391 3141 2538 2938 
L 2538 4581 
L 3097 4581 
L 3097 0 
L 2575 0 
z
M 797 1656 
Q 797 1019 1065 703 
Q 1334 388 1700 388 
Q 2069 388 2326 689 
Q 2584 991 2584 1609 
Q 2584 2291 2321 2609 
Q 2059 2928 1675 2928 
Q 1300 2928 1048 2622 
Q 797 2316 797 1656 
z
" transform="scale(0.015625)"/>
       <path id="ArialMT-27" d="M 425 2959 
L 281 3816 
L 281 4581 
L 922 4581 
L 922 3816 
L 772 2959 
L 425 2959 
z
" transform="scale(0.015625)"/>
       <path id="ArialMT-61" d="M 2588 409 
Q 2275 144 1986 34 
Q 1697 -75 1366 -75 
Q 819 -75 525 192 
Q 231 459 231 875 
Q 231 1119 342 1320 
Q 453 1522 633 1644 
Q 813 1766 1038 1828 
Q 1203 1872 1538 1913 
Q 2219 1994 2541 2106 
Q 2544 2222 2544 2253 
Q 2544 2597 2384 2738 
Q 2169 2928 1744 2928 
Q 1347 2928 1158 2789 
Q 969 2650 878 2297 
L 328 2372 
Q 403 2725 575 2942 
Q 747 3159 1072 3276 
Q 1397 3394 1825 3394 
Q 2250 3394 2515 3294 
Q 2781 3194 2906 3042 
Q 3031 2891 3081 2659 
Q 3109 2516 3109 2141 
L 3109 1391 
Q 3109 606 3145 398 
Q 3181 191 3288 0 
L 2700 0 
Q 2613 175 2588 409 
z
M 2541 1666 
Q 2234 1541 1622 1453 
Q 1275 1403 1131 1340 
Q 988 1278 909 1158 
Q 831 1038 831 891 
Q 831 666 1001 516 
Q 1172 366 1500 366 
Q 1825 366 2078 508 
Q 2331 650 2450 897 
Q 2541 1088 2541 1459 
L 2541 1666 
z
" transform="scale(0.015625)"/>
       <path id="ArialMT-75" d="M 2597 0 
L 2597 488 
Q 2209 -75 1544 -75 
Q 1250 -75 995 37 
Q 741 150 617 320 
Q 494 491 444 738 
Q 409 903 409 1263 
L 409 3319 
L 972 3319 
L 972 1478 
Q 972 1038 1006 884 
Q 1059 663 1231 536 
Q 1403 409 1656 409 
Q 1909 409 2131 539 
Q 2353 669 2445 892 
Q 2538 1116 2538 1541 
L 2538 3319 
L 3100 3319 
L 3100 0 
L 2597 0 
z
" transform="scale(0.015625)"/>
       <path id="ArialMT-65" d="M 2694 1069 
L 3275 997 
Q 3138 488 2766 206 
Q 2394 -75 1816 -75 
Q 1088 -75 661 373 
Q 234 822 234 1631 
Q 234 2469 665 2931 
Q 1097 3394 1784 3394 
Q 2450 3394 2872 2941 
Q 3294 2488 3294 1666 
Q 3294 1616 3291 1516 
L 816 1516 
Q 847 969 1125 678 
Q 1403 388 1819 388 
Q 2128 388 2347 550 
Q 2566 713 2694 1069 
z
M 847 1978 
L 2700 1978 
Q 2663 2397 2488 2606 
Q 2219 2931 1791 2931 
Q 1403 2931 1139 2672 
Q 875 2413 847 1978 
z
" transform="scale(0.015625)"/>
       <path id="DejaVuSans-Oblique-79" d="M 1588 -325 
Q 1188 -997 936 -1164 
Q 684 -1331 294 -1331 
L -159 -1331 
L -63 -850 
L 269 -850 
Q 509 -850 678 -719 
Q 847 -588 1056 -206 
L 1234 128 
L 459 3500 
L 1069 3500 
L 1650 819 
L 3256 3500 
L 3859 3500 
L 1588 -325 
z
" transform="scale(0.015625)"/>
       <path id="ArialMT-b5" d="M 3181 3319 
L 3181 0 
L 2678 0 
L 2678 394 
Q 2516 144 2356 50 
Q 2138 -78 1847 -78 
Q 1588 -78 1388 25 
Q 1238 103 1056 334 
L 1056 -1272 
L 500 -1272 
L 500 3319 
L 1056 3319 
L 1056 1913 
Q 1056 1147 1137 920 
Q 1219 694 1401 562 
Q 1584 431 1822 431 
Q 2072 431 2269 568 
Q 2466 706 2547 923 
Q 2628 1141 2628 1903 
L 2628 3319 
L 3181 3319 
z
" transform="scale(0.015625)"/>
      </defs>
      <use xlink:href="#ArialMT-70" transform="translate(0 0.203125)"/>
      <use xlink:href="#ArialMT-72" transform="translate(55.615234 0.203125)"/>
      <use xlink:href="#ArialMT-6f" transform="translate(88.916016 0.203125)"/>
      <use xlink:href="#ArialMT-66" transform="translate(144.53125 0.203125)"/>
      <use xlink:href="#ArialMT-69" transform="translate(172.314453 0.203125)"/>
      <use xlink:href="#ArialMT-6c" transform="translate(194.53125 0.203125)"/>
      <use xlink:href="#ArialMT-20" transform="translate(216.748047 0.203125)"/>
      <use xlink:href="#ArialMT-64" transform="translate(244.53125 0.203125)"/>
      <use xlink:href="#ArialMT-27" transform="translate(300.146484 0.203125)"/>
      <use xlink:href="#ArialMT-61" transform="translate(319.238281 0.203125)"/>
      <use xlink:href="#ArialMT-6c" transform="translate(374.853516 0.203125)"/>
      <use xlink:href="#ArialMT-74" transform="translate(397.070312 0.203125)"/>
      <use xlink:href="#ArialMT-69" transform="translate(424.853516 0.203125)"/>
      <use xlink:href="#ArialMT-74" transform="translate(447.070312 0.203125)"/>
      <use xlink:href="#ArialMT-75" transform="translate(474.853516 0.203125)"/>
      <use xlink:href="#ArialMT-64" transform="translate(530.46875 0.203125)"/>
      <use xlink:href="#ArialMT-65" transform="translate(586.083984 0.203125)"/>
      <use xlink:href="#ArialMT-20" transform="translate(641.699219 0.203125)"/>
      <use xlink:href="#DejaVuSans-Oblique-79" transform="translate(669.482422 0.203125)"/>
      <use xlink:href="#ArialMT-20" transform="translate(728.662109 0.203125)"/>
      <use xlink:href="#ArialMT-28" transform="translate(756.445312 0.203125)"/>
      <use xlink:href="#ArialMT-b5" transform="translate(789.746094 0.203125)"/>
      <use xlink:href="#ArialMT-6d" transform="translate(847.363281 0.203125)"/>
      <use xlink:href="#ArialMT-29" transform="translate(930.664062 0.203125)"/>
     </g>
    </g>
   </g>
   <g id="line2d_29">
    <path d="M 48.606908 227.771654 
L 49.008373 104.759646 
L 49.265861 79.016455 
L 49.609177 58.070831 
L 49.695007 58.392313 
L 50.209982 39.412333 
L 50.295811 36.998197 
L 50.38164 37.131721 
L 50.467469 39.995746 
L 50.724957 31.265495 
L 50.810786 30.499708 
L 50.896615 27.353747 
L 50.982444 27.671972 
L 51.154103 26.553997 
L 51.49742 34.205354 
L 51.583249 32.270881 
L 51.754907 35.676912 
L 52.012395 41.103485 
L 52.098224 38.366006 
L 52.269882 40.527517 
L 52.355711 40.49588 
L 52.52737 46.567278 
L 52.699028 48.864639 
L 52.870687 47.708049 
L 53.042345 50.194298 
L 53.128174 50.277576 
L 53.214003 51.188984 
L 53.385662 48.891157 
L 53.471491 49.008398 
L 53.55732 48.67389 
L 53.643149 48.865104 
L 53.728978 48.224467 
L 53.814808 48.793922 
L 54.158124 46.945519 
L 54.243954 48.277504 
L 54.415612 47.483803 
L 54.501441 48.121649 
L 54.758929 52.074338 
L 55.016416 52.990863 
L 55.188075 51.454171 
L 55.273904 51.344374 
L 55.445562 49.061436 
L 55.617221 45.637726 
L 55.788879 44.828671 
L 55.960537 46.966455 
L 56.046367 46.406304 
L 56.389683 52.789879 
L 56.475513 51.495578 
L 56.733 54.555004 
L 56.818829 55.072817 
L 56.904659 57.990345 
L 56.990488 57.532547 
L 57.076317 58.576549 
L 57.162146 57.803783 
L 57.333805 58.632843 
L 57.419634 58.409527 
L 57.505463 61.420103 
L 57.591292 60.803658 
L 57.677121 62.142622 
L 57.76295 61.309841 
L 57.84878 61.702504 
L 58.106267 59.56286 
L 58.277926 61.431734 
L 58.363755 59.976459 
L 58.449584 60.878562 
L 58.535413 59.644277 
L 58.707072 60.213267 
L 58.792901 60.505439 
L 58.87873 60.37238 
L 59.050388 63.870528 
L 59.222047 62.143553 
L 59.307876 62.498532 
L 60.166168 79.407258 
L 60.251997 78.055267 
L 60.337826 79.813879 
L 60.509485 77.105244 
L 60.595314 78.150641 
L 60.766972 79.182081 
L 60.852801 78.738241 
L 61.02446 79.523103 
L 61.110289 81.890715 
L 61.281947 79.480766 
L 61.367777 79.505424 
L 61.539435 78.962953 
L 61.711093 81.955384 
L 61.968581 79.043439 
L 62.226068 81.549228 
L 62.311898 81.307768 
L 62.569385 79.188129 
L 62.741044 85.347923 
L 62.912702 83.626065 
L 62.998531 83.484166 
L 63.08436 82.336416 
L 63.17019 82.638358 
L 63.341848 83.212466 
L 63.427677 82.418299 
L 63.513506 79.342124 
L 63.599336 80.110703 
L 63.770994 83.587915 
L 63.856823 82.936578 
L 64.543457 86.898572 
L 64.629286 85.212072 
L 64.800944 89.443906 
L 64.972603 87.771829 
L 65.058432 87.838359 
L 65.23009 86.903224 
L 65.315919 86.720384 
L 65.401749 85.922496 
L 65.573407 88.649274 
L 65.659236 89.859366 
L 65.830894 94.161917 
L 66.002553 94.731372 
L 66.088382 94.540623 
L 66.174211 94.037232 
L 66.26004 94.94864 
L 66.34587 94.094457 
L 66.431699 95.001212 
L 66.603357 93.652478 
L 66.775016 95.707914 
L 66.946674 98.829682 
L 67.032503 98.993447 
L 67.118332 98.644516 
L 67.289991 96.345294 
L 67.461649 98.340248 
L 67.547478 99.204201 
L 67.633308 98.867832 
L 67.804966 97.480017 
L 67.976624 98.834334 
L 68.062453 100.488267 
L 68.148283 100.374283 
L 68.234112 99.359592 
L 68.491599 100.130962 
L 68.577429 99.763886 
L 68.920745 105.286764 
L 69.092404 106.36752 
L 69.349891 102.310151 
L 69.435721 104.357213 
L 69.52155 103.440687 
L 69.693208 104.702887 
L 69.950696 102.106841 
L 70.122354 107.376628 
L 70.208183 107.367788 
L 70.294012 106.458242 
L 70.379842 107.735794 
L 70.5515 105.419823 
L 70.894817 109.725165 
L 70.980646 106.823456 
L 71.066475 107.568773 
L 71.238134 109.021256 
L 71.323963 108.80864 
L 71.409792 108.925881 
L 71.753109 106.709937 
L 71.924767 108.458314 
L 72.096425 106.436375 
L 72.182255 107.021649 
L 72.268084 107.006761 
L 72.525571 112.137441 
L 72.611401 112.176521 
L 72.783059 110.833835 
L 72.868888 112.04765 
L 72.954717 111.595435 
L 73.126376 109.876834 
L 73.298034 105.827375 
L 73.469693 103.972458 
L 74.499643 118.276764 
L 74.671301 117.484458 
L 74.928789 120.994703 
L 75.014618 120.977954 
L 75.186276 122.155945 
L 75.357935 120.961206 
L 75.529593 121.425981 
L 75.701251 119.05046 
L 75.787081 119.418931 
L 75.958739 123.754514 
L 76.130397 125.339125 
L 76.473714 121.053789 
L 76.559543 120.592269 
L 76.988689 109.409267 
L 77.074519 110.778472 
L 77.160348 110.512354 
L 77.332006 110.203433 
L 77.417835 111.39259 
L 77.503665 111.292563 
L 77.675323 106.870446 
L 77.761152 106.008819 
L 77.846981 106.395899 
L 78.01864 102.332948 
L 78.104469 102.001696 
L 78.190298 102.302242 
L 78.276127 101.836536 
L 78.705273 106.407996 
L 78.791102 107.010018 
L 79.134419 111.725237 
L 79.306078 108.114966 
L 79.649394 108.981245 
L 79.735223 108.684421 
L 79.821053 109.37763 
L 79.992711 108.311763 
L 80.164369 109.707021 
L 80.250199 110.10108 
L 80.336028 109.854037 
L 80.765174 104.319993 
L 81.108491 98.705928 
L 81.19432 96.885904 
L 81.365978 103.440687 
L 81.451807 103.443014 
L 81.709295 105.480305 
L 81.795124 105.462626 
L 82.052612 111.774553 
L 82.22427 105.720835 
L 82.310099 105.073219 
L 82.481758 108.13218 
L 82.910904 101.909113 
L 82.996733 100.833011 
L 83.168391 103.106179 
L 83.34005 100.475705 
L 83.425879 102.56743 
L 83.511708 102.170579 
L 83.597537 101.023294 
L 83.855025 103.617479 
L 84.284171 98.15136 
L 84.37 98.472842 
L 84.541658 104.405598 
L 84.713317 107.274275 
L 85.056633 117.524469 
L 85.142463 118.344689 
L 85.228292 118.268855 
L 85.39995 116.207371 
L 85.485779 116.171547 
L 86.000754 101.961686 
L 86.344071 99.589421 
L 86.687388 104.582855 
L 86.859046 108.2671 
L 86.944876 108.944491 
L 87.030705 110.580744 
L 87.202363 107.86234 
L 87.459851 105.87669 
L 87.631509 102.937296 
L 87.717338 104.378148 
L 87.803167 104.350699 
L 87.888997 103.901741 
L 87.974826 106.554547 
L 88.146484 105.503567 
L 88.403972 114.009572 
L 88.489801 112.639436 
L 88.57563 113.325202 
L 89.004776 121.632549 
L 89.176435 117.724057 
L 89.262264 119.166305 
L 89.348093 118.893208 
L 89.60558 113.977005 
L 89.777239 110.153187 
L 89.863068 111.704767 
L 89.948897 111.484242 
L 90.034726 110.990156 
L 90.120556 109.568379 
L 90.206385 111.005974 
L 90.378043 109.808444 
L 90.635531 111.072969 
L 90.72136 110.798477 
L 90.978848 114.788385 
L 91.064677 113.593181 
L 91.236335 114.151005 
L 91.322164 113.838828 
L 91.665481 110.463503 
L 91.922969 104.190656 
L 92.094627 102.301777 
L 92.180456 102.755387 
L 92.266285 102.525093 
L 92.609602 97.879194 
L 92.695431 96.522086 
L 92.781261 96.983605 
L 93.038748 94.000478 
L 93.210407 92.858311 
L 93.296236 93.114659 
L 93.382065 94.646698 
L 93.467894 94.345687 
L 93.553723 94.521083 
L 93.639552 95.135667 
L 93.725382 96.577449 
L 93.811211 96.252711 
L 93.89704 95.366892 
L 93.982869 95.553453 
L 94.154528 97.833135 
L 94.240357 97.296712 
L 94.412015 98.85434 
L 94.497844 98.453302 
L 94.669503 100.171438 
L 94.841161 101.450851 
L 94.92699 100.83115 
L 95.098649 101.838862 
L 95.441966 97.956424 
L 95.527795 99.932769 
L 95.699453 97.181332 
L 95.785282 98.173692 
L 95.956941 95.164512 
L 96.04277 95.533448 
L 96.128599 96.864503 
L 96.300257 106.180028 
L 96.386087 104.601929 
L 96.901062 113.365678 
L 97.07272 106.683884 
L 97.244379 102.467403 
L 97.330208 101.611824 
L 97.416037 101.908648 
L 97.759354 99.703405 
L 97.931012 101.864915 
L 98.016841 100.953043 
L 98.10267 100.965604 
L 98.1885 101.230792 
L 98.445987 98.91203 
L 98.617646 98.581708 
L 98.960962 101.806295 
L 99.046792 101.037717 
L 99.561767 91.949695 
L 99.733425 90.972689 
L 99.905083 92.383765 
L 100.2484 98.611019 
L 100.334229 98.283489 
L 100.505888 98.579847 
L 100.591717 97.680536 
L 100.763375 99.137206 
L 100.849205 99.350287 
L 101.020863 100.749732 
L 101.106692 100.636679 
L 101.450009 103.564907 
L 101.707496 100.736706 
L 102.050813 103.27134 
L 102.136642 103.436035 
L 102.308301 102.224547 
L 102.565788 106.036733 
L 102.651618 105.737118 
L 102.823276 105.533808 
L 102.909105 105.719904 
L 102.994934 105.353294 
L 103.080764 106.315413 
L 103.166593 106.198172 
L 103.338251 106.230274 
L 103.42408 106.292616 
L 103.681568 107.353831 
L 103.767397 106.915574 
L 103.853226 107.427339 
L 104.024885 106.585718 
L 104.196543 103.811019 
L 104.282372 104.374892 
L 104.368201 103.471393 
L 104.454031 103.658886 
L 104.53986 103.83056 
L 104.797347 109.999193 
L 104.883177 111.756874 
L 104.969006 111.606136 
L 105.054835 112.175591 
L 105.741468 96.658401 
L 105.827298 97.372081 
L 105.913127 96.275973 
L 106.084785 99.687587 
L 106.170614 100.051405 
L 106.342273 98.173227 
L 106.428102 97.959216 
L 106.513931 98.206259 
L 106.59976 98.020162 
L 106.943077 94.963062 
L 107.286394 99.622453 
L 107.372223 99.661068 
L 107.543881 102.630703 
L 108.058857 110.38953 
L 108.402173 109.492545 
L 108.488003 109.661893 
L 108.573832 109.873112 
L 109.088807 103.035462 
L 109.174636 102.988473 
L 109.346295 104.397223 
L 109.517953 102.659547 
L 109.603782 102.698162 
L 109.689611 102.317595 
L 110.118757 105.320262 
L 110.204586 105.240706 
L 110.547903 110.162492 
L 110.719562 109.123143 
L 110.89122 110.051765 
L 111.062878 106.784841 
L 111.148708 107.262644 
L 111.234537 108.379223 
L 111.320366 108.16242 
L 111.492024 107.114697 
L 111.577853 107.350109 
L 111.92117 110.849653 
L 112.092829 110.014545 
L 112.178658 110.202503 
L 112.436145 114.273829 
L 112.521975 113.796956 
L 112.693633 113.173068 
L 112.779462 113.385218 
L 112.865291 112.859495 
L 112.951121 113.748571 
L 113.03695 112.751559 
L 113.122779 113.034426 
L 113.294437 112.348661 
L 113.380267 112.290971 
L 113.466096 113.082811 
L 113.551925 112.324468 
L 113.723583 113.677855 
L 113.809412 112.567789 
L 113.895242 113.516416 
L 114.0669 112.651067 
L 114.238558 113.773229 
L 114.324388 113.242389 
L 114.410217 115.179188 
L 114.496046 114.662305 
L 114.667704 112.148142 
L 114.753534 112.91579 
L 114.925192 112.990693 
L 115.09685 110.29276 
L 115.18268 110.021989 
L 115.440167 105.377952 
L 115.525996 106.682488 
L 115.611825 105.772942 
L 115.697655 106.5699 
L 115.783484 104.761972 
L 115.869313 105.481235 
L 115.955142 105.333754 
L 116.040971 104.915502 
L 116.298459 107.279858 
L 116.555947 106.142808 
L 116.899263 108.264773 
L 116.985093 107.575286 
L 117.070922 108.301993 
L 117.24258 110.475134 
L 117.328409 110.109455 
L 117.414239 108.651389 
L 117.500068 108.904945 
L 117.671726 108.067976 
L 117.757555 108.164747 
L 117.929214 106.122803 
L 118.186701 100.488267 
L 118.27253 100.627839 
L 118.35836 102.924735 
L 118.444189 102.22129 
L 118.615847 98.122515 
L 119.130822 107.429665 
L 119.216652 106.872772 
L 119.731627 116.353922 
L 119.817456 116.519548 
L 119.989114 115.817034 
L 120.41826 110.858028 
L 120.504089 111.193932 
L 120.589919 111.109258 
L 120.847406 109.842406 
L 121.019065 107.77534 
L 121.104894 107.86327 
L 121.53404 99.426586 
L 121.619869 100.097929 
L 121.705698 98.6715 
L 121.877356 101.186129 
L 122.306502 111.779205 
L 122.56399 118.245593 
L 122.649819 118.870412 
L 122.735648 118.621508 
L 122.907307 120.615066 
L 122.993136 118.803417 
L 123.164794 122.277838 
L 123.250624 121.191965 
L 123.336453 121.871217 
L 123.508111 121.680003 
L 123.59394 121.610682 
L 123.765599 118.507523 
L 123.851428 118.896465 
L 124.108915 116.134328 
L 124.194745 115.965446 
L 124.366403 115.086605 
L 124.70972 118.924845 
L 124.881378 116.81358 
L 124.967207 116.99642 
L 125.224695 118.854128 
L 125.482182 117.105752 
L 125.653841 118.385165 
L 125.911328 114.060748 
L 125.997158 113.935598 
L 126.082987 112.784126 
L 126.168816 113.840224 
L 126.254645 113.646683 
L 126.340474 113.595507 
L 126.426304 112.964175 
L 126.512133 111.361884 
L 126.683791 114.567396 
L 126.85545 119.265401 
L 126.941279 120.041889 
L 127.027108 118.593128 
L 127.542083 126.332415 
L 127.799571 121.602308 
L 127.971229 119.546872 
L 128.400375 114.351059 
L 128.657863 116.516756 
L 128.743692 116.902907 
L 128.829521 116.362762 
L 129.001179 117.81664 
L 129.516154 114.433406 
L 129.687813 116.507917 
L 129.773642 116.376254 
L 129.859471 116.623762 
L 130.03113 119.62829 
L 130.116959 119.742739 
L 130.374446 121.582303 
L 130.460276 121.311067 
L 130.803592 118.952759 
L 130.889422 119.356589 
L 130.975251 119.308669 
L 131.06108 119.143973 
L 131.318568 116.983393 
L 131.404397 116.905698 
L 131.490226 117.279752 
L 131.919372 111.830382 
L 132.005201 111.617301 
L 132.176859 111.780601 
L 132.262689 111.097162 
L 132.348518 111.19998 
L 132.691835 113.740197 
L 132.863493 117.134597 
L 132.949322 116.544671 
L 133.035151 116.728441 
L 133.120981 118.249315 
L 133.20681 118.227448 
L 133.464297 119.816712 
L 133.721785 116.884762 
L 133.807614 117.0355 
L 134.065102 119.135134 
L 134.150931 118.861572 
L 134.23676 119.317043 
L 134.665906 125.442409 
L 134.923394 123.398604 
L 135.009223 124.710584 
L 135.26671 122.572801 
L 135.438369 122.174555 
L 135.867515 127.944941 
L 136.039173 122.536512 
L 136.811636 134.987762 
L 136.897465 137.371193 
L 137.240782 132.4187 
L 137.498269 124.415621 
L 137.755757 121.782356 
L 137.927415 122.04987 
L 138.184903 119.588279 
L 138.270732 118.091133 
L 138.614049 121.906576 
L 138.699878 121.888896 
L 138.785707 121.966592 
L 138.957366 123.443733 
L 139.043195 123.99737 
L 139.214853 126.510602 
L 139.300682 126.364982 
L 139.386512 126.8921 
L 139.55817 126.018843 
L 139.987316 130.549827 
L 140.073145 131.155105 
L 140.244803 133.057477 
L 140.416462 132.319139 
L 140.673949 133.265905 
L 141.017266 128.948932 
L 141.103095 126.665063 
L 141.360583 129.937569 
L 141.446412 129.589569 
L 141.532241 129.102926 
L 141.961387 132.993273 
L 142.047216 132.556412 
L 142.304704 128.668856 
L 142.476362 129.323916 
L 142.648021 128.008679 
L 142.73385 125.719692 
L 142.819679 126.356142 
L 143.334654 131.167202 
L 143.7638 137.038545 
L 143.849629 137.356305 
L 144.192946 134.29874 
L 144.364605 135.338089 
L 144.450434 134.754676 
L 144.536263 136.457459 
L 144.622092 135.700512 
L 144.707921 135.952673 
L 144.965409 139.537356 
L 145.051238 139.842089 
L 145.394555 137.73222 
L 145.480384 138.287718 
L 145.566213 138.32959 
L 145.652042 136.206229 
L 145.737872 136.441176 
L 146.081188 132.609915 
L 146.167018 133.3543 
L 146.424505 129.474189 
L 146.93948 135.864277 
L 147.02531 135.057548 
L 147.196968 136.35371 
L 147.368626 134.841677 
L 147.797772 127.457834 
L 147.883601 127.276855 
L 148.05526 125.981158 
L 148.141089 126.476175 
L 148.226918 126.240763 
L 148.312747 126.67995 
L 148.484406 129.69797 
L 148.570235 128.819129 
L 148.741893 129.892906 
L 149.771844 147.632087 
L 149.857673 147.355269 
L 149.943502 148.100585 
L 150.286819 142.377188 
L 150.458477 138.888344 
L 150.630136 140.395261 
L 150.715965 140.574379 
L 150.801794 140.382234 
L 151.059282 137.187888 
L 151.145111 136.756144 
L 151.23094 138.113718 
L 151.316769 137.911338 
L 151.488427 136.062004 
L 151.574257 135.559544 
L 151.660086 134.103339 
L 151.917573 136.746374 
L 152.089232 139.559687 
L 152.175061 139.171676 
L 152.690036 146.091209 
L 152.775865 145.248657 
L 152.947524 141.671417 
L 153.033353 142.075712 
L 153.119182 141.707706 
L 153.205011 142.495825 
L 153.290841 142.162247 
L 153.462499 140.062613 
L 153.548328 139.274029 
L 153.634157 140.144496 
L 153.805816 142.460466 
L 153.891645 142.418595 
L 154.149132 140.830726 
L 154.320791 142.668894 
L 154.40662 142.907098 
L 154.492449 141.781679 
L 154.578278 141.971498 
L 154.749937 141.472294 
L 154.835766 141.800754 
L 154.921595 141.062417 
L 155.007424 141.789123 
L 155.093254 141.485786 
L 155.179083 141.572321 
L 155.779887 153.200094 
L 156.037375 156.209274 
L 156.209033 154.028223 
L 156.294862 155.635632 
L 156.809837 146.897472 
L 156.895667 147.708387 
L 157.067325 146.982611 
L 157.153154 145.450571 
L 157.238983 145.868358 
L 157.410642 147.555323 
L 157.668129 151.595477 
L 157.753958 151.164664 
L 157.839788 152.047226 
L 158.097275 157.270489 
L 158.268934 155.746359 
L 158.354763 155.322524 
L 158.440592 156.650788 
L 158.526421 156.628922 
L 158.69808 155.414177 
L 158.955567 151.534531 
L 159.127226 153.161479 
L 159.213055 153.094019 
L 159.556371 154.516261 
L 159.642201 155.674247 
L 159.813859 153.715116 
L 159.899688 156.87736 
L 159.985517 156.436312 
L 160.071347 156.401419 
L 160.328834 151.790878 
L 160.500493 150.749669 
L 160.586322 152.810222 
L 160.672151 152.713452 
L 160.843809 147.365039 
L 160.929639 147.283622 
L 161.015468 147.960082 
L 161.101297 146.70114 
L 161.187126 147.149167 
L 161.358784 148.603511 
L 161.444614 148.108029 
L 161.530443 148.26435 
L 161.616272 149.145052 
L 161.87376 146.477824 
L 161.959589 148.060109 
L 162.131247 146.418738 
L 162.302906 144.85041 
L 162.388735 145.580374 
L 162.474564 145.425914 
L 162.560393 145.39009 
L 162.817881 149.993186 
L 162.90371 149.792668 
L 163.075368 150.035058 
L 163.161198 151.318193 
L 163.332856 149.735908 
L 163.418685 150.466802 
L 163.504514 150.321647 
L 163.590343 149.140399 
L 163.762002 152.051879 
L 164.019489 150.235577 
L 164.276977 158.991882 
L 164.362806 159.261722 
L 164.877781 168.901984 
L 165.04944 165.901179 
L 165.221098 163.63685 
L 165.564415 157.627794 
L 165.650244 156.778264 
L 165.736073 157.509158 
L 165.907732 155.910589 
L 165.993561 156.094825 
L 166.07939 155.784509 
L 166.251048 153.817469 
L 166.336878 152.012799 
L 166.508536 154.092427 
L 166.680194 154.720502 
L 166.766024 154.939631 
L 166.851853 152.821388 
L 167.023511 154.517192 
L 167.10934 153.837009 
L 167.19517 155.173647 
L 167.280999 154.174774 
L 167.366828 154.48416 
L 167.452657 154.31202 
L 167.881803 160.244311 
L 167.967632 160.526712 
L 168.053461 159.810706 
L 168.22512 160.281065 
L 168.310949 160.34806 
L 168.482607 156.456782 
L 168.740095 160.020995 
L 168.825924 159.83676 
L 168.997583 161.323205 
L 169.083412 161.135248 
L 169.25507 162.444902 
L 169.340899 161.875912 
L 169.512558 157.589179 
L 169.855874 154.536267 
L 169.941704 154.595352 
L 170.113362 152.637617 
L 170.28502 154.411582 
L 170.37085 154.165935 
L 170.456679 154.1664 
L 170.628337 154.549759 
L 170.714166 154.365058 
L 170.885825 156.081333 
L 171.143312 152.159349 
L 171.229142 152.436633 
L 171.4008 155.180161 
L 171.572458 153.011671 
L 171.744117 148.763089 
L 171.829946 148.313201 
L 171.915775 148.554195 
L 172.001604 149.536785 
L 172.087433 149.036651 
L 172.259092 144.093928 
L 172.945725 155.769621 
L 173.117384 158.128394 
L 173.203213 157.22443 
L 173.289042 157.767832 
L 173.374871 156.418633 
L 173.4607 156.852703 
L 173.54653 156.542387 
L 173.804017 151.523365 
L 173.975676 150.254652 
L 174.318992 156.32698 
L 174.57648 161.374847 
L 174.662309 161.077093 
L 174.748138 161.183633 
L 175.348943 148.55373 
L 175.520601 146.488059 
L 175.60643 147.03844 
L 175.692259 149.244148 
L 175.778089 148.654222 
L 175.949747 152.337072 
L 176.035576 152.110964 
L 176.121405 152.155628 
L 176.293064 152.673906 
L 176.464722 157.149061 
L 176.636381 159.315224 
L 176.979697 153.958437 
L 177.151356 154.466015 
L 177.237185 153.897956 
L 177.494672 150.996712 
L 177.666331 150.217433 
L 177.837989 152.437098 
L 178.095477 149.25764 
L 178.181306 149.298581 
L 178.610452 153.241501 
L 178.696281 152.539452 
L 178.86794 154.449267 
L 179.039598 153.127051 
L 179.211256 150.978567 
L 179.297085 151.184669 
L 179.382915 151.715975 
L 179.726231 148.852415 
L 179.89789 151.711787 
L 179.983719 153.692319 
L 180.241207 151.44753 
L 180.327036 151.294931 
L 180.584523 154.444149 
L 180.756182 154.109175 
L 180.842011 153.569961 
L 181.013669 154.249213 
L 181.099499 153.999378 
L 181.700303 143.209505 
L 181.786132 143.303483 
L 181.871961 142.846151 
L 181.95779 143.120178 
L 182.215278 145.461737 
L 182.301107 145.790198 
L 182.386936 147.023552 
L 182.472766 146.700209 
L 182.730253 143.590537 
L 182.901912 143.236489 
L 183.331057 137.729894 
L 183.416887 138.329125 
L 183.674374 142.277161 
L 183.760203 142.65075 
L 184.017691 145.891155 
L 184.275179 151.103717 
L 184.361008 150.500765 
L 184.532666 151.927194 
L 184.618495 152.142136 
L 184.704325 151.991863 
L 184.790154 152.908388 
L 184.875983 152.781842 
L 184.961812 153.207538 
L 185.305129 146.25823 
L 186.077592 133.001648 
L 186.24925 132.30146 
L 186.678396 137.532632 
L 186.764225 136.846401 
L 186.850054 136.92177 
L 187.107542 140.787459 
L 187.193371 141.830995 
L 187.365029 140.629277 
L 187.450859 141.534171 
L 187.708346 146.067481 
L 187.794175 146.014909 
L 187.880005 146.415016 
L 188.051663 144.407966 
L 188.39498 148.347628 
L 188.480809 147.93589 
L 188.566638 147.926585 
L 188.652467 147.590681 
L 188.738297 147.731649 
L 188.824126 146.555519 
L 188.909955 148.009398 
L 189.167443 145.099314 
L 189.339101 142.735424 
L 189.596588 140.733026 
L 189.939905 145.892551 
L 190.111564 148.843575 
L 190.197393 148.51558 
L 190.45488 149.53632 
L 190.969856 138.685499 
L 191.055685 139.385222 
L 191.141514 139.867212 
L 191.227343 138.553371 
L 191.484831 141.665369 
L 191.57066 140.338501 
L 191.742318 142.702857 
L 191.999806 146.683461 
L 192.085635 147.286878 
L 192.171464 146.723937 
L 192.514781 148.897543 
L 192.858098 140.019811 
L 192.943927 139.91141 
L 193.201415 136.501192 
L 193.287244 137.215802 
L 193.373073 136.978995 
L 193.458902 137.64615 
L 193.544731 137.163695 
L 193.802219 138.677125 
L 193.973877 137.272097 
L 194.059706 137.574503 
L 194.145536 136.748235 
L 194.403023 139.801148 
L 194.660511 135.033821 
L 194.832169 136.525384 
L 194.917998 136.653326 
L 195.003828 137.581947 
L 195.089657 135.675854 
L 195.175486 136.20809 
L 195.261315 136.465834 
L 195.77629 144.534512 
L 196.119607 138.893927 
L 196.205436 138.603617 
L 196.291265 139.864886 
L 196.377095 139.516885 
L 196.462924 140.000271 
L 196.548753 138.436595 
L 196.634582 138.478002 
L 196.806241 140.73163 
L 196.89207 140.034699 
L 196.977899 140.352458 
L 197.063728 138.848334 
L 197.321216 129.617483 
L 197.407045 129.409055 
L 197.492874 128.895894 
L 197.664532 129.907794 
L 197.92202 133.159364 
L 198.179508 141.633733 
L 198.436995 142.563285 
L 198.522824 142.585151 
L 198.694483 141.498813 
L 198.780312 141.094983 
L 199.123629 135.934063 
L 199.209458 136.018737 
L 199.295287 135.89917 
L 199.552775 139.238206 
L 199.638604 139.398249 
L 199.724433 140.103089 
L 199.810262 139.96026 
L 199.981921 141.22432 
L 200.239408 140.388747 
L 200.754383 143.206713 
L 200.840213 142.872205 
L 201.011871 143.866425 
L 201.0977 144.96579 
L 201.355188 142.308332 
L 201.612675 146.089813 
L 201.784334 151.345177 
L 201.955992 148.507206 
L 202.12765 151.267017 
L 202.21348 151.7076 
L 202.299309 150.837599 
L 202.642626 139.802543 
L 202.814284 142.12968 
L 203.071772 136.83477 
L 203.157601 135.617234 
L 203.329259 137.431209 
L 203.415088 137.37538 
L 203.500917 136.616572 
L 203.672576 133.769296 
L 203.758405 133.558076 
L 204.015893 136.722647 
L 204.101722 136.655187 
L 204.27338 135.151992 
L 204.616697 134.630922 
L 204.788355 135.468822 
L 204.960014 134.454131 
L 205.131672 135.58141 
L 205.217501 135.527442 
L 205.38916 136.768706 
L 205.474989 137.03715 
L 205.732476 135.941507 
L 205.989964 136.98039 
L 206.247452 134.470414 
L 206.333281 135.753549 
L 206.41911 135.490688 
L 206.504939 136.264384 
L 206.590768 135.125939 
L 206.762427 136.120625 
L 206.848256 135.145479 
L 206.934085 136.177384 
L 207.019914 136.051769 
L 207.277402 132.720642 
L 207.363231 133.021188 
L 207.44906 134.081938 
L 207.534889 133.862809 
L 207.620719 132.864867 
L 207.792377 135.296682 
L 207.878206 134.98404 
L 207.964035 135.782859 
L 208.049865 135.459982 
L 208.135694 136.754748 
L 208.650669 126.978635 
L 208.908157 129.829168 
L 208.993986 129.317403 
L 209.251473 132.816016 
L 209.508961 139.906757 
L 209.766448 136.335566 
L 210.109765 130.234393 
L 210.281424 123.848492 
L 210.367253 123.376738 
L 210.453082 123.850819 
L 210.538911 123.176684 
L 210.882228 124.87528 
L 210.968057 124.470985 
L 211.139716 127.509941 
L 211.311374 125.931842 
L 211.397203 125.6192 
L 211.483032 126.36033 
L 211.568861 124.813403 
L 211.654691 124.974841 
L 211.74052 124.697092 
L 212.083837 128.286893 
L 212.684641 138.673868 
L 213.199616 134.760259 
L 213.285445 135.068249 
L 213.457104 132.898364 
L 213.628762 127.903069 
L 213.88625 131.290025 
L 214.315396 125.482885 
L 214.401225 125.381462 
L 214.487054 126.077463 
L 214.658712 124.65336 
L 214.744542 126.580854 
L 214.830371 126.500832 
L 214.9162 126.551078 
L 215.002029 126.37987 
L 215.087858 126.695768 
L 215.173687 125.854612 
L 215.431175 127.67231 
L 215.517004 126.620865 
L 215.688663 121.526939 
L 215.860321 119.761814 
L 215.94615 118.565679 
L 216.031979 118.971834 
L 216.117809 118.451695 
L 216.203638 119.128155 
L 216.289467 118.781085 
L 216.546955 123.853145 
L 216.804442 130.712661 
L 216.976101 131.386795 
L 217.405246 127.822117 
L 217.576905 124.588691 
L 217.662734 124.630098 
L 217.834392 128.377615 
L 218.006051 127.312678 
L 218.09188 128.660017 
L 218.349368 127.049352 
L 218.435197 126.853485 
L 218.521026 125.824372 
L 218.778514 118.969973 
L 218.864343 118.383304 
L 219.036001 115.862627 
L 219.465147 112.591516 
L 219.550976 110.655183 
L 219.636805 111.949949 
L 219.808464 110.80499 
L 219.980122 108.028431 
L 220.151781 107.484099 
L 220.23761 107.532484 
L 220.323439 107.880019 
L 220.495097 107.124002 
L 220.752585 110.456059 
L 220.838414 110.122947 
L 220.924243 109.024512 
L 221.010073 109.709347 
L 221.095902 109.543721 
L 221.181731 109.768433 
L 221.26756 110.719386 
L 221.439218 108.437378 
L 221.782535 116.400911 
L 221.868364 115.708632 
L 221.954194 116.103622 
L 222.211681 121.817249 
L 222.29751 123.778241 
L 222.469169 121.249655 
L 222.554998 123.201807 
L 222.640827 123.127834 
L 222.812486 123.633551 
L 223.155802 119.325417 
L 223.41329 120.99796 
L 223.670777 118.691294 
L 223.756607 116.788457 
L 223.842436 117.388618 
L 224.185753 109.806583 
L 224.357411 106.466616 
L 224.44324 107.030954 
L 224.614899 105.536599 
L 224.700728 103.510474 
L 224.872386 106.683884 
L 224.958215 106.427536 
L 225.129874 103.500704 
L 225.215703 104.156694 
L 225.301532 102.781906 
L 225.387361 105.899487 
L 225.47319 105.664075 
L 225.644849 107.161686 
L 225.730678 107.1789 
L 225.816507 107.940965 
L 225.902336 110.050369 
L 225.988166 108.415977 
L 226.159824 109.524647 
L 226.245653 106.909061 
L 226.331482 109.31901 
L 226.503141 106.71552 
L 226.58897 106.666205 
L 226.674799 106.256792 
L 226.760628 104.282309 
L 226.846458 104.454448 
L 226.932287 102.939623 
L 227.103945 104.121335 
L 227.189774 103.029414 
L 227.61892 105.732931 
L 227.704749 105.086711 
L 227.876408 106.576413 
L 228.048066 106.815547 
L 228.219725 108.649528 
L 228.305554 107.765104 
L 228.563041 114.140304 
L 228.648871 114.568792 
L 228.7347 114.107738 
L 228.992187 115.494156 
L 229.163846 114.840027 
L 229.335504 109.723304 
L 229.421333 108.671394 
L 229.678821 102.138477 
L 229.76465 101.326631 
L 230.022138 96.683059 
L 230.622942 90.739603 
L 230.708771 91.115518 
L 230.7946 91.855251 
L 230.88043 91.523999 
L 231.052088 92.877851 
L 231.223746 95.721406 
L 231.309575 94.89095 
L 231.395405 95.523213 
L 231.567063 99.775052 
L 231.738721 96.813327 
L 231.824551 97.065487 
L 231.91038 96.681663 
L 231.996209 95.042619 
L 232.253697 97.709381 
L 232.339526 97.076653 
L 232.425355 94.476885 
L 232.854501 105.737118 
L 232.94033 105.475187 
L 233.026159 104.795005 
L 233.197818 109.376235 
L 233.283647 108.814688 
L 233.455305 106.827643 
L 233.712793 99.813667 
L 233.884451 100.997706 
L 234.05611 94.67787 
L 234.227768 95.473897 
L 234.399426 100.770203 
L 234.485256 98.96088 
L 234.571085 99.689913 
L 235.429377 85.430736 
L 235.686864 89.727703 
L 235.772693 88.103081 
L 236.287669 91.196004 
L 236.459327 89.184767 
L 236.545156 89.819821 
L 236.716815 92.102294 
L 236.802644 91.721262 
L 236.888473 92.274434 
L 237.060131 90.673073 
L 237.489277 94.55272 
L 238.004252 87.354973 
L 238.090082 88.896782 
L 238.26174 87.345203 
L 238.433398 85.339083 
L 238.605057 88.14914 
L 238.862544 86.648737 
L 239.205861 79.114156 
L 239.29169 79.963686 
L 239.463349 78.835476 
L 239.978324 88.173798 
L 240.064153 88.125878 
L 240.235811 86.960914 
L 240.321641 87.656449 
L 240.493299 85.794554 
L 240.664957 85.453998 
L 240.836616 82.554615 
L 240.922445 83.036139 
L 241.094103 84.68635 
L 241.179932 84.68635 
L 241.351591 87.200048 
L 241.43742 86.820876 
L 241.523249 86.896711 
L 241.952395 91.477475 
L 242.038224 90.970828 
L 242.124054 89.47973 
L 242.209883 89.586735 
L 242.295712 89.594644 
L 242.46737 93.808799 
L 242.639029 91.561684 
L 242.724858 91.047593 
L 242.896516 88.618568 
L 242.982346 89.381564 
L 243.068175 89.037751 
L 243.154004 89.174531 
L 243.325662 83.474396 
L 243.411491 85.089249 
L 243.497321 85.145077 
L 243.58315 85.631255 
L 243.840637 93.157461 
L 243.926467 92.944381 
L 244.012296 92.274434 
L 244.098125 92.697338 
L 244.527271 90.104083 
L 244.698929 86.23979 
L 244.784759 86.417977 
L 245.128075 89.637912 
L 245.299734 88.021199 
L 245.385563 87.752754 
L 245.72888 89.359697 
L 245.814709 89.520206 
L 246.072196 94.529923 
L 246.158026 95.304549 
L 246.329684 99.623383 
L 246.673001 103.316933 
L 246.75883 103.255056 
L 246.844659 102.867045 
L 246.930488 103.735185 
L 247.016318 102.634424 
L 247.273805 95.682791 
L 247.359634 96.155941 
L 247.445463 95.999155 
L 247.78878 86.930208 
L 247.874609 88.19799 
L 247.960439 89.350858 
L 248.046268 88.924697 
L 248.132097 89.977538 
L 248.303755 89.359697 
L 248.475414 91.856647 
L 248.647072 95.087282 
L 248.732901 94.740212 
L 249.419535 81.138886 
L 249.505364 80.416831 
L 249.591193 80.560591 
L 249.93451 87.252155 
L 250.020339 86.54778 
L 250.363656 90.216206 
L 250.449485 89.965441 
L 250.706973 88.087728 
L 250.878631 86.859026 
L 251.050289 84.561665 
L 251.221948 79.782707 
L 251.307777 80.270746 
L 251.393606 79.977178 
L 251.479435 80.088371 
L 251.822752 85.908073 
L 252.08024 91.410015 
L 252.251898 89.221056 
L 252.337727 88.79536 
L 252.681044 84.071766 
L 252.766873 83.539065 
L 252.852703 81.641811 
L 252.938532 81.691127 
L 253.11019 84.35975 
L 253.196019 84.559339 
L 253.625165 79.224883 
L 253.710994 80.91557 
L 253.968482 76.461351 
L 254.14014 75.246606 
L 254.22597 75.531799 
L 254.483457 76.77911 
L 254.569286 75.775585 
L 254.655116 76.56603 
L 254.826774 79.291413 
L 254.912603 79.187664 
L 254.998432 79.527755 
L 255.084261 79.347242 
L 255.170091 77.692844 
L 255.513407 80.259114 
L 255.770895 74.593407 
L 255.856724 74.505942 
L 255.942553 73.254908 
L 256.114212 75.423398 
L 256.200041 74.758568 
L 256.28587 75.469922 
L 256.371699 75.320114 
L 256.457529 75.255911 
L 256.629187 79.068562 
L 256.715016 79.373295 
L 256.800845 81.55202 
L 256.972504 80.042312 
L 257.144162 78.406059 
L 257.229991 77.379271 
L 257.31582 77.889641 
L 257.40165 75.150301 
L 257.487479 77.285293 
L 257.573308 76.482752 
L 257.744966 72.607758 
L 257.830796 72.868293 
L 257.916625 72.810138 
L 258.088283 72.099249 
L 258.345771 68.539689 
L 258.4316 68.767657 
L 258.603258 71.78335 
L 258.860746 73.266539 
L 259.289892 78.837803 
L 259.375721 77.62678 
L 259.547379 78.91038 
L 259.804867 77.720293 
L 259.890696 78.280909 
L 260.062355 76.289211 
L 260.148184 76.219425 
L 260.319842 78.711722 
L 260.405671 78.08923 
L 260.491501 79.089963 
L 260.57733 78.673107 
L 260.834817 82.954722 
L 261.006476 84.661692 
L 261.349792 79.990205 
L 261.435622 80.251205 
L 261.521451 80.348441 
L 261.778938 79.43145 
L 261.950597 81.739047 
L 262.808889 115.262001 
L 263.581351 167.270383 
L 263.838839 205.871445 
L 263.936514 227.771654 
L 263.936514 227.771654 
" clip-path="url(#p5585e0236b)" style="fill: none; stroke: #1e90ff; stroke-linecap: square"/>
   </g>
   <g id="patch_3">
    <path d="M 40.62 187.591654 
L 40.62 10.8 
" style="fill: none; stroke: #000000; stroke-width: 0.5; stroke-linejoin: miter; stroke-linecap: square"/>
   </g>
   <g id="patch_4">
    <path d="M 271.969724 187.591654 
L 271.969724 10.8 
" style="fill: none; stroke: #000000; stroke-width: 0.5; stroke-linejoin: miter; stroke-linecap: square"/>
   </g>
   <g id="patch_5">
    <path d="M 40.62 187.591654 
L 271.969724 187.591654 
" style="fill: none; stroke: #000000; stroke-width: 0.5; stroke-linejoin: miter; stroke-linecap: square"/>
   </g>
   <g id="patch_6">
    <path d="M 40.62 10.8 
L 271.969724 10.8 
" style="fill: none; stroke: #000000; stroke-width: 0.5; stroke-linejoin: miter; stroke-linecap: square"/>
   </g>
  </g>
 </g>
 <defs>
  <clipPath id="p5585e0236b">
   <rect x="40.62" y="10.8" width="231.349724" height="176.791654"/>
  </clipPath>
 </defs>
</svg>
