<?xml version="1.0" encoding="utf-8" standalone="no"?>
<!DOCTYPE svg PUBLIC "-//W3C//DTD SVG 1.1//EN"
  "http://www.w3.org/Graphics/SVG/1.1/DTD/svg11.dtd">
<svg xmlns:xlink="http://www.w3.org/1999/xlink" width="170.07874pt" height="170.07874pt" viewBox="0 0 170.07874 170.07874" xmlns="http://www.w3.org/2000/svg" version="1.1">
 <metadata>
  <rdf:RDF xmlns:dc="http://purl.org/dc/elements/1.1/" xmlns:cc="http://creativecommons.org/ns#" xmlns:rdf="http://www.w3.org/1999/02/22-rdf-syntax-ns#">
   <cc:Work>
    <dc:type rdf:resource="http://purl.org/dc/dcmitype/StillImage"/>
    <dc:date>2024-04-24T14:43:58.361512</dc:date>
    <dc:format>image/svg+xml</dc:format>
    <dc:creator>
     <cc:Agent>
      <dc:title>Matplotlib v3.6.3, https://matplotlib.org/</dc:title>
     </cc:Agent>
    </dc:creator>
   </cc:Work>
  </rdf:RDF>
 </metadata>
 <defs>
  <style type="text/css">*{stroke-linejoin: round; stroke-linecap: butt}</style>
 </defs>
 <g id="figure_1">
  <g id="patch_1">
   <path d="M 0 170.07874 
L 170.07874 170.07874 
L 170.07874 0 
L 0 0 
z
" style="fill: #ffffff"/>
  </g>
  <g id="axes_1">
   <g id="patch_2">
    <path d="M 40.536302 125.81694 
L 155.553242 125.81694 
L 155.553242 10.8 
L 40.536302 10.8 
z
" style="fill: #ffffff"/>
   </g>
   <g id="matplotlib.axis_1">
    <g id="xtick_1">
     <g id="line2d_1">
      <path d="M 47.108698 125.81694 
L 47.108698 10.8 
" clip-path="url(#pde793c5e9b)" style="fill: none; stroke: #a9a9a9; stroke-opacity: 0.7; stroke-width: 0.5; stroke-linecap: square"/>
     </g>
     <g id="line2d_2">
      <defs>
       <path id="mc75cae5ad8" d="M 0 0 
L 0 2.5 
" style="stroke: #000000; stroke-width: 0.5"/>
      </defs>
      <g>
       <use xlink:href="#mc75cae5ad8" x="47.108698" y="125.81694" style="stroke: #000000; stroke-width: 0.5"/>
      </g>
     </g>
     <g id="text_1">
      <!-- 1 -->
      <g transform="translate(44.606276 135.758971) scale(0.09 -0.09)">
       <defs>
        <path id="ArialMT-31" d="M 2384 0 
L 1822 0 
L 1822 3584 
Q 1619 3391 1289 3197 
Q 959 3003 697 2906 
L 697 3450 
Q 1169 3672 1522 3987 
Q 1875 4303 2022 4600 
L 2384 4600 
L 2384 0 
z
" transform="scale(0.015625)"/>
       </defs>
       <use xlink:href="#ArialMT-31"/>
      </g>
     </g>
    </g>
    <g id="xtick_2">
     <g id="line2d_3">
      <path d="M 79.970681 125.81694 
L 79.970681 10.8 
" clip-path="url(#pde793c5e9b)" style="fill: none; stroke: #a9a9a9; stroke-opacity: 0.7; stroke-width: 0.5; stroke-linecap: square"/>
     </g>
     <g id="line2d_4">
      <g>
       <use xlink:href="#mc75cae5ad8" x="79.970681" y="125.81694" style="stroke: #000000; stroke-width: 0.5"/>
      </g>
     </g>
     <g id="text_2">
      <!-- 2 -->
      <g transform="translate(77.468259 135.758971) scale(0.09 -0.09)">
       <defs>
        <path id="ArialMT-32" d="M 3222 541 
L 3222 0 
L 194 0 
Q 188 203 259 391 
Q 375 700 629 1000 
Q 884 1300 1366 1694 
Q 2113 2306 2375 2664 
Q 2638 3022 2638 3341 
Q 2638 3675 2398 3904 
Q 2159 4134 1775 4134 
Q 1369 4134 1125 3890 
Q 881 3647 878 3216 
L 300 3275 
Q 359 3922 746 4261 
Q 1134 4600 1788 4600 
Q 2447 4600 2831 4234 
Q 3216 3869 3216 3328 
Q 3216 3053 3103 2787 
Q 2991 2522 2730 2228 
Q 2469 1934 1863 1422 
Q 1356 997 1212 845 
Q 1069 694 975 541 
L 3222 541 
z
" transform="scale(0.015625)"/>
       </defs>
       <use xlink:href="#ArialMT-32"/>
      </g>
     </g>
    </g>
    <g id="xtick_3">
     <g id="line2d_5">
      <path d="M 112.832664 125.81694 
L 112.832664 10.8 
" clip-path="url(#pde793c5e9b)" style="fill: none; stroke: #a9a9a9; stroke-opacity: 0.7; stroke-width: 0.5; stroke-linecap: square"/>
     </g>
     <g id="line2d_6">
      <g>
       <use xlink:href="#mc75cae5ad8" x="112.832664" y="125.81694" style="stroke: #000000; stroke-width: 0.5"/>
      </g>
     </g>
     <g id="text_3">
      <!-- 3 -->
      <g transform="translate(110.330242 135.758971) scale(0.09 -0.09)">
       <defs>
        <path id="ArialMT-33" d="M 269 1209 
L 831 1284 
Q 928 806 1161 595 
Q 1394 384 1728 384 
Q 2125 384 2398 659 
Q 2672 934 2672 1341 
Q 2672 1728 2419 1979 
Q 2166 2231 1775 2231 
Q 1616 2231 1378 2169 
L 1441 2663 
Q 1497 2656 1531 2656 
Q 1891 2656 2178 2843 
Q 2466 3031 2466 3422 
Q 2466 3731 2256 3934 
Q 2047 4138 1716 4138 
Q 1388 4138 1169 3931 
Q 950 3725 888 3313 
L 325 3413 
Q 428 3978 793 4289 
Q 1159 4600 1703 4600 
Q 2078 4600 2393 4439 
Q 2709 4278 2876 4000 
Q 3044 3722 3044 3409 
Q 3044 3113 2884 2869 
Q 2725 2625 2413 2481 
Q 2819 2388 3044 2092 
Q 3269 1797 3269 1353 
Q 3269 753 2831 336 
Q 2394 -81 1725 -81 
Q 1122 -81 723 278 
Q 325 638 269 1209 
z
" transform="scale(0.015625)"/>
       </defs>
       <use xlink:href="#ArialMT-33"/>
      </g>
     </g>
    </g>
    <g id="xtick_4">
     <g id="line2d_7">
      <path d="M 145.694647 125.81694 
L 145.694647 10.8 
" clip-path="url(#pde793c5e9b)" style="fill: none; stroke: #a9a9a9; stroke-opacity: 0.7; stroke-width: 0.5; stroke-linecap: square"/>
     </g>
     <g id="line2d_8">
      <g>
       <use xlink:href="#mc75cae5ad8" x="145.694647" y="125.81694" style="stroke: #000000; stroke-width: 0.5"/>
      </g>
     </g>
     <g id="text_4">
      <!-- 4 -->
      <g transform="translate(143.192225 135.758971) scale(0.09 -0.09)">
       <defs>
        <path id="ArialMT-34" d="M 2069 0 
L 2069 1097 
L 81 1097 
L 81 1613 
L 2172 4581 
L 2631 4581 
L 2631 1613 
L 3250 1613 
L 3250 1097 
L 2631 1097 
L 2631 0 
L 2069 0 
z
M 2069 1613 
L 2069 3678 
L 634 1613 
L 2069 1613 
z
" transform="scale(0.015625)"/>
       </defs>
       <use xlink:href="#ArialMT-34"/>
      </g>
     </g>
    </g>
    <g id="xtick_5">
     <g id="line2d_9">
      <path d="M 63.53969 125.81694 
L 63.53969 10.8 
" clip-path="url(#pde793c5e9b)" style="fill: none; stroke: #d3d3d3; stroke-opacity: 0.5; stroke-width: 0.3; stroke-linecap: square"/>
     </g>
     <g id="line2d_10">
      <defs>
       <path id="m13587390b3" d="M 0 0 
L 0 1 
" style="stroke: #000000; stroke-width: 0.3"/>
      </defs>
      <g>
       <use xlink:href="#m13587390b3" x="63.53969" y="125.81694" style="stroke: #000000; stroke-width: 0.3"/>
      </g>
     </g>
    </g>
    <g id="xtick_6">
     <g id="line2d_11">
      <path d="M 96.401673 125.81694 
L 96.401673 10.8 
" clip-path="url(#pde793c5e9b)" style="fill: none; stroke: #d3d3d3; stroke-opacity: 0.5; stroke-width: 0.3; stroke-linecap: square"/>
     </g>
     <g id="line2d_12">
      <g>
       <use xlink:href="#m13587390b3" x="96.401673" y="125.81694" style="stroke: #000000; stroke-width: 0.3"/>
      </g>
     </g>
    </g>
    <g id="xtick_7">
     <g id="line2d_13">
      <path d="M 129.263655 125.81694 
L 129.263655 10.8 
" clip-path="url(#pde793c5e9b)" style="fill: none; stroke: #d3d3d3; stroke-opacity: 0.5; stroke-width: 0.3; stroke-linecap: square"/>
     </g>
     <g id="line2d_14">
      <g>
       <use xlink:href="#m13587390b3" x="129.263655" y="125.81694" style="stroke: #000000; stroke-width: 0.3"/>
      </g>
     </g>
    </g>
    <g id="text_5">
     <!-- $\frac{\left\langle d_{nuc}\right\rangle}{\ell_{eye}\,/\,2}$ -->
     <g transform="translate(86.844772 150.047721) scale(0.1 -0.1)">
      <defs>
       <path id="DejaVuSans-27e8" d="M 572 2006 
L 1453 4856 
L 1984 4856 
L 1103 2006 
L 1984 -844 
L 1453 -844 
L 572 2006 
z
" transform="scale(0.015625)"/>
       <path id="DejaVuSans-Oblique-64" d="M 2675 525 
Q 2444 222 2128 65 
Q 1813 -91 1428 -91 
Q 903 -91 598 267 
Q 294 625 294 1247 
Q 294 1766 478 2236 
Q 663 2706 1013 3078 
Q 1244 3325 1534 3454 
Q 1825 3584 2144 3584 
Q 2481 3584 2739 3421 
Q 2997 3259 3138 2956 
L 3513 4863 
L 4091 4863 
L 3144 0 
L 2566 0 
L 2675 525 
z
M 891 1350 
Q 891 897 1095 644 
Q 1300 391 1663 391 
Q 1931 391 2161 520 
Q 2391 650 2566 903 
Q 2750 1166 2856 1509 
Q 2963 1853 2963 2188 
Q 2963 2622 2758 2865 
Q 2553 3109 2194 3109 
Q 1922 3109 1687 2981 
Q 1453 2853 1288 2613 
Q 1106 2353 998 2009 
Q 891 1666 891 1350 
z
" transform="scale(0.015625)"/>
       <path id="DejaVuSans-Oblique-6e" d="M 3566 2113 
L 3156 0 
L 2578 0 
L 2988 2091 
Q 3016 2238 3031 2350 
Q 3047 2463 3047 2528 
Q 3047 2791 2881 2937 
Q 2716 3084 2419 3084 
Q 1956 3084 1622 2776 
Q 1288 2469 1184 1941 
L 800 0 
L 225 0 
L 903 3500 
L 1478 3500 
L 1363 2950 
Q 1603 3253 1940 3418 
Q 2278 3584 2650 3584 
Q 3113 3584 3367 3334 
Q 3622 3084 3622 2631 
Q 3622 2519 3608 2391 
Q 3594 2263 3566 2113 
z
" transform="scale(0.015625)"/>
       <path id="DejaVuSans-Oblique-75" d="M 428 1388 
L 838 3500 
L 1416 3500 
L 1006 1409 
Q 975 1256 961 1147 
Q 947 1038 947 966 
Q 947 700 1109 554 
Q 1272 409 1569 409 
Q 2031 409 2368 721 
Q 2706 1034 2809 1563 
L 3194 3500 
L 3769 3500 
L 3091 0 
L 2516 0 
L 2631 550 
Q 2388 244 2052 76 
Q 1716 -91 1338 -91 
Q 878 -91 622 161 
Q 366 413 366 863 
Q 366 956 381 1097 
Q 397 1238 428 1388 
z
" transform="scale(0.015625)"/>
       <path id="DejaVuSans-Oblique-63" d="M 3431 3366 
L 3316 2797 
Q 3109 2947 2876 3022 
Q 2644 3097 2394 3097 
Q 2119 3097 1870 3000 
Q 1622 2903 1453 2725 
Q 1184 2453 1037 2087 
Q 891 1722 891 1331 
Q 891 859 1127 628 
Q 1363 397 1844 397 
Q 2081 397 2348 469 
Q 2616 541 2906 684 
L 2797 116 
Q 2547 13 2283 -39 
Q 2019 -91 1741 -91 
Q 1044 -91 669 257 
Q 294 606 294 1253 
Q 294 1797 489 2255 
Q 684 2713 1069 3078 
Q 1331 3328 1684 3456 
Q 2038 3584 2456 3584 
Q 2700 3584 2940 3529 
Q 3181 3475 3431 3366 
z
" transform="scale(0.015625)"/>
       <path id="DejaVuSans-27e9" d="M 1925 2006 
L 1044 -844 
L 513 -844 
L 1394 2006 
L 513 4856 
L 1044 4856 
L 1925 2006 
z
" transform="scale(0.015625)"/>
       <path id="DejaVuSans-Oblique-2113" d="M 950 838 
Q 1078 213 1350 213 
Q 1531 213 1766 572 
L 2181 572 
Q 1994 253 1775 88 
Q 1538 -91 1319 -91 
Q 831 -91 634 344 
L 400 0 
L -88 0 
Q 250 459 500 888 
Q 469 1131 469 1397 
Q 469 1872 566 2347 
Q 931 4131 1256 4497 
Q 1481 4750 1866 4750 
Q 2256 4750 2256 4209 
Q 2253 3966 2197 3675 
Q 1972 2484 950 838 
z
M 947 1656 
Q 1531 2744 1709 3613 
Q 1803 4072 1803 4191 
Q 1803 4406 1725 4406 
Q 1384 4134 1081 2516 
Q 997 2063 947 1656 
z
" transform="scale(0.015625)"/>
       <path id="DejaVuSans-Oblique-65" d="M 3078 2063 
Q 3088 2113 3092 2166 
Q 3097 2219 3097 2272 
Q 3097 2653 2873 2875 
Q 2650 3097 2266 3097 
Q 1838 3097 1509 2826 
Q 1181 2556 1013 2059 
L 3078 2063 
z
M 3578 1613 
L 903 1613 
Q 884 1494 878 1425 
Q 872 1356 872 1306 
Q 872 872 1139 634 
Q 1406 397 1894 397 
Q 2269 397 2603 481 
Q 2938 566 3225 728 
L 3116 159 
Q 2806 34 2476 -28 
Q 2147 -91 1806 -91 
Q 1078 -91 686 257 
Q 294 606 294 1247 
Q 294 1794 489 2264 
Q 684 2734 1063 3103 
Q 1306 3334 1642 3459 
Q 1978 3584 2356 3584 
Q 2950 3584 3301 3228 
Q 3653 2872 3653 2272 
Q 3653 2128 3634 1964 
Q 3616 1800 3578 1613 
z
" transform="scale(0.015625)"/>
       <path id="DejaVuSans-Oblique-79" d="M 1588 -325 
Q 1188 -997 936 -1164 
Q 684 -1331 294 -1331 
L -159 -1331 
L -63 -850 
L 269 -850 
Q 509 -850 678 -719 
Q 847 -588 1056 -206 
L 1234 128 
L 459 3500 
L 1069 3500 
L 1650 819 
L 3256 3500 
L 3859 3500 
L 1588 -325 
z
" transform="scale(0.015625)"/>
       <path id="DejaVuSans-2f" d="M 1625 4666 
L 2156 4666 
L 531 -594 
L 0 -594 
L 1625 4666 
z
" transform="scale(0.015625)"/>
       <path id="DejaVuSans-32" d="M 1228 531 
L 3431 531 
L 3431 0 
L 469 0 
L 469 531 
Q 828 903 1448 1529 
Q 2069 2156 2228 2338 
Q 2531 2678 2651 2914 
Q 2772 3150 2772 3378 
Q 2772 3750 2511 3984 
Q 2250 4219 1831 4219 
Q 1534 4219 1204 4116 
Q 875 4013 500 3803 
L 500 4441 
Q 881 4594 1212 4672 
Q 1544 4750 1819 4750 
Q 2544 4750 2975 4387 
Q 3406 4025 3406 3419 
Q 3406 3131 3298 2873 
Q 3191 2616 2906 2266 
Q 2828 2175 2409 1742 
Q 1991 1309 1228 531 
z
" transform="scale(0.015625)"/>
      </defs>
      <use xlink:href="#DejaVuSans-27e8" transform="translate(10 56.810938) scale(0.7)"/>
      <use xlink:href="#DejaVuSans-Oblique-64" transform="translate(37.30957 56.810938) scale(0.7)"/>
      <use xlink:href="#DejaVuSans-Oblique-6e" transform="translate(81.743164 45.326562) scale(0.49)"/>
      <use xlink:href="#DejaVuSans-Oblique-75" transform="translate(112.798828 45.326562) scale(0.49)"/>
      <use xlink:href="#DejaVuSans-Oblique-63" transform="translate(143.854492 45.326562) scale(0.49)"/>
      <use xlink:href="#DejaVuSans-27e9" transform="translate(172.708984 56.810938) scale(0.7)"/>
      <use xlink:href="#DejaVuSans-Oblique-2113" transform="translate(0 -38.573281) scale(0.7)"/>
      <use xlink:href="#DejaVuSans-Oblique-65" transform="translate(28.916016 -50.057656) scale(0.49)"/>
      <use xlink:href="#DejaVuSans-Oblique-79" transform="translate(59.0625 -50.057656) scale(0.49)"/>
      <use xlink:href="#DejaVuSans-Oblique-65" transform="translate(88.060547 -50.057656) scale(0.49)"/>
      <use xlink:href="#DejaVuSans-2f" transform="translate(131.486067 -38.573281) scale(0.7)"/>
      <use xlink:href="#DejaVuSans-32" transform="translate(166.435025 -38.573281) scale(0.7)"/>
      <path d="M 0 19.629844 
L 0 25.879844 
L 210.971158 25.879844 
L 210.971158 19.629844 
L 0 19.629844 
z
"/>
     </g>
    </g>
   </g>
   <g id="matplotlib.axis_2">
    <g id="ytick_1">
     <g id="line2d_15">
      <path d="M 40.536302 119.244544 
L 155.553242 119.244544 
" clip-path="url(#pde793c5e9b)" style="fill: none; stroke: #a9a9a9; stroke-opacity: 0.7; stroke-width: 0.5; stroke-linecap: square"/>
     </g>
     <g id="line2d_16">
      <defs>
       <path id="mf3c08af873" d="M 0 0 
L -2.5 0 
" style="stroke: #000000; stroke-width: 0.5"/>
      </defs>
      <g>
       <use xlink:href="#mf3c08af873" x="40.536302" y="119.244544" style="stroke: #000000; stroke-width: 0.5"/>
      </g>
     </g>
     <g id="text_6">
      <!-- 1 -->
      <g transform="translate(32.031458 122.465559) scale(0.09 -0.09)">
       <use xlink:href="#ArialMT-31"/>
      </g>
     </g>
    </g>
    <g id="ytick_2">
     <g id="line2d_17">
      <path d="M 40.536302 86.382561 
L 155.553242 86.382561 
" clip-path="url(#pde793c5e9b)" style="fill: none; stroke: #a9a9a9; stroke-opacity: 0.7; stroke-width: 0.5; stroke-linecap: square"/>
     </g>
     <g id="line2d_18">
      <g>
       <use xlink:href="#mf3c08af873" x="40.536302" y="86.382561" style="stroke: #000000; stroke-width: 0.5"/>
      </g>
     </g>
     <g id="text_7">
      <!-- 2 -->
      <g transform="translate(32.031458 89.603576) scale(0.09 -0.09)">
       <use xlink:href="#ArialMT-32"/>
      </g>
     </g>
    </g>
    <g id="ytick_3">
     <g id="line2d_19">
      <path d="M 40.536302 53.520578 
L 155.553242 53.520578 
" clip-path="url(#pde793c5e9b)" style="fill: none; stroke: #a9a9a9; stroke-opacity: 0.7; stroke-width: 0.5; stroke-linecap: square"/>
     </g>
     <g id="line2d_20">
      <g>
       <use xlink:href="#mf3c08af873" x="40.536302" y="53.520578" style="stroke: #000000; stroke-width: 0.5"/>
      </g>
     </g>
     <g id="text_8">
      <!-- 3 -->
      <g transform="translate(32.031458 56.741593) scale(0.09 -0.09)">
       <use xlink:href="#ArialMT-33"/>
      </g>
     </g>
    </g>
    <g id="ytick_4">
     <g id="line2d_21">
      <path d="M 40.536302 20.658595 
L 155.553242 20.658595 
" clip-path="url(#pde793c5e9b)" style="fill: none; stroke: #a9a9a9; stroke-opacity: 0.7; stroke-width: 0.5; stroke-linecap: square"/>
     </g>
     <g id="line2d_22">
      <g>
       <use xlink:href="#mf3c08af873" x="40.536302" y="20.658595" style="stroke: #000000; stroke-width: 0.5"/>
      </g>
     </g>
     <g id="text_9">
      <!-- 4 -->
      <g transform="translate(32.031458 23.87961) scale(0.09 -0.09)">
       <use xlink:href="#ArialMT-34"/>
      </g>
     </g>
    </g>
    <g id="ytick_5">
     <g id="line2d_23">
      <path d="M 40.536302 102.813552 
L 155.553242 102.813552 
" clip-path="url(#pde793c5e9b)" style="fill: none; stroke: #d3d3d3; stroke-opacity: 0.5; stroke-width: 0.3; stroke-linecap: square"/>
     </g>
     <g id="line2d_24">
      <defs>
       <path id="mec270b9a3e" d="M 0 0 
L -1 0 
" style="stroke: #000000; stroke-width: 0.3"/>
      </defs>
      <g>
       <use xlink:href="#mec270b9a3e" x="40.536302" y="102.813552" style="stroke: #000000; stroke-width: 0.3"/>
      </g>
     </g>
    </g>
    <g id="ytick_6">
     <g id="line2d_25">
      <path d="M 40.536302 69.951569 
L 155.553242 69.951569 
" clip-path="url(#pde793c5e9b)" style="fill: none; stroke: #d3d3d3; stroke-opacity: 0.5; stroke-width: 0.3; stroke-linecap: square"/>
     </g>
     <g id="line2d_26">
      <g>
       <use xlink:href="#mec270b9a3e" x="40.536302" y="69.951569" style="stroke: #000000; stroke-width: 0.3"/>
      </g>
     </g>
    </g>
    <g id="ytick_7">
     <g id="line2d_27">
      <path d="M 40.536302 37.089586 
L 155.553242 37.089586 
" clip-path="url(#pde793c5e9b)" style="fill: none; stroke: #d3d3d3; stroke-opacity: 0.5; stroke-width: 0.3; stroke-linecap: square"/>
     </g>
     <g id="line2d_28">
      <g>
       <use xlink:href="#mec270b9a3e" x="40.536302" y="37.089586" style="stroke: #000000; stroke-width: 0.3"/>
      </g>
     </g>
    </g>
    <g id="text_10">
     <!-- $\left\langle\ell_{slip}\right\rangle\,/\,\ell_{eye}$ -->
     <g transform="translate(24.931458 93.35847) rotate(-90) scale(0.1 -0.1)">
      <defs>
       <path id="STIXSizeOneSym-Regular-27e8" d="M 2957 -1050 
L 2477 -1050 
L 742 2886 
L 2477 6822 
L 2957 6822 
L 1222 2886 
L 2957 -1050 
z
" transform="scale(0.015625)"/>
       <path id="DejaVuSans-Oblique-73" d="M 3200 3397 
L 3091 2853 
Q 2863 2978 2609 3040 
Q 2356 3103 2088 3103 
Q 1634 3103 1373 2948 
Q 1113 2794 1113 2528 
Q 1113 2219 1719 2053 
Q 1766 2041 1788 2034 
L 1972 1978 
Q 2547 1819 2739 1644 
Q 2931 1469 2931 1166 
Q 2931 609 2489 259 
Q 2047 -91 1331 -91 
Q 1053 -91 747 -37 
Q 441 16 72 128 
L 184 722 
Q 500 559 806 475 
Q 1113 391 1394 391 
Q 1816 391 2080 572 
Q 2344 753 2344 1031 
Q 2344 1331 1650 1516 
L 1591 1531 
L 1394 1581 
Q 956 1697 753 1886 
Q 550 2075 550 2369 
Q 550 2928 970 3256 
Q 1391 3584 2113 3584 
Q 2397 3584 2667 3537 
Q 2938 3491 3200 3397 
z
" transform="scale(0.015625)"/>
       <path id="DejaVuSans-Oblique-6c" d="M 1172 4863 
L 1747 4863 
L 800 0 
L 225 0 
L 1172 4863 
z
" transform="scale(0.015625)"/>
       <path id="DejaVuSans-Oblique-69" d="M 1172 4863 
L 1747 4863 
L 1606 4134 
L 1031 4134 
L 1172 4863 
z
M 909 3500 
L 1484 3500 
L 800 0 
L 225 0 
L 909 3500 
z
" transform="scale(0.015625)"/>
       <path id="DejaVuSans-Oblique-70" d="M 3175 2156 
Q 3175 2616 2975 2859 
Q 2775 3103 2400 3103 
Q 2144 3103 1911 2972 
Q 1678 2841 1497 2591 
Q 1319 2344 1212 1994 
Q 1106 1644 1106 1300 
Q 1106 863 1306 627 
Q 1506 391 1875 391 
Q 2147 391 2380 519 
Q 2613 647 2778 891 
Q 2956 1147 3065 1494 
Q 3175 1841 3175 2156 
z
M 1394 2969 
Q 1625 3272 1939 3428 
Q 2253 3584 2638 3584 
Q 3175 3584 3472 3232 
Q 3769 2881 3769 2247 
Q 3769 1728 3584 1258 
Q 3400 788 3053 416 
Q 2822 169 2531 39 
Q 2241 -91 1919 -91 
Q 1547 -91 1294 64 
Q 1041 219 916 525 
L 556 -1331 
L -19 -1331 
L 922 3500 
L 1497 3500 
L 1394 2969 
z
" transform="scale(0.015625)"/>
       <path id="STIXSizeOneSym-Regular-27e9" d="M 2957 2886 
L 1222 -1050 
L 742 -1050 
L 2477 2886 
L 742 6822 
L 1222 6822 
L 2957 2886 
z
" transform="scale(0.015625)"/>
      </defs>
      <use xlink:href="#STIXSizeOneSym-Regular-27e8" transform="translate(0 -16.167187) scale(0.855145)"/>
      <use xlink:href="#DejaVuSans-Oblique-2113" transform="translate(49.418991 0.78125)"/>
      <use xlink:href="#DejaVuSans-Oblique-73" transform="translate(90.727585 -15.625) scale(0.7)"/>
      <use xlink:href="#DejaVuSans-Oblique-6c" transform="translate(127.197311 -15.625) scale(0.7)"/>
      <use xlink:href="#DejaVuSans-Oblique-69" transform="translate(146.645554 -15.625) scale(0.7)"/>
      <use xlink:href="#DejaVuSans-Oblique-70" transform="translate(166.093796 -15.625) scale(0.7)"/>
      <use xlink:href="#STIXSizeOneSym-Regular-27e9" transform="translate(213.261765 -16.167187) scale(0.855145)"/>
      <use xlink:href="#DejaVuSans-2f" transform="translate(278.916432 0.78125)"/>
      <use xlink:href="#DejaVuSans-Oblique-2113" transform="translate(328.843514 0.78125)"/>
      <use xlink:href="#DejaVuSans-Oblique-65" transform="translate(370.152108 -15.625) scale(0.7)"/>
      <use xlink:href="#DejaVuSans-Oblique-79" transform="translate(413.218514 -15.625) scale(0.7)"/>
      <use xlink:href="#DejaVuSans-Oblique-65" transform="translate(454.644296 -15.625) scale(0.7)"/>
     </g>
    </g>
   </g>
   <g id="LineCollection_1">
    <path d="M 75.974321 104.110736 
L 120.480356 104.110736 
" clip-path="url(#pde793c5e9b)" style="fill: none; stroke: #808080; stroke-width: 0.5"/>
    <path d="M 74.592538 80.175297 
L 135.343978 80.175297 
" clip-path="url(#pde793c5e9b)" style="fill: none; stroke: #808080; stroke-width: 0.5"/>
    <path d="M 86.410172 63.618791 
L 137.019647 63.618791 
" clip-path="url(#pde793c5e9b)" style="fill: none; stroke: #808080; stroke-width: 0.5"/>
    <path d="M 106.601477 54.652189 
L 141.783246 54.652189 
" clip-path="url(#pde793c5e9b)" style="fill: none; stroke: #808080; stroke-width: 0.5"/>
   </g>
   <g id="LineCollection_2">
    <path d="M 98.227338 121.541116 
L 98.227338 86.680356 
" clip-path="url(#pde793c5e9b)" style="fill: none; stroke: #808080; stroke-width: 0.5"/>
    <path d="M 104.968258 107.768832 
L 104.968258 52.581763 
" clip-path="url(#pde793c5e9b)" style="fill: none; stroke: #808080; stroke-width: 0.5"/>
    <path d="M 111.714909 90.079076 
L 111.714909 37.158506 
" clip-path="url(#pde793c5e9b)" style="fill: none; stroke: #808080; stroke-width: 0.5"/>
    <path d="M 124.192362 72.754682 
L 124.192362 36.549695 
" clip-path="url(#pde793c5e9b)" style="fill: none; stroke: #808080; stroke-width: 0.5"/>
   </g>
   <g id="line2d_29">
    <defs>
     <path id="m30ecff201c" d="M 0 1.5 
L 0 -1.5 
" style="stroke: #808080; stroke-width: 0.5"/>
    </defs>
    <g clip-path="url(#pde793c5e9b)">
     <use xlink:href="#m30ecff201c" x="75.974321" y="104.110736" style="fill: #808080; stroke: #808080; stroke-width: 0.5"/>
     <use xlink:href="#m30ecff201c" x="74.592538" y="80.175297" style="fill: #808080; stroke: #808080; stroke-width: 0.5"/>
     <use xlink:href="#m30ecff201c" x="86.410172" y="63.618791" style="fill: #808080; stroke: #808080; stroke-width: 0.5"/>
     <use xlink:href="#m30ecff201c" x="106.601477" y="54.652189" style="fill: #808080; stroke: #808080; stroke-width: 0.5"/>
    </g>
   </g>
   <g id="line2d_30">
    <g clip-path="url(#pde793c5e9b)">
     <use xlink:href="#m30ecff201c" x="120.480356" y="104.110736" style="fill: #808080; stroke: #808080; stroke-width: 0.5"/>
     <use xlink:href="#m30ecff201c" x="135.343978" y="80.175297" style="fill: #808080; stroke: #808080; stroke-width: 0.5"/>
     <use xlink:href="#m30ecff201c" x="137.019647" y="63.618791" style="fill: #808080; stroke: #808080; stroke-width: 0.5"/>
     <use xlink:href="#m30ecff201c" x="141.783246" y="54.652189" style="fill: #808080; stroke: #808080; stroke-width: 0.5"/>
    </g>
   </g>
   <g id="line2d_31">
    <defs>
     <path id="m16a71223cc" d="M 1.5 0 
L -1.5 -0 
" style="stroke: #808080; stroke-width: 0.5"/>
    </defs>
    <g clip-path="url(#pde793c5e9b)">
     <use xlink:href="#m16a71223cc" x="98.227338" y="121.541116" style="fill: #808080; stroke: #808080; stroke-width: 0.5"/>
     <use xlink:href="#m16a71223cc" x="104.968258" y="107.768832" style="fill: #808080; stroke: #808080; stroke-width: 0.5"/>
     <use xlink:href="#m16a71223cc" x="111.714909" y="90.079076" style="fill: #808080; stroke: #808080; stroke-width: 0.5"/>
     <use xlink:href="#m16a71223cc" x="124.192362" y="72.754682" style="fill: #808080; stroke: #808080; stroke-width: 0.5"/>
    </g>
   </g>
   <g id="line2d_32">
    <g clip-path="url(#pde793c5e9b)">
     <use xlink:href="#m16a71223cc" x="98.227338" y="86.680356" style="fill: #808080; stroke: #808080; stroke-width: 0.5"/>
     <use xlink:href="#m16a71223cc" x="104.968258" y="52.581763" style="fill: #808080; stroke: #808080; stroke-width: 0.5"/>
     <use xlink:href="#m16a71223cc" x="111.714909" y="37.158506" style="fill: #808080; stroke: #808080; stroke-width: 0.5"/>
     <use xlink:href="#m16a71223cc" x="124.192362" y="36.549695" style="fill: #808080; stroke: #808080; stroke-width: 0.5"/>
    </g>
   </g>
   <g id="PathCollection_1">
    <defs>
     <path id="m7cf8c87ef6" d="M -0 3.872983 
L 2.32379 0 
L 0 -3.872983 
L -2.32379 -0 
z
" style="stroke: #000000; stroke-width: 0.01"/>
    </defs>
    <g clip-path="url(#pde793c5e9b)">
     <use xlink:href="#m7cf8c87ef6" x="98.227338" y="104.110736" style="fill: #1e90ff; stroke: #000000; stroke-width: 0.01"/>
     <use xlink:href="#m7cf8c87ef6" x="104.968258" y="80.175297" style="fill: #1e90ff; stroke: #000000; stroke-width: 0.01"/>
     <use xlink:href="#m7cf8c87ef6" x="111.714909" y="63.618791" style="fill: #1e90ff; stroke: #000000; stroke-width: 0.01"/>
     <use xlink:href="#m7cf8c87ef6" x="124.192362" y="54.652189" style="fill: #1e90ff; stroke: #000000; stroke-width: 0.01"/>
    </g>
   </g>
   <g id="LineCollection_3">
    <path d="M 84.593449 103.85679 
L 107.214078 103.85679 
" clip-path="url(#pde793c5e9b)" style="fill: none; stroke: #808080; stroke-width: 0.5"/>
   </g>
   <g id="LineCollection_4">
    <path d="M 95.903764 115.147155 
L 95.903764 92.566424 
" clip-path="url(#pde793c5e9b)" style="fill: none; stroke: #808080; stroke-width: 0.5"/>
   </g>
   <g id="line2d_33">
    <g clip-path="url(#pde793c5e9b)">
     <use xlink:href="#m30ecff201c" x="84.593449" y="103.85679" style="fill: #808080; stroke: #808080; stroke-width: 0.5"/>
    </g>
   </g>
   <g id="line2d_34">
    <g clip-path="url(#pde793c5e9b)">
     <use xlink:href="#m30ecff201c" x="107.214078" y="103.85679" style="fill: #808080; stroke: #808080; stroke-width: 0.5"/>
    </g>
   </g>
   <g id="line2d_35">
    <g clip-path="url(#pde793c5e9b)">
     <use xlink:href="#m16a71223cc" x="95.903764" y="115.147155" style="fill: #808080; stroke: #808080; stroke-width: 0.5"/>
    </g>
   </g>
   <g id="line2d_36">
    <g clip-path="url(#pde793c5e9b)">
     <use xlink:href="#m16a71223cc" x="95.903764" y="92.566424" style="fill: #808080; stroke: #808080; stroke-width: 0.5"/>
    </g>
   </g>
   <g id="PathCollection_2">
    <defs>
     <path id="m4880d2a0c0" d="M 0 2.236068 
C 0.593012 2.236068 1.161816 2.000462 1.581139 1.581139 
C 2.000462 1.161816 2.236068 0.593012 2.236068 0 
C 2.236068 -0.593012 2.000462 -1.161816 1.581139 -1.581139 
C 1.161816 -2.000462 0.593012 -2.236068 0 -2.236068 
C -0.593012 -2.236068 -1.161816 -2.000462 -1.581139 -1.581139 
C -2.000462 -1.161816 -2.236068 -0.593012 -2.236068 0 
C -2.236068 0.593012 -2.000462 1.161816 -1.581139 1.581139 
C -1.161816 2.000462 -0.593012 2.236068 0 2.236068 
z
" style="stroke: #000000; stroke-width: 0.01"/>
    </defs>
    <g clip-path="url(#pde793c5e9b)">
     <use xlink:href="#m4880d2a0c0" x="95.903764" y="103.85679" style="fill: #000080; stroke: #000000; stroke-width: 0.01"/>
    </g>
   </g>
   <g id="line2d_37">
    <path d="M 14.246715 152.106526 
L 155.553242 10.8 
" clip-path="url(#pde793c5e9b)" style="fill: none; stroke-dasharray: 3.7,1.6; stroke-dashoffset: 0; stroke: #000000"/>
   </g>
   <g id="line2d_38"/>
   <g id="line2d_39"/>
   <g id="patch_3">
    <path d="M 40.536302 125.81694 
L 40.536302 10.8 
" style="fill: none; stroke: #000000; stroke-width: 0.5; stroke-linejoin: miter; stroke-linecap: square"/>
   </g>
   <g id="patch_4">
    <path d="M 155.553242 125.81694 
L 155.553242 10.8 
" style="fill: none; stroke: #000000; stroke-width: 0.5; stroke-linejoin: miter; stroke-linecap: square"/>
   </g>
   <g id="patch_5">
    <path d="M 40.536302 125.81694 
L 155.553242 125.81694 
" style="fill: none; stroke: #000000; stroke-width: 0.5; stroke-linejoin: miter; stroke-linecap: square"/>
   </g>
   <g id="patch_6">
    <path d="M 40.536302 10.8 
L 155.553242 10.8 
" style="fill: none; stroke: #000000; stroke-width: 0.5; stroke-linejoin: miter; stroke-linecap: square"/>
   </g>
  </g>
 </g>
 <defs>
  <clipPath id="pde793c5e9b">
   <rect x="40.536302" y="10.8" width="115.01694" height="115.01694"/>
  </clipPath>
 </defs>
</svg>
