<?xml version="1.0" encoding="utf-8" standalone="no"?>
<!DOCTYPE svg PUBLIC "-//W3C//DTD SVG 1.1//EN"
  "http://www.w3.org/Graphics/SVG/1.1/DTD/svg11.dtd">
<svg xmlns:xlink="http://www.w3.org/1999/xlink" width="170.07874pt" height="170.07874pt" viewBox="0 0 170.07874 170.07874" xmlns="http://www.w3.org/2000/svg" version="1.1">
 <metadata>
  <rdf:RDF xmlns:dc="http://purl.org/dc/elements/1.1/" xmlns:cc="http://creativecommons.org/ns#" xmlns:rdf="http://www.w3.org/1999/02/22-rdf-syntax-ns#">
   <cc:Work>
    <dc:type rdf:resource="http://purl.org/dc/dcmitype/StillImage"/>
    <dc:date>2024-04-25T08:33:26.947845</dc:date>
    <dc:format>image/svg+xml</dc:format>
    <dc:creator>
     <cc:Agent>
      <dc:title>Matplotlib v3.6.3, https://matplotlib.org/</dc:title>
     </cc:Agent>
    </dc:creator>
   </cc:Work>
  </rdf:RDF>
 </metadata>
 <defs>
  <style type="text/css">*{stroke-linejoin: round; stroke-linecap: butt}</style>
 </defs>
 <g id="figure_1">
  <g id="patch_1">
   <path d="M 0 170.07874 
L 170.07874 170.07874 
L 170.07874 0 
L 0 0 
z
" style="fill: #ffffff"/>
  </g>
  <g id="axes_1">
   <g id="patch_2">
    <path d="M 40.62 130.89874 
L 152.97874 130.89874 
L 152.97874 10.8 
L 40.62 10.8 
z
" style="fill: #ffffff"/>
   </g>
   <g id="PathCollection_1">
    <defs>
     <path id="mbf61764059" d="M -0 1.369306 
L 0.821584 0 
L 0 -1.369306 
L -0.821584 -0 
z
"/>
    </defs>
    <g clip-path="url(#p59e0d96d43)">
     <use xlink:href="#mbf61764059" x="78.009933" y="73.221807" style="fill: #b0c4de; fill-opacity: 0.5"/>
     <use xlink:href="#mbf61764059" x="72.260674" y="60.838709" style="fill: #b0c4de; fill-opacity: 0.5"/>
     <use xlink:href="#mbf61764059" x="62.252487" y="21.718067" style="fill: #b0c4de; fill-opacity: 0.5"/>
     <use xlink:href="#mbf61764059" x="67.728353" y="72.539216" style="fill: #b0c4de; fill-opacity: 0.5"/>
     <use xlink:href="#mbf61764059" x="56.588884" y="84.343945" style="fill: #b0c4de; fill-opacity: 0.5"/>
     <use xlink:href="#mbf61764059" x="48.053026" y="89.804628" style="fill: #b0c4de; fill-opacity: 0.5"/>
     <use xlink:href="#mbf61764059" x="114.12951" y="41.753094" style="fill: #b0c4de; fill-opacity: 0.5"/>
     <use xlink:href="#mbf61764059" x="120.051508" y="41.753094" style="fill: #b0c4de; fill-opacity: 0.5"/>
     <use xlink:href="#mbf61764059" x="116.076881" y="41.753094" style="fill: #b0c4de; fill-opacity: 0.5"/>
     <use xlink:href="#mbf61764059" x="119.013393" y="41.753094" style="fill: #b0c4de; fill-opacity: 0.5"/>
     <use xlink:href="#mbf61764059" x="108.948814" y="36.345504" style="fill: #b0c4de; fill-opacity: 0.5"/>
     <use xlink:href="#mbf61764059" x="100.534532" y="56.725079" style="fill: #b0c4de; fill-opacity: 0.5"/>
     <use xlink:href="#mbf61764059" x="122.341592" y="21.718067" style="fill: #b0c4de; fill-opacity: 0.5"/>
     <use xlink:href="#mbf61764059" x="132.129954" y="21.718067" style="fill: #b0c4de; fill-opacity: 0.5"/>
     <use xlink:href="#mbf61764059" x="127.838136" y="-1" style="fill: #b0c4de; fill-opacity: 0.5"/>
     <use xlink:href="#mbf61764059" x="123.622858" y="-1" style="fill: #b0c4de; fill-opacity: 0.5"/>
     <use xlink:href="#mbf61764059" x="123.659688" y="21.718067" style="fill: #b0c4de; fill-opacity: 0.5"/>
     <use xlink:href="#mbf61764059" x="124.977361" y="21.718067" style="fill: #b0c4de; fill-opacity: 0.5"/>
     <use xlink:href="#mbf61764059" x="64.778983" y="79.900517" style="fill: #b0c4de; fill-opacity: 0.5"/>
     <use xlink:href="#mbf61764059" x="53.914231" y="65.330702" style="fill: #b0c4de; fill-opacity: 0.5"/>
     <use xlink:href="#mbf61764059" x="52.510826" y="90.296171" style="fill: #b0c4de; fill-opacity: 0.5"/>
     <use xlink:href="#mbf61764059" x="48.066778" y="87.63442" style="fill: #b0c4de; fill-opacity: 0.5"/>
     <use xlink:href="#mbf61764059" x="49.209235" y="86.732983" style="fill: #b0c4de; fill-opacity: 0.5"/>
     <use xlink:href="#mbf61764059" x="49.973494" y="87.689324" style="fill: #b0c4de; fill-opacity: 0.5"/>
     <use xlink:href="#mbf61764059" x="41.824368" y="85.294653" style="fill: #b0c4de; fill-opacity: 0.5"/>
     <use xlink:href="#mbf61764059" x="46.088446" y="87.51474" style="fill: #b0c4de; fill-opacity: 0.5"/>
     <use xlink:href="#mbf61764059" x="51.147454" y="88.537535" style="fill: #b0c4de; fill-opacity: 0.5"/>
     <use xlink:href="#mbf61764059" x="59.068351" y="84.077153" style="fill: #b0c4de; fill-opacity: 0.5"/>
     <use xlink:href="#mbf61764059" x="134.007714" y="66.035755" style="fill: #b0c4de; fill-opacity: 0.5"/>
     <use xlink:href="#mbf61764059" x="122.716949" y="61.84682" style="fill: #b0c4de; fill-opacity: 0.5"/>
     <use xlink:href="#mbf61764059" x="60.792034" y="82.670787" style="fill: #b0c4de; fill-opacity: 0.5"/>
     <use xlink:href="#mbf61764059" x="59.671229" y="66.969084" style="fill: #b0c4de; fill-opacity: 0.5"/>
     <use xlink:href="#mbf61764059" x="103.63488" y="46.327755" style="fill: #b0c4de; fill-opacity: 0.5"/>
     <use xlink:href="#mbf61764059" x="94.962047" y="21.718067" style="fill: #b0c4de; fill-opacity: 0.5"/>
     <use xlink:href="#mbf61764059" x="87.319882" y="39.551635" style="fill: #b0c4de; fill-opacity: 0.5"/>
    </g>
   </g>
   <g id="matplotlib.axis_1">
    <g id="xtick_1">
     <g id="line2d_1">
      <path d="M 40.62 130.89874 
L 40.62 10.8 
" clip-path="url(#p59e0d96d43)" style="fill: none; stroke: #a9a9a9; stroke-opacity: 0.7; stroke-width: 0.5; stroke-linecap: square"/>
     </g>
     <g id="line2d_2">
      <defs>
       <path id="m61ab9487bc" d="M 0 0 
L 0 2.5 
" style="stroke: #000000; stroke-width: 0.5"/>
      </defs>
      <g>
       <use xlink:href="#m61ab9487bc" x="40.62" y="130.89874" style="stroke: #000000; stroke-width: 0.5"/>
      </g>
     </g>
     <g id="text_1">
      <!-- 0.0 -->
      <g transform="translate(34.365 140.840771) scale(0.09 -0.09)">
       <defs>
        <path id="ArialMT-30" d="M 266 2259 
Q 266 3072 433 3567 
Q 600 4063 929 4331 
Q 1259 4600 1759 4600 
Q 2128 4600 2406 4451 
Q 2684 4303 2865 4023 
Q 3047 3744 3150 3342 
Q 3253 2941 3253 2259 
Q 3253 1453 3087 958 
Q 2922 463 2592 192 
Q 2263 -78 1759 -78 
Q 1097 -78 719 397 
Q 266 969 266 2259 
z
M 844 2259 
Q 844 1131 1108 757 
Q 1372 384 1759 384 
Q 2147 384 2411 759 
Q 2675 1134 2675 2259 
Q 2675 3391 2411 3762 
Q 2147 4134 1753 4134 
Q 1366 4134 1134 3806 
Q 844 3388 844 2259 
z
" transform="scale(0.015625)"/>
        <path id="ArialMT-2e" d="M 581 0 
L 581 641 
L 1222 641 
L 1222 0 
L 581 0 
z
" transform="scale(0.015625)"/>
       </defs>
       <use xlink:href="#ArialMT-30"/>
       <use xlink:href="#ArialMT-2e" x="55.615234"/>
       <use xlink:href="#ArialMT-30" x="83.398438"/>
      </g>
     </g>
    </g>
    <g id="xtick_2">
     <g id="line2d_3">
      <path d="M 78.072913 130.89874 
L 78.072913 10.8 
" clip-path="url(#p59e0d96d43)" style="fill: none; stroke: #a9a9a9; stroke-opacity: 0.7; stroke-width: 0.5; stroke-linecap: square"/>
     </g>
     <g id="line2d_4">
      <g>
       <use xlink:href="#m61ab9487bc" x="78.072913" y="130.89874" style="stroke: #000000; stroke-width: 0.5"/>
      </g>
     </g>
     <g id="text_2">
      <!-- 0.2 -->
      <g transform="translate(71.817913 140.840771) scale(0.09 -0.09)">
       <defs>
        <path id="ArialMT-32" d="M 3222 541 
L 3222 0 
L 194 0 
Q 188 203 259 391 
Q 375 700 629 1000 
Q 884 1300 1366 1694 
Q 2113 2306 2375 2664 
Q 2638 3022 2638 3341 
Q 2638 3675 2398 3904 
Q 2159 4134 1775 4134 
Q 1369 4134 1125 3890 
Q 881 3647 878 3216 
L 300 3275 
Q 359 3922 746 4261 
Q 1134 4600 1788 4600 
Q 2447 4600 2831 4234 
Q 3216 3869 3216 3328 
Q 3216 3053 3103 2787 
Q 2991 2522 2730 2228 
Q 2469 1934 1863 1422 
Q 1356 997 1212 845 
Q 1069 694 975 541 
L 3222 541 
z
" transform="scale(0.015625)"/>
       </defs>
       <use xlink:href="#ArialMT-30"/>
       <use xlink:href="#ArialMT-2e" x="55.615234"/>
       <use xlink:href="#ArialMT-32" x="83.398438"/>
      </g>
     </g>
    </g>
    <g id="xtick_3">
     <g id="line2d_5">
      <path d="M 115.525827 130.89874 
L 115.525827 10.8 
" clip-path="url(#p59e0d96d43)" style="fill: none; stroke: #a9a9a9; stroke-opacity: 0.7; stroke-width: 0.5; stroke-linecap: square"/>
     </g>
     <g id="line2d_6">
      <g>
       <use xlink:href="#m61ab9487bc" x="115.525827" y="130.89874" style="stroke: #000000; stroke-width: 0.5"/>
      </g>
     </g>
     <g id="text_3">
      <!-- 0.4 -->
      <g transform="translate(109.270827 140.840771) scale(0.09 -0.09)">
       <defs>
        <path id="ArialMT-34" d="M 2069 0 
L 2069 1097 
L 81 1097 
L 81 1613 
L 2172 4581 
L 2631 4581 
L 2631 1613 
L 3250 1613 
L 3250 1097 
L 2631 1097 
L 2631 0 
L 2069 0 
z
M 2069 1613 
L 2069 3678 
L 634 1613 
L 2069 1613 
z
" transform="scale(0.015625)"/>
       </defs>
       <use xlink:href="#ArialMT-30"/>
       <use xlink:href="#ArialMT-2e" x="55.615234"/>
       <use xlink:href="#ArialMT-34" x="83.398438"/>
      </g>
     </g>
    </g>
    <g id="xtick_4">
     <g id="line2d_7">
      <path d="M 152.97874 130.89874 
L 152.97874 10.8 
" clip-path="url(#p59e0d96d43)" style="fill: none; stroke: #a9a9a9; stroke-opacity: 0.7; stroke-width: 0.5; stroke-linecap: square"/>
     </g>
     <g id="line2d_8">
      <g>
       <use xlink:href="#m61ab9487bc" x="152.97874" y="130.89874" style="stroke: #000000; stroke-width: 0.5"/>
      </g>
     </g>
     <g id="text_4">
      <!-- 0.6 -->
      <g transform="translate(146.72374 140.840771) scale(0.09 -0.09)">
       <defs>
        <path id="ArialMT-36" d="M 3184 3459 
L 2625 3416 
Q 2550 3747 2413 3897 
Q 2184 4138 1850 4138 
Q 1581 4138 1378 3988 
Q 1113 3794 959 3422 
Q 806 3050 800 2363 
Q 1003 2672 1297 2822 
Q 1591 2972 1913 2972 
Q 2475 2972 2870 2558 
Q 3266 2144 3266 1488 
Q 3266 1056 3080 686 
Q 2894 316 2569 119 
Q 2244 -78 1831 -78 
Q 1128 -78 684 439 
Q 241 956 241 2144 
Q 241 3472 731 4075 
Q 1159 4600 1884 4600 
Q 2425 4600 2770 4297 
Q 3116 3994 3184 3459 
z
M 888 1484 
Q 888 1194 1011 928 
Q 1134 663 1356 523 
Q 1578 384 1822 384 
Q 2178 384 2434 671 
Q 2691 959 2691 1453 
Q 2691 1928 2437 2201 
Q 2184 2475 1800 2475 
Q 1419 2475 1153 2201 
Q 888 1928 888 1484 
z
" transform="scale(0.015625)"/>
       </defs>
       <use xlink:href="#ArialMT-30"/>
       <use xlink:href="#ArialMT-2e" x="55.615234"/>
       <use xlink:href="#ArialMT-36" x="83.398438"/>
      </g>
     </g>
    </g>
    <g id="xtick_5">
     <g id="line2d_9">
      <path d="M 59.346457 130.89874 
L 59.346457 10.8 
" clip-path="url(#p59e0d96d43)" style="fill: none; stroke: #d3d3d3; stroke-opacity: 0.5; stroke-width: 0.3; stroke-linecap: square"/>
     </g>
     <g id="line2d_10">
      <defs>
       <path id="mbd3004a904" d="M 0 0 
L 0 1 
" style="stroke: #000000; stroke-width: 0.3"/>
      </defs>
      <g>
       <use xlink:href="#mbd3004a904" x="59.346457" y="130.89874" style="stroke: #000000; stroke-width: 0.3"/>
      </g>
     </g>
    </g>
    <g id="xtick_6">
     <g id="line2d_11">
      <path d="M 96.79937 130.89874 
L 96.79937 10.8 
" clip-path="url(#p59e0d96d43)" style="fill: none; stroke: #d3d3d3; stroke-opacity: 0.5; stroke-width: 0.3; stroke-linecap: square"/>
     </g>
     <g id="line2d_12">
      <g>
       <use xlink:href="#mbd3004a904" x="96.79937" y="130.89874" style="stroke: #000000; stroke-width: 0.3"/>
      </g>
     </g>
    </g>
    <g id="xtick_7">
     <g id="line2d_13">
      <path d="M 134.252283 130.89874 
L 134.252283 10.8 
" clip-path="url(#p59e0d96d43)" style="fill: none; stroke: #d3d3d3; stroke-opacity: 0.5; stroke-width: 0.3; stroke-linecap: square"/>
     </g>
     <g id="line2d_14">
      <g>
       <use xlink:href="#mbd3004a904" x="134.252283" y="130.89874" style="stroke: #000000; stroke-width: 0.3"/>
      </g>
     </g>
    </g>
    <g id="text_5">
     <!-- $\Delta\sigma$ macro (MPa) -->
     <g transform="translate(59.89937 153.929521) scale(0.1 -0.1)">
      <defs>
       <path id="DejaVuSans-394" d="M 2188 4044 
L 906 525 
L 3472 525 
L 2188 4044 
z
M 50 0 
L 1831 4666 
L 2547 4666 
L 4325 0 
L 50 0 
z
" transform="scale(0.015625)"/>
       <path id="DejaVuSans-Oblique-3c3" d="M 2219 3044 
Q 1744 3044 1422 2700 
Q 1081 2341 969 1747 
Q 844 1119 1044 756 
Q 1241 397 1706 397 
Q 2166 397 2503 759 
Q 2844 1122 2966 1747 
Q 3075 2319 2881 2700 
Q 2700 3044 2219 3044 
z
M 2309 3503 
L 4219 3500 
L 4106 2925 
L 3463 2925 
Q 3706 2438 3575 1747 
Q 3406 888 2884 400 
Q 2359 -91 1609 -91 
Q 856 -91 525 400 
Q 194 888 363 1747 
Q 528 2609 1050 3097 
Q 1484 3503 2309 3503 
z
" transform="scale(0.015625)"/>
       <path id="ArialMT-20" transform="scale(0.015625)"/>
       <path id="ArialMT-6d" d="M 422 0 
L 422 3319 
L 925 3319 
L 925 2853 
Q 1081 3097 1340 3245 
Q 1600 3394 1931 3394 
Q 2300 3394 2536 3241 
Q 2772 3088 2869 2813 
Q 3263 3394 3894 3394 
Q 4388 3394 4653 3120 
Q 4919 2847 4919 2278 
L 4919 0 
L 4359 0 
L 4359 2091 
Q 4359 2428 4304 2576 
Q 4250 2725 4106 2815 
Q 3963 2906 3769 2906 
Q 3419 2906 3187 2673 
Q 2956 2441 2956 1928 
L 2956 0 
L 2394 0 
L 2394 2156 
Q 2394 2531 2256 2718 
Q 2119 2906 1806 2906 
Q 1569 2906 1367 2781 
Q 1166 2656 1075 2415 
Q 984 2175 984 1722 
L 984 0 
L 422 0 
z
" transform="scale(0.015625)"/>
       <path id="ArialMT-61" d="M 2588 409 
Q 2275 144 1986 34 
Q 1697 -75 1366 -75 
Q 819 -75 525 192 
Q 231 459 231 875 
Q 231 1119 342 1320 
Q 453 1522 633 1644 
Q 813 1766 1038 1828 
Q 1203 1872 1538 1913 
Q 2219 1994 2541 2106 
Q 2544 2222 2544 2253 
Q 2544 2597 2384 2738 
Q 2169 2928 1744 2928 
Q 1347 2928 1158 2789 
Q 969 2650 878 2297 
L 328 2372 
Q 403 2725 575 2942 
Q 747 3159 1072 3276 
Q 1397 3394 1825 3394 
Q 2250 3394 2515 3294 
Q 2781 3194 2906 3042 
Q 3031 2891 3081 2659 
Q 3109 2516 3109 2141 
L 3109 1391 
Q 3109 606 3145 398 
Q 3181 191 3288 0 
L 2700 0 
Q 2613 175 2588 409 
z
M 2541 1666 
Q 2234 1541 1622 1453 
Q 1275 1403 1131 1340 
Q 988 1278 909 1158 
Q 831 1038 831 891 
Q 831 666 1001 516 
Q 1172 366 1500 366 
Q 1825 366 2078 508 
Q 2331 650 2450 897 
Q 2541 1088 2541 1459 
L 2541 1666 
z
" transform="scale(0.015625)"/>
       <path id="ArialMT-63" d="M 2588 1216 
L 3141 1144 
Q 3050 572 2676 248 
Q 2303 -75 1759 -75 
Q 1078 -75 664 370 
Q 250 816 250 1647 
Q 250 2184 428 2587 
Q 606 2991 970 3192 
Q 1334 3394 1763 3394 
Q 2303 3394 2647 3120 
Q 2991 2847 3088 2344 
L 2541 2259 
Q 2463 2594 2264 2762 
Q 2066 2931 1784 2931 
Q 1359 2931 1093 2626 
Q 828 2322 828 1663 
Q 828 994 1084 691 
Q 1341 388 1753 388 
Q 2084 388 2306 591 
Q 2528 794 2588 1216 
z
" transform="scale(0.015625)"/>
       <path id="ArialMT-72" d="M 416 0 
L 416 3319 
L 922 3319 
L 922 2816 
Q 1116 3169 1280 3281 
Q 1444 3394 1641 3394 
Q 1925 3394 2219 3213 
L 2025 2691 
Q 1819 2813 1613 2813 
Q 1428 2813 1281 2702 
Q 1134 2591 1072 2394 
Q 978 2094 978 1738 
L 978 0 
L 416 0 
z
" transform="scale(0.015625)"/>
       <path id="ArialMT-6f" d="M 213 1659 
Q 213 2581 725 3025 
Q 1153 3394 1769 3394 
Q 2453 3394 2887 2945 
Q 3322 2497 3322 1706 
Q 3322 1066 3130 698 
Q 2938 331 2570 128 
Q 2203 -75 1769 -75 
Q 1072 -75 642 372 
Q 213 819 213 1659 
z
M 791 1659 
Q 791 1022 1069 705 
Q 1347 388 1769 388 
Q 2188 388 2466 706 
Q 2744 1025 2744 1678 
Q 2744 2294 2464 2611 
Q 2184 2928 1769 2928 
Q 1347 2928 1069 2612 
Q 791 2297 791 1659 
z
" transform="scale(0.015625)"/>
       <path id="ArialMT-28" d="M 1497 -1347 
Q 1031 -759 709 28 
Q 388 816 388 1659 
Q 388 2403 628 3084 
Q 909 3875 1497 4659 
L 1900 4659 
Q 1522 4009 1400 3731 
Q 1209 3300 1100 2831 
Q 966 2247 966 1656 
Q 966 153 1900 -1347 
L 1497 -1347 
z
" transform="scale(0.015625)"/>
       <path id="ArialMT-4d" d="M 475 0 
L 475 4581 
L 1388 4581 
L 2472 1338 
Q 2622 884 2691 659 
Q 2769 909 2934 1394 
L 4031 4581 
L 4847 4581 
L 4847 0 
L 4263 0 
L 4263 3834 
L 2931 0 
L 2384 0 
L 1059 3900 
L 1059 0 
L 475 0 
z
" transform="scale(0.015625)"/>
       <path id="ArialMT-50" d="M 494 0 
L 494 4581 
L 2222 4581 
Q 2678 4581 2919 4538 
Q 3256 4481 3484 4323 
Q 3713 4166 3852 3881 
Q 3991 3597 3991 3256 
Q 3991 2672 3619 2267 
Q 3247 1863 2275 1863 
L 1100 1863 
L 1100 0 
L 494 0 
z
M 1100 2403 
L 2284 2403 
Q 2872 2403 3119 2622 
Q 3366 2841 3366 3238 
Q 3366 3525 3220 3729 
Q 3075 3934 2838 4000 
Q 2684 4041 2272 4041 
L 1100 4041 
L 1100 2403 
z
" transform="scale(0.015625)"/>
       <path id="ArialMT-29" d="M 791 -1347 
L 388 -1347 
Q 1322 153 1322 1656 
Q 1322 2244 1188 2822 
Q 1081 3291 891 3722 
Q 769 4003 388 4659 
L 791 4659 
Q 1378 3875 1659 3084 
Q 1900 2403 1900 1659 
Q 1900 816 1576 28 
Q 1253 -759 791 -1347 
z
" transform="scale(0.015625)"/>
      </defs>
      <use xlink:href="#DejaVuSans-394" transform="translate(0 0.09375)"/>
      <use xlink:href="#DejaVuSans-Oblique-3c3" transform="translate(68.408203 0.09375)"/>
      <use xlink:href="#ArialMT-20" transform="translate(131.787109 0.09375)"/>
      <use xlink:href="#ArialMT-6d" transform="translate(159.570312 0.09375)"/>
      <use xlink:href="#ArialMT-61" transform="translate(242.871094 0.09375)"/>
      <use xlink:href="#ArialMT-63" transform="translate(298.486328 0.09375)"/>
      <use xlink:href="#ArialMT-72" transform="translate(348.486328 0.09375)"/>
      <use xlink:href="#ArialMT-6f" transform="translate(381.787109 0.09375)"/>
      <use xlink:href="#ArialMT-20" transform="translate(437.402344 0.09375)"/>
      <use xlink:href="#ArialMT-28" transform="translate(465.185547 0.09375)"/>
      <use xlink:href="#ArialMT-4d" transform="translate(498.486328 0.09375)"/>
      <use xlink:href="#ArialMT-50" transform="translate(581.787109 0.09375)"/>
      <use xlink:href="#ArialMT-61" transform="translate(648.486328 0.09375)"/>
      <use xlink:href="#ArialMT-29" transform="translate(704.101562 0.09375)"/>
     </g>
    </g>
   </g>
   <g id="matplotlib.axis_2">
    <g id="ytick_1">
     <g id="line2d_15">
      <path d="M 40.62 130.89874 
L 152.97874 130.89874 
" clip-path="url(#p59e0d96d43)" style="fill: none; stroke: #a9a9a9; stroke-opacity: 0.7; stroke-width: 0.5; stroke-linecap: square"/>
     </g>
     <g id="line2d_16">
      <defs>
       <path id="m7f22345a7c" d="M 0 0 
L -2.5 0 
" style="stroke: #000000; stroke-width: 0.5"/>
      </defs>
      <g>
       <use xlink:href="#m7f22345a7c" x="40.62" y="130.89874" style="stroke: #000000; stroke-width: 0.5"/>
      </g>
     </g>
     <g id="text_6">
      <!-- 0 -->
      <g transform="translate(32.115156 134.119756) scale(0.09 -0.09)">
       <use xlink:href="#ArialMT-30"/>
      </g>
     </g>
    </g>
    <g id="ytick_2">
     <g id="line2d_17">
      <path d="M 40.62 109.062606 
L 152.97874 109.062606 
" clip-path="url(#p59e0d96d43)" style="fill: none; stroke: #a9a9a9; stroke-opacity: 0.7; stroke-width: 0.5; stroke-linecap: square"/>
     </g>
     <g id="line2d_18">
      <g>
       <use xlink:href="#m7f22345a7c" x="40.62" y="109.062606" style="stroke: #000000; stroke-width: 0.5"/>
      </g>
     </g>
     <g id="text_7">
      <!-- 2 -->
      <g transform="translate(32.115156 112.283621) scale(0.09 -0.09)">
       <use xlink:href="#ArialMT-32"/>
      </g>
     </g>
    </g>
    <g id="ytick_3">
     <g id="line2d_19">
      <path d="M 40.62 87.226471 
L 152.97874 87.226471 
" clip-path="url(#p59e0d96d43)" style="fill: none; stroke: #a9a9a9; stroke-opacity: 0.7; stroke-width: 0.5; stroke-linecap: square"/>
     </g>
     <g id="line2d_20">
      <g>
       <use xlink:href="#m7f22345a7c" x="40.62" y="87.226471" style="stroke: #000000; stroke-width: 0.5"/>
      </g>
     </g>
     <g id="text_8">
      <!-- 4 -->
      <g transform="translate(32.115156 90.447487) scale(0.09 -0.09)">
       <use xlink:href="#ArialMT-34"/>
      </g>
     </g>
    </g>
    <g id="ytick_4">
     <g id="line2d_21">
      <path d="M 40.62 65.390336 
L 152.97874 65.390336 
" clip-path="url(#p59e0d96d43)" style="fill: none; stroke: #a9a9a9; stroke-opacity: 0.7; stroke-width: 0.5; stroke-linecap: square"/>
     </g>
     <g id="line2d_22">
      <g>
       <use xlink:href="#m7f22345a7c" x="40.62" y="65.390336" style="stroke: #000000; stroke-width: 0.5"/>
      </g>
     </g>
     <g id="text_9">
      <!-- 6 -->
      <g transform="translate(32.115156 68.611352) scale(0.09 -0.09)">
       <use xlink:href="#ArialMT-36"/>
      </g>
     </g>
    </g>
    <g id="ytick_5">
     <g id="line2d_23">
      <path d="M 40.62 43.554202 
L 152.97874 43.554202 
" clip-path="url(#p59e0d96d43)" style="fill: none; stroke: #a9a9a9; stroke-opacity: 0.7; stroke-width: 0.5; stroke-linecap: square"/>
     </g>
     <g id="line2d_24">
      <g>
       <use xlink:href="#m7f22345a7c" x="40.62" y="43.554202" style="stroke: #000000; stroke-width: 0.5"/>
      </g>
     </g>
     <g id="text_10">
      <!-- 8 -->
      <g transform="translate(32.115156 46.775217) scale(0.09 -0.09)">
       <defs>
        <path id="ArialMT-38" d="M 1131 2484 
Q 781 2613 612 2850 
Q 444 3088 444 3419 
Q 444 3919 803 4259 
Q 1163 4600 1759 4600 
Q 2359 4600 2725 4251 
Q 3091 3903 3091 3403 
Q 3091 3084 2923 2848 
Q 2756 2613 2416 2484 
Q 2838 2347 3058 2040 
Q 3278 1734 3278 1309 
Q 3278 722 2862 322 
Q 2447 -78 1769 -78 
Q 1091 -78 675 323 
Q 259 725 259 1325 
Q 259 1772 486 2073 
Q 713 2375 1131 2484 
z
M 1019 3438 
Q 1019 3113 1228 2906 
Q 1438 2700 1772 2700 
Q 2097 2700 2305 2904 
Q 2513 3109 2513 3406 
Q 2513 3716 2298 3927 
Q 2084 4138 1766 4138 
Q 1444 4138 1231 3931 
Q 1019 3725 1019 3438 
z
M 838 1322 
Q 838 1081 952 856 
Q 1066 631 1291 507 
Q 1516 384 1775 384 
Q 2178 384 2440 643 
Q 2703 903 2703 1303 
Q 2703 1709 2433 1975 
Q 2163 2241 1756 2241 
Q 1359 2241 1098 1978 
Q 838 1716 838 1322 
z
" transform="scale(0.015625)"/>
       </defs>
       <use xlink:href="#ArialMT-38"/>
      </g>
     </g>
    </g>
    <g id="ytick_6">
     <g id="line2d_25">
      <path d="M 40.62 21.718067 
L 152.97874 21.718067 
" clip-path="url(#p59e0d96d43)" style="fill: none; stroke: #a9a9a9; stroke-opacity: 0.7; stroke-width: 0.5; stroke-linecap: square"/>
     </g>
     <g id="line2d_26">
      <g>
       <use xlink:href="#m7f22345a7c" x="40.62" y="21.718067" style="stroke: #000000; stroke-width: 0.5"/>
      </g>
     </g>
     <g id="text_11">
      <!-- 10 -->
      <g transform="translate(27.110313 24.939083) scale(0.09 -0.09)">
       <defs>
        <path id="ArialMT-31" d="M 2384 0 
L 1822 0 
L 1822 3584 
Q 1619 3391 1289 3197 
Q 959 3003 697 2906 
L 697 3450 
Q 1169 3672 1522 3987 
Q 1875 4303 2022 4600 
L 2384 4600 
L 2384 0 
z
" transform="scale(0.015625)"/>
       </defs>
       <use xlink:href="#ArialMT-31"/>
       <use xlink:href="#ArialMT-30" x="55.615234"/>
      </g>
     </g>
    </g>
    <g id="ytick_7">
     <g id="line2d_27">
      <path d="M 40.62 119.980673 
L 152.97874 119.980673 
" clip-path="url(#p59e0d96d43)" style="fill: none; stroke: #d3d3d3; stroke-opacity: 0.5; stroke-width: 0.3; stroke-linecap: square"/>
     </g>
     <g id="line2d_28">
      <defs>
       <path id="m5afa891d33" d="M 0 0 
L -1 0 
" style="stroke: #000000; stroke-width: 0.3"/>
      </defs>
      <g>
       <use xlink:href="#m5afa891d33" x="40.62" y="119.980673" style="stroke: #000000; stroke-width: 0.3"/>
      </g>
     </g>
    </g>
    <g id="ytick_8">
     <g id="line2d_29">
      <path d="M 40.62 98.144538 
L 152.97874 98.144538 
" clip-path="url(#p59e0d96d43)" style="fill: none; stroke: #d3d3d3; stroke-opacity: 0.5; stroke-width: 0.3; stroke-linecap: square"/>
     </g>
     <g id="line2d_30">
      <g>
       <use xlink:href="#m5afa891d33" x="40.62" y="98.144538" style="stroke: #000000; stroke-width: 0.3"/>
      </g>
     </g>
    </g>
    <g id="ytick_9">
     <g id="line2d_31">
      <path d="M 40.62 76.308404 
L 152.97874 76.308404 
" clip-path="url(#p59e0d96d43)" style="fill: none; stroke: #d3d3d3; stroke-opacity: 0.5; stroke-width: 0.3; stroke-linecap: square"/>
     </g>
     <g id="line2d_32">
      <g>
       <use xlink:href="#m5afa891d33" x="40.62" y="76.308404" style="stroke: #000000; stroke-width: 0.3"/>
      </g>
     </g>
    </g>
    <g id="ytick_10">
     <g id="line2d_33">
      <path d="M 40.62 54.472269 
L 152.97874 54.472269 
" clip-path="url(#p59e0d96d43)" style="fill: none; stroke: #d3d3d3; stroke-opacity: 0.5; stroke-width: 0.3; stroke-linecap: square"/>
     </g>
     <g id="line2d_34">
      <g>
       <use xlink:href="#m5afa891d33" x="40.62" y="54.472269" style="stroke: #000000; stroke-width: 0.3"/>
      </g>
     </g>
    </g>
    <g id="ytick_11">
     <g id="line2d_35">
      <path d="M 40.62 32.636135 
L 152.97874 32.636135 
" clip-path="url(#p59e0d96d43)" style="fill: none; stroke: #d3d3d3; stroke-opacity: 0.5; stroke-width: 0.3; stroke-linecap: square"/>
     </g>
     <g id="line2d_36">
      <g>
       <use xlink:href="#m5afa891d33" x="40.62" y="32.636135" style="stroke: #000000; stroke-width: 0.3"/>
      </g>
     </g>
    </g>
    <g id="ytick_12">
     <g id="line2d_37">
      <path d="M 40.62 10.8 
L 152.97874 10.8 
" clip-path="url(#p59e0d96d43)" style="fill: none; stroke: #d3d3d3; stroke-opacity: 0.5; stroke-width: 0.3; stroke-linecap: square"/>
     </g>
     <g id="line2d_38">
      <g>
       <use xlink:href="#m5afa891d33" x="40.62" y="10.8" style="stroke: #000000; stroke-width: 0.3"/>
      </g>
     </g>
    </g>
    <g id="text_12">
     <!-- $\ell$ (m) -->
     <g transform="translate(20.910313 81.79937) rotate(-90) scale(0.1 -0.1)">
      <defs>
       <path id="DejaVuSans-Oblique-2113" d="M 950 838 
Q 1078 213 1350 213 
Q 1531 213 1766 572 
L 2181 572 
Q 1994 253 1775 88 
Q 1538 -91 1319 -91 
Q 831 -91 634 344 
L 400 0 
L -88 0 
Q 250 459 500 888 
Q 469 1131 469 1397 
Q 469 1872 566 2347 
Q 931 4131 1256 4497 
Q 1481 4750 1866 4750 
Q 2256 4750 2256 4209 
Q 2253 3966 2197 3675 
Q 1972 2484 950 838 
z
M 947 1656 
Q 1531 2744 1709 3613 
Q 1803 4072 1803 4191 
Q 1803 4406 1725 4406 
Q 1384 4134 1081 2516 
Q 997 2063 947 1656 
z
" transform="scale(0.015625)"/>
      </defs>
      <use xlink:href="#DejaVuSans-Oblique-2113" transform="translate(0 0.78125)"/>
      <use xlink:href="#ArialMT-20" transform="translate(41.308594 0.78125)"/>
      <use xlink:href="#ArialMT-28" transform="translate(69.091797 0.78125)"/>
      <use xlink:href="#ArialMT-6d" transform="translate(102.392578 0.78125)"/>
      <use xlink:href="#ArialMT-29" transform="translate(185.693359 0.78125)"/>
     </g>
    </g>
   </g>
   <g id="LineCollection_1">
    <path d="M 96.015953 39.983539 
L 119.752076 39.983539 
" clip-path="url(#p59e0d96d43)" style="fill: none; stroke: #808080; stroke-width: 0.5"/>
    <path d="M 60.030184 66.623827 
L 104.943121 66.623827 
" clip-path="url(#p59e0d96d43)" style="fill: none; stroke: #808080; stroke-width: 0.5"/>
    <path d="M 49.163259 79.424689 
L 69.605073 79.424689 
" clip-path="url(#p59e0d96d43)" style="fill: none; stroke: #808080; stroke-width: 0.5"/>
    <path d="M 44.614708 85.32546 
L 60.247587 85.32546 
" clip-path="url(#p59e0d96d43)" style="fill: none; stroke: #808080; stroke-width: 0.5"/>
   </g>
   <g id="LineCollection_2">
    <path d="M 107.884014 46.052117 
L 107.884014 33.914962 
" clip-path="url(#p59e0d96d43)" style="fill: none; stroke: #808080; stroke-width: 0.5"/>
    <path d="M 82.486652 82.318252 
L 82.486652 50.929402 
" clip-path="url(#p59e0d96d43)" style="fill: none; stroke: #808080; stroke-width: 0.5"/>
    <path d="M 59.384166 91.292944 
L 59.384166 67.556433 
" clip-path="url(#p59e0d96d43)" style="fill: none; stroke: #808080; stroke-width: 0.5"/>
    <path d="M 52.431147 89.259306 
L 52.431147 81.391613 
" clip-path="url(#p59e0d96d43)" style="fill: none; stroke: #808080; stroke-width: 0.5"/>
   </g>
   <g id="line2d_39">
    <defs>
     <path id="m1f62a0a305" d="M 0 1.5 
L 0 -1.5 
" style="stroke: #808080; stroke-width: 0.5"/>
    </defs>
    <g clip-path="url(#p59e0d96d43)">
     <use xlink:href="#m1f62a0a305" x="96.015953" y="39.983539" style="fill: #808080; stroke: #808080; stroke-width: 0.5"/>
     <use xlink:href="#m1f62a0a305" x="60.030184" y="66.623827" style="fill: #808080; stroke: #808080; stroke-width: 0.5"/>
     <use xlink:href="#m1f62a0a305" x="49.163259" y="79.424689" style="fill: #808080; stroke: #808080; stroke-width: 0.5"/>
     <use xlink:href="#m1f62a0a305" x="44.614708" y="85.32546" style="fill: #808080; stroke: #808080; stroke-width: 0.5"/>
    </g>
   </g>
   <g id="line2d_40">
    <g clip-path="url(#p59e0d96d43)">
     <use xlink:href="#m1f62a0a305" x="119.752076" y="39.983539" style="fill: #808080; stroke: #808080; stroke-width: 0.5"/>
     <use xlink:href="#m1f62a0a305" x="104.943121" y="66.623827" style="fill: #808080; stroke: #808080; stroke-width: 0.5"/>
     <use xlink:href="#m1f62a0a305" x="69.605073" y="79.424689" style="fill: #808080; stroke: #808080; stroke-width: 0.5"/>
     <use xlink:href="#m1f62a0a305" x="60.247587" y="85.32546" style="fill: #808080; stroke: #808080; stroke-width: 0.5"/>
    </g>
   </g>
   <g id="line2d_41">
    <defs>
     <path id="md5c6c89548" d="M 1.5 0 
L -1.5 -0 
" style="stroke: #808080; stroke-width: 0.5"/>
    </defs>
    <g clip-path="url(#p59e0d96d43)">
     <use xlink:href="#md5c6c89548" x="107.884014" y="46.052117" style="fill: #808080; stroke: #808080; stroke-width: 0.5"/>
     <use xlink:href="#md5c6c89548" x="82.486652" y="82.318252" style="fill: #808080; stroke: #808080; stroke-width: 0.5"/>
     <use xlink:href="#md5c6c89548" x="59.384166" y="91.292944" style="fill: #808080; stroke: #808080; stroke-width: 0.5"/>
     <use xlink:href="#md5c6c89548" x="52.431147" y="89.259306" style="fill: #808080; stroke: #808080; stroke-width: 0.5"/>
    </g>
   </g>
   <g id="line2d_42">
    <g clip-path="url(#p59e0d96d43)">
     <use xlink:href="#md5c6c89548" x="107.884014" y="33.914962" style="fill: #808080; stroke: #808080; stroke-width: 0.5"/>
     <use xlink:href="#md5c6c89548" x="82.486652" y="50.929402" style="fill: #808080; stroke: #808080; stroke-width: 0.5"/>
     <use xlink:href="#md5c6c89548" x="59.384166" y="67.556433" style="fill: #808080; stroke: #808080; stroke-width: 0.5"/>
     <use xlink:href="#md5c6c89548" x="52.431147" y="81.391613" style="fill: #808080; stroke: #808080; stroke-width: 0.5"/>
    </g>
   </g>
   <g id="PathCollection_2">
    <defs>
     <path id="m7fb92aa4ae" d="M -0 3.872983 
L 2.32379 0 
L 0 -3.872983 
L -2.32379 -0 
z
" style="stroke: #000000; stroke-width: 0.01"/>
    </defs>
    <g clip-path="url(#p59e0d96d43)">
     <use xlink:href="#m7fb92aa4ae" x="107.884014" y="39.983539" style="fill: #1e90ff; stroke: #000000; stroke-width: 0.01"/>
     <use xlink:href="#m7fb92aa4ae" x="82.486652" y="66.623827" style="fill: #1e90ff; stroke: #000000; stroke-width: 0.01"/>
     <use xlink:href="#m7fb92aa4ae" x="59.384166" y="79.424689" style="fill: #1e90ff; stroke: #000000; stroke-width: 0.01"/>
     <use xlink:href="#m7fb92aa4ae" x="52.431147" y="85.32546" style="fill: #1e90ff; stroke: #000000; stroke-width: 0.01"/>
    </g>
   </g>
   <g id="LineCollection_3">
    <path d="M 121.76397 38.78076 
L 130.641638 38.78076 
" clip-path="url(#p59e0d96d43)" style="fill: none; stroke: #808080; stroke-width: 0.5"/>
   </g>
   <g id="LineCollection_4">
    <path d="M 126.202804 65.688091 
L 126.202804 11.873429 
" clip-path="url(#p59e0d96d43)" style="fill: none; stroke: #808080; stroke-width: 0.5"/>
   </g>
   <g id="line2d_43">
    <g clip-path="url(#p59e0d96d43)">
     <use xlink:href="#m1f62a0a305" x="121.76397" y="38.78076" style="fill: #808080; stroke: #808080; stroke-width: 0.5"/>
    </g>
   </g>
   <g id="line2d_44">
    <g clip-path="url(#p59e0d96d43)">
     <use xlink:href="#m1f62a0a305" x="130.641638" y="38.78076" style="fill: #808080; stroke: #808080; stroke-width: 0.5"/>
    </g>
   </g>
   <g id="line2d_45">
    <g clip-path="url(#p59e0d96d43)">
     <use xlink:href="#md5c6c89548" x="126.202804" y="65.688091" style="fill: #808080; stroke: #808080; stroke-width: 0.5"/>
    </g>
   </g>
   <g id="line2d_46">
    <g clip-path="url(#p59e0d96d43)">
     <use xlink:href="#md5c6c89548" x="126.202804" y="11.873429" style="fill: #808080; stroke: #808080; stroke-width: 0.5"/>
    </g>
   </g>
   <g id="PathCollection_3">
    <defs>
     <path id="ma46ac6ce4a" d="M 0 2.236068 
C 0.593012 2.236068 1.161816 2.000462 1.581139 1.581139 
C 2.000462 1.161816 2.236068 0.593012 2.236068 0 
C 2.236068 -0.593012 2.000462 -1.161816 1.581139 -1.581139 
C 1.161816 -2.000462 0.593012 -2.236068 0 -2.236068 
C -0.593012 -2.236068 -1.161816 -2.000462 -1.581139 -1.581139 
C -2.000462 -1.161816 -2.236068 -0.593012 -2.236068 0 
C -2.236068 0.593012 -2.000462 1.161816 -1.581139 1.581139 
C -1.161816 2.000462 -0.593012 2.236068 0 2.236068 
z
" style="stroke: #000000; stroke-width: 0.01"/>
    </defs>
    <g clip-path="url(#p59e0d96d43)">
     <use xlink:href="#ma46ac6ce4a" x="126.202804" y="38.78076" style="fill: #000080; stroke: #000000; stroke-width: 0.01"/>
    </g>
   </g>
   <g id="line2d_47"/>
   <g id="line2d_48"/>
   <g id="patch_3">
    <path d="M 40.62 130.89874 
L 40.62 10.8 
" style="fill: none; stroke: #000000; stroke-width: 0.5; stroke-linejoin: miter; stroke-linecap: square"/>
   </g>
   <g id="patch_4">
    <path d="M 152.97874 130.89874 
L 152.97874 10.8 
" style="fill: none; stroke: #000000; stroke-width: 0.5; stroke-linejoin: miter; stroke-linecap: square"/>
   </g>
   <g id="patch_5">
    <path d="M 40.62 130.89874 
L 152.97874 130.89874 
" style="fill: none; stroke: #000000; stroke-width: 0.5; stroke-linejoin: miter; stroke-linecap: square"/>
   </g>
   <g id="patch_6">
    <path d="M 40.62 10.8 
L 152.97874 10.8 
" style="fill: none; stroke: #000000; stroke-width: 0.5; stroke-linejoin: miter; stroke-linecap: square"/>
   </g>
  </g>
 </g>
 <defs>
  <clipPath id="p59e0d96d43">
   <rect x="40.62" y="10.8" width="112.35874" height="120.09874"/>
  </clipPath>
 </defs>
</svg>
